<svg xmlns="http://www.w3.org/2000/svg" width="42" height="40" viewBox="0 0 42 40">
  <metadata><?xpacket begin="﻿" id="W5M0MpCehiHzreSzNTczkc9d"?>
<x:xmpmeta xmlns:x="adobe:ns:meta/" x:xmptk="Adobe XMP Core 5.6-c138 79.159824, 2016/09/14-01:09:01        ">
   <rdf:RDF xmlns:rdf="http://www.w3.org/1999/02/22-rdf-syntax-ns#">
      <rdf:Description rdf:about=""/>
   </rdf:RDF>
</x:xmpmeta>
                                                                                                    
                                                                                                    
                                                                                                    
                                                                                                    
                                                                                                    
                                                                                                    
                                                                                                    
                                                                                                    
                                                                                                    
                                                                                                    
                                                                                                    
                                                                                                    
                                                                                                    
                                                                                                    
                                                                                                    
                                                                                                    
                                                                                                    
                                                                                                    
                                                                                                    
                                                                                                    
                           
<?xpacket end="w"?></metadata>
<defs>
    <style>
      .cls-1 {
        fill: #f93;
        fill-rule: evenodd;
      }
    </style>
  </defs>
  <path id="motorcycle-filters-ico" class="cls-1" d="M418.113,703.709A7.862,7.862,0,0,0,426,695.873a7.774,7.774,0,0,0-.2-1.739,0.749,0.749,0,0,0-.52-0.554,0.758,0.758,0,0,0-.754.187l-3.106,3.1-4.026-.3-0.3-4,3.113-3.094a0.745,0.745,0,0,0,0-1.06,0.754,0.754,0,0,0-.365-0.2,8.04,8.04,0,0,0-1.742-.2,7.829,7.829,0,0,0-7.554,10.084l-4.094,4.068-14.731-14.646a1.923,1.923,0,0,0-2.646,0l-4.524,4.494a1.851,1.851,0,0,0,0,2.628l0,0,14.709,14.684-3.423,3.4a7.357,7.357,0,0,0-1.779-.225,7.23,7.23,0,0,0-7.162,8.405,0.755,0.755,0,0,0,1.274.412l2.013-2,4.026,0.3,0.3,4-2.035,2a0.749,0.749,0,0,0,.452,1.274,7.356,7.356,0,0,0,1.176.1,7.251,7.251,0,0,0,7.245-7.259h0a7.235,7.235,0,0,0-.128-1.431l5.127-5.094,11.4,11.342a0.756,0.756,0,0,0,1.063,0l2.963-2.944a0.746,0.746,0,0,0,0-1.056l-11.414-11.342,5.8-5.761A8.051,8.051,0,0,0,418.113,703.709Zm-0.082-14.2-2.262,2.247a0.748,0.748,0,0,0-.219.585l0.37,4.989a0.751,0.751,0,0,0,.693.689l5.021,0.368a0.759,0.759,0,0,0,.588-0.218l2.262-2.247a6.282,6.282,0,0,1-1.855,4.42A6.379,6.379,0,1,1,418.031,689.512Zm-10.5,15.867a0.365,0.365,0,0,1,0,.509l-4.523,4.5a0.366,0.366,0,0,1-.513,0L400,707.9l5.067-5.035Zm-3.558-3.536-2.006,1.985-9.756-9.7,2-1.985ZM385.6,693.6a0.358,0.358,0,0,1,0-.508h0l4.524-4.5a0.362,0.362,0,0,1,.511,0h0l2.5,2.48-5.044,5.034Zm13.314,13.267-9.755-9.693,2-1.985,9.756,9.693Zm0.882,13.556a5.722,5.722,0,0,1-1.658,3.353l0.022,0.037a5.731,5.731,0,0,1-3.355,1.634l1.011-1a0.745,0.745,0,0,0,.218-0.584l-0.369-4.99a0.752,0.752,0,0,0-.694-0.689l-5.058-.375a0.756,0.756,0,0,0-.536.218l-1.04.966A5.774,5.774,0,0,1,399.793,720.425Zm0.875-3.682a7.227,7.227,0,0,0-3.28-3.4l2.941-2.921,1.078,1.079a1.879,1.879,0,0,0,2.644,0l0,0,0.264-.263,0.95,0.944Zm19.5,4.346-1.893,1.88-2.344-2.33,1.869-1.88Zm-3.408-3.386-1.892,1.88-9.492-9.432,1.87-1.88Zm-7.471-9.552-0.95-.944,0.256-.255a1.848,1.848,0,0,0,0-2.627,0,0,0,0,0,0,0l-1.078-1.064,3.656-3.633a7.85,7.85,0,0,0,3.416,3.266Z" transform="translate(-384 -687)"/>
</svg>
