<?xml version="1.0" standalone="no"?>
<!DOCTYPE svg PUBLIC "-//W3C//DTD SVG 1.1//EN" "http://www.w3.org/Graphics/SVG/1.1/DTD/svg11.dtd" >
<svg xmlns="http://www.w3.org/2000/svg" xmlns:xlink="http://www.w3.org/1999/xlink" version="1.1">
<metadata>
Created by FontForge 20160405 at Wed Jun 13 05:01:50 2018
 By www-data
Copyright (c)2015, HK Grotesk Pro Latin by Alfredo Marco Pradil (ammpradil@gmail.com). HK Grotesk Pro is a trademark of Alfredo Marco Pradil.
</metadata>
<defs>
<font id="HKGroteskPro-Regular" horiz-adv-x="0" >
  <font-face 
    font-family="HK Grotesk Pro"
    font-weight="400"
    font-stretch="normal"
    units-per-em="2048"
    panose-1="0 0 5 0 0 0 0 0 0 0"
    ascent="1434"
    descent="-614"
    x-height="999"
    cap-height="1413"
    bbox="-970 -516 2640 2240"
    underline-thickness="82"
    underline-position="-328"
    unicode-range="U+0020-FB02"
  />
<missing-glyph horiz-adv-x="1188" 
d="M179 959h830v-959h-830v959zM947 61v837h-706v-837h706z" />
    <glyph glyph-name="fi" unicode="fi" horiz-adv-x="1046" 
d="M868 0h-122v887h-401v-887h-131v887h-174v112h174v83q0 115 46 192.5t125 115.5t179 38q92 0 165 -24t139 -71l-63 -92q-103 79 -235 79q-111 0 -168 -58.5t-57 -181.5v-81h523v-999z" />
    <glyph glyph-name="fl" unicode="fl" horiz-adv-x="1111" 
d="M776.5 41.5q-41.5 56.5 -41.5 169.5v1054q-82 55 -184 55q-105 0 -159 -58.5t-54 -181.5v-81h223l-1 -112h-222v-887h-132v887h-166v112h166v83q0 115 44.5 192.5t121 115.5t173.5 38q92 0 161.5 -21t160.5 -76v-1086q0 -45 7.5 -75t31.5 -48t71 -18q31 0 81 10l2 -113
q-78 -16 -140 -16q-102 0 -143.5 56.5z" />
    <glyph glyph-name="f_f" unicode="ff" horiz-adv-x="1221" 
d="M214 887h-174v112h174v94q0 101 49.5 177t135.5 117t192 41q137 0 242 -65q79 65 207 65q77 0 154 -37l-44 -109q-56 28 -98 28q-172 0 -172 -168v-143h311v-112h-311v-887h-137v887h-398v-887h-131v887zM744 999v155q0 72 31 122q-77 44 -178 44q-118 0 -185 -62.5
t-67 -166.5v-92h399z" />
    <glyph glyph-name="f_f_i" unicode="ffi" horiz-adv-x="1582" 
d="M1407 0h-131v887h-400v-887h-133v887h-398v-887h-131v887h-174v112h174v94q0 101 49.5 177t135.5 117t192 41q72 0 139 -19t123 -58q47 38 108.5 57.5t133.5 19.5q92 0 165 -24t138 -71l-64 -92q-101 79 -233 79q-112 0 -168.5 -58t-56.5 -182v-81h531v-999zM743 1082
q0 110 43 187q-87 51 -189 51q-118 0 -185 -62.5t-67 -166.5v-92h398v83z" />
    <glyph glyph-name="f_f_l" unicode="ffl" horiz-adv-x="1663" 
d="M1318 41.5q-42 56.5 -42 169.5v1061q-78 48 -175 48q-112 0 -168.5 -58t-56.5 -182v-81h228v-112h-228v-887h-133v887h-398v-887h-131v887h-174v112h174v94q0 101 49.5 177t135.5 117t192 41q150 0 263 -76q45 38 107 57t134 19q92 0 166 -24t146 -74v-1085
q0 -46 7.5 -75.5t33 -47.5t76.5 -18q34 0 86 10l2 -113q-80 -16 -145 -16q-107 0 -149 56.5zM743 999v83q0 114 47 185q-87 53 -193 53q-118 0 -185 -62.5t-67 -166.5v-92h398z" />
    <glyph glyph-name="h_d_c_o.liga" unicode="hdco" horiz-adv-x="1810" 
d="M516.5 43q-177.5 104 -281.5 281.5t-104 388.5t104 388.5t281.5 281.5t388.5 104t388.5 -104t281.5 -281.5t104 -388.5t-104 -388.5t-281.5 -281.5t-388.5 -104t-388.5 104zM1257.5 104.5q161.5 94.5 256 256t94.5 352.5t-94.5 352.5t-256 255.5t-352.5 94t-352.5 -94
t-255.5 -255.5t-94 -352.5t94 -352.5t255.5 -256t352.5 -94.5t352.5 94.5zM477 419.5q-10 9.5 -10 24.5v537q0 15 10.5 26t24.5 11q15 0 26 -11t11 -26v-537q0 -15 -11 -24.5t-26 -9.5t-25 9.5zM880 419.5q-10 9.5 -10 24.5v537q0 15 10 26t25 11t25 -11t10 -26v-537
q0 -15 -9.5 -24.5t-25.5 -9.5q-15 0 -25 9.5zM1284 420l-270 268q-8 11 -8 25q0 16 8 24l266 263q12 15 30 15q14 0 23.5 -10t9.5 -24t-10 -25l-243 -243l243 -244q10 -10 10 -25q0 -13 -11 -23.5t-25 -10.5q-15 0 -23 10zM611.5 687.5q-9.5 9.5 -9.5 25.5q0 15 9.5 25
t25.5 10h133q16 0 26.5 -10t10.5 -25q0 -16 -10.5 -25.5t-26.5 -9.5h-133q-16 0 -25.5 9.5z" />
    <glyph glyph-name=".notdef" horiz-adv-x="1188" 
d="M179 959h830v-959h-830v959zM947 61v837h-706v-837h706z" />
    <glyph glyph-name=".null" 
 />
    <glyph glyph-name="nonmarkingreturn" horiz-adv-x="682" 
 />
    <glyph glyph-name="space" unicode=" " horiz-adv-x="523" 
 />
    <glyph glyph-name="exclam" unicode="!" horiz-adv-x="627" 
d="M248 1413h131l-14 -1015h-103zM242 220h143v-220h-143v220z" />
    <glyph glyph-name="quotedbl" unicode="&#x22;" horiz-adv-x="857" 
d="M213 1413h113v-445h-113v445zM531 1413h113v-445h-113v445z" />
    <glyph glyph-name="numbersign" unicode="#" horiz-adv-x="1421" 
d="M365 429h-249v96h269l80 388h-264v101h284l88 399h107l-86 -403h354l85 403h107l-87 -403h254v-97h-275l-82 -388h272v-96h-292l-89 -429h-107l90 429h-355l-88 -429h-107zM847 525l79 388h-355l-79 -388h355z" />
    <glyph glyph-name="dollar" unicode="$" horiz-adv-x="1149" 
d="M986 183.5q-56 -89.5 -154.5 -140.5t-220.5 -56v-247l-61 -2v250q-115 7 -211 54t-160.5 132t-83.5 201l136 34q19 -134 104 -210.5t215 -86.5v581q-119 47 -194 88.5t-126 111.5t-51 175q0 102 49 182t133.5 125.5t188.5 51.5v232h61v-232q247 -12 368 -226l-114 -71
q-44 80 -107 123.5t-147 50.5v-498l24 -9q132 -51 212.5 -94.5t137.5 -120.5t57 -194q0 -115 -56 -204.5zM376.5 932q60.5 -55 173.5 -102v475q-67 -5 -120.5 -36t-83.5 -82t-30 -113q0 -87 60.5 -142zM765.5 150q66.5 36 103 95t36.5 132q0 76 -38.5 129.5t-100 89.5
t-155.5 73v-559q88 4 154.5 40z" />
    <glyph glyph-name="percent" unicode="%" horiz-adv-x="1530" 
d="M261.5 837q-60.5 45 -91 117.5t-30.5 155.5q0 82 30 155t89 118t142 45q77 0 138 -41.5t95 -114t34 -163.5q0 -90 -33.5 -162.5t-93 -113.5t-133.5 -41q-86 0 -146.5 45zM1113 1413h96l-794 -1413h-97zM494 912.5q38 28.5 59.5 80t21.5 116.5q0 62 -20 114t-59.5 82.5
t-94.5 30.5q-56 0 -94 -32t-56.5 -83.5t-18.5 -110.5t19 -110.5t58.5 -83.5t98.5 -32q48 0 86 28.5zM983.5 30q-60.5 45 -91 117.5t-30.5 155.5q0 82 30 155.5t89 118.5t142 45q77 0 138 -41.5t95 -114.5t34 -164q0 -90 -33.5 -162.5t-93 -113.5t-134.5 -41q-85 0 -145.5 45
zM1216 105.5q38 28.5 59.5 80t21.5 116.5q0 62 -20 114t-59.5 82.5t-94.5 30.5q-56 0 -94 -32t-56.5 -83.5t-18.5 -110.5t19 -110.5t58 -83.5t98 -32q49 0 87 28.5z" />
    <glyph glyph-name="ampersand" unicode="&#x26;" horiz-adv-x="1415" 
d="M1194 -66l-190 222q-86 -83 -196.5 -127.5t-239.5 -44.5q-126 0 -224 40.5t-152.5 117t-54.5 181.5q0 104 47.5 182t122 133t182.5 111q-6 7 -61 68.5t-93 140t-38 147.5q0 94 50 167.5t134 113.5t182 40q94 0 173 -42t125 -115.5t46 -162.5q0 -90 -43.5 -159.5
t-112.5 -120.5t-171 -105l321 -372q83 141 95 338l129 -12q-9 -123 -44.5 -230t-95.5 -193l203 -235zM469 968q44 -69 108 -142l18 -22q94 49 154 89t97.5 92.5t37.5 118.5q0 60 -27.5 110t-77.5 78.5t-115 28.5q-68 0 -122.5 -27t-85.5 -76.5t-31 -114.5q0 -66 44 -135z
M765.5 136q91.5 39 160.5 112l-356 415q-97 -53 -161 -98.5t-104 -106t-40 -137.5q0 -105 81 -164.5t219 -59.5q109 0 200.5 39z" />
    <glyph glyph-name="quotesingle" unicode="'" horiz-adv-x="539" 
d="M213 1413h113v-445h-113v445z" />
    <glyph glyph-name="parenleft" unicode="(" horiz-adv-x="563" 
d="M245.5 102.5q-51.5 136.5 -78.5 280.5t-27 259q0 192 56.5 402.5t171.5 368.5h118q-79 -105 -131 -239.5t-77 -272t-25 -259.5q0 -116 28.5 -262t81 -282t121.5 -223h-118q-69 91 -120.5 227.5z" />
    <glyph glyph-name="parenright" unicode=")" horiz-adv-x="563" 
d="M79 -125q69 87 121.5 223t81 282t28.5 262q0 122 -25 259.5t-77 272t-131 239.5h118q115 -158 171.5 -368.5t56.5 -402.5q0 -115 -27 -259t-78.5 -280.5t-120.5 -227.5h-118z" />
    <glyph glyph-name="asterisk" unicode="*" horiz-adv-x="936" 
d="M232 924l175 187l-249 35l46 133l226 -100l-33 234h143l-34 -234l227 100l45 -133l-249 -35l174 -187l-117 -80l-118 233l-120 -233z" />
    <glyph glyph-name="plus" unicode="+" horiz-adv-x="1275" 
d="M587 574h-461v103h461v461h102v-461h460v-103h-460v-460h-102v460z" />
    <glyph glyph-name="comma" unicode="," horiz-adv-x="652" 
d="M368 262h151l-268 -577h-92z" />
    <glyph glyph-name="hyphen" unicode="-" horiz-adv-x="880" 
d="M170 674h540v-103h-540v103z" />
    <glyph glyph-name="period" unicode="." horiz-adv-x="627" 
d="M247 220h133v-220h-133v220z" />
    <glyph glyph-name="slash" unicode="/" horiz-adv-x="876" 
d="M736 1413h126l-723 -1840h-126z" />
    <glyph glyph-name="zero" unicode="0" horiz-adv-x="1147" 
d="M281.5 94.5q-111.5 109.5 -155 271.5t-43.5 341q0 180 42 342.5t150.5 272t293.5 109.5q172 0 284 -103t163.5 -268t51.5 -357q0 -189 -50 -352t-158.5 -264.5t-275.5 -101.5q-191 0 -302.5 109.5zM782.5 198.5q77.5 83.5 111 217t33.5 290.5q0 160 -34.5 293t-114.5 216
t-209 83q-195 0 -273 -171.5t-78 -419.5q0 -247 80.5 -419.5t282.5 -172.5q124 0 201.5 83.5z" />
    <glyph glyph-name="one" unicode="1" horiz-adv-x="1147" 
d="M740 1413v-1413h-135v1078h-355v107h240q60 0 90 25t30 81v122h130z" />
    <glyph glyph-name="two" unicode="2" horiz-adv-x="1147" 
d="M1067 125v-125h-986v125q217 135 380.5 263.5t278.5 289.5t115 338q0 132 -75 210t-212 78q-156 0 -236 -100.5t-82 -265.5l-134 8q0 138 53.5 247t155.5 171.5t242 62.5q127 0 223 -49t149 -142.5t53 -222.5q0 -176 -105.5 -342.5t-264 -302t-337.5 -243.5h782z" />
    <glyph glyph-name="three" unicode="3" horiz-adv-x="1147" 
d="M308 36q-112 51 -175.5 149.5t-63.5 235.5l131 7q0 -97 45.5 -168.5t128 -109.5t190.5 -38q103 0 185 35.5t128.5 103.5t46.5 160q0 163 -124 220t-306 56v114q166 -1 260 56.5t94 192.5q0 75 -37.5 131.5t-103 87.5t-147.5 31q-87 0 -154 -33t-104 -94t-37 -142l-130 8
q0 118 55.5 206t151.5 135.5t216 47.5q115 0 211.5 -45.5t153.5 -128t57 -189.5q0 -125 -77 -202t-203 -110q159 -28 257 -115.5t98 -237.5q0 -128 -65 -222t-177 -143.5t-251 -49.5q-142 0 -254 51z" />
    <glyph glyph-name="four" unicode="4" horiz-adv-x="1147" 
d="M1109 463v-126h-230v-337h-136v337h-707v88l718 988h125v-950h230zM743 463v748l-534 -748h534z" />
    <glyph glyph-name="five" unicode="5" horiz-adv-x="1147" 
d="M831.5 880.5q104.5 -62.5 165 -170.5t60.5 -238q0 -132 -65.5 -243.5t-177.5 -177.5t-246 -66q-116 0 -216 52t-168 144t-94 209l128 35q19 -90 66 -161.5t119.5 -112.5t164.5 -41q98 0 178 49.5t126 132.5t46 181q0 97 -42 176t-118.5 124.5t-174.5 45.5
q-92 0 -174.5 -44.5t-138.5 -126.5l-136 38l129 727h726v-127h-617l-82 -466q142 123 311 123q126 0 230.5 -62.5z" />
    <glyph glyph-name="six" unicode="6" horiz-adv-x="1147" 
d="M814 858.5q110 -63.5 175 -171t65 -233.5q0 -127 -64.5 -235t-174.5 -171t-240 -63t-240 63t-174.5 171t-64.5 235q0 71 21.5 137.5t61.5 124.5l416 697h156l-303 -508q62 17 127 17q129 0 239 -63.5zM747.5 159q79.5 46 126 124.5t46.5 170.5t-46.5 170t-126 124
t-172.5 46t-172.5 -46t-126 -124t-46.5 -170q0 -93 46.5 -171.5t125.5 -124t173 -45.5q93 0 172.5 46z" />
    <glyph glyph-name="seven" unicode="7" horiz-adv-x="1147" 
d="M1077 1413v-83l-692 -1330h-152l682 1287h-848v126h1010z" />
    <glyph glyph-name="eight" unicode="8" horiz-adv-x="1147" 
d="M339.5 32q-108.5 47 -175 139.5t-66.5 223.5q0 133 73 231.5t196 139.5q-88 42 -137.5 123t-49.5 186q0 109 56 189t146.5 122t191.5 42q109 0 199 -44.5t143 -126.5t53 -189q0 -101 -51 -181.5t-138 -120.5q124 -43 194 -141t70 -229q0 -132 -66 -225t-174 -139.5
t-232 -46.5t-232.5 47zM712 838.5q59 31.5 92.5 88.5t33.5 131q0 76 -33.5 134t-93 89.5t-134.5 31.5q-69 0 -129 -28.5t-96.5 -84t-36.5 -132.5q0 -78 33 -137t92.5 -91.5t137.5 -32.5q75 0 134 31.5zM740 137.5q77 34.5 122.5 103.5t45.5 168q0 91 -43 160.5t-119.5 107
t-174.5 37.5q-99 0 -176 -37.5t-120 -106.5t-43 -160q0 -99 46.5 -168.5t124 -104t168.5 -34.5q92 0 169 34.5z" />
    <glyph glyph-name="nine" unicode="9" horiz-adv-x="1147" 
d="M1043.5 821.5q-21.5 -66.5 -61.5 -124.5l-416 -697h-156l303 508q-62 -17 -127 -17q-129 0 -239 63.5t-175 171t-65 233.5q0 127 64.5 235t174.5 171t240 63t240 -63t174.5 -171t64.5 -235q0 -71 -21.5 -137.5zM287.5 789q46.5 -78 126 -124t172.5 -46t172.5 46t126 124
t46.5 170q0 93 -46.5 171.5t-125.5 124t-173 45.5q-93 0 -172.5 -46t-126 -124.5t-46.5 -170.5t46.5 -170z" />
    <glyph glyph-name="colon" unicode=":" horiz-adv-x="647" 
d="M252 954h143v-220h-143v220zM252 220h143v-220h-143v220z" />
    <glyph glyph-name="semicolon" unicode=";" horiz-adv-x="673" 
d="M318 954h144v-220h-144v220zM335 262h151l-268 -577h-92z" />
    <glyph glyph-name="less" unicode="&#x3c;" horiz-adv-x="1284" 
d="M105 612l991 565l50 -88l-834 -477l834 -476l-50 -88z" />
    <glyph glyph-name="equal" unicode="=" horiz-adv-x="1322" 
d="M268 925h786v-114h-786v114zM268 532h786v-113h-786v113z" />
    <glyph glyph-name="greater" unicode="&#x3e;" horiz-adv-x="1284" 
d="M138 136l834 476l-834 477l50 88l991 -565l-991 -564z" />
    <glyph glyph-name="question" unicode="?" horiz-adv-x="1055" 
d="M463 560q0 72 25 120t61 76.5t97 64.5q58 34 92 60.5t57.5 70t23.5 107.5q0 126 -80 192t-224 66q-141 0 -218 -74.5t-78 -207.5h-118q0 121 51 209.5t143.5 136t215.5 47.5q125 0 221 -43t150 -127t54 -201q0 -95 -31 -157.5t-75 -98t-112 -75.5q-50 -29 -77 -49
t-45.5 -49t-18.5 -69v-165h-114v166zM450 220h143v-220h-143v220z" />
    <glyph glyph-name="at" unicode="@" horiz-adv-x="2113" 
d="M600.5 -247q-203.5 106 -322.5 303.5t-119 460.5q0 260 115.5 470t322 330t470.5 120q262 0 465 -117t314.5 -318.5t111.5 -447.5q0 -161 -50.5 -303t-154 -230t-254.5 -88q-103 0 -159.5 58t-61.5 165q-2 32 -2 53q0 33 3 72q-65 -103 -158.5 -165t-207.5 -62
q-100 0 -170 46.5t-106 129.5t-36 189q0 141 59 288t172 245t265 98q113 0 183.5 -59t89.5 -166l36 173l108 -2q-17 -92 -55 -255q-44 -195 -66 -306.5t-27 -194.5q-2 -32 -2 -46q0 -74 30.5 -112.5t101.5 -38.5q121 0 201 73.5t117.5 190t37.5 249.5q0 217 -98 394.5
t-276 280t-410 102.5q-235 0 -418 -106t-284.5 -292t-101.5 -416q0 -235 105.5 -408t284.5 -264.5t396 -91.5q72 0 136.5 11t132.5 34l38 -101q-77 -27 -151 -39.5t-157 -12.5q-245 0 -448.5 106zM1140 244q92 82 139.5 205t47.5 243q0 122 -54 186t-162 64
q-127 0 -219.5 -81t-140.5 -203.5t-48 -242.5q0 -123 55.5 -188t163.5 -65q126 0 218 82z" />
    <glyph glyph-name="A" unicode="A" horiz-adv-x="1302" 
d="M594 1413h115l524 -1413h-149l-120 341h-623l-122 -341h-150zM921 460l-269 761l-268 -761h537z" />
    <glyph glyph-name="B" unicode="B" horiz-adv-x="1272" 
d="M224 1413h428q123 0 218 -38.5t150 -120t55 -204.5q0 -70 -25 -131t-68.5 -105t-97.5 -66q77 -19 136 -70t91.5 -125.5t32.5 -161.5q0 -124 -57 -212t-159 -133.5t-235 -45.5h-469v1413zM695 794q71 0 128.5 29t91 85t33.5 134q0 121 -76.5 183.5t-217.5 62.5h-293v-494
h334zM695 131q154 0 234 69t80 206q0 80 -33.5 140.5t-96 94t-148.5 33.5h-370v-543h334z" />
    <glyph glyph-name="C" unicode="C" horiz-adv-x="1455" 
d="M423 77q-144 92 -217 256t-73 376q0 213 73.5 375.5t219 254t355.5 91.5q209 0 353.5 -96t222.5 -286l-129 -52q-52 156 -163.5 229t-284.5 73q-167 0 -281.5 -71.5t-172 -203t-57.5 -309.5q0 -174 53.5 -308.5t166.5 -212t284 -77.5q167 0 279.5 74.5t178.5 231.5
l128 -52q-84 -190 -232 -287.5t-354 -97.5t-350 92z" />
    <glyph glyph-name="D" unicode="D" horiz-adv-x="1456" 
d="M224 1413h381q233 0 394 -83t244 -243.5t83 -390.5q0 -220 -84 -376.5t-246 -238t-393 -81.5h-379v1413zM591 127q288 0 443 143t155 431q0 296 -144.5 440.5t-441.5 144.5h-242v-1159h230z" />
    <glyph glyph-name="E" unicode="E" horiz-adv-x="1274" 
d="M224 1413h924v-127h-787v-513h708v-127h-708v-516h787v-130h-924v1413z" />
    <glyph glyph-name="F" unicode="F" horiz-adv-x="1260" 
d="M224 1413h955v-127h-818v-513h718v-127h-718v-646h-137v1413z" />
    <glyph glyph-name="G" unicode="G" horiz-adv-x="1541" 
d="M423 77q-144 92 -217 256t-73 376q0 213 73.5 375.5t219 254t355.5 91.5q209 0 353 -96t222 -286l-123 -52q-57 159 -170 236t-283 77q-167 0 -281.5 -74.5t-172 -208t-57.5 -312.5q0 -175 53.5 -311t166.5 -215t284 -79q185 0 303 91.5t156 268.5l3 146h-345v113h480
v-728h-110l-12 254q-70 -130 -190.5 -199.5t-284.5 -69.5q-206 0 -350 92z" />
    <glyph glyph-name="H" unicode="H" horiz-adv-x="1464" 
d="M224 1413h137v-639h742v639h137v-1413h-137v647h-742v-647h-137v1413z" />
    <glyph glyph-name="I" unicode="I" horiz-adv-x="586" 
d="M224 1413h137v-1413h-137v1413z" />
    <glyph glyph-name="J" unicode="J" horiz-adv-x="1171" 
d="M300.5 40q-98.5 55 -155.5 152t-66 221l135 14q7 -93 45.5 -164t107 -110.5t162.5 -39.5q163 0 235.5 99t72.5 301v773h-575v127h712v-898q0 -253 -109.5 -391.5t-335.5 -138.5q-130 0 -228.5 55z" />
    <glyph glyph-name="K" unicode="K" horiz-adv-x="1451" 
d="M224 1413h137v-849l808 849h185l-541 -557l569 -856h-170l-494 764l-357 -369v-395h-137v1413z" />
    <glyph glyph-name="L" unicode="L" horiz-adv-x="1073" 
d="M224 1413h137v-1283h647v-130h-784v1413z" />
    <glyph glyph-name="M" unicode="M" horiz-adv-x="1777" 
d="M1552 1413v-1413h-132v1233l-465 -1117h-134l-465 1119v-1235h-132v1413h190l475 -1144l474 1144h189z" />
    <glyph glyph-name="N" unicode="N" horiz-adv-x="1428" 
d="M1204 1413v-1413h-145l-703 1196v-1196h-132v1413h145l703 -1192v1192h132z" />
    <glyph glyph-name="O" unicode="O" horiz-adv-x="1559" 
d="M420.5 82.5q-145.5 97.5 -217.5 261.5t-72 363t72 362.5t217.5 261t357.5 97.5q213 0 359 -97.5t218 -261t72 -362.5t-72 -363t-218 -261.5t-359 -97.5q-212 0 -357.5 97.5zM1062 188q113 80 167 215t54 304q0 168 -54 303.5t-167.5 215.5t-283.5 80q-169 0 -282 -80
t-167 -215.5t-54 -303.5q0 -169 54 -304t167 -215t282 -80q171 0 284 80z" />
    <glyph glyph-name="P" unicode="P" horiz-adv-x="1182" 
d="M224 1413h388q143 0 250 -47.5t166 -137.5t59 -215t-58.5 -213.5t-165.5 -135t-251 -46.5h-252v-618h-136v1413zM612 748q168 0 253.5 68t85.5 197t-87 200t-252 71h-252v-536h252z" />
    <glyph glyph-name="Q" unicode="Q" horiz-adv-x="1582" 
d="M1178 116q-79 -63 -179.5 -97t-221.5 -34q-212 0 -357.5 97.5t-217.5 261.5t-72 363t72 362.5t217.5 261t357.5 97.5q213 0 359 -97.5t218 -261t72 -362.5q0 -150 -41 -280.5t-120 -226.5l172 -165l-85 -85zM1079 207l-238 230l89 82l231 -224q60 77 90.5 183t30.5 229
q0 168 -54 303.5t-167.5 215.5t-283.5 80q-169 0 -282 -80t-167 -215.5t-54 -303.5q0 -169 54 -304t167 -215t282 -80q186 0 302 99z" />
    <glyph glyph-name="R" unicode="R" horiz-adv-x="1264" 
d="M224 1413h396q137 0 243.5 -46.5t166.5 -135.5t60 -212q0 -141 -79.5 -235.5t-219.5 -128.5l391 -655h-156l-369 641q-44 -3 -95 -3h-201v-638h-137v1413zM631 752q155 2 238.5 70.5t83.5 194.5q0 129 -88 200.5t-244 71.5h-259v-537h269z" />
    <glyph glyph-name="S" unicode="S" horiz-adv-x="1149" 
d="M360 32.5q-105 45.5 -175 133t-90 209.5l136 34q21 -144 117.5 -221.5t241.5 -77.5q94 0 165.5 34.5t110.5 95.5t39 137q0 83 -45.5 139t-112.5 91t-182 80q-127 50 -203 91t-129.5 112t-53.5 178t53 189t144.5 126.5t202.5 44.5q271 0 400 -227l-114 -71
q-49 89 -121 132.5t-170 43.5q-73 0 -132 -30t-92.5 -83t-33.5 -119q0 -72 42 -121.5t105 -81.5t172 -74q132 -51 212.5 -94.5t137.5 -120.5t57 -194q0 -118 -59.5 -209.5t-163 -141.5t-231.5 -50q-123 0 -228 45.5z" />
    <glyph glyph-name="T" unicode="T" horiz-adv-x="1252" 
d="M558 1289h-493v124h1123v-124h-493v-1289h-137v1289z" />
    <glyph glyph-name="U" unicode="U" horiz-adv-x="1401" 
d="M322 127.5q-127 142.5 -127 402.5v883h137v-868q0 -211 88.5 -319t278.5 -108q191 0 280.5 109.5t89.5 322.5v863h137v-872q0 -266 -128 -411t-379 -145q-250 0 -377 142.5z" />
    <glyph glyph-name="V" unicode="V" horiz-adv-x="1363" 
d="M1296 1413l-558 -1413h-111l-560 1413h151l465 -1204l463 1204h150z" />
    <glyph glyph-name="W" unicode="W" horiz-adv-x="1979" 
d="M79 1413h143l343 -1217l369 1141h112l368 -1141l343 1217h144l-408 -1413h-139l-364 1121l-364 -1121h-140z" />
    <glyph glyph-name="X" unicode="X" horiz-adv-x="1325" 
d="M569 713l-484 700h164l414 -611l413 611h164l-484 -700l493 -713h-164l-423 618l-422 -618h-164z" />
    <glyph glyph-name="Y" unicode="Y" horiz-adv-x="1328" 
d="M593 540l-538 873h166l442 -739l443 739h167l-538 -873v-540h-142v540z" />
    <glyph glyph-name="Z" unicode="Z" horiz-adv-x="1306" 
d="M1204 1306l-927 -1181h924v-125h-1110v104l929 1182h-882v127h1066v-107z" />
    <glyph glyph-name="bracketleft" unicode="[" horiz-adv-x="660" 
d="M216 1535h373v-91h-264v-1477h264v-92h-373v1660z" />
    <glyph glyph-name="backslash" unicode="\" horiz-adv-x="909" 
d="M11 1513h126l761 -1941h-126z" />
    <glyph glyph-name="bracketright" unicode="]" horiz-adv-x="660" 
d="M71 -125v92h264v1477h-264v91h373v-1660h-373z" />
    <glyph glyph-name="asciicircum" unicode="^" horiz-adv-x="1162" 
d="M580 1463l462 -1006h-141l-321 749l-319 -749h-141z" />
    <glyph glyph-name="underscore" unicode="_" horiz-adv-x="1146" 
d="M170 0h806v-102h-806v102z" />
    <glyph glyph-name="grave" unicode="`" horiz-adv-x="500" 
d="M66 1413h142l218 -296h-101z" />
    <glyph glyph-name="a" unicode="a" horiz-adv-x="1063" 
d="M729 966.5q89 -48.5 135.5 -139.5t46.5 -217v-610h-110l-9 203q-55 -106 -151.5 -162t-211.5 -56q-102 0 -180 36.5t-121.5 105.5t-43.5 163q0 285 419 285h288v12q0 161 -64.5 236t-212.5 75q-96 0 -166 -41t-124 -122l-101 74q75 104 168 155t222 51q127 0 216 -48.5z
M668 173q87 75 123 202v102h-281q-145 0 -218 -49.5t-73 -141.5q0 -87 62 -137.5t173 -50.5q127 0 214 75z" />
    <glyph glyph-name="b" unicode="b" horiz-adv-x="1199" 
d="M460.5 48q-96.5 63 -143.5 173v-221h-136v1413h136v-634q47 110 142.5 173t214.5 63q131 0 227.5 -68.5t147 -185.5t50.5 -260q0 -144 -50.5 -261.5t-146.5 -186t-226 -68.5q-119 0 -215.5 63zM819.5 159q72.5 51 109.5 140t37 202q0 112 -37.5 201t-109.5 140.5
t-174 51.5t-179 -51t-118.5 -140.5t-41.5 -201.5t41.5 -201.5t118.5 -140.5t179 -51t174.5 51z" />
    <glyph glyph-name="c" unicode="c" horiz-adv-x="1016" 
d="M306 53q-102 68 -155.5 185t-53.5 260q0 136 51 254t152 190.5t245 72.5q138 0 242.5 -70.5t159.5 -204.5l-126 -49q-36 95 -108.5 149t-167.5 54q-103 0 -173.5 -55t-105.5 -145t-35 -196q0 -107 35 -196.5t105.5 -143t174.5 -53.5q97 0 168.5 53.5t101.5 147.5l121 -46
q-46 -130 -149 -202.5t-241 -72.5q-139 0 -241 68z" />
    <glyph glyph-name="d" unicode="d" horiz-adv-x="1214" 
d="M309.5 54q-101.5 69 -157 186.5t-55.5 260.5q0 141 55.5 258.5t156.5 186.5t232 69q118 0 215 -63t143 -173v634h134v-1413h-124l-5 227q-46 -113 -143 -177.5t-218 -64.5q-132 0 -233.5 69zM750.5 156.5q76.5 51.5 117.5 141.5t41 203q0 112 -41 201.5t-117.5 140.5
t-178.5 51t-179.5 -51.5t-119.5 -141.5t-42 -200q0 -111 42 -201.5t119.5 -142.5t179.5 -52t178.5 51.5z" />
    <glyph glyph-name="e" unicode="e" horiz-adv-x="1074" 
d="M312.5 51.5q-105.5 66.5 -160 182.5t-54.5 261q0 143 53 261.5t154.5 188.5t242.5 70q152 0 249.5 -70.5t140.5 -176t43 -215.5q0 -26 -2 -52t-5 -37h-736q8 -169 93 -264t234 -95q91 0 158.5 28.5t134.5 98.5l92 -81q-84 -88 -174.5 -127t-211.5 -39q-146 0 -251.5 66.5
zM849 562q2 38 -2 63q-6 72 -40.5 135t-100 102.5t-159.5 39.5q-89 0 -156 -43t-105.5 -119.5t-47.5 -177.5h611z" />
    <glyph glyph-name="f" unicode="f" horiz-adv-x="707" 
d="M248 887h-208v112h209v155q0 88 35.5 149.5t99.5 93t148 31.5q75 0 149 -37l-44 -109q-53 28 -93 28q-78 0 -119 -41.5t-41 -126.5v-143h293v-112h-293v-887h-136v887z" />
    <glyph glyph-name="g" unicode="g" horiz-adv-x="1040" 
d="M768.5 76.5q81.5 -22.5 138.5 -77.5t57 -155q0 -95 -53 -163.5t-147.5 -104t-216.5 -35.5q-139 0 -241 43t-155.5 119t-53.5 175q0 24 3 44l151 138q-62 28 -96.5 74t-34.5 117q0 62 27 109t81 84q-42 45 -64.5 103t-22.5 124q0 99 50 177.5t136.5 122.5t192.5 44
q73 0 137.5 -21.5t114.5 -61.5l136 120l70 -86l-134 -113q54 -84 54 -189q0 -100 -49.5 -177t-135 -119.5t-190.5 -42.5q-117 0 -210 52q-79 -35 -79 -105q0 -52 39 -80.5t98 -41t179 -30.5q137 -21 218.5 -43.5zM395 879.5q-56 -30.5 -86.5 -85t-30.5 -124.5
q0 -69 30 -122.5t85.5 -83.5t129.5 -30t129.5 29.5t85 83t29.5 122.5q0 71 -30 125.5t-85 85t-128 30.5t-129 -30.5zM759 -305q79 49 79 136q0 60 -41 93t-105 48t-187 32q-43 6 -89 13.5t-83 15.5l-116 -139q0 -12 2 -32q10 -103 99 -159.5t228 -56.5q134 0 213 49z" />
    <glyph glyph-name="h" unicode="h" horiz-adv-x="1128" 
d="M181 1413h134v-584q47 90 128.5 138t182.5 48q113 0 190.5 -49.5t117 -135.5t41.5 -197v-633h-134v602q0 139 -59 215.5t-186 76.5q-87 0 -150.5 -41t-97 -114t-33.5 -169v-570h-134v1413z" />
    <glyph glyph-name="i" unicode="i" horiz-adv-x="489" 
d="M176 1413h138v-205h-138v205zM179 999h131v-999h-131v999z" />
    <glyph glyph-name="j" unicode="j" horiz-adv-x="495" 
d="M178 1413h139v-205h-139v205zM-32 -423.5q-46 9.5 -80 22.5l35 115q30 -12 61.5 -19t53.5 -7q73 0 108 43t35 134v1134h133v-1125q0 -144 -66 -225.5t-198 -81.5q-36 0 -82 9.5z" />
    <glyph glyph-name="k" unicode="k" horiz-adv-x="1092" 
d="M181 1413h132v-957l514 543h173l-362 -373l421 -626h-157l-354 543l-235 -247v-296h-132v1413z" />
    <glyph glyph-name="l" unicode="l" horiz-adv-x="550" 
d="M215 41.5q-41 56.5 -41 169.5v1202h132v-1168q0 -45 7.5 -75t31.5 -48t71 -18q31 0 81 10l2 -113q-78 -16 -141 -16q-102 0 -143 56.5z" />
    <glyph glyph-name="m" unicode="m" horiz-adv-x="1743" 
d="M179 999h128v-174q40 94 119 142t182 48q114 0 194.5 -55t113.5 -166q44 108 130.5 164.5t199.5 56.5q174 0 259 -115t85 -316v-584h-132v568q0 160 -56 241.5t-180 81.5q-82 0 -143 -38t-94.5 -106t-33.5 -155v-592h-132v604q0 137 -57.5 212t-177.5 75
q-82 0 -143.5 -38t-95 -106t-33.5 -155v-592h-132z" />
    <glyph glyph-name="n" unicode="n" horiz-adv-x="1124" 
d="M179 999h132v-170q46 90 129 138t184 48q113 0 190 -49.5t116 -135.5t41 -197v-633h-132v602q0 138 -64 214t-186 76q-129 0 -203.5 -78.5t-74.5 -222.5v-591h-132v999z" />
    <glyph glyph-name="o" unicode="o" horiz-adv-x="1152" 
d="M325 53.5q-110 68.5 -171.5 187t-61.5 261.5q0 142 61.5 259t171.5 185.5t249 68.5q140 0 250.5 -68.5t173 -185.5t62.5 -259q0 -143 -62.5 -261t-173 -187t-250.5 -69q-139 0 -249 68.5zM759 153.5q79 53.5 121.5 145.5t42.5 203t-42.5 201.5t-121.5 143t-185 52.5
q-105 0 -183.5 -52.5t-120 -143t-41.5 -201.5q0 -112 41.5 -203.5t120 -145t183.5 -53.5q106 0 185 53.5z" />
    <glyph glyph-name="p" unicode="p" horiz-adv-x="1199" 
d="M181 999h136v-221q47 110 143.5 173.5t215.5 63.5q130 0 226 -69t146.5 -186.5t50.5 -260.5q0 -144 -50.5 -261t-147 -185t-227.5 -68q-119 0 -214.5 62.5t-142.5 172.5v-634h-136v1413zM819 156.5q72 51.5 109.5 141t37.5 201.5q0 113 -37 202t-109.5 140t-174.5 51
t-179 -51t-118.5 -140.5t-41.5 -201.5t41.5 -201.5t118.5 -141t179 -51.5t174 51.5z" />
    <glyph glyph-name="q" unicode="q" horiz-adv-x="1199" 
d="M882 -414v634q-47 -110 -142.5 -172.5t-214.5 -62.5q-131 0 -227.5 68t-147 185t-50.5 261q0 143 50.5 260.5t146.5 186.5t226 69q119 0 215.5 -63.5t143.5 -173.5v221h136v-1413h-136zM733 156.5q77 51.5 118.5 141t41.5 201.5t-41.5 201.5t-118.5 140.5t-179 51
t-174.5 -51t-109.5 -140t-37 -202q0 -112 37.5 -201.5t109.5 -141t174 -51.5t179 51.5z" />
    <glyph glyph-name="r" unicode="r" horiz-adv-x="793" 
d="M179 999h129v-209q24 74 73.5 124.5t111 75.5t123.5 25q43 0 83.5 -12t72.5 -36l-60 -110q-53 29 -114 29q-72 0 -138.5 -39.5t-109.5 -124t-43 -212.5v-510h-128v999z" />
    <glyph glyph-name="s" unicode="s" horiz-adv-x="928" 
d="M296 18.5q-83 33.5 -141 93.5t-84 136l107 47q31 -86 106.5 -142.5t185.5 -56.5q74 0 126 23.5t78.5 65.5t26.5 95q0 59 -34.5 94.5t-85 54t-139.5 40.5q-104 25 -168 50t-108.5 78t-44.5 143q0 86 45 148.5t122.5 94.5t174.5 32q117 0 207.5 -54.5t143.5 -154.5
l-102 -55q-38 72 -102 114.5t-151 42.5q-64 0 -111.5 -19t-73.5 -53.5t-26 -78.5q0 -52 32 -84t79.5 -49.5t132.5 -39.5q108 -27 175.5 -55t115.5 -86t48 -157q0 -97 -47 -164.5t-127.5 -102t-180.5 -34.5q-97 0 -180 33.5z" />
    <glyph glyph-name="t" unicode="t" horiz-adv-x="702" 
d="M280.5 61q-69.5 76 -69.5 219v607h-166v112h168v289l130 97v-386h280v-112h-280v-586q0 -104 40.5 -151.5t121.5 -47.5q56 0 117 24l2 -121q-26 -8 -64 -14t-77 -6q-133 0 -202.5 76z" />
    <glyph glyph-name="u" unicode="u" horiz-adv-x="1123" 
d="M310 34.5q-77 49.5 -115.5 135.5t-40.5 197v632h131v-602q0 -138 64 -213.5t186 -75.5q128 0 203 78.5t75 222.5v590h131v-999h-131v170q-46 -90 -129 -137.5t-184 -47.5q-113 0 -190 49.5z" />
    <glyph glyph-name="v" unicode="v" horiz-adv-x="1001" 
d="M36 999h144l321 -831l320 831h145l-409 -999h-113z" />
    <glyph glyph-name="w" unicode="w" horiz-adv-x="1486" 
d="M54 999h142l219 -800l268 800h121l267 -799l220 799h142l-292 -999h-125l-273 817l-273 -817h-125z" />
    <glyph glyph-name="x" unicode="x" horiz-adv-x="1006" 
d="M415 502l-367 497h161l293 -406l292 406h162l-367 -497l368 -502h-162l-293 410l-292 -410h-162z" />
    <glyph glyph-name="y" unicode="y" horiz-adv-x="1020" 
d="M460 12l-425 987h145l350 -832l308 832h144l-548 -1427h-144z" />
    <glyph glyph-name="z" unicode="z" horiz-adv-x="979" 
d="M899 893l-655 -780h650v-113h-826v97l669 790h-636v112h798v-106z" />
    <glyph glyph-name="braceleft" unicode="{" horiz-adv-x="625" 
d="M273.5 -70.5q-53.5 67.5 -53.5 184.5v354q0 60 -31.5 91.5t-89.5 50.5v100q60 16 90.5 50t30.5 107v384q0 121 55 184.5t162 63.5h106v-89h-64q-77 0 -111 -40.5t-34 -120.5v-384q0 -84 -31.5 -131t-94.5 -69v-10q61 -25 93.5 -69.5t32.5 -115.5v-354q0 -77 34.5 -121
t100.5 -44h73v-89h-115q-100 0 -153.5 67.5z" />
    <glyph glyph-name="bar" unicode="|" horiz-adv-x="643" 
d="M271 1534h101v-2046h-101v2046z" />
    <glyph glyph-name="braceright" unicode="}" horiz-adv-x="625" 
d="M83 -138v89h73q66 0 100.5 44t34.5 121v354q0 71 32.5 115.5t93.5 69.5v10q-63 22 -94.5 69t-31.5 131v384q0 80 -34 120.5t-111 40.5h-64v89h106q107 0 162 -63.5t55 -184.5v-384q0 -73 30.5 -107t90.5 -50v-100q-58 -19 -89.5 -50.5t-31.5 -91.5v-354
q0 -117 -53.5 -184.5t-153.5 -67.5h-115z" />
    <glyph glyph-name="asciitilde" unicode="~" horiz-adv-x="1256" 
d="M714 392.5q-38 19.5 -63 47.5t-56 73q-26 38 -44 59.5t-43.5 36t-58.5 14.5q-62 0 -97 -54.5t-35 -148.5h-102q0 88 28.5 155t81.5 103.5t124 36.5q56 0 96 -20.5t65.5 -49t56.5 -74.5q26 -37 43 -57.5t40.5 -34.5t54.5 -14q40 0 70.5 28t47.5 79.5t17 117.5h102
q0 -94 -29.5 -166t-83 -111.5t-124.5 -39.5q-53 0 -91 19.5z" />
    <glyph glyph-name="uni00A0" unicode="&#xa0;" horiz-adv-x="563" 
 />
    <glyph glyph-name="exclamdown" unicode="&#xa1;" horiz-adv-x="627" 
d="M385 1413v-220h-143v220h143zM365 1015l14 -1015h-131l14 1015h103z" />
    <glyph glyph-name="cent" unicode="&#xa2;" horiz-adv-x="1179" 
d="M579 -12q-125 10 -217 79.5t-140 182t-48 248.5q0 129 46 242.5t137.5 187.5t221.5 85v187h71v-186q128 -7 225 -77.5t149 -196.5l-126 -49q-33 87 -98 140t-150 60v-782q87 7 150.5 58.5t92.5 138.5l121 -46q-45 -124 -140 -195.5t-224 -78.5v-197l-71 -2v201zM579 888
q-89 -11 -150 -67t-91 -140.5t-30 -182.5q0 -99 30 -183t91 -138.5t150 -64.5v776z" />
    <glyph glyph-name="sterling" unicode="&#xa3;" horiz-adv-x="1271" 
d="M1205 113v-113h-1030v131q78 22 141 67t98.5 105t35.5 124q0 47 -13 92.5t-39 113.5q-14 35 -17 44h-199v113h170q-16 47 -27.5 106.5t-11.5 121.5q0 116 50.5 210t143.5 148t216 54q137 0 240 -81.5t153 -216.5l-105 -39q-41 107 -115.5 165.5t-172.5 58.5
q-88 0 -155.5 -37t-104.5 -105t-37 -159q0 -59 12 -118t31 -108h469v-113h-441q8 -24 16 -44q23 -65 35 -110t12 -94q0 -120 -60.5 -196.5t-147.5 -119.5h853z" />
    <glyph glyph-name="currency" unicode="&#xa4;" horiz-adv-x="1411" 
d="M248 250l100 99q-50 61 -76 134t-26 150q0 78 26 151.5t76 134.5l-99 98l72 75l100 -102q62 51 135.5 77t150.5 26t149.5 -26t133.5 -76l101 100l72 -72l-100 -99q50 -61 76 -134.5t26 -151.5t-26 -151.5t-76 -134.5l100 -98l-71 -75l-102 101q-61 -50 -134 -76t-151 -26
q-77 0 -150.5 26t-134.5 76l-101 -101zM570 303q66 -27 135 -27t135 27t117 79q52 52 78.5 117.5t26.5 135.5t-26.5 135t-78.5 116q-51 51 -116.5 77.5t-135.5 26.5t-135 -26.5t-117 -78.5t-78.5 -117.5t-26.5 -135.5t26.5 -135t77.5 -115q52 -52 118 -79z" />
    <glyph glyph-name="yen" unicode="&#xa5;" horiz-adv-x="1459" 
d="M658 224h-362v109h362v198h-362v109h301l-476 773h166l441 -739l443 739h167l-476 -773h299v-109h-360v-198h360v-109h-360v-224h-143v224z" />
    <glyph glyph-name="brokenbar" unicode="&#xa6;" horiz-adv-x="653" 
d="M271 1475h111v-744h-111v744zM271 420h111v-727h-111v727z" />
    <glyph glyph-name="section" unicode="&#xa7;" horiz-adv-x="1193" 
d="M336 54q-113 68 -162 208l125 39q45 -109 119.5 -158t192.5 -49q82 0 147.5 21.5t102.5 61t37 91.5q0 54 -38.5 90t-96.5 57t-159 49q-126 34 -203 65t-131.5 90t-54.5 153q0 116 88 201q-87 69 -87 173q0 85 50 149t134.5 98.5t184.5 34.5q128 0 222.5 -46t147.5 -129
l-105 -62q-39 67 -105 100t-164 33q-75 0 -132.5 -24.5t-89 -65.5t-31.5 -90q0 -52 38 -86t94.5 -54.5t155.5 -46.5q128 -34 206 -65.5t133.5 -91.5t55.5 -158q0 -116 -85 -200q85 -68 85 -174q0 -89 -56 -153t-149 -96.5t-203 -32.5q-154 0 -267 68zM876 555.5
q22 37.5 22 83.5q0 64 -42 106.5t-103 67t-166 56.5q-61 18 -100.5 31t-74.5 29q-42 -27 -63 -68t-21 -85q0 -62 41.5 -103t102.5 -65.5t163 -54.5q64 -19 103.5 -31.5t74.5 -28.5q41 25 63 62.5z" />
    <glyph glyph-name="dieresis" unicode="&#xa8;" horiz-adv-x="824" 
d="M174 1413h113v-205h-113v205zM538 1413h112v-205h-112v205z" />
    <glyph glyph-name="copyright" unicode="&#xa9;" horiz-adv-x="1725" 
d="M496 78.5q-168 97.5 -266.5 264t-98.5 364.5q0 197 98.5 364t266.5 264.5t367 97.5t366.5 -97.5t266 -264.5t98.5 -364q0 -198 -98.5 -364.5t-266 -264t-366.5 -97.5t-367 97.5zM1186 154q148 86 235 232.5t87 320.5q0 173 -87 320t-235 233t-323 86q-176 0 -324 -86
t-235 -232.5t-87 -320.5t87 -320.5t235 -232.5t324 -86q175 0 323 86zM667.5 299.5q-92.5 61.5 -141 168t-48.5 237.5q0 123 46 230.5t137.5 173.5t221.5 66q125 0 219.5 -64t144.5 -184l-105 -41q-34 87 -102.5 137.5t-156.5 50.5q-96 0 -162 -51t-98.5 -135t-32.5 -183
q0 -100 32.5 -183t99 -133t162.5 -50q91 0 157.5 49.5t95.5 136.5l100 -39q-41 -118 -134 -183t-218 -65t-217.5 61.5z" />
    <glyph glyph-name="ordfeminine" unicode="&#xaa;" horiz-adv-x="1040" 
d="M322.5 729q-54.5 26 -85.5 74t-31 111q0 106 77.5 159t217.5 53h205q0 26 -4 45q-12 180 -196 180q-68 0 -118.5 -29.5t-90.5 -86.5l-68 46q57 78 122.5 112.5t156.5 34.5q133 0 206 -74t73 -207v-431h-76l-2 135q-98 -148 -264 -148q-68 0 -122.5 26zM597.5 825.5
q61.5 43.5 97.5 116.5q10 70 11 108h-200q-210 0 -210 -136q0 -59 45.5 -95.5t117.5 -36.5q77 0 138.5 43.5z" />
    <glyph glyph-name="guillemotleft" unicode="&#xab;" horiz-adv-x="991" 
d="M71 511l396 341v-119l-257 -222l257 -222v-119zM447 511l396 341v-119l-258 -222l258 -222v-119z" />
    <glyph glyph-name="logicalnot" unicode="&#xac;" horiz-adv-x="1332" 
d="M938 678h-777v119h904v-506h-127v387z" />
    <glyph glyph-name="uni00AD" unicode="&#xad;" horiz-adv-x="1023" 
d="M170 674h683v-103h-683v103z" />
    <glyph glyph-name="registered" unicode="&#xae;" horiz-adv-x="1725" 
d="M496 78.5q-168 97.5 -266.5 264t-98.5 364.5q0 197 98.5 364t266.5 264.5t367 97.5t366.5 -97.5t266 -264.5t98.5 -364q0 -198 -98.5 -364.5t-266 -264t-366.5 -97.5t-367 97.5zM1186 154q148 86 235 232.5t87 320.5q0 173 -87 320t-235 233t-323 86q-176 0 -324 -86
t-235 -232.5t-87 -320.5t87 -320.5t235 -232.5t324 -86q175 0 323 86zM635 1144h245q88 0 154 -30t101.5 -85.5t35.5 -130.5q0 -85 -47 -143.5t-133 -80.5l240 -405h-104l-226 395q-34 -2 -54 -2h-121v-393h-91v875zM887 737q94 1 144 43t50 117q0 78 -52.5 121t-147.5 43
h-155v-324h161z" />
    <glyph glyph-name="macron" unicode="&#xaf;" horiz-adv-x="886" 
d="M169 1302h548v-82h-548v82z" />
    <glyph glyph-name="degree" unicode="&#xb0;" horiz-adv-x="970" 
d="M342 892q-66 39 -105 105t-39 144t39 144t105 104.5t143 38.5q78 0 144 -38.5t104.5 -104.5t38.5 -144t-38.5 -144t-104.5 -105t-144 -39q-77 0 -143 39zM584 971q45 26 71 71t26 99q0 53 -26 98t-71 71t-99 26q-53 0 -98 -26t-71 -71t-26 -98q0 -54 26 -99t71 -71
t98 -26q54 0 99 26z" />
    <glyph glyph-name="plusminus" unicode="&#xb1;" horiz-adv-x="1353" 
d="M627 656h-476v103h476v466h102v-466h475v-103h-475v-468h-102v468zM151 0h1042v-102h-1042v102z" />
    <glyph glyph-name="uni00B2" unicode="&#xb2;" horiz-adv-x="715" 
d="M657 1083v-84h-616v80q137 86 234.5 159t171 168.5t73.5 199.5q0 76 -42.5 121t-122.5 45q-90 0 -136.5 -59.5t-48.5 -155.5l-90 6q0 82 32.5 149t94.5 105.5t148 38.5q76 0 134 -30t90.5 -86.5t32.5 -135.5q0 -151 -124.5 -284t-305.5 -237h475z" />
    <glyph glyph-name="uni00B3" unicode="&#xb3;" horiz-adv-x="720" 
d="M196 1017q-68 31 -107 90.5t-39 142.5l88 6q0 -87 59 -136t154 -49q91 0 150.5 46t59.5 129q0 94 -74.5 129.5t-177.5 34.5v63q96 0 151 34t55 106t-47 112.5t-118 40.5q-76 0 -124 -43t-49 -113l-87 6q0 72 34 125.5t92.5 82t130.5 28.5q70 0 128.5 -27.5t93.5 -77.5
t35 -115q0 -69 -40 -114t-106 -67q84 -18 137.5 -73t53.5 -140q0 -78 -39.5 -135t-107.5 -87t-152 -30q-86 0 -154 31z" />
    <glyph glyph-name="acute" unicode="&#xb4;" horiz-adv-x="502" 
d="M292 1413h142l-259 -286h-101z" />
    <glyph glyph-name="uni00B5" unicode="&#xb5;" horiz-adv-x="1290" 
d="M269 999h131v-602q0 -138 64 -213.5t186 -75.5q129 0 204 78.5t75 222.5v590h131v-999h-131v170q-46 -90 -129 -137.5t-185 -47.5q-84 0 -144 31.5t-93 92.5v-457h-109v1347z" />
    <glyph glyph-name="paragraph" unicode="&#xb6;" horiz-adv-x="1265" 
d="M581 623q-119 0 -223 47.5t-167 137.5t-63 210t63 210t167 137.5t223 47.5h95v-1659h-95v869zM897 1413h96v-1659h-96v1659z" />
    <glyph glyph-name="periodcentered" unicode="&#xb7;" horiz-adv-x="685" 
d="M274.5 617q-30.5 18 -48 48.5t-17.5 67.5q0 57 38.5 95t94.5 38q57 0 95.5 -38t38.5 -95q0 -36 -18 -67t-48.5 -49t-67.5 -18t-67.5 18z" />
    <glyph glyph-name="cedilla" unicode="&#xb8;" horiz-adv-x="600" 
d="M166 -478.5q-55 37.5 -74 106.5l77 32q13 -41 46.5 -68.5t77.5 -27.5q58 0 90.5 29.5t32.5 82.5q0 56 -48 90.5t-134 40.5q-38 3 -87 3l111 189h83l-82 -132q32 -1 65 -8q85 -17 129.5 -62.5t44.5 -115.5q0 -58 -26 -102.5t-73 -69.5t-109 -25q-69 0 -124 37.5z" />
    <glyph glyph-name="uni00B9" unicode="&#xb9;" horiz-adv-x="456" 
d="M312 1847v-848h-91v639h-210v73h139q38 0 56.5 16t18.5 51v69h87z" />
    <glyph glyph-name="ordmasculine" unicode="&#xba;" horiz-adv-x="1016" 
d="M331.5 763.5q-78.5 47.5 -122.5 129t-44 180.5q0 98 44 179.5t122.5 128.5t176.5 47q97 0 175 -47t122 -128.5t44 -179.5q0 -99 -44 -180.5t-121.5 -129t-175.5 -47.5t-176.5 47.5zM640 834.5q56 35.5 85.5 98t29.5 140.5t-29.5 140.5t-85.5 98t-132 35.5
q-77 0 -133 -35.5t-86 -98t-30 -140.5t30 -140.5t86 -98t133 -35.5q76 0 132 35.5z" />
    <glyph glyph-name="guillemotright" unicode="&#xbb;" horiz-adv-x="991" 
d="M148 289l258 222l-258 222v119l396 -341l-396 -341v119zM524 289l257 222l-257 222v119l396 -341l-396 -341v119z" />
    <glyph glyph-name="onequarter" unicode="&#xbc;" horiz-adv-x="1438" 
d="M312 1421v-848h-91v639h-210v73h139q38 0 56.5 16t18.5 51v69h87zM949 1413h97l-795 -1413h-97zM1399 290v-85h-137v-205h-91v205h-419v56l428 587h82v-558h137zM1171 290v421l-300 -421h300z" />
    <glyph glyph-name="onehalf" unicode="&#xbd;" horiz-adv-x="1458" 
d="M312 1421v-848h-91v639h-210v73h139q38 0 56.5 16t18.5 51v69h87zM949 1413h97l-795 -1413h-97zM1400 84v-84h-616v80q137 86 234.5 159t171 168.5t73.5 199.5q0 76 -42.5 121t-122.5 45q-90 0 -136.5 -59.5t-48.5 -155.5l-90 6q0 82 32.5 149t94.5 105.5t148 38.5
q76 0 134 -30t90.5 -86.5t32.5 -135.5q0 -151 -124.5 -284t-305.5 -237h475z" />
    <glyph glyph-name="threequarters" unicode="&#xbe;" horiz-adv-x="1702" 
d="M196 595q-68 31 -107 90.5t-39 142.5l88 6q0 -87 59 -136t154 -49q91 0 150.5 46t59.5 129q0 94 -74.5 129.5t-177.5 34.5v63q96 0 151 34t55 106t-47 112.5t-118 40.5q-76 0 -124 -43t-49 -113l-87 6q0 72 34 125.5t92.5 82t130.5 28.5q70 0 128.5 -27.5t93.5 -77.5
t35 -115q0 -69 -40 -114t-106 -67q84 -18 137.5 -73t53.5 -140q0 -78 -39.5 -135t-107.5 -87t-152 -30q-86 0 -154 31zM1213 1413h97l-795 -1413h-97zM1664 290v-85h-137v-205h-91v205h-419v56l428 587h82v-558h137zM1436 290v421l-300 -421h300z" />
    <glyph glyph-name="questiondown" unicode="&#xbf;" horiz-adv-x="1055" 
d="M605 1193h-143v220h143v-220zM592 853q0 -72 -25 -120t-61 -76.5t-97 -64.5q-58 -34 -92 -60.5t-57.5 -70t-23.5 -107.5q0 -126 80 -192t224 -66q141 0 218 74.5t78 207.5h118q0 -121 -51 -209.5t-143.5 -136t-215.5 -47.5q-125 0 -221 43t-150 127t-54 201
q0 95 31 157.5t75 98t112 75.5q50 29 77 49t45.5 49t18.5 69v165h114v-166z" />
    <glyph glyph-name="Agrave" unicode="&#xc0;" horiz-adv-x="1302" 
d="M594 1413h115l524 -1413h-149l-120 341h-623l-122 -341h-150zM921 460l-269 761l-268 -761h537zM352 1827h142l218 -296h-101z" />
    <glyph glyph-name="Aacute" unicode="&#xc1;" horiz-adv-x="1302" 
d="M594 1413h115l524 -1413h-149l-120 341h-623l-122 -341h-150zM921 460l-269 761l-268 -761h537zM802 1827h142l-259 -286h-101z" />
    <glyph glyph-name="Acircumflex" unicode="&#xc2;" horiz-adv-x="1302" 
d="M594 1413h115l524 -1413h-149l-120 341h-623l-122 -341h-150zM921 460l-269 761l-268 -761h537zM648 1846l302 -319h-110l-192 201l-190 -201h-111z" />
    <glyph glyph-name="Atilde" unicode="&#xc3;" horiz-adv-x="1302" 
d="M594 1413h115l524 -1413h-149l-120 341h-623l-122 -341h-150zM921 460l-269 761l-268 -761h537zM716 1575.5q-31 14.5 -51.5 35t-45.5 53.5q-29 38 -51.5 56.5t-55.5 18.5q-48 0 -75.5 -42t-27.5 -118h-80q0 116 50 181t137 64q39 0 68 -13.5t48.5 -33.5t44.5 -52
q32 -40 55.5 -59t58.5 -19q42 0 68.5 46t26.5 123h83q0 -78 -22 -135.5t-62.5 -88.5t-94.5 -31q-43 0 -74 14.5z" />
    <glyph glyph-name="Adieresis" unicode="&#xc4;" horiz-adv-x="1302" 
d="M594 1413h115l524 -1413h-149l-120 341h-623l-122 -341h-150zM921 460l-269 761l-268 -761h537zM410 1827h113v-205h-113v205zM774 1827h112v-205h-112v205z" />
    <glyph glyph-name="Aring" unicode="&#xc5;" horiz-adv-x="1302" 
d="M594 1413h115l524 -1413h-149l-120 341h-623l-122 -341h-150zM921 460l-269 761l-268 -761h537zM549.5 1535.5q-44.5 26.5 -70 71t-25.5 96.5q0 53 26 97.5t70 70.5t97 26q52 0 97 -26t71.5 -70.5t26.5 -97.5t-26 -97.5t-70.5 -70.5t-98.5 -26q-53 0 -97.5 26.5z
M732 1618.5q34 34.5 34 85.5q0 50 -33.5 83.5t-85.5 33.5q-50 0 -83.5 -33.5t-33.5 -83.5q0 -51 33.5 -85.5t83.5 -34.5q51 0 85 34.5z" />
    <glyph glyph-name="AE" unicode="&#xc6;" horiz-adv-x="1892" 
d="M591 1413h1175v-122h-766v-523h667v-117h-667v-526h766v-125h-903v341h-524l-120 -341h-150zM863 450v846h-184l-297 -846h481z" />
    <glyph glyph-name="Ccedilla" unicode="&#xc7;" horiz-adv-x="1455" 
d="M1151 99q-131 -97 -312 -111l-75 -121q32 -1 65 -8q85 -17 129.5 -62.5t44.5 -115.5q0 -58 -26 -102.5t-73 -69.5t-109 -25q-69 0 -124 37.5t-74 106.5l77 32q13 -41 46.5 -68.5t77.5 -27.5q58 0 90.5 29.5t32.5 82.5q0 56 -48 90.5t-134 40.5q-37 3 -87 3l103 175
q-200 4 -340 97.5t-211 255.5t-71 371q0 213 73.5 375.5t219 254t355.5 91.5q209 0 353.5 -96t222.5 -286l-129 -52q-52 156 -163.5 229t-284.5 73q-167 0 -281.5 -71.5t-172 -203t-57.5 -309.5q0 -174 53.5 -308.5t166.5 -212t284 -77.5q167 0 279.5 74.5t178.5 231.5
l128 -52q-77 -174 -208 -271z" />
    <glyph glyph-name="Egrave" unicode="&#xc8;" horiz-adv-x="1274" 
d="M224 1413h924v-127h-787v-513h708v-127h-708v-516h787v-130h-924v1413zM390 1827h142l218 -296h-101z" />
    <glyph glyph-name="Eacute" unicode="&#xc9;" horiz-adv-x="1274" 
d="M224 1413h924v-127h-787v-513h708v-127h-708v-516h787v-130h-924v1413zM840 1827h142l-259 -286h-101z" />
    <glyph glyph-name="Ecircumflex" unicode="&#xca;" horiz-adv-x="1274" 
d="M224 1413h924v-127h-787v-513h708v-127h-708v-516h787v-130h-924v1413zM686 1846l302 -319h-110l-192 201l-190 -201h-111z" />
    <glyph glyph-name="Edieresis" unicode="&#xcb;" horiz-adv-x="1274" 
d="M224 1413h924v-127h-787v-513h708v-127h-708v-516h787v-130h-924v1413zM447 1827h113v-205h-113v205zM811 1827h112v-205h-112v205z" />
    <glyph glyph-name="Igrave" unicode="&#xcc;" horiz-adv-x="586" 
d="M224 1413h137v-1413h-137v1413zM-6 1827h142l218 -296h-101z" />
    <glyph glyph-name="Iacute" unicode="&#xcd;" horiz-adv-x="586" 
d="M224 1413h137v-1413h-137v1413zM445 1827h142l-259 -286h-101z" />
    <glyph glyph-name="Icircumflex" unicode="&#xce;" horiz-adv-x="586" 
d="M224 1413h137v-1413h-137v1413zM290 1846l302 -319h-110l-192 201l-190 -201h-111z" />
    <glyph glyph-name="Idieresis" unicode="&#xcf;" horiz-adv-x="586" 
d="M224 1413h137v-1413h-137v1413zM52 1827h113v-205h-113v205zM416 1827h112v-205h-112v205z" />
    <glyph glyph-name="Eth" unicode="&#xd0;" horiz-adv-x="1456" 
d="M999 1330q161 -83 244 -243.5t83 -390.5q0 -220 -84 -376.5t-246 -238t-393 -81.5h-379v661h-151v92h151v660h381q233 0 394 -83zM1034 270q155 143 155 431q0 296 -144.5 440.5t-441.5 144.5h-242v-533h347v-92h-347v-534h230q288 0 443 143z" />
    <glyph glyph-name="Ntilde" unicode="&#xd1;" horiz-adv-x="1428" 
d="M1204 1413v-1413h-145l-703 1196v-1196h-132v1413h145l703 -1192v1192h132zM780 1575.5q-31 14.5 -51.5 35t-45.5 53.5q-29 38 -51.5 56.5t-55.5 18.5q-48 0 -75.5 -42t-27.5 -118h-80q0 116 50 181t137 64q39 0 68 -13.5t48.5 -33.5t44.5 -52q32 -40 55.5 -59t58.5 -19
q42 0 68.5 46t26.5 123h83q0 -78 -22 -135.5t-62.5 -88.5t-94.5 -31q-43 0 -74 14.5z" />
    <glyph glyph-name="Ograve" unicode="&#xd2;" horiz-adv-x="1559" 
d="M420.5 82.5q-145.5 97.5 -217.5 261.5t-72 363t72 362.5t217.5 261t357.5 97.5q213 0 359 -97.5t218 -261t72 -362.5t-72 -363t-218 -261.5t-359 -97.5q-212 0 -357.5 97.5zM1062 188q113 80 167 215t54 304q0 168 -54 303.5t-167.5 215.5t-283.5 80q-169 0 -282 -80
t-167 -215.5t-54 -303.5q0 -169 54 -304t167 -215t282 -80q171 0 284 80zM481 1827h142l218 -296h-101z" />
    <glyph glyph-name="Oacute" unicode="&#xd3;" horiz-adv-x="1559" 
d="M420.5 82.5q-145.5 97.5 -217.5 261.5t-72 363t72 362.5t217.5 261t357.5 97.5q213 0 359 -97.5t218 -261t72 -362.5t-72 -363t-218 -261.5t-359 -97.5q-212 0 -357.5 97.5zM1062 188q113 80 167 215t54 304q0 168 -54 303.5t-167.5 215.5t-283.5 80q-169 0 -282 -80
t-167 -215.5t-54 -303.5q0 -169 54 -304t167 -215t282 -80q171 0 284 80zM931 1827h142l-259 -286h-101z" />
    <glyph glyph-name="Ocircumflex" unicode="&#xd4;" horiz-adv-x="1559" 
d="M420.5 82.5q-145.5 97.5 -217.5 261.5t-72 363t72 362.5t217.5 261t357.5 97.5q213 0 359 -97.5t218 -261t72 -362.5t-72 -363t-218 -261.5t-359 -97.5q-212 0 -357.5 97.5zM1062 188q113 80 167 215t54 304q0 168 -54 303.5t-167.5 215.5t-283.5 80q-169 0 -282 -80
t-167 -215.5t-54 -303.5q0 -169 54 -304t167 -215t282 -80q171 0 284 80zM777 1846l302 -319h-110l-192 201l-190 -201h-111z" />
    <glyph glyph-name="Otilde" unicode="&#xd5;" horiz-adv-x="1559" 
d="M420.5 82.5q-145.5 97.5 -217.5 261.5t-72 363t72 362.5t217.5 261t357.5 97.5q213 0 359 -97.5t218 -261t72 -362.5t-72 -363t-218 -261.5t-359 -97.5q-212 0 -357.5 97.5zM1062 188q113 80 167 215t54 304q0 168 -54 303.5t-167.5 215.5t-283.5 80q-169 0 -282 -80
t-167 -215.5t-54 -303.5q0 -169 54 -304t167 -215t282 -80q171 0 284 80zM845 1575.5q-31 14.5 -51.5 35t-45.5 53.5q-29 38 -51.5 56.5t-55.5 18.5q-48 0 -75.5 -42t-27.5 -118h-80q0 116 50 181t137 64q39 0 68 -13.5t48.5 -33.5t44.5 -52q32 -40 55.5 -59t58.5 -19
q42 0 68.5 46t26.5 123h83q0 -78 -22 -135.5t-62.5 -88.5t-94.5 -31q-43 0 -74 14.5z" />
    <glyph glyph-name="Odieresis" unicode="&#xd6;" horiz-adv-x="1559" 
d="M420.5 82.5q-145.5 97.5 -217.5 261.5t-72 363t72 362.5t217.5 261t357.5 97.5q213 0 359 -97.5t218 -261t72 -362.5t-72 -363t-218 -261.5t-359 -97.5q-212 0 -357.5 97.5zM1062 188q113 80 167 215t54 304q0 168 -54 303.5t-167.5 215.5t-283.5 80q-169 0 -282 -80
t-167 -215.5t-54 -303.5q0 -169 54 -304t167 -215t282 -80q171 0 284 80zM539 1827h113v-205h-113v205zM903 1827h112v-205h-112v205z" />
    <glyph glyph-name="multiply" unicode="&#xd7;" horiz-adv-x="1108" 
d="M554 563l-326 -326l-73 73l326 326l-326 326l73 72l325 -326l326 325l73 -73l-326 -325l326 -325l-73 -72z" />
    <glyph glyph-name="Oslash" unicode="&#xd8;" horiz-adv-x="1559" 
d="M1367.5 1040.5q59.5 -152.5 59.5 -333.5q0 -199 -72 -363t-218 -261.5t-359 -97.5q-197 0 -342 88l-46 -73h-103l77 125q-115 97 -174 249.5t-59 332.5q0 199 72 362.5t217.5 261t357.5 97.5q197 0 343 -87l45 72h102l-76 -123q116 -97 175.5 -249.5zM315 440.5
q40 -121.5 120 -201.5l618 993q-115 74 -275 74q-169 0 -282 -80t-167 -215.5t-54 -303.5q0 -145 40 -266.5zM1062 188q113 80 167 215t54 304q0 145 -40.5 267t-121.5 203l-617 -994q113 -75 274 -75q171 0 284 80z" />
    <glyph glyph-name="Ugrave" unicode="&#xd9;" horiz-adv-x="1401" 
d="M322 127.5q-127 142.5 -127 402.5v883h137v-868q0 -211 88.5 -319t278.5 -108q191 0 280.5 109.5t89.5 322.5v863h137v-872q0 -266 -128 -411t-379 -145q-250 0 -377 142.5zM403 1827h142l218 -296h-101z" />
    <glyph glyph-name="Uacute" unicode="&#xda;" horiz-adv-x="1401" 
d="M322 127.5q-127 142.5 -127 402.5v883h137v-868q0 -211 88.5 -319t278.5 -108q191 0 280.5 109.5t89.5 322.5v863h137v-872q0 -266 -128 -411t-379 -145q-250 0 -377 142.5zM853 1827h142l-259 -286h-101z" />
    <glyph glyph-name="Ucircumflex" unicode="&#xdb;" horiz-adv-x="1401" 
d="M322 127.5q-127 142.5 -127 402.5v883h137v-868q0 -211 88.5 -319t278.5 -108q191 0 280.5 109.5t89.5 322.5v863h137v-872q0 -266 -128 -411t-379 -145q-250 0 -377 142.5zM699 1846l302 -319h-110l-192 201l-190 -201h-111z" />
    <glyph glyph-name="Udieresis" unicode="&#xdc;" horiz-adv-x="1401" 
d="M322 127.5q-127 142.5 -127 402.5v883h137v-868q0 -211 88.5 -319t278.5 -108q191 0 280.5 109.5t89.5 322.5v863h137v-872q0 -266 -128 -411t-379 -145q-250 0 -377 142.5zM461 1827h113v-205h-113v205zM825 1827h112v-205h-112v205z" />
    <glyph glyph-name="Yacute" unicode="&#xdd;" horiz-adv-x="1328" 
d="M593 540l-538 873h166l442 -739l443 739h167l-538 -873v-540h-142v540zM815 1827h142l-259 -286h-101z" />
    <glyph glyph-name="Thorn" unicode="&#xde;" horiz-adv-x="1182" 
d="M224 1413h137v-233h251q142 0 249.5 -47.5t166.5 -138t59 -215.5t-58.5 -213.5t-165.5 -134.5t-251 -46h-251v-385h-137v1413zM612 514q168 0 253.5 68t85.5 197q0 130 -87 201t-252 71h-251v-537h251z" />
    <glyph glyph-name="germandbls" unicode="&#xdf;" horiz-adv-x="1163" 
d="M456 35l40 112q52 -24 97.5 -37t89.5 -13q101 0 161 59.5t60 161.5q0 64 -21.5 110t-52.5 76t-84 70l-16 12q-60 46 -92 87.5t-32 100.5q0 37 12.5 65t32.5 49.5t54 51.5q46 41 69 81t23 98q0 91 -55 144.5t-149 53.5q-153 0 -218.5 -144.5t-65.5 -362.5v-810h-130v810
q0 301 105.5 460.5t302.5 159.5q99 0 176 -40t119.5 -110.5t42.5 -159.5q0 -79 -30.5 -132t-82.5 -102l-16 -16q-35 -33 -50.5 -53.5t-15.5 -42.5q0 -30 26 -56t88 -72q56 -41 95.5 -81t67.5 -101t28 -142q0 -99 -43.5 -175.5t-123.5 -119t-186 -42.5q-103 0 -226 50z" />
    <glyph glyph-name="agrave" unicode="&#xe0;" horiz-adv-x="1063" 
d="M729 966.5q89 -48.5 135.5 -139.5t46.5 -217v-610h-110l-9 203q-55 -106 -151.5 -162t-211.5 -56q-102 0 -180 36.5t-121.5 105.5t-43.5 163q0 285 419 285h288v12q0 161 -64.5 236t-212.5 75q-96 0 -166 -41t-124 -122l-101 74q75 104 168 155t222 51q127 0 216 -48.5z
M668 173q87 75 123 202v102h-281q-145 0 -218 -49.5t-73 -141.5q0 -87 62 -137.5t173 -50.5q127 0 214 75zM216 1413h142l218 -296h-101z" />
    <glyph glyph-name="aacute" unicode="&#xe1;" horiz-adv-x="1063" 
d="M729 966.5q89 -48.5 135.5 -139.5t46.5 -217v-610h-110l-9 203q-55 -106 -151.5 -162t-211.5 -56q-102 0 -180 36.5t-121.5 105.5t-43.5 163q0 285 419 285h288v12q0 161 -64.5 236t-212.5 75q-96 0 -166 -41t-124 -122l-101 74q75 104 168 155t222 51q127 0 216 -48.5z
M668 173q87 75 123 202v102h-281q-145 0 -218 -49.5t-73 -141.5q0 -87 62 -137.5t173 -50.5q127 0 214 75zM666 1413h142l-259 -286h-101z" />
    <glyph glyph-name="acircumflex" unicode="&#xe2;" horiz-adv-x="1063" 
d="M729 966.5q89 -48.5 135.5 -139.5t46.5 -217v-610h-110l-9 203q-55 -106 -151.5 -162t-211.5 -56q-102 0 -180 36.5t-121.5 105.5t-43.5 163q0 285 419 285h288v12q0 161 -64.5 236t-212.5 75q-96 0 -166 -41t-124 -122l-101 74q75 104 168 155t222 51q127 0 216 -48.5z
M668 173q87 75 123 202v102h-281q-145 0 -218 -49.5t-73 -141.5q0 -87 62 -137.5t173 -50.5q127 0 214 75zM512 1432l302 -319h-110l-192 201l-190 -201h-111z" />
    <glyph glyph-name="atilde" unicode="&#xe3;" horiz-adv-x="1063" 
d="M729 966.5q89 -48.5 135.5 -139.5t46.5 -217v-610h-110l-9 203q-55 -106 -151.5 -162t-211.5 -56q-102 0 -180 36.5t-121.5 105.5t-43.5 163q0 285 419 285h288v12q0 161 -64.5 236t-212.5 75q-96 0 -166 -41t-124 -122l-101 74q75 104 168 155t222 51q127 0 216 -48.5z
M668 173q87 75 123 202v102h-281q-145 0 -218 -49.5t-73 -141.5q0 -87 62 -137.5t173 -50.5q127 0 214 75zM579 1162.5q-31 14.5 -51.5 35t-45.5 53.5q-29 38 -51.5 56.5t-55.5 18.5q-48 0 -75.5 -42t-27.5 -118h-80q0 116 50 181t137 64q39 0 68 -13.5t48.5 -33.5t44.5 -52
q32 -40 55.5 -59t58.5 -19q42 0 68.5 46t26.5 123h83q0 -78 -22 -135.5t-62.5 -88.5t-94.5 -31q-43 0 -74 14.5z" />
    <glyph glyph-name="adieresis" unicode="&#xe4;" horiz-adv-x="1063" 
d="M729 966.5q89 -48.5 135.5 -139.5t46.5 -217v-610h-110l-9 203q-55 -106 -151.5 -162t-211.5 -56q-102 0 -180 36.5t-121.5 105.5t-43.5 163q0 285 419 285h288v12q0 161 -64.5 236t-212.5 75q-96 0 -166 -41t-124 -122l-101 74q75 104 168 155t222 51q127 0 216 -48.5z
M668 173q87 75 123 202v102h-281q-145 0 -218 -49.5t-73 -141.5q0 -87 62 -137.5t173 -50.5q127 0 214 75zM273 1413h113v-205h-113v205zM637 1413h112v-205h-112v205z" />
    <glyph glyph-name="aring" unicode="&#xe5;" horiz-adv-x="1063" 
d="M729 966.5q89 -48.5 135.5 -139.5t46.5 -217v-610h-110l-9 203q-55 -106 -151.5 -162t-211.5 -56q-102 0 -180 36.5t-121.5 105.5t-43.5 163q0 285 419 285h288v12q0 161 -64.5 236t-212.5 75q-96 0 -166 -41t-124 -122l-101 74q75 104 168 155t222 51q127 0 216 -48.5z
M668 173q87 75 123 202v102h-281q-145 0 -218 -49.5t-73 -141.5q0 -87 62 -137.5t173 -50.5q127 0 214 75zM412.5 1121.5q-44.5 26.5 -70 71t-25.5 96.5q0 53 26 97.5t70 70.5t97 26q52 0 97 -26t71.5 -70.5t26.5 -97.5t-26 -97.5t-70.5 -70.5t-98.5 -26q-53 0 -97.5 26.5z
M595 1204.5q34 34.5 34 85.5q0 50 -33.5 83.5t-85.5 33.5q-50 0 -83.5 -33.5t-33.5 -83.5q0 -51 33.5 -85.5t83.5 -34.5q51 0 85 34.5z" />
    <glyph glyph-name="ae" unicode="&#xe6;" horiz-adv-x="1740" 
d="M247.5 21.5q-77.5 36.5 -121.5 104t-44 157.5q0 148 108 213.5t312 65.5h286q0 36 -5 76q-8 132 -76 196.5t-199 64.5q-93 0 -164.5 -39.5t-125.5 -116.5l-94 69q75 104 167.5 152.5t220.5 48.5q141 0 230.5 -67t120.5 -193q49 120 140.5 189t216.5 69q151 0 247 -68.5
t138 -175t42 -224.5q0 -19 -3 -43t-6 -36h-724q5 -167 86 -261.5t226 -94.5q96 0 163 27.5t134 96.5l93 -81q-87 -88 -177.5 -125t-211.5 -37q-139 0 -236.5 63.5t-144.5 177.5q-70 -119 -170.5 -182t-252.5 -63q-98 0 -175.5 36.5zM1514 562q1 6 1 19q0 18 -4 48
q-6 70 -40 131t-100 99.5t-162 38.5q-87 0 -153 -44t-102.5 -120t-40.5 -172h601zM654 145q88 60 151 181q-14 59 -17 138h-279q-151 0 -226.5 -44t-75.5 -136q0 -60 28.5 -105t82 -69.5t124.5 -24.5q124 0 212 60z" />
    <glyph glyph-name="ccedilla" unicode="&#xe7;" horiz-adv-x="1016" 
d="M714.5 158.5q71.5 53.5 101.5 147.5l121 -46q-43 -122 -136.5 -193.5t-220.5 -80.5l-74 -119q32 -1 65 -8q85 -17 129.5 -62.5t44.5 -115.5q0 -58 -26 -102.5t-73 -69.5t-109 -25q-69 0 -124 37.5t-74 106.5l77 32q13 -41 46.5 -68.5t77.5 -27.5q58 0 90.5 29.5
t32.5 82.5q0 56 -48 90.5t-134 40.5q-37 3 -87 3l104 177q-125 12 -215.5 82.5t-138 182t-47.5 246.5q0 136 51 254t152 190.5t245 72.5q138 0 242.5 -70.5t159.5 -204.5l-126 -49q-36 95 -108.5 149t-167.5 54q-103 0 -173.5 -55t-105.5 -145t-35 -196q0 -107 35 -196.5
t105.5 -143t174.5 -53.5q97 0 168.5 53.5z" />
    <glyph glyph-name="egrave" unicode="&#xe8;" horiz-adv-x="1074" 
d="M312.5 51.5q-105.5 66.5 -160 182.5t-54.5 261q0 143 53 261.5t154.5 188.5t242.5 70q152 0 249.5 -70.5t140.5 -176t43 -215.5q0 -26 -2 -52t-5 -37h-736q8 -169 93 -264t234 -95q91 0 158.5 28.5t134.5 98.5l92 -81q-84 -88 -174.5 -127t-211.5 -39q-146 0 -251.5 66.5
zM849 562q2 38 -2 63q-6 72 -40.5 135t-100 102.5t-159.5 39.5q-89 0 -156 -43t-105.5 -119.5t-47.5 -177.5h611zM237 1413h142l218 -296h-101z" />
    <glyph glyph-name="eacute" unicode="&#xe9;" horiz-adv-x="1074" 
d="M312.5 51.5q-105.5 66.5 -160 182.5t-54.5 261q0 143 53 261.5t154.5 188.5t242.5 70q152 0 249.5 -70.5t140.5 -176t43 -215.5q0 -26 -2 -52t-5 -37h-736q8 -169 93 -264t234 -95q91 0 158.5 28.5t134.5 98.5l92 -81q-84 -88 -174.5 -127t-211.5 -39q-146 0 -251.5 66.5
zM849 562q2 38 -2 63q-6 72 -40.5 135t-100 102.5t-159.5 39.5q-89 0 -156 -43t-105.5 -119.5t-47.5 -177.5h611zM687 1413h142l-259 -286h-101z" />
    <glyph glyph-name="ecircumflex" unicode="&#xea;" horiz-adv-x="1074" 
d="M312.5 51.5q-105.5 66.5 -160 182.5t-54.5 261q0 143 53 261.5t154.5 188.5t242.5 70q152 0 249.5 -70.5t140.5 -176t43 -215.5q0 -26 -2 -52t-5 -37h-736q8 -169 93 -264t234 -95q91 0 158.5 28.5t134.5 98.5l92 -81q-84 -88 -174.5 -127t-211.5 -39q-146 0 -251.5 66.5
zM849 562q2 38 -2 63q-6 72 -40.5 135t-100 102.5t-159.5 39.5q-89 0 -156 -43t-105.5 -119.5t-47.5 -177.5h611zM533 1432l302 -319h-110l-192 201l-190 -201h-111z" />
    <glyph glyph-name="edieresis" unicode="&#xeb;" horiz-adv-x="1074" 
d="M312.5 51.5q-105.5 66.5 -160 182.5t-54.5 261q0 143 53 261.5t154.5 188.5t242.5 70q152 0 249.5 -70.5t140.5 -176t43 -215.5q0 -26 -2 -52t-5 -37h-736q8 -169 93 -264t234 -95q91 0 158.5 28.5t134.5 98.5l92 -81q-84 -88 -174.5 -127t-211.5 -39q-146 0 -251.5 66.5
zM849 562q2 38 -2 63q-6 72 -40.5 135t-100 102.5t-159.5 39.5q-89 0 -156 -43t-105.5 -119.5t-47.5 -177.5h611zM295 1413h113v-205h-113v205zM659 1413h112v-205h-112v205z" />
    <glyph glyph-name="igrave" unicode="&#xec;" horiz-adv-x="490" 
d="M179 999h132v-999h-132v999zM-53 1413h142l218 -296h-101z" />
    <glyph glyph-name="iacute" unicode="&#xed;" horiz-adv-x="490" 
d="M179 999h132v-999h-132v999zM397 1413h142l-259 -286h-101z" />
    <glyph glyph-name="icircumflex" unicode="&#xee;" horiz-adv-x="490" 
d="M179 999h132v-999h-132v999zM243 1432l302 -319h-110l-192 201l-190 -201h-111z" />
    <glyph glyph-name="idieresis" unicode="&#xef;" horiz-adv-x="490" 
d="M179 999h132v-999h-132v999zM5 1413h113v-205h-113v205zM369 1413h112v-205h-112v205z" />
    <glyph glyph-name="eth" unicode="&#xf0;" horiz-adv-x="1122" 
d="M318.5 49q-109.5 64 -173 172t-63.5 234t64.5 231t174.5 165.5t239 60.5q46 0 88.5 -15t76.5 -43l-180 303l-143 -137h-99l210 187l-128 206h145l82 -136l155 136h99l-222 -185l325 -537q35 -57 52.5 -115.5t17.5 -124.5q0 -127 -64.5 -234t-174 -169.5t-239.5 -62.5
q-133 0 -242.5 64zM733 159.5q79 45.5 125.5 123.5t46.5 171q0 92 -46.5 169.5t-126 123.5t-172.5 46q-92 0 -171.5 -46t-126 -124t-46.5 -169q0 -92 46.5 -170.5t125.5 -124t172 -45.5q94 0 173 45.5z" />
    <glyph glyph-name="ntilde" unicode="&#xf1;" horiz-adv-x="1124" 
d="M179 999h132v-170q46 90 129 138t184 48q113 0 190 -49.5t116 -135.5t41 -197v-633h-132v602q0 138 -64 214t-186 76q-129 0 -203.5 -78.5t-74.5 -222.5v-591h-132v999zM635 1162.5q-31 14.5 -51.5 35t-45.5 53.5q-29 38 -51.5 56.5t-55.5 18.5q-48 0 -75.5 -42
t-27.5 -118h-80q0 116 50 181t137 64q39 0 68 -13.5t48.5 -33.5t44.5 -52q32 -40 55.5 -59t58.5 -19q42 0 68.5 46t26.5 123h83q0 -78 -22 -135.5t-62.5 -88.5t-94.5 -31q-43 0 -74 14.5z" />
    <glyph glyph-name="ograve" unicode="&#xf2;" horiz-adv-x="1152" 
d="M325 53.5q-110 68.5 -171.5 187t-61.5 261.5q0 142 61.5 259t171.5 185.5t249 68.5q140 0 250.5 -68.5t173 -185.5t62.5 -259q0 -143 -62.5 -261t-173 -187t-250.5 -69q-139 0 -249 68.5zM759 153.5q79 53.5 121.5 145.5t42.5 203t-42.5 201.5t-121.5 143t-185 52.5
q-105 0 -183.5 -52.5t-120 -143t-41.5 -201.5q0 -112 41.5 -203.5t120 -145t183.5 -53.5q106 0 185 53.5zM278 1413h142l218 -296h-101z" />
    <glyph glyph-name="oacute" unicode="&#xf3;" horiz-adv-x="1152" 
d="M325 53.5q-110 68.5 -171.5 187t-61.5 261.5q0 142 61.5 259t171.5 185.5t249 68.5q140 0 250.5 -68.5t173 -185.5t62.5 -259q0 -143 -62.5 -261t-173 -187t-250.5 -69q-139 0 -249 68.5zM759 153.5q79 53.5 121.5 145.5t42.5 203t-42.5 201.5t-121.5 143t-185 52.5
q-105 0 -183.5 -52.5t-120 -143t-41.5 -201.5q0 -112 41.5 -203.5t120 -145t183.5 -53.5q106 0 185 53.5zM728 1413h142l-259 -286h-101z" />
    <glyph glyph-name="ocircumflex" unicode="&#xf4;" horiz-adv-x="1152" 
d="M325 53.5q-110 68.5 -171.5 187t-61.5 261.5q0 142 61.5 259t171.5 185.5t249 68.5q140 0 250.5 -68.5t173 -185.5t62.5 -259q0 -143 -62.5 -261t-173 -187t-250.5 -69q-139 0 -249 68.5zM759 153.5q79 53.5 121.5 145.5t42.5 203t-42.5 201.5t-121.5 143t-185 52.5
q-105 0 -183.5 -52.5t-120 -143t-41.5 -201.5q0 -112 41.5 -203.5t120 -145t183.5 -53.5q106 0 185 53.5zM574 1432l302 -319h-110l-192 201l-190 -201h-111z" />
    <glyph glyph-name="otilde" unicode="&#xf5;" horiz-adv-x="1152" 
d="M325 53.5q-110 68.5 -171.5 187t-61.5 261.5q0 142 61.5 259t171.5 185.5t249 68.5q140 0 250.5 -68.5t173 -185.5t62.5 -259q0 -143 -62.5 -261t-173 -187t-250.5 -69q-139 0 -249 68.5zM759 153.5q79 53.5 121.5 145.5t42.5 203t-42.5 201.5t-121.5 143t-185 52.5
q-105 0 -183.5 -52.5t-120 -143t-41.5 -201.5q0 -112 41.5 -203.5t120 -145t183.5 -53.5q106 0 185 53.5zM642 1162.5q-31 14.5 -51.5 35t-45.5 53.5q-29 38 -51.5 56.5t-55.5 18.5q-48 0 -75.5 -42t-27.5 -118h-80q0 116 50 181t137 64q39 0 68 -13.5t48.5 -33.5t44.5 -52
q32 -40 55.5 -59t58.5 -19q42 0 68.5 46t26.5 123h83q0 -78 -22 -135.5t-62.5 -88.5t-94.5 -31q-43 0 -74 14.5z" />
    <glyph glyph-name="odieresis" unicode="&#xf6;" horiz-adv-x="1152" 
d="M325 53.5q-110 68.5 -171.5 187t-61.5 261.5q0 142 61.5 259t171.5 185.5t249 68.5q140 0 250.5 -68.5t173 -185.5t62.5 -259q0 -143 -62.5 -261t-173 -187t-250.5 -69q-139 0 -249 68.5zM759 153.5q79 53.5 121.5 145.5t42.5 203t-42.5 201.5t-121.5 143t-185 52.5
q-105 0 -183.5 -52.5t-120 -143t-41.5 -201.5q0 -112 41.5 -203.5t120 -145t183.5 -53.5q106 0 185 53.5zM336 1413h113v-205h-113v205zM700 1413h112v-205h-112v205z" />
    <glyph glyph-name="divide" unicode="&#xf7;" horiz-adv-x="995" 
d="M422 1097h143v-220h-143v220zM130 680h726v-102h-726v102zM422 362h143v-220h-143v220z" />
    <glyph glyph-name="oslash" unicode="&#xf8;" horiz-adv-x="1152" 
d="M1009.5 736.5q50.5 -108.5 50.5 -234.5q0 -143 -62.5 -261t-173 -187t-250.5 -69q-135 0 -242 65l-31 -50h-73l53 85q-89 70 -139 179.5t-50 237.5q0 142 61.5 259t171.5 185.5t249 68.5q134 0 245 -65l31 49h72l-52 -84q89 -70 139.5 -178.5zM259.5 326
q30.5 -81 86.5 -136l410 658q-79 51 -182 51q-105 0 -183.5 -52.5t-120 -143t-41.5 -201.5q0 -95 30.5 -176zM759 153.5q79 53.5 121.5 145.5t42.5 203q0 94 -30.5 174t-87.5 134l-410 -659q77 -51 179 -51q106 0 185 53.5z" />
    <glyph glyph-name="ugrave" unicode="&#xf9;" horiz-adv-x="1123" 
d="M310 34.5q-77 49.5 -115.5 135.5t-40.5 197v632h131v-602q0 -138 64 -213.5t186 -75.5q128 0 203 78.5t75 222.5v590h131v-999h-131v170q-46 -90 -129 -137.5t-184 -47.5q-113 0 -190 49.5zM262 1413h142l218 -296h-101z" />
    <glyph glyph-name="uacute" unicode="&#xfa;" horiz-adv-x="1123" 
d="M310 34.5q-77 49.5 -115.5 135.5t-40.5 197v632h131v-602q0 -138 64 -213.5t186 -75.5q128 0 203 78.5t75 222.5v590h131v-999h-131v170q-46 -90 -129 -137.5t-184 -47.5q-113 0 -190 49.5zM712 1413h142l-259 -286h-101z" />
    <glyph glyph-name="ucircumflex" unicode="&#xfb;" horiz-adv-x="1123" 
d="M310 34.5q-77 49.5 -115.5 135.5t-40.5 197v632h131v-602q0 -138 64 -213.5t186 -75.5q128 0 203 78.5t75 222.5v590h131v-999h-131v170q-46 -90 -129 -137.5t-184 -47.5q-113 0 -190 49.5zM558 1432l302 -319h-110l-192 201l-190 -201h-111z" />
    <glyph glyph-name="udieresis" unicode="&#xfc;" horiz-adv-x="1123" 
d="M310 34.5q-77 49.5 -115.5 135.5t-40.5 197v632h131v-602q0 -138 64 -213.5t186 -75.5q128 0 203 78.5t75 222.5v590h131v-999h-131v170q-46 -90 -129 -137.5t-184 -47.5q-113 0 -190 49.5zM319 1413h113v-205h-113v205zM683 1413h112v-205h-112v205z" />
    <glyph glyph-name="yacute" unicode="&#xfd;" horiz-adv-x="1020" 
d="M460 12l-425 987h145l350 -832l308 832h144l-548 -1427h-144zM659 1413h142l-259 -286h-101z" />
    <glyph glyph-name="thorn" unicode="&#xfe;" horiz-adv-x="1199" 
d="M902 946q96 -69 146.5 -186.5t50.5 -260.5q0 -144 -50.5 -261t-147 -185t-227.5 -68q-119 0 -214.5 62.5t-142.5 172.5v-634h-136v1827h136v-635q47 110 143.5 173.5t215.5 63.5q130 0 226 -69zM466 841q-77 -51 -118.5 -140.5t-41.5 -201.5t41.5 -201.5t118.5 -141
t179 -51.5t174 51.5t109.5 141t37.5 201.5q0 113 -37 202t-109.5 140t-174.5 51t-179 -51z" />
    <glyph glyph-name="ydieresis" unicode="&#xff;" horiz-adv-x="1020" 
d="M460 12l-425 987h145l350 -832l308 832h144l-548 -1427h-144zM266 1413h113v-205h-113v205zM630 1413h112v-205h-112v205z" />
    <glyph glyph-name="Amacron" unicode="&#x100;" horiz-adv-x="1302" 
d="M594 1413h115l524 -1413h-149l-120 341h-623l-122 -341h-150zM921 460l-269 761l-268 -761h537zM376 1716h548v-82h-548v82z" />
    <glyph glyph-name="amacron" unicode="&#x101;" horiz-adv-x="1063" 
d="M729 966.5q89 -48.5 135.5 -139.5t46.5 -217v-610h-110l-9 203q-55 -106 -151.5 -162t-211.5 -56q-102 0 -180 36.5t-121.5 105.5t-43.5 163q0 285 419 285h288v12q0 161 -64.5 236t-212.5 75q-96 0 -166 -41t-124 -122l-101 74q75 104 168 155t222 51q127 0 216 -48.5z
M668 173q87 75 123 202v102h-281q-145 0 -218 -49.5t-73 -141.5q0 -87 62 -137.5t173 -50.5q127 0 214 75zM240 1302h548v-82h-548v82z" />
    <glyph glyph-name="Abreve" unicode="&#x102;" horiz-adv-x="1302" 
d="M594 1413h115l524 -1413h-149l-120 341h-623l-122 -341h-150zM921 460l-269 761l-268 -761h537zM420.5 1629.5q-76.5 67.5 -76.5 197.5h96q0 -90 55 -136.5t154 -46.5t153.5 47t54.5 136h96q0 -131 -77 -198t-227 -67q-152 0 -228.5 67.5z" />
    <glyph glyph-name="abreve" unicode="&#x103;" horiz-adv-x="1063" 
d="M729 966.5q89 -48.5 135.5 -139.5t46.5 -217v-610h-110l-9 203q-55 -106 -151.5 -162t-211.5 -56q-102 0 -180 36.5t-121.5 105.5t-43.5 163q0 285 419 285h288v12q0 161 -64.5 236t-212.5 75q-96 0 -166 -41t-124 -122l-101 74q75 104 168 155t222 51q127 0 216 -48.5z
M668 173q87 75 123 202v102h-281q-145 0 -218 -49.5t-73 -141.5q0 -87 62 -137.5t173 -50.5q127 0 214 75zM284.5 1215.5q-76.5 67.5 -76.5 197.5h96q0 -90 55 -136.5t154 -46.5t153.5 47t54.5 136h96q0 -131 -77 -198t-227 -67q-152 0 -228.5 67.5z" />
    <glyph glyph-name="Aogonek" unicode="&#x104;" horiz-adv-x="1302" 
d="M1318 -337q-40 -59 -92 -89t-123 -30q-94 0 -151 51.5t-57 138.5q0 65 34.5 120.5t84.5 93t98 52.5h-28l-120 341h-623l-122 -341h-150l525 1413h115l524 -1413q-59 -16 -118 -52t-98 -87t-39 -111q0 -62 32 -91.5t90 -29.5q47 0 82.5 20t65.5 62zM921 460l-269 761
l-268 -761h537z" />
    <glyph glyph-name="aogonek" unicode="&#x105;" horiz-adv-x="1063" 
d="M997 -337q-40 -59 -92 -89t-123 -30q-94 0 -151 51.5t-57 138.5q0 68 36.5 125t89.5 94t101 50l-9 200q-55 -106 -151.5 -162t-211.5 -56q-102 0 -180 36.5t-121.5 105.5t-43.5 163q0 285 419 285h288v12q0 161 -64.5 236t-212.5 75q-96 0 -166 -41t-124 -122l-101 74
q75 104 168 155t222 51q127 0 216 -48.5t135.5 -139.5t46.5 -217v-610h1q-59 -16 -118 -52t-98 -87t-39 -111q0 -62 32 -91.5t90 -29.5q47 0 82.5 20t65.5 62zM668 173q87 75 123 202v102h-281q-145 0 -218 -49.5t-73 -141.5q0 -87 62 -137.5t173 -50.5q127 0 214 75z" />
    <glyph glyph-name="Cacute" unicode="&#x106;" horiz-adv-x="1455" 
d="M423 77q-144 92 -217 256t-73 376q0 213 73.5 375.5t219 254t355.5 91.5q209 0 353.5 -96t222.5 -286l-129 -52q-52 156 -163.5 229t-284.5 73q-167 0 -281.5 -71.5t-172 -203t-57.5 -309.5q0 -174 53.5 -308.5t166.5 -212t284 -77.5q167 0 279.5 74.5t178.5 231.5
l128 -52q-84 -190 -232 -287.5t-354 -97.5t-350 92zM906 1827h142l-259 -286h-101z" />
    <glyph glyph-name="cacute" unicode="&#x107;" horiz-adv-x="1016" 
d="M306 53q-102 68 -155.5 185t-53.5 260q0 136 51 254t152 190.5t245 72.5q138 0 242.5 -70.5t159.5 -204.5l-126 -49q-36 95 -108.5 149t-167.5 54q-103 0 -173.5 -55t-105.5 -145t-35 -196q0 -107 35 -196.5t105.5 -143t174.5 -53.5q97 0 168.5 53.5t101.5 147.5l121 -46
q-46 -130 -149 -202.5t-241 -72.5q-139 0 -241 68zM699 1413h142l-259 -286h-101z" />
    <glyph glyph-name="Cdotaccent" unicode="&#x10a;" horiz-adv-x="1455" 
d="M423 77q-144 92 -217 256t-73 376q0 213 73.5 375.5t219 254t355.5 91.5q209 0 353.5 -96t222.5 -286l-129 -52q-52 156 -163.5 229t-284.5 73q-167 0 -281.5 -71.5t-172 -203t-57.5 -309.5q0 -174 53.5 -308.5t166.5 -212t284 -77.5q167 0 279.5 74.5t178.5 231.5
l128 -52q-84 -190 -232 -287.5t-354 -97.5t-350 92zM684 1827h138v-205h-138v205z" />
    <glyph glyph-name="cdotaccent" unicode="&#x10b;" horiz-adv-x="1016" 
d="M306 53q-102 68 -155.5 185t-53.5 260q0 136 51 254t152 190.5t245 72.5q138 0 242.5 -70.5t159.5 -204.5l-126 -49q-36 95 -108.5 149t-167.5 54q-103 0 -173.5 -55t-105.5 -145t-35 -196q0 -107 35 -196.5t105.5 -143t174.5 -53.5q97 0 168.5 53.5t101.5 147.5l121 -46
q-46 -130 -149 -202.5t-241 -72.5q-139 0 -241 68zM476 1413h138v-205h-138v205z" />
    <glyph glyph-name="Ccaron" unicode="&#x10c;" horiz-adv-x="1455" 
d="M423 77q-144 92 -217 256t-73 376q0 213 73.5 375.5t219 254t355.5 91.5q209 0 353.5 -96t222.5 -286l-129 -52q-52 156 -163.5 229t-284.5 73q-167 0 -281.5 -71.5t-172 -203t-57.5 -309.5q0 -174 53.5 -308.5t166.5 -212t284 -77.5q167 0 279.5 74.5t178.5 231.5
l128 -52q-84 -190 -232 -287.5t-354 -97.5t-350 92zM451 1827h111l190 -195l192 195h111l-303 -308z" />
    <glyph glyph-name="ccaron" unicode="&#x10d;" horiz-adv-x="1016" 
d="M306 53q-102 68 -155.5 185t-53.5 260q0 136 51 254t152 190.5t245 72.5q138 0 242.5 -70.5t159.5 -204.5l-126 -49q-36 95 -108.5 149t-167.5 54q-103 0 -173.5 -55t-105.5 -145t-35 -196q0 -107 35 -196.5t105.5 -143t174.5 -53.5q97 0 168.5 53.5t101.5 147.5l121 -46
q-46 -130 -149 -202.5t-241 -72.5q-139 0 -241 68zM243 1413h111l190 -195l192 195h111l-303 -308z" />
    <glyph glyph-name="Dcaron" unicode="&#x10e;" horiz-adv-x="1456" 
d="M224 1413h381q233 0 394 -83t244 -243.5t83 -390.5q0 -220 -84 -376.5t-246 -238t-393 -81.5h-379v1413zM591 127q288 0 443 143t155 431q0 296 -144.5 440.5t-441.5 144.5h-242v-1159h230zM443 1827h111l190 -195l192 195h111l-303 -308z" />
    <glyph glyph-name="dcaron" unicode="&#x10f;" horiz-adv-x="1214" 
d="M309.5 54q-101.5 69 -157 186.5t-55.5 260.5q0 141 55.5 258.5t156.5 186.5t232 69q118 0 215 -63t143 -173v634h134v-1413h-124l-5 227q-46 -113 -143 -177.5t-218 -64.5q-132 0 -233.5 69zM750.5 156.5q76.5 51.5 117.5 141.5t41 203q0 112 -41 201.5t-117.5 140.5
t-178.5 51t-179.5 -51.5t-119.5 -141.5t-42 -200q0 -111 42 -201.5t119.5 -142.5t179.5 -52t178.5 51.5zM1268 1413h139l-174 -420h-83z" />
    <glyph glyph-name="Dcroat" unicode="&#x110;" horiz-adv-x="1456" 
d="M999 1330q161 -83 244 -243.5t83 -390.5q0 -220 -84 -376.5t-246 -238t-393 -81.5h-379v661h-151v92h151v660h381q233 0 394 -83zM1034 270q155 143 155 431q0 296 -144.5 440.5t-441.5 144.5h-242v-533h347v-92h-347v-534h230q288 0 443 143z" />
    <glyph glyph-name="dcroat" unicode="&#x111;" horiz-adv-x="1214" 
d="M1170 1173h-137v-1173h-124l-5 227q-46 -113 -143 -177.5t-218 -64.5q-132 0 -233.5 69t-157 186.5t-55.5 260.5q0 141 55.5 258.5t156.5 186.5t232 69q118 0 215 -63t143 -173v394h-364v92h364v148h134v-148h137v-92zM750.5 156.5q76.5 51.5 117.5 141.5t41 203
q0 112 -41 201.5t-117.5 140.5t-178.5 51t-179.5 -51.5t-119.5 -141.5t-42 -200q0 -111 42 -201.5t119.5 -142.5t179.5 -52t178.5 51.5z" />
    <glyph glyph-name="Emacron" unicode="&#x112;" horiz-adv-x="1274" 
d="M224 1413h924v-127h-787v-513h708v-127h-708v-516h787v-130h-924v1413zM414 1716h548v-82h-548v82z" />
    <glyph glyph-name="emacron" unicode="&#x113;" horiz-adv-x="1074" 
d="M312.5 51.5q-105.5 66.5 -160 182.5t-54.5 261q0 143 53 261.5t154.5 188.5t242.5 70q152 0 249.5 -70.5t140.5 -176t43 -215.5q0 -26 -2 -52t-5 -37h-736q8 -169 93 -264t234 -95q91 0 158.5 28.5t134.5 98.5l92 -81q-84 -88 -174.5 -127t-211.5 -39q-146 0 -251.5 66.5
zM849 562q2 38 -2 63q-6 72 -40.5 135t-100 102.5t-159.5 39.5q-89 0 -156 -43t-105.5 -119.5t-47.5 -177.5h611zM261 1302h548v-82h-548v82z" />
    <glyph glyph-name="Edotaccent" unicode="&#x116;" horiz-adv-x="1274" 
d="M224 1413h924v-127h-787v-513h708v-127h-708v-516h787v-130h-924v1413zM617 1827h138v-205h-138v205z" />
    <glyph glyph-name="edotaccent" unicode="&#x117;" horiz-adv-x="1074" 
d="M312.5 51.5q-105.5 66.5 -160 182.5t-54.5 261q0 143 53 261.5t154.5 188.5t242.5 70q152 0 249.5 -70.5t140.5 -176t43 -215.5q0 -26 -2 -52t-5 -37h-736q8 -169 93 -264t234 -95q91 0 158.5 28.5t134.5 98.5l92 -81q-84 -88 -174.5 -127t-211.5 -39q-146 0 -251.5 66.5
zM849 562q2 38 -2 63q-6 72 -40.5 135t-100 102.5t-159.5 39.5q-89 0 -156 -43t-105.5 -119.5t-47.5 -177.5h611zM465 1413h138v-205h-138v205z" />
    <glyph glyph-name="Eogonek" unicode="&#x118;" horiz-adv-x="1274" 
d="M1233 -337q-40 -59 -92 -89t-123 -30q-94 0 -151 51.5t-57 138.5q0 65 34.5 120.5t84.5 93t98 52.5h-803v1413h924v-127h-787v-513h708v-127h-708v-516h787v-130q-59 -16 -118 -52t-98 -87t-39 -111q0 -62 32 -91.5t90 -29.5q47 0 82.5 20t65.5 62z" />
    <glyph glyph-name="eogonek" unicode="&#x119;" horiz-adv-x="1074" 
d="M979 501q-2 -26 -5 -37h-736q8 -169 93 -264t234 -95q91 0 158.5 28.5t134.5 98.5l92 -81q-56 -59 -113.5 -95t-124.5 -54q-66 -37 -108.5 -90t-42.5 -116q0 -62 32 -91.5t90 -29.5q47 0 82.5 20t65.5 62l70 -48q-40 -59 -92 -89t-123 -30q-94 0 -151 51.5t-57 138.5
q0 61 30 113t78 92h-22q-146 0 -251.5 66.5t-160 182.5t-54.5 261q0 143 53 261.5t154.5 188.5t242.5 70q152 0 249.5 -70.5t140.5 -176t43 -215.5q0 -26 -2 -52zM847 625q-6 72 -40.5 135t-100 102.5t-159.5 39.5q-89 0 -156 -43t-105.5 -119.5t-47.5 -177.5h611
q2 38 -2 63z" />
    <glyph glyph-name="Ecaron" unicode="&#x11a;" horiz-adv-x="1274" 
d="M224 1413h924v-127h-787v-513h708v-127h-708v-516h787v-130h-924v1413zM385 1827h111l190 -195l192 195h111l-303 -308z" />
    <glyph glyph-name="ecaron" unicode="&#x11b;" horiz-adv-x="1074" 
d="M312.5 51.5q-105.5 66.5 -160 182.5t-54.5 261q0 143 53 261.5t154.5 188.5t242.5 70q152 0 249.5 -70.5t140.5 -176t43 -215.5q0 -26 -2 -52t-5 -37h-736q8 -169 93 -264t234 -95q91 0 158.5 28.5t134.5 98.5l92 -81q-84 -88 -174.5 -127t-211.5 -39q-146 0 -251.5 66.5
zM849 562q2 38 -2 63q-6 72 -40.5 135t-100 102.5t-159.5 39.5q-89 0 -156 -43t-105.5 -119.5t-47.5 -177.5h611zM232 1413h111l190 -195l192 195h111l-303 -308z" />
    <glyph glyph-name="Gbreve" unicode="&#x11e;" horiz-adv-x="1541" 
d="M423 77q-144 92 -217 256t-73 376q0 213 73.5 375.5t219 254t355.5 91.5q209 0 353 -96t222 -286l-123 -52q-57 159 -170 236t-283 77q-167 0 -281.5 -74.5t-172 -208t-57.5 -312.5q0 -175 53.5 -311t166.5 -215t284 -79q185 0 303 91.5t156 268.5l3 146h-345v113h480
v-728h-110l-12 254q-70 -130 -190.5 -199.5t-284.5 -69.5q-206 0 -350 92zM547.5 1629.5q-76.5 67.5 -76.5 197.5h96q0 -90 55 -136.5t154 -46.5t153.5 47t54.5 136h96q0 -131 -77 -198t-227 -67q-152 0 -228.5 67.5z" />
    <glyph glyph-name="gbreve" unicode="&#x11f;" horiz-adv-x="1051" 
d="M768.5 76.5q81.5 -22.5 138.5 -77.5t57 -155q0 -95 -53 -163.5t-147.5 -104t-216.5 -35.5q-139 0 -241 43t-155.5 119t-53.5 175q0 24 3 44l151 138q-62 28 -96.5 74t-34.5 117q0 62 27 109t81 84q-42 45 -64.5 103t-22.5 124q0 99 50 177.5t136.5 122.5t192.5 44
q73 0 137.5 -21.5t114.5 -61.5l136 120l70 -86l-134 -113q54 -84 54 -189q0 -100 -49.5 -177t-135 -119.5t-190.5 -42.5q-117 0 -210 52q-79 -35 -79 -105q0 -52 39 -80.5t98 -41t179 -30.5q137 -21 218.5 -43.5zM395 879.5q-56 -30.5 -86.5 -85t-30.5 -124.5
q0 -69 30 -122.5t85.5 -83.5t129.5 -30t129.5 29.5t85 83t29.5 122.5q0 71 -30 125.5t-85 85t-128 30.5t-129 -30.5zM759 -305q79 49 79 136q0 60 -41 93t-105 48t-187 32q-43 6 -89 13.5t-83 15.5l-116 -139q0 -12 2 -32q10 -103 99 -159.5t228 -56.5q134 0 213 49z
M299.5 1215.5q-76.5 67.5 -76.5 197.5h96q0 -90 55 -136.5t154 -46.5t153.5 47t54.5 136h96q0 -131 -77 -198t-227 -67q-152 0 -228.5 67.5z" />
    <glyph glyph-name="Gdotaccent" unicode="&#x120;" horiz-adv-x="1541" 
d="M423 77q-144 92 -217 256t-73 376q0 213 73.5 375.5t219 254t355.5 91.5q209 0 353 -96t222 -286l-123 -52q-57 159 -170 236t-283 77q-167 0 -281.5 -74.5t-172 -208t-57.5 -312.5q0 -175 53.5 -311t166.5 -215t284 -79q185 0 303 91.5t156 268.5l3 146h-345v113h480
v-728h-110l-12 254q-70 -130 -190.5 -199.5t-284.5 -69.5q-206 0 -350 92zM706 1827h138v-205h-138v205z" />
    <glyph glyph-name="gdotaccent" unicode="&#x121;" horiz-adv-x="1051" 
d="M768.5 76.5q81.5 -22.5 138.5 -77.5t57 -155q0 -95 -53 -163.5t-147.5 -104t-216.5 -35.5q-139 0 -241 43t-155.5 119t-53.5 175q0 24 3 44l151 138q-62 28 -96.5 74t-34.5 117q0 62 27 109t81 84q-42 45 -64.5 103t-22.5 124q0 99 50 177.5t136.5 122.5t192.5 44
q73 0 137.5 -21.5t114.5 -61.5l136 120l70 -86l-134 -113q54 -84 54 -189q0 -100 -49.5 -177t-135 -119.5t-190.5 -42.5q-117 0 -210 52q-79 -35 -79 -105q0 -52 39 -80.5t98 -41t179 -30.5q137 -21 218.5 -43.5zM395 879.5q-56 -30.5 -86.5 -85t-30.5 -124.5
q0 -69 30 -122.5t85.5 -83.5t129.5 -30t129.5 29.5t85 83t29.5 122.5q0 71 -30 125.5t-85 85t-128 30.5t-129 -30.5zM759 -305q79 49 79 136q0 60 -41 93t-105 48t-187 32q-43 6 -89 13.5t-83 15.5l-116 -139q0 -12 2 -32q10 -103 99 -159.5t228 -56.5q134 0 213 49z
M459 1413h138v-205h-138v205z" />
    <glyph glyph-name="uni0122" unicode="&#x122;" horiz-adv-x="1541" 
d="M423 77q-144 92 -217 256t-73 376q0 213 73.5 375.5t219 254t355.5 91.5q209 0 353 -96t222 -286l-123 -52q-57 159 -170 236t-283 77q-167 0 -281.5 -74.5t-172 -208t-57.5 -312.5q0 -175 53.5 -311t166.5 -215t284 -79q185 0 303 91.5t156 268.5l3 146h-345v113h480
v-728h-110l-12 254q-70 -130 -190.5 -199.5t-284.5 -69.5q-206 0 -350 92zM730 -113h141l-238 -334h-85z" />
    <glyph glyph-name="uni0123" unicode="&#x123;" horiz-adv-x="1044" 
d="M565 1125h-141l238 299h85zM768.5 76.5q81.5 -22.5 138.5 -77.5t57 -155q0 -95 -53 -163.5t-147.5 -104t-216.5 -35.5q-139 0 -241 43t-155.5 119t-53.5 175q0 24 3 44l151 138q-62 28 -96.5 74t-34.5 117q0 62 27 109t81 84q-42 45 -64.5 103t-22.5 124q0 99 50 177.5
t136.5 122.5t192.5 44q73 0 137.5 -21.5t114.5 -61.5l136 120l70 -86l-134 -113q54 -84 54 -189q0 -100 -49.5 -177t-135 -119.5t-190.5 -42.5q-117 0 -210 52q-79 -35 -79 -105q0 -52 39 -80.5t98 -41t179 -30.5q137 -21 218.5 -43.5zM395 879.5q-56 -30.5 -86.5 -85
t-30.5 -124.5q0 -69 30 -122.5t85.5 -83.5t129.5 -30t129.5 29.5t85 83t29.5 122.5q0 71 -30 125.5t-85 85t-128 30.5t-129 -30.5zM759 -305q79 49 79 136q0 60 -41 93t-105 48t-187 32q-43 6 -89 13.5t-83 15.5l-116 -139q0 -12 2 -32q10 -103 99 -159.5t228 -56.5
q134 0 213 49z" />
    <glyph glyph-name="Hbar" unicode="&#x126;" horiz-adv-x="1464" 
d="M1375 1074h-135v-1074h-137v647h-742v-647h-137v1074h-135v82h135v257h137v-257h742v257h137v-257h135v-82zM1103 1074h-742v-300h742v300z" />
    <glyph glyph-name="hbar" unicode="&#x127;" horiz-adv-x="1128" 
d="M816.5 965.5q77.5 -49.5 117 -135.5t41.5 -197v-633h-134v602q0 139 -59 215.5t-186 76.5q-87 0 -150.5 -41t-97 -114t-33.5 -169v-570h-134v1142h-182v92h182v179h134v-179h319v-92h-319v-313q47 90 128.5 138t182.5 48q113 0 190.5 -49.5z" />
    <glyph glyph-name="Itilde" unicode="&#x128;" horiz-adv-x="586" 
d="M224 1413h137v-1413h-137v1413zM358 1575.5q-31 14.5 -51.5 35t-45.5 53.5q-29 38 -51.5 56.5t-55.5 18.5q-48 0 -75.5 -42t-27.5 -118h-80q0 116 50 181t137 64q39 0 68 -13.5t48.5 -33.5t44.5 -52q32 -40 55.5 -59t58.5 -19q42 0 68.5 46t26.5 123h83q0 -78 -22 -135.5
t-62.5 -88.5t-94.5 -31q-43 0 -74 14.5z" />
    <glyph glyph-name="itilde" unicode="&#x129;" horiz-adv-x="490" 
d="M179 999h132v-999h-132v999zM311 1162.5q-31 14.5 -51.5 35t-45.5 53.5q-29 38 -51.5 56.5t-55.5 18.5q-48 0 -75.5 -42t-27.5 -118h-80q0 116 50 181t137 64q39 0 68 -13.5t48.5 -33.5t44.5 -52q32 -40 55.5 -59t58.5 -19q42 0 68.5 46t26.5 123h83q0 -78 -22 -135.5
t-62.5 -88.5t-94.5 -31q-43 0 -74 14.5z" />
    <glyph glyph-name="Imacron" unicode="&#x12a;" horiz-adv-x="586" 
d="M224 1413h137v-1413h-137v1413zM18 1716h548v-82h-548v82z" />
    <glyph glyph-name="imacron" unicode="&#x12b;" horiz-adv-x="490" 
d="M179 999h132v-999h-132v999zM-29 1302h548v-82h-548v82z" />
    <glyph glyph-name="Iogonek" unicode="&#x12e;" horiz-adv-x="586" 
d="M447 -337q-40 -59 -92 -89t-123 -30q-94 0 -151 51.5t-57 138.5q0 65 34.5 120.5t84.5 93t98 52.5h-17v1413h137v-1413h1q-59 -16 -118 -52t-98 -87t-39 -111q0 -62 32 -91.5t90 -29.5q47 0 82.5 20t65.5 62z" />
    <glyph glyph-name="iogonek" unicode="&#x12f;" horiz-adv-x="490" 
d="M313 1208h-138v205h138v-205zM397 -337q-40 -59 -92 -89t-123 -30q-94 0 -151 51.5t-57 138.5q0 65 34.5 120.5t84.5 93t98 52.5h-12v999h132v-999h1q-59 -16 -118 -52t-98 -87t-39 -111q0 -62 32 -91.5t90 -29.5q47 0 82.5 20t65.5 62z" />
    <glyph glyph-name="Idotaccent" unicode="&#x130;" horiz-adv-x="586" 
d="M224 1413h137v-1413h-137v1413zM222 1827h138v-205h-138v205z" />
    <glyph glyph-name="dotlessi" unicode="&#x131;" horiz-adv-x="490" 
d="M179 999h132v-999h-132v999z" />
    <glyph glyph-name="IJ" unicode="&#x132;" horiz-adv-x="1757" 
d="M224 1413h137v-1413h-137v1413zM886.5 40q-98.5 55 -155.5 152t-66 221l135 14q7 -93 45.5 -164t107 -110.5t162.5 -39.5q163 0 235.5 99t72.5 301v773h-575v127h712v-898q0 -253 -109.5 -391.5t-335.5 -138.5q-130 0 -228.5 55z" />
    <glyph glyph-name="uni0136" unicode="&#x136;" horiz-adv-x="1451" 
d="M224 1413h137v-849l808 849h185l-541 -557l569 -856h-170l-494 764l-357 -369v-395h-137v1413zM652 -113h141l-238 -334h-85z" />
    <glyph glyph-name="uni0137" unicode="&#x137;" horiz-adv-x="1092" 
d="M181 1413h132v-957l514 543h173l-362 -373l421 -626h-157l-354 543l-235 -247v-296h-132v1413zM549 -113h141l-238 -334h-85z" />
    <glyph glyph-name="kgreenlandic" unicode="&#x138;" horiz-adv-x="1090" 
d="M179 999h132v-543l514 543h173l-362 -373l421 -626h-157l-354 543l-235 -247v-296h-132v999z" />
    <glyph glyph-name="Lacute" unicode="&#x139;" horiz-adv-x="1073" 
d="M224 1413h137v-1283h647v-130h-784v1413zM447 1827h142l-259 -286h-101z" />
    <glyph glyph-name="lacute" unicode="&#x13a;" horiz-adv-x="550" 
d="M215 41.5q-41 56.5 -41 169.5v1202h132v-1168q0 -45 7.5 -75t31.5 -48t71 -18q31 0 81 10l2 -113q-78 -16 -141 -16q-102 0 -143 56.5zM419 1826h142l-259 -286h-101z" />
    <glyph glyph-name="uni013B" unicode="&#x13b;" horiz-adv-x="1073" 
d="M224 1413h137v-1283h647v-130h-784v1413zM557 -113h141l-238 -334h-85z" />
    <glyph glyph-name="uni013C" unicode="&#x13c;" horiz-adv-x="550" 
d="M215 41.5q-41 56.5 -41 169.5v1202h132v-1168q0 -45 7.5 -75t31.5 -48t71 -18q31 0 81 10l2 -113q-78 -16 -141 -16q-102 0 -143 56.5zM308 -113h141l-238 -334h-85z" />
    <glyph glyph-name="Lcaron" unicode="&#x13d;" horiz-adv-x="1073" 
d="M224 1413h137v-1283h647v-130h-784v1413zM770 1413h139l-174 -420h-83z" />
    <glyph glyph-name="lcaron" unicode="&#x13e;" horiz-adv-x="550" 
d="M215 41.5q-41 56.5 -41 169.5v1202h132v-1168q0 -45 7.5 -75t31.5 -48t71 -18q31 0 81 10l2 -113q-78 -16 -141 -16q-102 0 -143 56.5zM539 1413h139l-174 -420h-83z" />
    <glyph glyph-name="Lslash" unicode="&#x141;" horiz-adv-x="1073" 
d="M1008 130v-130h-784v376l-135 -153v151l135 153v886h137v-731l337 382v-150l-337 -382v-402h647z" />
    <glyph glyph-name="lslash" unicode="&#x142;" horiz-adv-x="566" 
d="M505 1q-78 -16 -140 -16q-102 0 -143.5 56.5t-41.5 169.5v289l-92 -96v131l92 95v783h132v-646l168 174l1 -128l-169 -176v-392q0 -45 7.5 -75t31.5 -48t71 -18q31 0 81 10z" />
    <glyph glyph-name="Nacute" unicode="&#x143;" horiz-adv-x="1428" 
d="M1204 1413v-1413h-145l-703 1196v-1196h-132v1413h145l703 -1192v1192h132zM866 1827h142l-259 -286h-101z" />
    <glyph glyph-name="nacute" unicode="&#x144;" horiz-adv-x="1124" 
d="M179 999h132v-170q46 90 129 138t184 48q113 0 190 -49.5t116 -135.5t41 -197v-633h-132v602q0 138 -64 214t-186 76q-129 0 -203.5 -78.5t-74.5 -222.5v-591h-132v999zM721 1413h142l-259 -286h-101z" />
    <glyph glyph-name="uni0145" unicode="&#x145;" horiz-adv-x="1428" 
d="M1204 1413v-1413h-145l-703 1196v-1196h-132v1413h145l703 -1192v1192h132zM654 -113h141l-238 -334h-85z" />
    <glyph glyph-name="uni0146" unicode="&#x146;" horiz-adv-x="1124" 
d="M179 999h132v-170q46 90 129 138t184 48q113 0 190 -49.5t116 -135.5t41 -197v-633h-132v602q0 138 -64 214t-186 76q-129 0 -203.5 -78.5t-74.5 -222.5v-591h-132v999zM508 -113h141l-238 -334h-85z" />
    <glyph glyph-name="Ncaron" unicode="&#x147;" horiz-adv-x="1428" 
d="M1204 1413v-1413h-145l-703 1196v-1196h-132v1413h145l703 -1192v1192h132zM411 1827h111l190 -195l192 195h111l-303 -308z" />
    <glyph glyph-name="ncaron" unicode="&#x148;" horiz-adv-x="1124" 
d="M179 999h132v-170q46 90 129 138t184 48q113 0 190 -49.5t116 -135.5t41 -197v-633h-132v602q0 138 -64 214t-186 76q-129 0 -203.5 -78.5t-74.5 -222.5v-591h-132v999zM266 1413h111l190 -195l192 195h111l-303 -308z" />
    <glyph glyph-name="Eng" unicode="&#x14a;" horiz-adv-x="1430" 
d="M1203 1413v-1442q0 -144 -66.5 -229.5t-214.5 -85.5q-30 0 -70 5.5t-76 15.5l4 91q26 -9 56.5 -14t52.5 -5q95 0 144.5 47t49.5 122q0 35 -13 58l-714 1224v-1200h-132v1413h145l703 -1198v1198h131z" />
    <glyph glyph-name="eng" unicode="&#x14b;" horiz-adv-x="1157" 
d="M619 -425q-40 8 -73 19l32 101q28 -8 58 -13.5t53 -5.5q78 0 114 46t36 137v743q0 138 -64 214t-186 76q-129 0 -204 -79t-75 -222v-591h-131v999h131v-170q46 90 129.5 138t184.5 48q113 0 190 -49.5t115.5 -135.5t40.5 -197v-760q0 -141 -71 -223.5t-207 -82.5
q-33 0 -73 8z" />
    <glyph glyph-name="Omacron" unicode="&#x14c;" horiz-adv-x="1559" 
d="M420.5 82.5q-145.5 97.5 -217.5 261.5t-72 363t72 362.5t217.5 261t357.5 97.5q213 0 359 -97.5t218 -261t72 -362.5t-72 -363t-218 -261.5t-359 -97.5q-212 0 -357.5 97.5zM1062 188q113 80 167 215t54 304q0 168 -54 303.5t-167.5 215.5t-283.5 80q-169 0 -282 -80
t-167 -215.5t-54 -303.5q0 -169 54 -304t167 -215t282 -80q171 0 284 80zM505 1716h548v-82h-548v82z" />
    <glyph glyph-name="omacron" unicode="&#x14d;" horiz-adv-x="1152" 
d="M325 53.5q-110 68.5 -171.5 187t-61.5 261.5q0 142 61.5 259t171.5 185.5t249 68.5q140 0 250.5 -68.5t173 -185.5t62.5 -259q0 -143 -62.5 -261t-173 -187t-250.5 -69q-139 0 -249 68.5zM759 153.5q79 53.5 121.5 145.5t42.5 203t-42.5 201.5t-121.5 143t-185 52.5
q-105 0 -183.5 -52.5t-120 -143t-41.5 -201.5q0 -112 41.5 -203.5t120 -145t183.5 -53.5q106 0 185 53.5zM302 1302h548v-82h-548v82z" />
    <glyph glyph-name="Ohungarumlaut" unicode="&#x150;" horiz-adv-x="1559" 
d="M420.5 82.5q-145.5 97.5 -217.5 261.5t-72 363t72 362.5t217.5 261t357.5 97.5q213 0 359 -97.5t218 -261t72 -362.5t-72 -363t-218 -261.5t-359 -97.5q-212 0 -357.5 97.5zM1062 188q113 80 167 215t54 304q0 168 -54 303.5t-167.5 215.5t-283.5 80q-169 0 -282 -80
t-167 -215.5t-54 -303.5q0 -169 54 -304t167 -215t282 -80q171 0 284 80zM756 1827h122l-239 -306h-101zM1098 1827h142l-259 -306h-101z" />
    <glyph glyph-name="ohungarumlaut" unicode="&#x151;" horiz-adv-x="1152" 
d="M325 53.5q-110 68.5 -171.5 187t-61.5 261.5q0 142 61.5 259t171.5 185.5t249 68.5q140 0 250.5 -68.5t173 -185.5t62.5 -259q0 -143 -62.5 -261t-173 -187t-250.5 -69q-139 0 -249 68.5zM759 153.5q79 53.5 121.5 145.5t42.5 203t-42.5 201.5t-121.5 143t-185 52.5
q-105 0 -183.5 -52.5t-120 -143t-41.5 -201.5q0 -112 41.5 -203.5t120 -145t183.5 -53.5q106 0 185 53.5zM553 1413h122l-239 -306h-101zM895 1413h142l-259 -306h-101z" />
    <glyph glyph-name="OE" unicode="&#x152;" horiz-adv-x="2341" 
d="M1428 1286v-513h708v-127h-708v-516h787v-130h-924v231q-83 -116 -211.5 -181t-301.5 -65q-212 0 -357.5 97.5t-217.5 261.5t-72 363t72 362.5t217.5 261t357.5 97.5q173 0 301.5 -65t211.5 -181v231h924v-127h-787zM1062 188q113 80 167 215t54 304q0 168 -54 303.5
t-167.5 215.5t-283.5 80q-169 0 -282 -80t-167 -215.5t-54 -303.5q0 -169 54 -304t167 -215t282 -80q171 0 284 80z" />
    <glyph glyph-name="oe" unicode="&#x153;" horiz-adv-x="1900" 
d="M1804 501q-2 -26 -5 -37h-736q8 -169 93 -264t234 -95q91 0 158.5 28.5t134.5 98.5l92 -81q-84 -88 -174.5 -127t-211.5 -39q-141 0 -244 62t-160 172q-64 -108 -171 -171t-240 -63q-139 0 -249 68.5t-171.5 187t-61.5 261.5q0 142 61.5 259t171.5 185.5t249 68.5
q134 0 241.5 -63t171.5 -172q56 110 154.5 172.5t231.5 62.5q152 0 249.5 -70.5t140.5 -176t43 -215.5q0 -26 -2 -52zM1672 625q-6 72 -40.5 135t-100 102.5t-159.5 39.5q-89 0 -156 -43t-105.5 -119.5t-47.5 -177.5h611q2 38 -2 63zM759 153.5q79 53.5 121.5 145.5
t42.5 203t-42.5 201.5t-121.5 143t-185 52.5q-105 0 -183.5 -52.5t-120 -143t-41.5 -201.5q0 -112 41.5 -203.5t120 -145t183.5 -53.5q106 0 185 53.5z" />
    <glyph glyph-name="Racute" unicode="&#x154;" horiz-adv-x="1264" 
d="M224 1413h396q137 0 243.5 -46.5t166.5 -135.5t60 -212q0 -141 -79.5 -235.5t-219.5 -128.5l391 -655h-156l-369 641q-44 -3 -95 -3h-201v-638h-137v1413zM631 752q155 2 238.5 70.5t83.5 194.5q0 129 -88 200.5t-244 71.5h-259v-537h269zM776 1827h142l-259 -286h-101z
" />
    <glyph glyph-name="racute" unicode="&#x155;" horiz-adv-x="793" 
d="M179 999h129v-209q24 74 73.5 124.5t111 75.5t123.5 25q43 0 83.5 -12t72.5 -36l-60 -110q-53 29 -114 29q-72 0 -138.5 -39.5t-109.5 -124t-43 -212.5v-510h-128v999zM593 1413h142l-259 -286h-101z" />
    <glyph glyph-name="uni0156" unicode="&#x156;" horiz-adv-x="1264" 
d="M224 1413h396q137 0 243.5 -46.5t166.5 -135.5t60 -212q0 -141 -79.5 -235.5t-219.5 -128.5l391 -655h-156l-369 641q-44 -3 -95 -3h-201v-638h-137v1413zM631 752q155 2 238.5 70.5t83.5 194.5q0 129 -88 200.5t-244 71.5h-259v-537h269zM636 -113h141l-238 -334h-85z
" />
    <glyph glyph-name="uni0157" unicode="&#x157;" horiz-adv-x="793" 
d="M179 999h129v-209q24 74 73.5 124.5t111 75.5t123.5 25q43 0 83.5 -12t72.5 -36l-60 -110q-53 29 -114 29q-72 0 -138.5 -39.5t-109.5 -124t-43 -212.5v-510h-128v999zM336 -113h141l-238 -334h-85z" />
    <glyph glyph-name="Rcaron" unicode="&#x158;" horiz-adv-x="1264" 
d="M224 1413h396q137 0 243.5 -46.5t166.5 -135.5t60 -212q0 -141 -79.5 -235.5t-219.5 -128.5l391 -655h-156l-369 641q-44 -3 -95 -3h-201v-638h-137v1413zM631 752q155 2 238.5 70.5t83.5 194.5q0 129 -88 200.5t-244 71.5h-259v-537h269zM321 1827h111l190 -195l192 195
h111l-303 -308z" />
    <glyph glyph-name="rcaron" unicode="&#x159;" horiz-adv-x="793" 
d="M179 999h129v-209q24 74 73.5 124.5t111 75.5t123.5 25q43 0 83.5 -12t72.5 -36l-60 -110q-53 29 -114 29q-72 0 -138.5 -39.5t-109.5 -124t-43 -212.5v-510h-128v999zM138 1413h111l190 -195l192 195h111l-303 -308z" />
    <glyph glyph-name="Sacute" unicode="&#x15a;" horiz-adv-x="1149" 
d="M360 32.5q-105 45.5 -175 133t-90 209.5l136 34q21 -144 117.5 -221.5t241.5 -77.5q94 0 165.5 34.5t110.5 95.5t39 137q0 83 -45.5 139t-112.5 91t-182 80q-127 50 -203 91t-129.5 112t-53.5 178t53 189t144.5 126.5t202.5 44.5q271 0 400 -227l-114 -71
q-49 89 -121 132.5t-170 43.5q-73 0 -132 -30t-92.5 -83t-33.5 -119q0 -72 42 -121.5t105 -81.5t172 -74q132 -51 212.5 -94.5t137.5 -120.5t57 -194q0 -118 -59.5 -209.5t-163 -141.5t-231.5 -50q-123 0 -228 45.5zM726 1827h142l-259 -286h-101z" />
    <glyph glyph-name="sacute" unicode="&#x15b;" horiz-adv-x="928" 
d="M296 18.5q-83 33.5 -141 93.5t-84 136l107 47q31 -86 106.5 -142.5t185.5 -56.5q74 0 126 23.5t78.5 65.5t26.5 95q0 59 -34.5 94.5t-85 54t-139.5 40.5q-104 25 -168 50t-108.5 78t-44.5 143q0 86 45 148.5t122.5 94.5t174.5 32q117 0 207.5 -54.5t143.5 -154.5
l-102 -55q-38 72 -102 114.5t-151 42.5q-64 0 -111.5 -19t-73.5 -53.5t-26 -78.5q0 -52 32 -84t79.5 -49.5t132.5 -39.5q108 -27 175.5 -55t115.5 -86t48 -157q0 -97 -47 -164.5t-127.5 -102t-180.5 -34.5q-97 0 -180 33.5zM602 1413h142l-259 -286h-101z" />
    <glyph glyph-name="Scedilla" unicode="&#x15e;" horiz-adv-x="1149" 
d="M984.5 181.5q-57.5 -90.5 -158 -141t-224.5 -53.5l-75 -120q32 -1 65 -8q85 -17 129.5 -62.5t44.5 -115.5q0 -58 -26 -102.5t-73 -69.5t-109 -25q-69 0 -124 37.5t-74 106.5l77 32q13 -41 46.5 -68.5t77.5 -27.5q58 0 90.5 29.5t32.5 82.5q0 56 -48 90.5t-134 40.5
q-38 3 -87 3l106 181q-108 11 -198 59t-149.5 131t-78.5 194l136 34q21 -144 117.5 -221.5t241.5 -77.5q94 0 165.5 34.5t110.5 95.5t39 137q0 83 -45.5 139t-112.5 91t-182 80q-127 50 -203 91t-129.5 112t-53.5 178t53 189t144.5 126.5t202.5 44.5q271 0 400 -227
l-114 -71q-49 89 -121 132.5t-170 43.5q-73 0 -132 -30t-92.5 -83t-33.5 -119q0 -72 42 -121.5t105 -81.5t172 -74q132 -51 212.5 -94.5t137.5 -120.5t57 -194q0 -116 -57.5 -206.5z" />
    <glyph glyph-name="scedilla" unicode="&#x15f;" horiz-adv-x="928" 
d="M792 134q-39 -64 -106.5 -100.5t-154.5 -45.5l-75 -121q32 -1 65 -8q85 -17 129.5 -62.5t44.5 -115.5q0 -58 -26 -102.5t-73 -69.5t-109 -25q-69 0 -124 37.5t-74 106.5l77 32q13 -41 46.5 -68.5t77.5 -27.5q58 0 90.5 29.5t32.5 82.5q0 56 -48 90.5t-134 40.5
q-37 3 -87 3l103 176q-90 5 -167 39.5t-131 92.5t-78 130l107 47q31 -86 106.5 -142.5t185.5 -56.5q74 0 126 23.5t78.5 65.5t26.5 95q0 59 -34.5 94.5t-85 54t-139.5 40.5q-104 25 -168 50t-108.5 78t-44.5 143q0 86 45 148.5t122.5 94.5t174.5 32q117 0 207.5 -54.5
t143.5 -154.5l-102 -55q-38 72 -102 114.5t-151 42.5q-64 0 -111.5 -19t-73.5 -53.5t-26 -78.5q0 -52 32 -84t79.5 -49.5t132.5 -39.5q108 -27 175.5 -55t115.5 -86t48 -157q0 -88 -39 -152z" />
    <glyph glyph-name="Scaron" unicode="&#x160;" horiz-adv-x="1149" 
d="M360 32.5q-105 45.5 -175 133t-90 209.5l136 34q21 -144 117.5 -221.5t241.5 -77.5q94 0 165.5 34.5t110.5 95.5t39 137q0 83 -45.5 139t-112.5 91t-182 80q-127 50 -203 91t-129.5 112t-53.5 178t53 189t144.5 126.5t202.5 44.5q271 0 400 -227l-114 -71
q-49 89 -121 132.5t-170 43.5q-73 0 -132 -30t-92.5 -83t-33.5 -119q0 -72 42 -121.5t105 -81.5t172 -74q132 -51 212.5 -94.5t137.5 -120.5t57 -194q0 -118 -59.5 -209.5t-163 -141.5t-231.5 -50q-123 0 -228 45.5zM271 1827h111l190 -195l192 195h111l-303 -308z" />
    <glyph glyph-name="scaron" unicode="&#x161;" horiz-adv-x="928" 
d="M296 18.5q-83 33.5 -141 93.5t-84 136l107 47q31 -86 106.5 -142.5t185.5 -56.5q74 0 126 23.5t78.5 65.5t26.5 95q0 59 -34.5 94.5t-85 54t-139.5 40.5q-104 25 -168 50t-108.5 78t-44.5 143q0 86 45 148.5t122.5 94.5t174.5 32q117 0 207.5 -54.5t143.5 -154.5
l-102 -55q-38 72 -102 114.5t-151 42.5q-64 0 -111.5 -19t-73.5 -53.5t-26 -78.5q0 -52 32 -84t79.5 -49.5t132.5 -39.5q108 -27 175.5 -55t115.5 -86t48 -157q0 -97 -47 -164.5t-127.5 -102t-180.5 -34.5q-97 0 -180 33.5zM147 1413h111l190 -195l192 195h111l-303 -308z
" />
    <glyph glyph-name="uni0162" unicode="&#x162;" horiz-adv-x="1252" 
d="M558 1289h-493v124h1123v-124h-493v-1289h-137v1289zM496 -478.5q-55 37.5 -74 106.5l77 32q13 -41 46.5 -68.5t77.5 -27.5q58 0 90.5 29.5t32.5 82.5q0 56 -48 90.5t-134 40.5q-38 3 -87 3l111 189h83l-82 -132q32 -1 65 -8q85 -17 129.5 -62.5t44.5 -115.5
q0 -58 -26 -102.5t-73 -69.5t-109 -25q-69 0 -124 37.5z" />
    <glyph glyph-name="uni0163" unicode="&#x163;" horiz-adv-x="702" 
d="M635.5 -203.5q44.5 -45.5 44.5 -115.5q0 -58 -26 -102.5t-73 -69.5t-109 -25q-69 0 -124 37.5t-74 106.5l77 32q13 -41 46.5 -68.5t77.5 -27.5q58 0 90.5 29.5t32.5 82.5q0 56 -48 90.5t-134 40.5q-37 3 -87 3l105 178q-109 13 -166 88t-57 204v607h-166v112h168v289
l130 97v-386h280v-112h-280v-586q0 -104 40.5 -151.5t121.5 -47.5q56 0 117 24l2 -121q-46 -15 -109 -19l-74 -119q32 -1 65 -8q85 -17 129.5 -62.5z" />
    <glyph glyph-name="Tcaron" unicode="&#x164;" horiz-adv-x="1252" 
d="M558 1289h-493v124h1123v-124h-493v-1289h-137v1289zM326 1827h111l190 -195l192 195h111l-303 -308z" />
    <glyph glyph-name="tcaron" unicode="&#x165;" horiz-adv-x="702" 
d="M280.5 61q-69.5 76 -69.5 219v607h-166v112h168v289l130 97v-386h280v-112h-280v-586q0 -104 40.5 -151.5t121.5 -47.5q56 0 117 24l2 -121q-26 -8 -64 -14t-77 -6q-133 0 -202.5 76zM611 1564h139l-174 -420h-83z" />
    <glyph glyph-name="Tbar" unicode="&#x166;" horiz-adv-x="1252" 
d="M695 1289v-536h251v-92h-251v-661h-137v661h-247v92h247v536h-493v124h1123v-124h-493z" />
    <glyph glyph-name="tbar" unicode="&#x167;" horiz-adv-x="702" 
d="M343 454v-153q0 -104 40.5 -151.5t121.5 -47.5q56 0 117 24l2 -121q-26 -8 -64 -14t-77 -6q-133 0 -202.5 76t-69.5 219v174h-186v92h186v341h-166v112h168v289l130 97v-386h280v-112h-280v-341h317v-92h-317z" />
    <glyph glyph-name="Utilde" unicode="&#x168;" horiz-adv-x="1401" 
d="M322 127.5q-127 142.5 -127 402.5v883h137v-868q0 -211 88.5 -319t278.5 -108q191 0 280.5 109.5t89.5 322.5v863h137v-872q0 -266 -128 -411t-379 -145q-250 0 -377 142.5zM767 1575.5q-31 14.5 -51.5 35t-45.5 53.5q-29 38 -51.5 56.5t-55.5 18.5q-48 0 -75.5 -42
t-27.5 -118h-80q0 116 50 181t137 64q39 0 68 -13.5t48.5 -33.5t44.5 -52q32 -40 55.5 -59t58.5 -19q42 0 68.5 46t26.5 123h83q0 -78 -22 -135.5t-62.5 -88.5t-94.5 -31q-43 0 -74 14.5z" />
    <glyph glyph-name="utilde" unicode="&#x169;" horiz-adv-x="1123" 
d="M310 34.5q-77 49.5 -115.5 135.5t-40.5 197v632h131v-602q0 -138 64 -213.5t186 -75.5q128 0 203 78.5t75 222.5v590h131v-999h-131v170q-46 -90 -129 -137.5t-184 -47.5q-113 0 -190 49.5zM625 1162.5q-31 14.5 -51.5 35t-45.5 53.5q-29 38 -51.5 56.5t-55.5 18.5
q-48 0 -75.5 -42t-27.5 -118h-80q0 116 50 181t137 64q39 0 68 -13.5t48.5 -33.5t44.5 -52q32 -40 55.5 -59t58.5 -19q42 0 68.5 46t26.5 123h83q0 -78 -22 -135.5t-62.5 -88.5t-94.5 -31q-43 0 -74 14.5z" />
    <glyph glyph-name="Umacron" unicode="&#x16a;" horiz-adv-x="1401" 
d="M322 127.5q-127 142.5 -127 402.5v883h137v-868q0 -211 88.5 -319t278.5 -108q191 0 280.5 109.5t89.5 322.5v863h137v-872q0 -266 -128 -411t-379 -145q-250 0 -377 142.5zM427 1716h548v-82h-548v82z" />
    <glyph glyph-name="umacron" unicode="&#x16b;" horiz-adv-x="1123" 
d="M310 34.5q-77 49.5 -115.5 135.5t-40.5 197v632h131v-602q0 -138 64 -213.5t186 -75.5q128 0 203 78.5t75 222.5v590h131v-999h-131v170q-46 -90 -129 -137.5t-184 -47.5q-113 0 -190 49.5zM286 1302h548v-82h-548v82z" />
    <glyph glyph-name="Uring" unicode="&#x16e;" horiz-adv-x="1401" 
d="M322 127.5q-127 142.5 -127 402.5v883h137v-868q0 -211 88.5 -319t278.5 -108q191 0 280.5 109.5t89.5 322.5v863h137v-872q0 -266 -128 -411t-379 -145q-250 0 -377 142.5zM600.5 1535.5q-44.5 26.5 -70 71t-25.5 96.5q0 53 26 97.5t70 70.5t97 26q52 0 97 -26
t71.5 -70.5t26.5 -97.5t-26 -97.5t-70.5 -70.5t-98.5 -26q-53 0 -97.5 26.5zM783 1618.5q34 34.5 34 85.5q0 50 -33.5 83.5t-85.5 33.5q-50 0 -83.5 -33.5t-33.5 -83.5q0 -51 33.5 -85.5t83.5 -34.5q51 0 85 34.5z" />
    <glyph glyph-name="uring" unicode="&#x16f;" horiz-adv-x="1123" 
d="M310 34.5q-77 49.5 -115.5 135.5t-40.5 197v632h131v-602q0 -138 64 -213.5t186 -75.5q128 0 203 78.5t75 222.5v590h131v-999h-131v170q-46 -90 -129 -137.5t-184 -47.5q-113 0 -190 49.5zM459.5 1121.5q-44.5 26.5 -70 71t-25.5 96.5q0 53 26 97.5t70 70.5t97 26
q52 0 97 -26t71.5 -70.5t26.5 -97.5t-26 -97.5t-70.5 -70.5t-98.5 -26q-53 0 -97.5 26.5zM642 1204.5q34 34.5 34 85.5q0 50 -33.5 83.5t-85.5 33.5q-50 0 -83.5 -33.5t-33.5 -83.5q0 -51 33.5 -85.5t83.5 -34.5q51 0 85 34.5z" />
    <glyph glyph-name="Uhungarumlaut" unicode="&#x170;" horiz-adv-x="1401" 
d="M322 127.5q-127 142.5 -127 402.5v883h137v-868q0 -211 88.5 -319t278.5 -108q191 0 280.5 109.5t89.5 322.5v863h137v-872q0 -266 -128 -411t-379 -145q-250 0 -377 142.5zM678 1827h122l-239 -306h-101zM1020 1827h142l-259 -306h-101z" />
    <glyph glyph-name="uhungarumlaut" unicode="&#x171;" horiz-adv-x="1123" 
d="M310 34.5q-77 49.5 -115.5 135.5t-40.5 197v632h131v-602q0 -138 64 -213.5t186 -75.5q128 0 203 78.5t75 222.5v590h131v-999h-131v170q-46 -90 -129 -137.5t-184 -47.5q-113 0 -190 49.5zM537 1413h122l-239 -306h-101zM879 1413h142l-259 -306h-101z" />
    <glyph glyph-name="Uogonek" unicode="&#x172;" horiz-adv-x="1401" 
d="M1206 1413v-872q0 -219 -86.5 -356.5t-258.5 -181.5q-71 -37 -118.5 -92.5t-47.5 -121.5q0 -62 32 -91.5t90 -29.5q47 0 82.5 20t65.5 62l70 -48q-40 -59 -92 -89t-123 -30q-94 0 -151 51.5t-57 138.5q0 64 33 118.5t84 94.5q-10 -1 -30 -1q-250 0 -377 142.5t-127 402.5
v883h137v-868q0 -211 88.5 -319t278.5 -108q191 0 280.5 109.5t89.5 322.5v863h137z" />
    <glyph glyph-name="uogonek" unicode="&#x173;" horiz-adv-x="1123" 
d="M1029 -337q-40 -59 -92 -89t-123 -30q-94 0 -151 51.5t-57 138.5q0 65 34.5 120.5t84.5 93t98 52.5h-10v170q-46 -90 -129 -137.5t-184 -47.5q-113 0 -190 49.5t-115.5 135.5t-40.5 197v632h131v-602q0 -138 64 -213.5t186 -75.5q128 0 203 78.5t75 222.5v590h131v-999
q-59 -16 -118 -52t-98 -87t-39 -111q0 -62 32 -91.5t90 -29.5q47 0 82.5 20t65.5 62z" />
    <glyph glyph-name="Wcircumflex" unicode="&#x174;" horiz-adv-x="1979" 
d="M79 1413h143l343 -1217l369 1141h112l368 -1141l343 1217h144l-408 -1413h-139l-364 1121l-364 -1121h-140zM993 1830l302 -319h-110l-192 201l-190 -201h-111z" />
    <glyph glyph-name="wcircumflex" unicode="&#x175;" horiz-adv-x="1486" 
d="M54 999h142l219 -800l268 800h121l267 -799l220 799h142l-292 -999h-125l-273 817l-273 -817h-125zM744 1432l302 -319h-110l-192 201l-190 -201h-111z" />
    <glyph glyph-name="Ycircumflex" unicode="&#x176;" horiz-adv-x="1328" 
d="M593 540l-538 873h166l442 -739l443 739h167l-538 -873v-540h-142v540zM661 1846l302 -319h-110l-192 201l-190 -201h-111z" />
    <glyph glyph-name="ycircumflex" unicode="&#x177;" horiz-adv-x="1020" 
d="M460 12l-425 987h145l350 -832l308 832h144l-548 -1427h-144zM504 1432l302 -319h-110l-192 201l-190 -201h-111z" />
    <glyph glyph-name="Ydieresis" unicode="&#x178;" horiz-adv-x="1328" 
d="M593 540l-538 873h166l442 -739l443 739h167l-538 -873v-540h-142v540zM423 1827h113v-205h-113v205zM787 1827h112v-205h-112v205z" />
    <glyph glyph-name="Zacute" unicode="&#x179;" horiz-adv-x="1306" 
d="M1204 1306l-927 -1181h924v-125h-1110v104l929 1182h-882v127h1066v-107zM805 1827h142l-259 -286h-101z" />
    <glyph glyph-name="zacute" unicode="&#x17a;" horiz-adv-x="979" 
d="M899 893l-655 -780h650v-113h-826v97l669 790h-636v112h798v-106zM635 1413h142l-259 -286h-101z" />
    <glyph glyph-name="Zdotaccent" unicode="&#x17b;" horiz-adv-x="1306" 
d="M1204 1306l-927 -1181h924v-125h-1110v104l929 1182h-882v127h1066v-107zM583 1827h138v-205h-138v205z" />
    <glyph glyph-name="zdotaccent" unicode="&#x17c;" horiz-adv-x="979" 
d="M899 893l-655 -780h650v-113h-826v97l669 790h-636v112h798v-106zM413 1413h138v-205h-138v205z" />
    <glyph glyph-name="Zcaron" unicode="&#x17d;" horiz-adv-x="1306" 
d="M1204 1306l-927 -1181h924v-125h-1110v104l929 1182h-882v127h1066v-107zM350 1827h111l190 -195l192 195h111l-303 -308z" />
    <glyph glyph-name="zcaron" unicode="&#x17e;" horiz-adv-x="979" 
d="M899 893l-655 -780h650v-113h-826v97l669 790h-636v112h798v-106zM180 1413h111l190 -195l192 195h111l-303 -308z" />
    <glyph glyph-name="florin" unicode="&#x192;" horiz-adv-x="1026" 
d="M128 -352q106 0 169.5 29.5t93 94.5t29.5 175v951h-173v101h173v129q0 91 33.5 161t94 108.5t136.5 38.5q117 0 219 -88l-73 -86q-36 32 -71 46.5t-75 14.5q-68 0 -110 -51t-42 -144v-129h273v-101h-273v-961q0 -201 -101.5 -296.5t-302.5 -95.5v103z" />
    <glyph glyph-name="uni01C3" unicode="&#x1c3;" horiz-adv-x="573" 
d="M222 1413h129l-14 -1016h-100zM215 219h143v-219h-143v219z" />
    <glyph glyph-name="uni01C4" unicode="&#x1c4;" horiz-adv-x="2741" 
d="M224 1413h381q233 0 394 -83t244 -243.5t83 -390.5q0 -220 -84 -376.5t-246 -238t-393 -81.5h-379v1413zM591 127q288 0 443 143t155 431q0 296 -144.5 440.5t-441.5 144.5h-242v-1159h230zM2640 1306l-927 -1181h924v-125h-1110v104l929 1182h-882v127h1066v-107z
M1785 1827h111l190 -195l192 195h111l-303 -308z" />
    <glyph glyph-name="uni01C5" unicode="&#x1c5;" horiz-adv-x="2438" 
d="M224 1413h381q233 0 394 -83t244 -243.5t83 -390.5q0 -220 -84 -376.5t-246 -238t-393 -81.5h-379v1413zM591 127q288 0 443 143t155 431q0 296 -144.5 440.5t-441.5 144.5h-242v-1159h230zM2358 893l-655 -780h650v-113h-826v97l669 790h-636v112h798v-106zM1639 1413
h111l190 -195l192 195h111l-303 -308z" />
    <glyph glyph-name="uni01C6" unicode="&#x1c6;" horiz-adv-x="2193" 
d="M309.5 54q-101.5 69 -157 186.5t-55.5 260.5q0 141 55.5 258.5t156.5 186.5t232 69q118 0 215 -63t143 -173v634h134v-1413h-124l-5 227q-46 -113 -143 -177.5t-218 -64.5q-132 0 -233.5 69zM750.5 156.5q76.5 51.5 117.5 141.5t41 203q0 112 -41 201.5t-117.5 140.5
t-178.5 51t-179.5 -51.5t-119.5 -141.5t-42 -200q0 -111 42 -201.5t119.5 -142.5t179.5 -52t178.5 51.5zM2113 893l-655 -780h650v-113h-826v97l669 790h-636v112h798v-106zM1394 1413h111l190 -195l192 195h111l-303 -308z" />
    <glyph glyph-name="uni01C7" unicode="&#x1c7;" horiz-adv-x="2282" 
d="M224 1413h137v-1283h647v-130h-784v1413zM1411.5 40q-98.5 55 -155.5 152t-66 221l135 14q7 -93 45.5 -164t107 -110.5t162.5 -39.5q163 0 235.5 99t72.5 301v773h-575v127h712v-898q0 -253 -109.5 -391.5t-335.5 -138.5q-130 0 -228.5 55z" />
    <glyph glyph-name="uni01C8" unicode="&#x1c8;" horiz-adv-x="1574" 
d="M224 1413h137v-1283h647v-130h-784v1413zM1257 1413h139v-205h-139v205zM1047 -423.5q-46 9.5 -80 22.5l35 115q30 -12 61.5 -19t53.5 -7q73 0 108 43t35 134v1134h133v-1125q0 -144 -66 -225.5t-198 -81.5q-36 0 -82 9.5z" />
    <glyph glyph-name="uni01C9" unicode="&#x1c9;" horiz-adv-x="1044" 
d="M215 41.5q-41 56.5 -41 169.5v1202h132v-1168q0 -45 7.5 -75t31.5 -48t71 -18q31 0 81 10l2 -113q-78 -16 -141 -16q-102 0 -143 56.5zM728 1413h139v-205h-139v205zM518 -423.5q-46 9.5 -80 22.5l35 115q30 -12 61.5 -19t53.5 -7q73 0 108 43t35 134v1134h133v-1125
q0 -144 -66 -225.5t-198 -81.5q-36 0 -82 9.5z" />
    <glyph glyph-name="uni01CA" unicode="&#x1ca;" horiz-adv-x="2600" 
d="M1204 1413v-1413h-145l-703 1196v-1196h-132v1413h145l703 -1192v1192h132zM1728.5 40q-98.5 55 -155.5 152t-66 221l135 14q7 -93 45.5 -164t107 -110.5t162.5 -39.5q163 0 235.5 99t72.5 301v773h-575v127h712v-898q0 -253 -109.5 -391.5t-335.5 -138.5
q-130 0 -228.5 55z" />
    <glyph glyph-name="uni01CB" unicode="&#x1cb;" horiz-adv-x="1923" 
d="M1204 1413v-1413h-145l-703 1196v-1196h-132v1413h145l703 -1192v1192h132zM1606 1413h139v-205h-139v205zM1396 -423.5q-46 9.5 -80 22.5l35 115q30 -12 61.5 -19t53.5 -7q73 0 108 43t35 134v1134h133v-1125q0 -144 -66 -225.5t-198 -81.5q-36 0 -82 9.5z" />
    <glyph glyph-name="uni01CC" unicode="&#x1cc;" horiz-adv-x="1619" 
d="M179 999h132v-170q46 90 129 138t184 48q113 0 190 -49.5t116 -135.5t41 -197v-633h-132v602q0 138 -64 214t-186 76q-129 0 -203.5 -78.5t-74.5 -222.5v-591h-132v999zM1302 1413h139v-205h-139v205zM1092 -423.5q-46 9.5 -80 22.5l35 115q30 -12 61.5 -19t53.5 -7
q73 0 108 43t35 134v1134h133v-1125q0 -144 -66 -225.5t-198 -81.5q-36 0 -82 9.5z" />
    <glyph glyph-name="uni01CD" unicode="&#x1cd;" horiz-adv-x="1302" 
d="M594 1413h115l524 -1413h-149l-120 341h-623l-122 -341h-150zM921 460l-269 761l-268 -761h537zM347 1827h111l190 -195l192 195h111l-303 -308z" />
    <glyph glyph-name="uni01CE" unicode="&#x1ce;" horiz-adv-x="1063" 
d="M729 966.5q89 -48.5 135.5 -139.5t46.5 -217v-610h-110l-9 203q-55 -106 -151.5 -162t-211.5 -56q-102 0 -180 36.5t-121.5 105.5t-43.5 163q0 285 419 285h288v12q0 161 -64.5 236t-212.5 75q-96 0 -166 -41t-124 -122l-101 74q75 104 168 155t222 51q127 0 216 -48.5z
M668 173q87 75 123 202v102h-281q-145 0 -218 -49.5t-73 -141.5q0 -87 62 -137.5t173 -50.5q127 0 214 75zM211 1413h111l190 -195l192 195h111l-303 -308z" />
    <glyph glyph-name="uni01CF" unicode="&#x1cf;" horiz-adv-x="586" 
d="M224 1413h137v-1413h-137v1413zM-11 1827h111l190 -195l192 195h111l-303 -308z" />
    <glyph glyph-name="uni01D0" unicode="&#x1d0;" horiz-adv-x="490" 
d="M179 999h132v-999h-132v999zM-58 1413h111l190 -195l192 195h111l-303 -308z" />
    <glyph glyph-name="uni01D1" unicode="&#x1d1;" horiz-adv-x="1559" 
d="M420.5 82.5q-145.5 97.5 -217.5 261.5t-72 363t72 362.5t217.5 261t357.5 97.5q213 0 359 -97.5t218 -261t72 -362.5t-72 -363t-218 -261.5t-359 -97.5q-212 0 -357.5 97.5zM1062 188q113 80 167 215t54 304q0 168 -54 303.5t-167.5 215.5t-283.5 80q-169 0 -282 -80
t-167 -215.5t-54 -303.5q0 -169 54 -304t167 -215t282 -80q171 0 284 80zM476 1827h111l190 -195l192 195h111l-303 -308z" />
    <glyph glyph-name="uni01D2" unicode="&#x1d2;" horiz-adv-x="1152" 
d="M325 53.5q-110 68.5 -171.5 187t-61.5 261.5q0 142 61.5 259t171.5 185.5t249 68.5q140 0 250.5 -68.5t173 -185.5t62.5 -259q0 -143 -62.5 -261t-173 -187t-250.5 -69q-139 0 -249 68.5zM759 153.5q79 53.5 121.5 145.5t42.5 203t-42.5 201.5t-121.5 143t-185 52.5
q-105 0 -183.5 -52.5t-120 -143t-41.5 -201.5q0 -112 41.5 -203.5t120 -145t183.5 -53.5q106 0 185 53.5zM273 1413h111l190 -195l192 195h111l-303 -308z" />
    <glyph glyph-name="uni01D3" unicode="&#x1d3;" horiz-adv-x="1401" 
d="M322 127.5q-127 142.5 -127 402.5v883h137v-868q0 -211 88.5 -319t278.5 -108q191 0 280.5 109.5t89.5 322.5v863h137v-872q0 -266 -128 -411t-379 -145q-250 0 -377 142.5zM398 1827h111l190 -195l192 195h111l-303 -308z" />
    <glyph glyph-name="uni01D4" unicode="&#x1d4;" horiz-adv-x="1123" 
d="M310 34.5q-77 49.5 -115.5 135.5t-40.5 197v632h131v-602q0 -138 64 -213.5t186 -75.5q128 0 203 78.5t75 222.5v590h131v-999h-131v170q-46 -90 -129 -137.5t-184 -47.5q-113 0 -190 49.5zM257 1413h111l190 -195l192 195h111l-303 -308z" />
    <glyph glyph-name="uni01D5" unicode="&#x1d5;" horiz-adv-x="1401" 
d="M322 127.5q-127 142.5 -127 402.5v883h137v-868q0 -211 88.5 -319t278.5 -108q191 0 280.5 109.5t89.5 322.5v863h137v-872q0 -266 -128 -411t-379 -145q-250 0 -377 142.5zM461 1827h113v-205h-113v205zM825 1827h112v-205h-112v205zM427 2129h548v-82h-548v82z" />
    <glyph glyph-name="uni01D6" unicode="&#x1d6;" horiz-adv-x="1123" 
d="M310 34.5q-77 49.5 -115.5 135.5t-40.5 197v632h131v-602q0 -138 64 -213.5t186 -75.5q128 0 203 78.5t75 222.5v590h131v-999h-131v170q-46 -90 -129 -137.5t-184 -47.5q-113 0 -190 49.5zM319 1413h113v-205h-113v205zM683 1413h112v-205h-112v205zM286 1716h548v-82
h-548v82z" />
    <glyph glyph-name="uni01D7" unicode="&#x1d7;" horiz-adv-x="1401" 
d="M322 127.5q-127 142.5 -127 402.5v883h137v-868q0 -211 88.5 -319t278.5 -108q191 0 280.5 109.5t89.5 322.5v863h137v-872q0 -266 -128 -411t-379 -145q-250 0 -377 142.5zM461 1827h113v-205h-113v205zM825 1827h112v-205h-112v205zM853 2240h142l-259 -286h-101z" />
    <glyph glyph-name="uni01D8" unicode="&#x1d8;" horiz-adv-x="1123" 
d="M310 34.5q-77 49.5 -115.5 135.5t-40.5 197v632h131v-602q0 -138 64 -213.5t186 -75.5q128 0 203 78.5t75 222.5v590h131v-999h-131v170q-46 -90 -129 -137.5t-184 -47.5q-113 0 -190 49.5zM319 1413h113v-205h-113v205zM683 1413h112v-205h-112v205zM712 1827h142
l-259 -286h-101z" />
    <glyph glyph-name="uni01D9" unicode="&#x1d9;" horiz-adv-x="1401" 
d="M322 127.5q-127 142.5 -127 402.5v883h137v-868q0 -211 88.5 -319t278.5 -108q191 0 280.5 109.5t89.5 322.5v863h137v-872q0 -266 -128 -411t-379 -145q-250 0 -377 142.5zM461 1827h113v-205h-113v205zM825 1827h112v-205h-112v205zM398 2240h111l190 -195l192 195h111
l-303 -308z" />
    <glyph glyph-name="uni01DA" unicode="&#x1da;" horiz-adv-x="1123" 
d="M310 34.5q-77 49.5 -115.5 135.5t-40.5 197v632h131v-602q0 -138 64 -213.5t186 -75.5q128 0 203 78.5t75 222.5v590h131v-999h-131v170q-46 -90 -129 -137.5t-184 -47.5q-113 0 -190 49.5zM319 1413h113v-205h-113v205zM683 1413h112v-205h-112v205zM257 1827h111
l190 -195l192 195h111l-303 -308z" />
    <glyph glyph-name="uni01DB" unicode="&#x1db;" horiz-adv-x="1401" 
d="M322 127.5q-127 142.5 -127 402.5v883h137v-868q0 -211 88.5 -319t278.5 -108q191 0 280.5 109.5t89.5 322.5v863h137v-872q0 -266 -128 -411t-379 -145q-250 0 -377 142.5zM461 1827h113v-205h-113v205zM825 1827h112v-205h-112v205zM403 2240h142l218 -296h-101z" />
    <glyph glyph-name="uni01DC" unicode="&#x1dc;" horiz-adv-x="1123" 
d="M310 34.5q-77 49.5 -115.5 135.5t-40.5 197v632h131v-602q0 -138 64 -213.5t186 -75.5q128 0 203 78.5t75 222.5v590h131v-999h-131v170q-46 -90 -129 -137.5t-184 -47.5q-113 0 -190 49.5zM319 1413h113v-205h-113v205zM683 1413h112v-205h-112v205zM262 1827h142
l218 -296h-101z" />
    <glyph glyph-name="uni01DD" unicode="&#x1dd;" horiz-adv-x="1074" 
d="M761.5 947.5q105.5 -66.5 160 -182.5t54.5 -261q0 -143 -53 -261.5t-154.5 -188.5t-242.5 -70q-152 0 -249.5 70.5t-140.5 176t-43 215.5q0 26 2 52t5 37h736q-8 169 -93 264t-234 95q-91 0 -158.5 -28.5t-134.5 -98.5l-92 81q84 88 174.5 127t211.5 39
q146 0 251.5 -66.5zM225 437q-2 -38 2 -63q6 -72 40.5 -135t100 -102.5t159.5 -39.5q89 0 156 43t105.5 119.5t47.5 177.5h-611z" />
    <glyph glyph-name="uni01EB" unicode="&#x1eb;" horiz-adv-x="1152" 
d="M566.5 -57.5q-55.5 -35.5 -92 -85.5t-36.5 -107q0 -62 32 -91.5t90 -29.5q47 0 82.5 20t65.5 62l70 -48q-40 -59 -92 -89t-123 -30q-94 0 -151 51.5t-57 138.5q0 84 55 151t127 101q-130 9 -231 79.5t-157.5 185t-56.5 251.5q0 142 61.5 259t171.5 185.5t249 68.5
q140 0 250.5 -68.5t173 -185.5t62.5 -259q0 -124 -47.5 -230.5t-134 -179t-198.5 -96.5q-58 -18 -113.5 -53.5zM270.5 298.5q41.5 -91.5 120 -145t183.5 -53.5q106 0 185 53.5t121.5 145.5t42.5 203t-42.5 201.5t-121.5 143t-185 52.5q-105 0 -183.5 -52.5t-120 -143
t-41.5 -201.5q0 -112 41.5 -203.5z" />
    <glyph glyph-name="uni01F1" unicode="&#x1f1;" horiz-adv-x="2741" 
d="M224 1413h381q233 0 394 -83t244 -243.5t83 -390.5q0 -220 -84 -376.5t-246 -238t-393 -81.5h-379v1413zM591 127q288 0 443 143t155 431q0 296 -144.5 440.5t-441.5 144.5h-242v-1159h230zM2640 1306l-927 -1181h924v-125h-1110v104l929 1182h-882v127h1066v-107z" />
    <glyph glyph-name="uni01F2" unicode="&#x1f2;" horiz-adv-x="2438" 
d="M224 1413h381q233 0 394 -83t244 -243.5t83 -390.5q0 -220 -84 -376.5t-246 -238t-393 -81.5h-379v1413zM591 127q288 0 443 143t155 431q0 296 -144.5 440.5t-441.5 144.5h-242v-1159h230zM2358 893l-655 -780h650v-113h-826v97l669 790h-636v112h798v-106z" />
    <glyph glyph-name="uni01F3" unicode="&#x1f3;" horiz-adv-x="2193" 
d="M309.5 54q-101.5 69 -157 186.5t-55.5 260.5q0 141 55.5 258.5t156.5 186.5t232 69q118 0 215 -63t143 -173v634h134v-1413h-124l-5 227q-46 -113 -143 -177.5t-218 -64.5q-132 0 -233.5 69zM750.5 156.5q76.5 51.5 117.5 141.5t41 203q0 112 -41 201.5t-117.5 140.5
t-178.5 51t-179.5 -51.5t-119.5 -141.5t-42 -200q0 -111 42 -201.5t119.5 -142.5t179.5 -52t178.5 51.5zM2113 893l-655 -780h650v-113h-826v97l669 790h-636v112h798v-106z" />
    <glyph glyph-name="Oslashacute" unicode="&#x1fe;" horiz-adv-x="1559" 
d="M1367.5 1040.5q59.5 -152.5 59.5 -333.5q0 -199 -72 -363t-218 -261.5t-359 -97.5q-197 0 -342 88l-46 -73h-103l77 125q-115 97 -174 249.5t-59 332.5q0 199 72 362.5t217.5 261t357.5 97.5q197 0 343 -87l45 72h102l-76 -123q116 -97 175.5 -249.5zM315 440.5
q40 -121.5 120 -201.5l618 993q-115 74 -275 74q-169 0 -282 -80t-167 -215.5t-54 -303.5q0 -145 40 -266.5zM1062 188q113 80 167 215t54 304q0 145 -40.5 267t-121.5 203l-617 -994q113 -75 274 -75q171 0 284 80zM931 1827h142l-259 -286h-101z" />
    <glyph glyph-name="oslashacute" unicode="&#x1ff;" horiz-adv-x="1152" 
d="M1009.5 736.5q50.5 -108.5 50.5 -234.5q0 -143 -62.5 -261t-173 -187t-250.5 -69q-135 0 -242 65l-31 -50h-73l53 85q-89 70 -139 179.5t-50 237.5q0 142 61.5 259t171.5 185.5t249 68.5q134 0 245 -65l31 49h72l-52 -84q89 -70 139.5 -178.5zM259.5 326
q30.5 -81 86.5 -136l410 658q-79 51 -182 51q-105 0 -183.5 -52.5t-120 -143t-41.5 -201.5q0 -95 30.5 -176zM759 153.5q79 53.5 121.5 145.5t42.5 203q0 94 -30.5 174t-87.5 134l-410 -659q77 -51 179 -51q106 0 185 53.5zM728 1413h142l-259 -286h-101z" />
    <glyph glyph-name="uni0218" unicode="&#x218;" horiz-adv-x="1149" 
d="M360 32.5q-105 45.5 -175 133t-90 209.5l136 34q21 -144 117.5 -221.5t241.5 -77.5q94 0 165.5 34.5t110.5 95.5t39 137q0 83 -45.5 139t-112.5 91t-182 80q-127 50 -203 91t-129.5 112t-53.5 178t53 189t144.5 126.5t202.5 44.5q271 0 400 -227l-114 -71
q-49 89 -121 132.5t-170 43.5q-73 0 -132 -30t-92.5 -83t-33.5 -119q0 -72 42 -121.5t105 -81.5t172 -74q132 -51 212.5 -94.5t137.5 -120.5t57 -194q0 -118 -59.5 -209.5t-163 -141.5t-231.5 -50q-123 0 -228 45.5zM507 -113h141l-238 -334h-85z" />
    <glyph glyph-name="uni0219" unicode="&#x219;" horiz-adv-x="928" 
d="M296 18.5q-83 33.5 -141 93.5t-84 136l107 47q31 -86 106.5 -142.5t185.5 -56.5q74 0 126 23.5t78.5 65.5t26.5 95q0 59 -34.5 94.5t-85 54t-139.5 40.5q-104 25 -168 50t-108.5 78t-44.5 143q0 86 45 148.5t122.5 94.5t174.5 32q117 0 207.5 -54.5t143.5 -154.5
l-102 -55q-38 72 -102 114.5t-151 42.5q-64 0 -111.5 -19t-73.5 -53.5t-26 -78.5q0 -52 32 -84t79.5 -49.5t132.5 -39.5q108 -27 175.5 -55t115.5 -86t48 -157q0 -97 -47 -164.5t-127.5 -102t-180.5 -34.5q-97 0 -180 33.5zM436 -113h141l-238 -334h-85z" />
    <glyph glyph-name="uni021A" unicode="&#x21a;" horiz-adv-x="1252" 
d="M558 1289h-493v124h1123v-124h-493v-1289h-137v1289zM569 -113h141l-238 -334h-85z" />
    <glyph glyph-name="uni021B" unicode="&#x21b;" horiz-adv-x="702" 
d="M280.5 61q-69.5 76 -69.5 219v607h-166v112h168v289l130 97v-386h280v-112h-280v-586q0 -104 40.5 -151.5t121.5 -47.5q56 0 117 24l2 -121q-26 -8 -64 -14t-77 -6q-133 0 -202.5 76zM421 -113h141l-238 -334h-85z" />
    <glyph glyph-name="uni0237" unicode="&#x237;" horiz-adv-x="495" 
d="M-32 -423.5q-46 9.5 -80 22.5l35 115q30 -12 61.5 -19t53.5 -7q73 0 108 43t35 134v1134h133v-1125q0 -144 -66 -225.5t-198 -81.5q-36 0 -82 9.5z" />
    <glyph glyph-name="uni0250" unicode="&#x250;" horiz-adv-x="1063" 
d="M715 142q70 41 124 122l101 -74q-75 -104 -168 -155t-222 -51q-127 0 -216 48.5t-135.5 139.5t-46.5 217v610h110l9 -203q55 106 151.5 162t211.5 56q102 0 180 -36.5t121.5 -105.5t43.5 -163q0 -285 -419 -285h-288v-12q0 -161 64.5 -236t212.5 -75q96 0 166 41z
M395 826q-87 -75 -123 -202v-102h281q145 0 218 49.5t73 141.5q0 87 -62 137.5t-173 50.5q-127 0 -214 -75z" />
    <glyph glyph-name="uni0254" unicode="&#x254;" horiz-adv-x="1016" 
d="M228 57.5q-103 72.5 -149 202.5l121 46q30 -94 101.5 -147.5t168.5 -53.5q104 0 174.5 53.5t105.5 143t35 196.5q0 106 -35 196t-105.5 145t-173.5 55q-95 0 -167.5 -54t-108.5 -149l-126 49q55 134 159.5 204.5t242.5 70.5q144 0 245 -72.5t152 -190.5t51 -254
q0 -143 -53.5 -260t-155.5 -185t-241 -68q-138 0 -241 72.5z" />
    <glyph glyph-name="uni0258" unicode="&#x258;" horiz-adv-x="1074" 
d="M298.5 24q-90.5 39 -174.5 127l92 81q67 -70 134.5 -98.5t158.5 -28.5q149 0 234 95t93 264h-736q-3 11 -5 37t-2 52q0 110 43 215.5t140.5 176t249.5 70.5q141 0 242.5 -70t154.5 -188.5t53 -261.5q0 -145 -54.5 -261t-160 -182.5t-251.5 -66.5q-121 0 -211.5 39z
M788.5 739.5q-38.5 76.5 -105.5 119.5t-156 43q-94 0 -159.5 -39.5t-100 -102.5t-40.5 -135q-4 -25 -2 -63h611q-9 101 -47.5 177.5z" />
    <glyph glyph-name="uni0259" unicode="&#x259;" horiz-adv-x="1074" 
d="M761.5 947.5q105.5 -66.5 160 -182.5t54.5 -261q0 -143 -53 -261.5t-154.5 -188.5t-242.5 -70q-152 0 -249.5 70.5t-140.5 176t-43 215.5q0 26 2 52t5 37h736q-8 169 -93 264t-234 95q-91 0 -158.5 -28.5t-134.5 -98.5l-92 81q84 88 174.5 127t211.5 39
q146 0 251.5 -66.5zM225 437q-2 -38 2 -63q6 -72 40.5 -135t100 -102.5t159.5 -39.5q89 0 156 43t105.5 119.5t47.5 177.5h-611z" />
    <glyph glyph-name="uni0261" unicode="&#x261;" horiz-adv-x="1205" 
d="M305.5 -397q-109.5 68 -172.5 184l101 74q42 -93 129.5 -151t201.5 -58q98 0 172 45.5t115.5 131t41.5 202.5v200q-47 -110 -142 -173t-214 -63q-132 0 -233.5 68.5t-157 185.5t-55.5 257q0 139 55.5 255.5t156.5 185t232 68.5q118 0 214.5 -63t143.5 -173v220h133v-968
q0 -149 -57.5 -261.5t-163 -173.5t-243.5 -61q-148 0 -257.5 68zM745.5 168.5q76.5 50.5 117.5 139t41 198.5q0 109 -41 197.5t-117.5 139.5t-178.5 51t-179.5 -51.5t-119.5 -140t-42 -196.5q0 -109 42 -197.5t119.5 -139.5t179.5 -51t178.5 50.5z" />
    <glyph glyph-name="circumflex" unicode="&#x2c6;" horiz-adv-x="714" 
d="M356 1432l302 -319h-110l-192 201l-190 -201h-111z" />
    <glyph glyph-name="caron" unicode="&#x2c7;" horiz-adv-x="719" 
d="M58 1413h111l190 -195l192 195h111l-303 -308z" />
    <glyph glyph-name="uni02D0" unicode="&#x2d0;" horiz-adv-x="580" 
d="M63 999l441 24l-202 -429zM278 406l238 -406l-440 -24z" />
    <glyph glyph-name="uni02D1" unicode="&#x2d1;" horiz-adv-x="595" 
d="M72 651l440 24l-202 -430z" />
    <glyph glyph-name="breve" unicode="&#x2d8;" horiz-adv-x="857" 
d="M200.5 1215.5q-76.5 67.5 -76.5 197.5h96q0 -90 55 -136.5t154 -46.5t153.5 47t54.5 136h96q0 -131 -77 -198t-227 -67q-152 0 -228.5 67.5z" />
    <glyph glyph-name="dotaccent" unicode="&#x2d9;" horiz-adv-x="486" 
d="M174 1413h138v-205h-138v205z" />
    <glyph glyph-name="ring" unicode="&#x2da;" horiz-adv-x="640" 
d="M221.5 1121.5q-44.5 26.5 -70 71t-25.5 96.5q0 53 26 97.5t70 70.5t97 26q52 0 97 -26t71.5 -70.5t26.5 -97.5t-26 -97.5t-70.5 -70.5t-98.5 -26q-53 0 -97.5 26.5zM404 1204.5q34 34.5 34 85.5q0 50 -33.5 83.5t-85.5 33.5q-50 0 -83.5 -33.5t-33.5 -83.5
q0 -51 33.5 -85.5t83.5 -34.5q51 0 85 34.5z" />
    <glyph glyph-name="ogonek" unicode="&#x2db;" horiz-adv-x="616" 
d="M173 -404.5q-57 51.5 -57 138.5q0 69 38 127t92 95t102 48l106 -4q-59 -16 -118 -52t-98 -87t-39 -111q0 -62 32 -91.5t90 -29.5q47 0 82.5 20t65.5 62l70 -48q-40 -59 -92 -89t-123 -30q-94 0 -151 51.5z" />
    <glyph glyph-name="tilde" unicode="&#x2dc;" horiz-adv-x="911" 
d="M521 1172.5q-31 14.5 -51.5 35t-45.5 53.5q-29 38 -51.5 56.5t-55.5 18.5q-48 0 -75.5 -42t-27.5 -118h-80q0 116 50 181t137 64q39 0 68 -13.5t48.5 -33.5t44.5 -52q32 -40 55.5 -59t58.5 -19q42 0 68.5 46t26.5 123h83q0 -78 -22 -135.5t-62.5 -88.5t-94.5 -31
q-43 0 -74 14.5z" />
    <glyph glyph-name="hungarumlaut" unicode="&#x2dd;" horiz-adv-x="843" 
d="M293 1413h122l-239 -306h-101zM635 1413h142l-259 -306h-101z" />
    <glyph glyph-name="uni02F5" unicode="&#x2f5;" horiz-adv-x="1107" 
d="M154 999h142l223 -303h-102zM573 999h144l228 -303h-102z" />
    <glyph glyph-name="uni02F6" unicode="&#x2f6;" horiz-adv-x="1107" 
d="M162 696l228 303h144l-270 -303h-102zM588 696l223 303h142l-263 -303h-102z" />
    <glyph glyph-name="gravecomb" unicode="&#x300;" 
d="M-434 1413h142l218 -296h-101z" />
    <glyph glyph-name="acutecomb" unicode="&#x301;" 
d="M-210 1413h142l-259 -286h-101z" />
    <glyph glyph-name="uni0302" unicode="&#x302;" 
d="M-358 1432l302 -319h-110l-192 201l-190 -201h-111z" />
    <glyph glyph-name="tildecomb" unicode="&#x303;" 
d="M-390 1172.5q-31 14.5 -51.5 35t-45.5 53.5q-29 38 -51.5 56.5t-55.5 18.5q-48 0 -75.5 -42t-27.5 -118h-80q0 116 50 181t137 64q39 0 68 -13.5t48.5 -33.5t44.5 -52q32 -40 55.5 -59t58.5 -19q42 0 68.5 46t26.5 123h83q0 -78 -22 -135.5t-62.5 -88.5t-94.5 -31
q-43 0 -74 14.5z" />
    <glyph glyph-name="uni0304" unicode="&#x304;" 
d="M-717 1302h548v-82h-548v82z" />
    <glyph glyph-name="uni0306" unicode="&#x306;" 
d="M-656.5 1215.5q-76.5 67.5 -76.5 197.5h96q0 -90 55 -136.5t154 -46.5t153.5 47t54.5 136h96q0 -131 -77 -198t-227 -67q-152 0 -228.5 67.5z" />
    <glyph glyph-name="uni0307" unicode="&#x307;" 
d="M-312 1413h138v-205h-138v205z" />
    <glyph glyph-name="uni0308" unicode="&#x308;" 
d="M-650 1413h113v-205h-113v205zM-286 1413h112v-205h-112v205z" />
    <glyph glyph-name="uni030A" unicode="&#x30a;" 
d="M-418.5 1121.5q-44.5 26.5 -70 71t-25.5 96.5q0 53 26 97.5t70 70.5t97 26q52 0 97 -26t71.5 -70.5t26.5 -97.5t-26 -97.5t-70.5 -70.5t-98.5 -26q-53 0 -97.5 26.5zM-236 1204.5q34 34.5 34 85.5q0 50 -33.5 83.5t-85.5 33.5q-50 0 -83.5 -33.5t-33.5 -83.5
q0 -51 33.5 -85.5t83.5 -34.5q51 0 85 34.5z" />
    <glyph glyph-name="uni030B" unicode="&#x30b;" 
d="M-550 1413h122l-239 -306h-101zM-208 1413h142l-259 -306h-101z" />
    <glyph glyph-name="uni030C" unicode="&#x30c;" 
d="M-661 1413h111l190 -195l192 195h111l-303 -308z" />
    <glyph glyph-name="uni030F" unicode="&#x30f;" 
d="M-518 1107l-259 306h142l218 -306h-101zM-176 1107l-239 306h122l218 -306h-101z" />
    <glyph glyph-name="uni0312" unicode="&#x312;" 
d="M-277 1125h-141l238 299h85z" />
    <glyph glyph-name="uni031B" unicode="&#x31b;" 
d="M-413 1098q174 0 174 208v107h103v-98q0 -146 -68 -226.5t-209 -80.5v90z" />
    <glyph glyph-name="uni0326" unicode="&#x326;" 
d="M-210 -113h141l-238 -334h-85z" />
    <glyph glyph-name="uni0327" unicode="&#x327;" 
d="M-434 -478.5q-55 37.5 -74 106.5l77 32q13 -41 46.5 -68.5t77.5 -27.5q58 0 90.5 29.5t32.5 82.5q0 56 -48 90.5t-134 40.5q-38 3 -87 3l111 189h83l-82 -132q32 -1 65 -8q85 -17 129.5 -62.5t44.5 -115.5q0 -58 -26 -102.5t-73 -69.5t-109 -25q-69 0 -124 37.5z" />
    <glyph glyph-name="uni0328" unicode="&#x328;" 
d="M-443 -404.5q-57 51.5 -57 138.5q0 69 38 127t92 95t102 48l106 -4q-59 -16 -118 -52t-98 -87t-39 -111q0 -62 32 -91.5t90 -29.5q47 0 82.5 20t65.5 62l70 -48q-40 -59 -92 -89t-123 -30q-94 0 -151 51.5z" />
    <glyph glyph-name="uni0337" unicode="&#x337;" 
d="M-656 450l609 690v-150l-609 -691v151z" />
    <glyph glyph-name="tonos" unicode="&#x384;" horiz-adv-x="443" 
d="M214 1413h111l-118 -286h-70z" />
    <glyph glyph-name="dieresistonos" unicode="&#x385;" horiz-adv-x="659" 
d="M80 1413h113v-205h-113v205zM444 1413h112v-205h-112v205zM352 1827h111l-118 -286h-70z" />
    <glyph glyph-name="uni03BC" unicode="&#x3bc;" horiz-adv-x="1290" 
d="M269 999h131v-602q0 -138 64 -213.5t186 -75.5q129 0 204 78.5t75 222.5v590h131v-999h-131v170q-46 -90 -129 -137.5t-185 -47.5q-84 0 -144 31.5t-93 92.5v-457h-109v1347z" />
    <glyph glyph-name="pi" unicode="&#x3c0;" horiz-adv-x="1075" 
d="M737.5 100q-57.5 115 -57.5 339v448h-370v-887h-112v887h-105v112h808v-112h-108v-431q0 -192 30.5 -281.5t91.5 -89.5q35 0 72 16l35 -90q-57 -26 -115 -26q-112 0 -169.5 115z" />
    <glyph glyph-name="uni0483" unicode="&#x483;" 
d="M-970 1840h697v147h135v-273h-700v-155h-132v281z" />
    <glyph glyph-name="Wgrave" unicode="&#x1e80;" horiz-adv-x="1979" 
d="M79 1413h143l343 -1217l369 1141h112l368 -1141l343 1217h144l-408 -1413h-139l-364 1121l-364 -1121h-140zM697 1811h142l218 -296h-101z" />
    <glyph glyph-name="wgrave" unicode="&#x1e81;" horiz-adv-x="1486" 
d="M54 999h142l219 -800l268 800h121l267 -799l220 799h142l-292 -999h-125l-273 817l-273 -817h-125zM448 1413h142l218 -296h-101z" />
    <glyph glyph-name="Wacute" unicode="&#x1e82;" horiz-adv-x="1979" 
d="M79 1413h143l343 -1217l369 1141h112l368 -1141l343 1217h144l-408 -1413h-139l-364 1121l-364 -1121h-140zM1147 1811h142l-259 -286h-101z" />
    <glyph glyph-name="wacute" unicode="&#x1e83;" horiz-adv-x="1486" 
d="M54 999h142l219 -800l268 800h121l267 -799l220 799h142l-292 -999h-125l-273 817l-273 -817h-125zM898 1413h142l-259 -286h-101z" />
    <glyph glyph-name="Wdieresis" unicode="&#x1e84;" horiz-adv-x="1979" 
d="M79 1413h143l343 -1217l369 1141h112l368 -1141l343 1217h144l-408 -1413h-139l-364 1121l-364 -1121h-140zM755 1811h113v-205h-113v205zM1119 1811h112v-205h-112v205z" />
    <glyph glyph-name="wdieresis" unicode="&#x1e85;" horiz-adv-x="1486" 
d="M54 999h142l219 -800l268 800h121l267 -799l220 799h142l-292 -999h-125l-273 817l-273 -817h-125zM506 1413h113v-205h-113v205zM870 1413h112v-205h-112v205z" />
    <glyph glyph-name="uni1EA4" unicode="&#x1ea4;" horiz-adv-x="1302" 
d="M594 1413h115l524 -1413h-149l-120 341h-623l-122 -341h-150zM921 460l-269 761l-268 -761h537zM648 1846l302 -319h-110l-192 201l-190 -201h-111zM802 2239h142l-259 -286h-101z" />
    <glyph glyph-name="uni1EA5" unicode="&#x1ea5;" horiz-adv-x="1063" 
d="M729 966.5q89 -48.5 135.5 -139.5t46.5 -217v-610h-110l-9 203q-55 -106 -151.5 -162t-211.5 -56q-102 0 -180 36.5t-121.5 105.5t-43.5 163q0 285 419 285h288v12q0 161 -64.5 236t-212.5 75q-96 0 -166 -41t-124 -122l-101 74q75 104 168 155t222 51q127 0 216 -48.5z
M668 173q87 75 123 202v102h-281q-145 0 -218 -49.5t-73 -141.5q0 -87 62 -137.5t173 -50.5q127 0 214 75zM512 1432l302 -319h-110l-192 201l-190 -201h-111zM666 1826h142l-259 -286h-101z" />
    <glyph glyph-name="uni1EA6" unicode="&#x1ea6;" horiz-adv-x="1302" 
d="M594 1413h115l524 -1413h-149l-120 341h-623l-122 -341h-150zM921 460l-269 761l-268 -761h537zM648 1846l302 -319h-110l-192 201l-190 -201h-111zM352 2239h142l218 -296h-101z" />
    <glyph glyph-name="uni1EA7" unicode="&#x1ea7;" horiz-adv-x="1063" 
d="M729 966.5q89 -48.5 135.5 -139.5t46.5 -217v-610h-110l-9 203q-55 -106 -151.5 -162t-211.5 -56q-102 0 -180 36.5t-121.5 105.5t-43.5 163q0 285 419 285h288v12q0 161 -64.5 236t-212.5 75q-96 0 -166 -41t-124 -122l-101 74q75 104 168 155t222 51q127 0 216 -48.5z
M668 173q87 75 123 202v102h-281q-145 0 -218 -49.5t-73 -141.5q0 -87 62 -137.5t173 -50.5q127 0 214 75zM512 1432l302 -319h-110l-192 201l-190 -201h-111zM216 1826h142l218 -296h-101z" />
    <glyph glyph-name="uni1EAA" unicode="&#x1eaa;" horiz-adv-x="1302" 
d="M594 1413h115l524 -1413h-149l-120 341h-623l-122 -341h-150zM921 460l-269 761l-268 -761h537zM648 1846l302 -319h-110l-192 201l-190 -201h-111zM716 1988.5q-31 14.5 -51.5 35t-45.5 53.5q-29 38 -51.5 56.5t-55.5 18.5q-48 0 -75.5 -42t-27.5 -118h-80q0 116 50 181
t137 64q39 0 68 -13.5t48.5 -33.5t44.5 -52q32 -40 55.5 -59t58.5 -19q42 0 68.5 46t26.5 123h83q0 -78 -22 -135.5t-62.5 -88.5t-94.5 -31q-43 0 -74 14.5z" />
    <glyph glyph-name="uni1EAB" unicode="&#x1eab;" horiz-adv-x="1063" 
d="M729 966.5q89 -48.5 135.5 -139.5t46.5 -217v-610h-110l-9 203q-55 -106 -151.5 -162t-211.5 -56q-102 0 -180 36.5t-121.5 105.5t-43.5 163q0 285 419 285h288v12q0 161 -64.5 236t-212.5 75q-96 0 -166 -41t-124 -122l-101 74q75 104 168 155t222 51q127 0 216 -48.5z
M668 173q87 75 123 202v102h-281q-145 0 -218 -49.5t-73 -141.5q0 -87 62 -137.5t173 -50.5q127 0 214 75zM512 1432l302 -319h-110l-192 201l-190 -201h-111zM579 1574.5q-31 14.5 -51.5 35t-45.5 53.5q-29 38 -51.5 56.5t-55.5 18.5q-48 0 -75.5 -42t-27.5 -118h-80
q0 116 50 181t137 64q39 0 68 -13.5t48.5 -33.5t44.5 -52q32 -40 55.5 -59t58.5 -19q42 0 68.5 46t26.5 123h83q0 -78 -22 -135.5t-62.5 -88.5t-94.5 -31q-43 0 -74 14.5z" />
    <glyph glyph-name="uni1EAE" unicode="&#x1eae;" horiz-adv-x="1302" 
d="M594 1413h115l524 -1413h-149l-120 341h-623l-122 -341h-150zM921 460l-269 761l-268 -761h537zM420.5 1629.5q-76.5 67.5 -76.5 197.5h96q0 -90 55 -136.5t154 -46.5t153.5 47t54.5 136h96q0 -131 -77 -198t-227 -67q-152 0 -228.5 67.5zM802 2240h142l-259 -286h-101z
" />
    <glyph glyph-name="uni1EAF" unicode="&#x1eaf;" horiz-adv-x="1063" 
d="M729 966.5q89 -48.5 135.5 -139.5t46.5 -217v-610h-110l-9 203q-55 -106 -151.5 -162t-211.5 -56q-102 0 -180 36.5t-121.5 105.5t-43.5 163q0 285 419 285h288v12q0 161 -64.5 236t-212.5 75q-96 0 -166 -41t-124 -122l-101 74q75 104 168 155t222 51q127 0 216 -48.5z
M668 173q87 75 123 202v102h-281q-145 0 -218 -49.5t-73 -141.5q0 -87 62 -137.5t173 -50.5q127 0 214 75zM284.5 1215.5q-76.5 67.5 -76.5 197.5h96q0 -90 55 -136.5t154 -46.5t153.5 47t54.5 136h96q0 -131 -77 -198t-227 -67q-152 0 -228.5 67.5zM666 1827h142l-259 -286
h-101z" />
    <glyph glyph-name="uni1EB0" unicode="&#x1eb0;" horiz-adv-x="1302" 
d="M594 1413h115l524 -1413h-149l-120 341h-623l-122 -341h-150zM921 460l-269 761l-268 -761h537zM420.5 1629.5q-76.5 67.5 -76.5 197.5h96q0 -90 55 -136.5t154 -46.5t153.5 47t54.5 136h96q0 -131 -77 -198t-227 -67q-152 0 -228.5 67.5zM352 2240h142l218 -296h-101z
" />
    <glyph glyph-name="uni1EB1" unicode="&#x1eb1;" horiz-adv-x="1063" 
d="M729 966.5q89 -48.5 135.5 -139.5t46.5 -217v-610h-110l-9 203q-55 -106 -151.5 -162t-211.5 -56q-102 0 -180 36.5t-121.5 105.5t-43.5 163q0 285 419 285h288v12q0 161 -64.5 236t-212.5 75q-96 0 -166 -41t-124 -122l-101 74q75 104 168 155t222 51q127 0 216 -48.5z
M668 173q87 75 123 202v102h-281q-145 0 -218 -49.5t-73 -141.5q0 -87 62 -137.5t173 -50.5q127 0 214 75zM284.5 1215.5q-76.5 67.5 -76.5 197.5h96q0 -90 55 -136.5t154 -46.5t153.5 47t54.5 136h96q0 -131 -77 -198t-227 -67q-152 0 -228.5 67.5zM216 1827h142l218 -296
h-101z" />
    <glyph glyph-name="uni1EB4" unicode="&#x1eb4;" horiz-adv-x="1302" 
d="M594 1413h115l524 -1413h-149l-120 341h-623l-122 -341h-150zM921 460l-269 761l-268 -761h537zM420.5 1629.5q-76.5 67.5 -76.5 197.5h96q0 -90 55 -136.5t154 -46.5t153.5 47t54.5 136h96q0 -131 -77 -198t-227 -67q-152 0 -228.5 67.5zM716 1989.5q-31 14.5 -51.5 35
t-45.5 53.5q-29 38 -51.5 56.5t-55.5 18.5q-48 0 -75.5 -42t-27.5 -118h-80q0 116 50 181t137 64q39 0 68 -13.5t48.5 -33.5t44.5 -52q32 -40 55.5 -59t58.5 -19q42 0 68.5 46t26.5 123h83q0 -78 -22 -135.5t-62.5 -88.5t-94.5 -31q-43 0 -74 14.5z" />
    <glyph glyph-name="uni1EB5" unicode="&#x1eb5;" horiz-adv-x="1063" 
d="M729 966.5q89 -48.5 135.5 -139.5t46.5 -217v-610h-110l-9 203q-55 -106 -151.5 -162t-211.5 -56q-102 0 -180 36.5t-121.5 105.5t-43.5 163q0 285 419 285h288v12q0 161 -64.5 236t-212.5 75q-96 0 -166 -41t-124 -122l-101 74q75 104 168 155t222 51q127 0 216 -48.5z
M668 173q87 75 123 202v102h-281q-145 0 -218 -49.5t-73 -141.5q0 -87 62 -137.5t173 -50.5q127 0 214 75zM284.5 1215.5q-76.5 67.5 -76.5 197.5h96q0 -90 55 -136.5t154 -46.5t153.5 47t54.5 136h96q0 -131 -77 -198t-227 -67q-152 0 -228.5 67.5zM579 1575.5
q-31 14.5 -51.5 35t-45.5 53.5q-29 38 -51.5 56.5t-55.5 18.5q-48 0 -75.5 -42t-27.5 -118h-80q0 116 50 181t137 64q39 0 68 -13.5t48.5 -33.5t44.5 -52q32 -40 55.5 -59t58.5 -19q42 0 68.5 46t26.5 123h83q0 -78 -22 -135.5t-62.5 -88.5t-94.5 -31q-43 0 -74 14.5z" />
    <glyph glyph-name="uni1EBC" unicode="&#x1ebc;" horiz-adv-x="1274" 
d="M224 1413h924v-127h-787v-513h708v-127h-708v-516h787v-130h-924v1413zM753 1575.5q-31 14.5 -51.5 35t-45.5 53.5q-29 38 -51.5 56.5t-55.5 18.5q-48 0 -75.5 -42t-27.5 -118h-80q0 116 50 181t137 64q39 0 68 -13.5t48.5 -33.5t44.5 -52q32 -40 55.5 -59t58.5 -19
q42 0 68.5 46t26.5 123h83q0 -78 -22 -135.5t-62.5 -88.5t-94.5 -31q-43 0 -74 14.5z" />
    <glyph glyph-name="uni1EBD" unicode="&#x1ebd;" horiz-adv-x="1074" 
d="M312.5 51.5q-105.5 66.5 -160 182.5t-54.5 261q0 143 53 261.5t154.5 188.5t242.5 70q152 0 249.5 -70.5t140.5 -176t43 -215.5q0 -26 -2 -52t-5 -37h-736q8 -169 93 -264t234 -95q91 0 158.5 28.5t134.5 98.5l92 -81q-84 -88 -174.5 -127t-211.5 -39q-146 0 -251.5 66.5
zM849 562q2 38 -2 63q-6 72 -40.5 135t-100 102.5t-159.5 39.5q-89 0 -156 -43t-105.5 -119.5t-47.5 -177.5h611zM601 1162.5q-31 14.5 -51.5 35t-45.5 53.5q-29 38 -51.5 56.5t-55.5 18.5q-48 0 -75.5 -42t-27.5 -118h-80q0 116 50 181t137 64q39 0 68 -13.5t48.5 -33.5
t44.5 -52q32 -40 55.5 -59t58.5 -19q42 0 68.5 46t26.5 123h83q0 -78 -22 -135.5t-62.5 -88.5t-94.5 -31q-43 0 -74 14.5z" />
    <glyph glyph-name="uni1EBE" unicode="&#x1ebe;" horiz-adv-x="1274" 
d="M224 1413h924v-127h-787v-513h708v-127h-708v-516h787v-130h-924v1413zM686 1846l302 -319h-110l-192 201l-190 -201h-111zM840 2239h142l-259 -286h-101z" />
    <glyph glyph-name="uni1EBF" unicode="&#x1ebf;" horiz-adv-x="1074" 
d="M312.5 51.5q-105.5 66.5 -160 182.5t-54.5 261q0 143 53 261.5t154.5 188.5t242.5 70q152 0 249.5 -70.5t140.5 -176t43 -215.5q0 -26 -2 -52t-5 -37h-736q8 -169 93 -264t234 -95q91 0 158.5 28.5t134.5 98.5l92 -81q-84 -88 -174.5 -127t-211.5 -39q-146 0 -251.5 66.5
zM849 562q2 38 -2 63q-6 72 -40.5 135t-100 102.5t-159.5 39.5q-89 0 -156 -43t-105.5 -119.5t-47.5 -177.5h611zM533 1432l302 -319h-110l-192 201l-190 -201h-111zM687 1826h142l-259 -286h-101z" />
    <glyph glyph-name="uni1EC0" unicode="&#x1ec0;" horiz-adv-x="1274" 
d="M224 1413h924v-127h-787v-513h708v-127h-708v-516h787v-130h-924v1413zM686 1846l302 -319h-110l-192 201l-190 -201h-111zM390 2239h142l218 -296h-101z" />
    <glyph glyph-name="uni1EC1" unicode="&#x1ec1;" horiz-adv-x="1074" 
d="M312.5 51.5q-105.5 66.5 -160 182.5t-54.5 261q0 143 53 261.5t154.5 188.5t242.5 70q152 0 249.5 -70.5t140.5 -176t43 -215.5q0 -26 -2 -52t-5 -37h-736q8 -169 93 -264t234 -95q91 0 158.5 28.5t134.5 98.5l92 -81q-84 -88 -174.5 -127t-211.5 -39q-146 0 -251.5 66.5
zM849 562q2 38 -2 63q-6 72 -40.5 135t-100 102.5t-159.5 39.5q-89 0 -156 -43t-105.5 -119.5t-47.5 -177.5h611zM533 1432l302 -319h-110l-192 201l-190 -201h-111zM237 1826h142l218 -296h-101z" />
    <glyph glyph-name="uni1EC4" unicode="&#x1ec4;" horiz-adv-x="1274" 
d="M224 1413h924v-127h-787v-513h708v-127h-708v-516h787v-130h-924v1413zM686 1846l302 -319h-110l-192 201l-190 -201h-111zM753 1988.5q-31 14.5 -51.5 35t-45.5 53.5q-29 38 -51.5 56.5t-55.5 18.5q-48 0 -75.5 -42t-27.5 -118h-80q0 116 50 181t137 64q39 0 68 -13.5
t48.5 -33.5t44.5 -52q32 -40 55.5 -59t58.5 -19q42 0 68.5 46t26.5 123h83q0 -78 -22 -135.5t-62.5 -88.5t-94.5 -31q-43 0 -74 14.5z" />
    <glyph glyph-name="uni1EC5" unicode="&#x1ec5;" horiz-adv-x="1074" 
d="M312.5 51.5q-105.5 66.5 -160 182.5t-54.5 261q0 143 53 261.5t154.5 188.5t242.5 70q152 0 249.5 -70.5t140.5 -176t43 -215.5q0 -26 -2 -52t-5 -37h-736q8 -169 93 -264t234 -95q91 0 158.5 28.5t134.5 98.5l92 -81q-84 -88 -174.5 -127t-211.5 -39q-146 0 -251.5 66.5
zM849 562q2 38 -2 63q-6 72 -40.5 135t-100 102.5t-159.5 39.5q-89 0 -156 -43t-105.5 -119.5t-47.5 -177.5h611zM533 1432l302 -319h-110l-192 201l-190 -201h-111zM601 1574.5q-31 14.5 -51.5 35t-45.5 53.5q-29 38 -51.5 56.5t-55.5 18.5q-48 0 -75.5 -42t-27.5 -118h-80
q0 116 50 181t137 64q39 0 68 -13.5t48.5 -33.5t44.5 -52q32 -40 55.5 -59t58.5 -19q42 0 68.5 46t26.5 123h83q0 -78 -22 -135.5t-62.5 -88.5t-94.5 -31q-43 0 -74 14.5z" />
    <glyph glyph-name="uni1ED0" unicode="&#x1ed0;" horiz-adv-x="1559" 
d="M420.5 82.5q-145.5 97.5 -217.5 261.5t-72 363t72 362.5t217.5 261t357.5 97.5q213 0 359 -97.5t218 -261t72 -362.5t-72 -363t-218 -261.5t-359 -97.5q-212 0 -357.5 97.5zM1062 188q113 80 167 215t54 304q0 168 -54 303.5t-167.5 215.5t-283.5 80q-169 0 -282 -80
t-167 -215.5t-54 -303.5q0 -169 54 -304t167 -215t282 -80q171 0 284 80zM777 1846l302 -319h-110l-192 201l-190 -201h-111zM931 2239h142l-259 -286h-101z" />
    <glyph glyph-name="uni1ED1" unicode="&#x1ed1;" horiz-adv-x="1152" 
d="M325 53.5q-110 68.5 -171.5 187t-61.5 261.5q0 142 61.5 259t171.5 185.5t249 68.5q140 0 250.5 -68.5t173 -185.5t62.5 -259q0 -143 -62.5 -261t-173 -187t-250.5 -69q-139 0 -249 68.5zM759 153.5q79 53.5 121.5 145.5t42.5 203t-42.5 201.5t-121.5 143t-185 52.5
q-105 0 -183.5 -52.5t-120 -143t-41.5 -201.5q0 -112 41.5 -203.5t120 -145t183.5 -53.5q106 0 185 53.5zM574 1432l302 -319h-110l-192 201l-190 -201h-111zM728 1826h142l-259 -286h-101z" />
    <glyph glyph-name="uni1ED2" unicode="&#x1ed2;" horiz-adv-x="1559" 
d="M420.5 82.5q-145.5 97.5 -217.5 261.5t-72 363t72 362.5t217.5 261t357.5 97.5q213 0 359 -97.5t218 -261t72 -362.5t-72 -363t-218 -261.5t-359 -97.5q-212 0 -357.5 97.5zM1062 188q113 80 167 215t54 304q0 168 -54 303.5t-167.5 215.5t-283.5 80q-169 0 -282 -80
t-167 -215.5t-54 -303.5q0 -169 54 -304t167 -215t282 -80q171 0 284 80zM777 1846l302 -319h-110l-192 201l-190 -201h-111zM481 2239h142l218 -296h-101z" />
    <glyph glyph-name="uni1ED3" unicode="&#x1ed3;" horiz-adv-x="1152" 
d="M325 53.5q-110 68.5 -171.5 187t-61.5 261.5q0 142 61.5 259t171.5 185.5t249 68.5q140 0 250.5 -68.5t173 -185.5t62.5 -259q0 -143 -62.5 -261t-173 -187t-250.5 -69q-139 0 -249 68.5zM759 153.5q79 53.5 121.5 145.5t42.5 203t-42.5 201.5t-121.5 143t-185 52.5
q-105 0 -183.5 -52.5t-120 -143t-41.5 -201.5q0 -112 41.5 -203.5t120 -145t183.5 -53.5q106 0 185 53.5zM574 1432l302 -319h-110l-192 201l-190 -201h-111zM278 1826h142l218 -296h-101z" />
    <glyph glyph-name="uni1ED6" unicode="&#x1ed6;" horiz-adv-x="1559" 
d="M420.5 82.5q-145.5 97.5 -217.5 261.5t-72 363t72 362.5t217.5 261t357.5 97.5q213 0 359 -97.5t218 -261t72 -362.5t-72 -363t-218 -261.5t-359 -97.5q-212 0 -357.5 97.5zM1062 188q113 80 167 215t54 304q0 168 -54 303.5t-167.5 215.5t-283.5 80q-169 0 -282 -80
t-167 -215.5t-54 -303.5q0 -169 54 -304t167 -215t282 -80q171 0 284 80zM777 1846l302 -319h-110l-192 201l-190 -201h-111zM845 1988.5q-31 14.5 -51.5 35t-45.5 53.5q-29 38 -51.5 56.5t-55.5 18.5q-48 0 -75.5 -42t-27.5 -118h-80q0 116 50 181t137 64q39 0 68 -13.5
t48.5 -33.5t44.5 -52q32 -40 55.5 -59t58.5 -19q42 0 68.5 46t26.5 123h83q0 -78 -22 -135.5t-62.5 -88.5t-94.5 -31q-43 0 -74 14.5z" />
    <glyph glyph-name="uni1ED7" unicode="&#x1ed7;" horiz-adv-x="1152" 
d="M325 53.5q-110 68.5 -171.5 187t-61.5 261.5q0 142 61.5 259t171.5 185.5t249 68.5q140 0 250.5 -68.5t173 -185.5t62.5 -259q0 -143 -62.5 -261t-173 -187t-250.5 -69q-139 0 -249 68.5zM759 153.5q79 53.5 121.5 145.5t42.5 203t-42.5 201.5t-121.5 143t-185 52.5
q-105 0 -183.5 -52.5t-120 -143t-41.5 -201.5q0 -112 41.5 -203.5t120 -145t183.5 -53.5q106 0 185 53.5zM574 1432l302 -319h-110l-192 201l-190 -201h-111zM642 1574.5q-31 14.5 -51.5 35t-45.5 53.5q-29 38 -51.5 56.5t-55.5 18.5q-48 0 -75.5 -42t-27.5 -118h-80
q0 116 50 181t137 64q39 0 68 -13.5t48.5 -33.5t44.5 -52q32 -40 55.5 -59t58.5 -19q42 0 68.5 46t26.5 123h83q0 -78 -22 -135.5t-62.5 -88.5t-94.5 -31q-43 0 -74 14.5z" />
    <glyph glyph-name="Ygrave" unicode="&#x1ef2;" horiz-adv-x="1328" 
d="M593 540l-538 873h166l442 -739l443 739h167l-538 -873v-540h-142v540zM365 1827h142l218 -296h-101z" />
    <glyph glyph-name="ygrave" unicode="&#x1ef3;" horiz-adv-x="1020" 
d="M460 12l-425 987h145l350 -832l308 832h144l-548 -1427h-144zM208 1413h142l218 -296h-101z" />
    <glyph glyph-name="uni1EF8" unicode="&#x1ef8;" horiz-adv-x="1328" 
d="M593 540l-538 873h166l442 -739l443 739h167l-538 -873v-540h-142v540zM729 1575.5q-31 14.5 -51.5 35t-45.5 53.5q-29 38 -51.5 56.5t-55.5 18.5q-48 0 -75.5 -42t-27.5 -118h-80q0 116 50 181t137 64q39 0 68 -13.5t48.5 -33.5t44.5 -52q32 -40 55.5 -59t58.5 -19
q42 0 68.5 46t26.5 123h83q0 -78 -22 -135.5t-62.5 -88.5t-94.5 -31q-43 0 -74 14.5z" />
    <glyph glyph-name="uni1EF9" unicode="&#x1ef9;" horiz-adv-x="1020" 
d="M460 12l-425 987h145l350 -832l308 832h144l-548 -1427h-144zM572 1162.5q-31 14.5 -51.5 35t-45.5 53.5q-29 38 -51.5 56.5t-55.5 18.5q-48 0 -75.5 -42t-27.5 -118h-80q0 116 50 181t137 64q39 0 68 -13.5t48.5 -33.5t44.5 -52q32 -40 55.5 -59t58.5 -19q42 0 68.5 46
t26.5 123h83q0 -78 -22 -135.5t-62.5 -88.5t-94.5 -31q-43 0 -74 14.5z" />
    <glyph glyph-name="endash" unicode="&#x2013;" horiz-adv-x="1064" 
d="M170 674h724v-103h-724v103z" />
    <glyph glyph-name="emdash" unicode="&#x2014;" horiz-adv-x="2048" 
d="M0 674h2048v-103h-2048v103z" />
    <glyph glyph-name="uni2015" unicode="&#x2015;" horiz-adv-x="1555" 
d="M170 674h1215v-103h-1215v103z" />
    <glyph glyph-name="quoteleft" unicode="&#x2018;" horiz-adv-x="581" 
d="M366 836l-268 577h151l209 -577h-92z" />
    <glyph glyph-name="quoteright" unicode="&#x2019;" horiz-adv-x="581" 
d="M332 1413h151l-268 -577h-92z" />
    <glyph glyph-name="quotesinglbase" unicode="&#x201a;" horiz-adv-x="581" 
d="M332 262h151l-268 -577h-92z" />
    <glyph glyph-name="quotedblleft" unicode="&#x201c;" horiz-adv-x="919" 
d="M366 836l-268 577h151l209 -577h-92zM704 836l-268 577h151l209 -577h-92z" />
    <glyph glyph-name="quotedblright" unicode="&#x201d;" horiz-adv-x="919" 
d="M332 1413h151l-268 -577h-92zM670 1413h151l-268 -577h-92z" />
    <glyph glyph-name="quotedblbase" unicode="&#x201e;" horiz-adv-x="929" 
d="M332 262h151l-268 -577h-92zM680 262h151l-268 -577h-92z" />
    <glyph glyph-name="dagger" unicode="&#x2020;" horiz-adv-x="841" 
d="M360 887h-249v121h249v405h121v-405h249v-121h-249v-1092h-121v1092z" />
    <glyph glyph-name="daggerdbl" unicode="&#x2021;" horiz-adv-x="916" 
d="M398 200h-250v121h250v566h-250v121h250v405h121v-405h249v-121h-249v-566h249v-121h-249v-405h-121v405z" />
    <glyph glyph-name="bullet" unicode="&#x2022;" horiz-adv-x="852" 
d="M307 276q-55 32 -87 86.5t-32 118.5t32 119t87 87t119 32t119 -32t87 -87t32 -119t-32 -118.5t-87 -86.5t-119 -32t-119 32z" />
    <glyph glyph-name="uni2023" unicode="&#x2023;" horiz-adv-x="895" 
d="M251 809l528 -303l-528 -304v607z" />
    <glyph glyph-name="twodotenleader" unicode="&#x2025;" horiz-adv-x="1040" 
d="M247 220h133v-220h-133v220zM660 220h134v-220h-134v220z" />
    <glyph glyph-name="ellipsis" unicode="&#x2026;" horiz-adv-x="1454" 
d="M247 220h133v-220h-133v220zM660 220h134v-220h-134v220zM1074 220h133v-220h-133v220z" />
    <glyph glyph-name="perthousand" unicode="&#x2030;" horiz-adv-x="2154" 
d="M261.5 837q-60.5 45 -91 117.5t-30.5 155.5q0 82 30 155t89 118t142 45q77 0 138 -41.5t95 -114t34 -163.5q0 -90 -33.5 -162.5t-93 -113.5t-133.5 -41q-86 0 -146.5 45zM1113 1413h96l-794 -1413h-97zM494 912.5q38 28.5 59.5 80t21.5 116.5q0 62 -20 114t-59.5 82.5
t-94.5 30.5q-56 0 -94 -32t-56.5 -83.5t-18.5 -110.5t19 -110.5t58.5 -83.5t98.5 -32q48 0 86 28.5zM983.5 30q-60.5 45 -91 117.5t-30.5 155.5q0 82 30 155.5t89 118.5t142 45q77 0 138 -41.5t95 -114.5t34 -164q0 -90 -33.5 -162.5t-93 -113.5t-134.5 -41q-85 0 -145.5 45
zM1608.5 30q-60.5 45 -91 117.5t-30.5 155.5q0 82 30 155.5t89 118.5t142 45q77 0 137.5 -41.5t94.5 -114.5t34 -164t-33.5 -163t-92.5 -113t-134 -41q-85 0 -145.5 45zM1216 105.5q38 28.5 59.5 80t21.5 116.5q0 62 -20 114t-59.5 82.5t-94.5 30.5q-56 0 -94 -32
t-56.5 -83.5t-18.5 -110.5t19 -110.5t58 -83.5t98 -32q49 0 87 28.5zM1840.5 105.5q38.5 28.5 60 80t21.5 116.5q0 62 -20 114t-59.5 82.5t-94.5 30.5q-57 0 -95 -32t-56 -83.5t-18 -110.5t18.5 -110.5t58 -83.5t98.5 -32q48 0 86.5 28.5z" />
    <glyph glyph-name="uni2031" unicode="&#x2031;" horiz-adv-x="2779" 
d="M261.5 837q-60.5 45 -91 117.5t-30.5 155.5q0 82 30 155t89 118t142 45q77 0 138 -41.5t95 -114t34 -163.5q0 -90 -33.5 -162.5t-93 -113.5t-133.5 -41q-86 0 -146.5 45zM1113 1413h96l-794 -1413h-97zM494 912.5q38 28.5 59.5 80t21.5 116.5q0 62 -20 114t-59.5 82.5
t-94.5 30.5q-56 0 -94 -32t-56.5 -83.5t-18.5 -110.5t19 -110.5t58.5 -83.5t98.5 -32q48 0 86 28.5zM983.5 30q-60.5 45 -91 117.5t-30.5 155.5q0 82 30 155.5t89 118.5t142 45q77 0 138 -41.5t95 -114.5t34 -164q0 -90 -33.5 -162.5t-93 -113.5t-134.5 -41q-85 0 -145.5 45
zM1608.5 30q-60.5 45 -91 117.5t-30.5 155.5q0 82 30 155.5t89 118.5t142 45q77 0 137.5 -41.5t94.5 -114.5t34 -164t-33.5 -163t-92.5 -113t-134 -41q-85 0 -145.5 45zM2232.5 30q-60.5 45 -91 118t-30.5 155t30 155.5t89.5 118.5t142.5 45q76 0 137 -41.5t95 -114.5
t34 -164q0 -90 -33.5 -162.5t-93 -113.5t-133.5 -41q-86 0 -146.5 45zM1216 105.5q38 28.5 59.5 80t21.5 116.5q0 62 -20 114t-59.5 82.5t-94.5 30.5q-56 0 -94 -32t-56.5 -83.5t-18.5 -110.5t19 -110.5t58 -83.5t98 -32q49 0 87 28.5zM1840.5 105.5q38.5 28.5 60 80
t21.5 116.5q0 62 -20 114t-59.5 82.5t-94.5 30.5q-57 0 -95 -32t-56 -83.5t-18 -110.5t18.5 -110.5t58 -83.5t98.5 -32q48 0 86.5 28.5zM2465.5 105.5q38.5 28.5 60 80t21.5 116.5q0 62 -20.5 114t-59.5 82.5t-94 30.5q-57 0 -95 -32t-56 -83.5t-18 -110.5t18.5 -110.5
t58 -83.5t98.5 -32q48 0 86.5 28.5z" />
    <glyph glyph-name="guilsinglleft" unicode="&#x2039;" horiz-adv-x="615" 
d="M71 511l396 341v-119l-258 -222l258 -222v-119z" />
    <glyph glyph-name="guilsinglright" unicode="&#x203a;" horiz-adv-x="615" 
d="M148 289l258 222l-258 222v119l396 -341l-396 -341v119z" />
    <glyph glyph-name="fraction" unicode="&#x2044;" horiz-adv-x="288" 
d="M493 1413h97l-795 -1413h-97z" />
    <glyph glyph-name="Euro" unicode="&#x20ac;" horiz-adv-x="1357" 
d="M582 52q-106 67 -169.5 181t-89.5 260h-171l49 100h107q-5 48 -5 114q0 47 6 123h-157l49 104h123q27 142 91.5 254t169.5 177t245 65q121 0 217.5 -50t165.5 -146l-86 -68q-103 157 -296 157q-160 0 -258 -105.5t-130 -283.5h531l-49 -101h-499q-7 -68 -7 -118
q0 -62 6 -118h549l-49 -100h-482q30 -181 128.5 -292t261.5 -111q89 0 161 39t125 110l82 -79q-67 -88 -160.5 -133.5t-207.5 -45.5q-145 0 -251 67z" />
    <glyph glyph-name="uni20B1" unicode="&#x20b1;" horiz-adv-x="1398" 
d="M1271 988h-103q-6 -117 -65.5 -200t-164.5 -126.5t-244 -43.5h-252v-618h-136v988h-135v62h135v363h388q135 0 239 -43t165 -125t70 -195h103v-62zM442 1050h589q-12 112 -98.5 173t-238.5 61h-252v-234zM939 809.5q85 61.5 93 178.5h-590v-240h252q160 0 245 61.5z" />
    <glyph glyph-name="uni20B3" unicode="&#x20b3;" horiz-adv-x="1609" 
d="M336 310h-151v119h197l74 204h-271v119h319l244 661h114l244 -661h317v-119h-270l74 -204h196v-119h-150l113 -310h-148l-110 310h-646l-109 -310h-151zM970 752l-164 469l-164 -469h328zM1085 429l-71 204h-416l-72 -204h559z" />
    <glyph glyph-name="uni20B4" unicode="&#x20b4;" horiz-adv-x="1483" 
d="M1302 908v-97h-1127v97h753q89 68 89 166q0 66 -33.5 119t-92.5 83t-132 30q-97 0 -169 -43.5t-122 -132.5l-114 71q129 227 401 227q111 0 202 -44.5t144 -126.5t53 -189q0 -92 -52 -160h200zM175 646h1127v-96h-781q-44 -35 -68.5 -78t-24.5 -100q0 -78 41 -137.5
t114.5 -92t166.5 -32.5q135 0 227 70.5t120 198.5l135 -31q-25 -114 -95.5 -195.5t-172.5 -123.5t-223 -42q-126 0 -228.5 46.5t-162 130.5t-59.5 192q0 112 75 194h-191v96z" />
    <glyph glyph-name="uni20B8" unicode="&#x20b8;" horiz-adv-x="1457" 
d="M167 1412h1123v-114h-1123v114zM660 983h-493v114h1123v-114h-492v-983h-138v983z" />
    <glyph glyph-name="uni20BD" unicode="&#x20bd;" horiz-adv-x="1377" 
d="M356 314h-182v109h182v206h-182v119h182v665h388q143 0 250.5 -47.5t166.5 -137.5t59 -215q0 -124 -58.5 -210.5t-165.5 -130t-252 -43.5h-251v-206h323v-109h-323v-314h-137v314zM744 748q168 0 253.5 68t85.5 197t-87 200t-252 71h-251v-536h251z" />
    <glyph glyph-name="uni2116" unicode="&#x2116;" horiz-adv-x="2372" 
d="M1072 1413h132v-1413h-145l-703 1197v-1197h-132v1413h145l703 -1191v1191zM1621.5 373q-92.5 58 -144 158t-51.5 221q0 119 51.5 218t144.5 156.5t210 57.5t210.5 -57.5t146 -156.5t52.5 -218q0 -121 -52.5 -221t-146 -158t-210.5 -58q-118 0 -210.5 58zM1676.5 1042.5
q-66.5 -44.5 -102 -120.5t-35.5 -170q0 -96 35.5 -173.5t102 -122.5t155.5 -45t156 45t103 123t36 173q0 93 -36 169.5t-103 121t-156 44.5t-155.5 -44.5zM1446 102h747v-102h-747v102z" />
    <glyph glyph-name="trademark" unicode="&#x2122;" horiz-adv-x="1238" 
d="M248 1333h-157v80h398v-80h-155v-456h-86v456zM607 1413h141l131 -375l131 375h136v-536h-86v443l-154 -408h-55l-158 413v-448h-86v536z" />
    <glyph glyph-name="uni2126" unicode="&#x2126;" horiz-adv-x="1664" 
d="M161 112h405l2 29q-104 60 -182.5 154.5t-121 210t-42.5 236.5q0 113 42 224.5t113 188.5q85 93 208.5 148.5t245.5 55.5q123 0 247 -55.5t209 -149.5q70 -77 112 -189.5t42 -225.5q0 -130 -41 -249t-117 -210.5t-178 -142.5v-29h396v-108h-540v164q110 26 192 105.5
t126.5 200.5t44.5 268q0 95 -32 186.5t-86 150.5q-70 78 -172 124.5t-203 46.5q-100 0 -201 -46.5t-172 -124.5q-55 -61 -87 -151.5t-32 -185.5q0 -140 44.5 -258t126 -200.5t191.5 -116.5v-163h-540v112z" />
    <glyph glyph-name="arrowleft" unicode="&#x2190;" horiz-adv-x="2303" 
d="M106 639l987 546l45 -89l-729 -406l1770 -2v-102l-1771 2l730 -410l-45 -89z" />
    <glyph glyph-name="arrowright" unicode="&#x2192;" horiz-adv-x="2303" 
d="M1165 178l730 410l-1771 -2v102l1770 2l-729 406l45 89l987 -546l-987 -550z" />
    <glyph glyph-name="partialdiff" unicode="&#x2202;" horiz-adv-x="1357" 
d="M362.5 46q-98.5 57 -151.5 158.5t-53 233.5q0 169 73 301.5t198.5 206.5t276.5 74q126 0 207 -76t123 -191q1 15 1 45q0 55 -7 98q-14 216 -102 323.5t-243 107.5q-104 0 -185.5 -48t-121.5 -151l-99 32q50 127 159 196.5t258 69.5q239 0 357.5 -178.5t118.5 -501.5
q0 -210 -65 -382t-196 -273.5t-318 -101.5q-132 0 -230.5 57zM813.5 159q91.5 56 145 148.5t69.5 202.5q2 28 2 43q0 88 -32.5 170t-102 134.5t-174.5 52.5q-134 0 -234 -63t-153 -170.5t-53 -237.5q0 -103 41.5 -179.5t114 -116.5t163.5 -40q122 0 213.5 56z" />
    <glyph glyph-name="uni2206" unicode="&#x2206;" horiz-adv-x="1370" 
d="M685 1461l575 -1461h-1149zM1096 113l-411 1071l-411 -1071h822z" />
    <glyph glyph-name="product" unicode="&#x220f;" horiz-adv-x="1349" 
d="M285 1300h-107v113h992v-113h-105v-1300h-113v1300h-555v-1300h-112v1300z" />
    <glyph glyph-name="summation" unicode="&#x2211;" horiz-adv-x="1331" 
d="M1186 1287h-850l553 -580l-553 -581h850v-126h-1049v90l573 617l-573 616v90h1049v-126z" />
    <glyph glyph-name="minus" unicode="&#x2212;" horiz-adv-x="1236" 
d="M260 680h716v-102h-716v102z" />
    <glyph glyph-name="radical" unicode="&#x221a;" horiz-adv-x="1276" 
d="M259 558h-149v113h229l195 -515l513 1257h121l-641 -1547z" />
    <glyph glyph-name="infinity" unicode="&#x221e;" horiz-adv-x="2035" 
d="M372 405q-87 49 -135.5 134t-48.5 191q0 105 48.5 190t135.5 134t198 49q121 0 235.5 -75.5t206.5 -205.5q102 132 216.5 206.5t234.5 74.5q111 0 198 -48.5t135.5 -134t48.5 -190.5q0 -106 -48.5 -191t-135.5 -134t-198 -49q-120 0 -235 75t-216 207
q-93 -131 -207 -206.5t-235 -75.5q-111 0 -198 49zM774.5 532.5q95.5 67.5 176.5 197.5q-81 130 -176.5 197t-188.5 67q-79 0 -142.5 -34t-100 -94t-36.5 -136t36 -136.5t100 -94.5t143 -34q93 0 188.5 67.5zM1590.5 499q63.5 34 99.5 94.5t36 136.5t-36 136t-99.5 94
t-142.5 34q-97 0 -194 -70.5t-182 -193.5q85 -124 182 -194.5t194 -70.5q79 0 142.5 34z" />
    <glyph glyph-name="integral" unicode="&#x222b;" horiz-adv-x="1013" 
d="M98 -362q118 0 189 29.5t103.5 94t32.5 172.5v1198q0 86 37.5 155.5t102.5 109t144 39.5q55 0 110 -21t103 -61l-72 -86q-68 55 -141 55q-48 0 -87 -24t-61.5 -68.5t-22.5 -103.5v-1196q0 -202 -112.5 -304t-325.5 -102v113z" />
    <glyph glyph-name="approxequal" unicode="&#x2248;" horiz-adv-x="1260" 
d="M714 732.5q-38 19.5 -63 47.5t-56 73q-26 38 -44 59.5t-43.5 36t-58.5 14.5q-62 0 -97 -54.5t-35 -148.5h-102q0 89 28.5 155.5t81.5 103t124 36.5q56 0 96 -20.5t65.5 -49t56.5 -74.5q26 -37 43 -57.5t40.5 -34.5t54.5 -14q40 0 70.5 28t47.5 79.5t17 117.5h102
q0 -93 -29.5 -165t-83 -112t-124.5 -40q-53 0 -91 19.5zM714 289.5q-38 19.5 -63 47.5t-56 73q-26 38 -44 59.5t-43.5 36t-58.5 14.5q-62 0 -97 -54.5t-35 -148.5h-102q0 89 28.5 155.5t81.5 103t124 36.5q56 0 96 -20.5t65.5 -49t56.5 -74.5q26 -37 43 -57.5t40.5 -34.5
t54.5 -14q40 0 70.5 28.5t47.5 80t17 117.5h102q0 -94 -29.5 -166t-83 -112t-124.5 -40q-53 0 -91 19.5z" />
    <glyph glyph-name="notequal" unicode="&#x2260;" horiz-adv-x="1186" 
d="M381 419h-182v113h250l154 279h-404v114h473l271 488h96l-271 -488h216v-114h-285l-154 -279h439v-113h-507l-232 -419h-97z" />
    <glyph glyph-name="lessequal" unicode="&#x2264;" horiz-adv-x="1352" 
d="M121 796l991 565l50 -88l-834 -477l834 -476l-50 -88zM1200 0v-102h-1014v102h1014z" />
    <glyph glyph-name="greaterequal" unicode="&#x2265;" horiz-adv-x="1352" 
d="M190 320l834 476l-834 477l50 88l991 -565l-991 -564zM1166 -102h-1014v102h1014v-102z" />
    <glyph glyph-name="lozenge" unicode="&#x25ca;" horiz-adv-x="1188" 
d="M123 707l375 706h192l375 -706l-375 -707h-192zM609 74l324 633l-324 632h-30l-324 -632l324 -633h30z" />
    <glyph glyph-name="uniF8FF" unicode="&#xf8ff;" horiz-adv-x="1810" 
d="M516.5 43q-177.5 104 -281.5 281.5t-104 388.5t104 388.5t281.5 281.5t388.5 104t388.5 -104t281.5 -281.5t104 -388.5t-104 -388.5t-281.5 -281.5t-388.5 -104t-388.5 104zM1257.5 104.5q161.5 94.5 256 256t94.5 352.5t-94.5 352.5t-256 255.5t-352.5 94t-352.5 -94
t-255.5 -255.5t-94 -352.5t94 -352.5t255.5 -256t352.5 -94.5t352.5 94.5zM477 419.5q-10 9.5 -10 24.5v537q0 15 10.5 26t24.5 11q15 0 26 -11t11 -26v-537q0 -15 -11 -24.5t-26 -9.5t-25 9.5zM880 419.5q-10 9.5 -10 24.5v537q0 15 10 26t25 11t25 -11t10 -26v-537
q0 -15 -9.5 -24.5t-25.5 -9.5q-15 0 -25 9.5zM1284 420l-270 268q-8 11 -8 25q0 16 8 24l271 269q8 12 22 12q13 0 24.5 -11.5t11.5 -25.5t-10 -25l-243 -243l243 -244q10 -10 10 -25q0 -13 -11 -23.5t-25 -10.5q-15 0 -23 10zM611.5 687.5q-9.5 9.5 -9.5 25.5q0 15 9.5 25
t25.5 10h133q16 0 26.5 -10t10.5 -25q0 -16 -10.5 -25.5t-26.5 -9.5h-133q-16 0 -25.5 9.5z" />
    <glyph glyph-name="i.loclTRK" horiz-adv-x="490" 
d="M179 999h132v-999h-132v999zM175 1413h138v-205h-138v205z" />
    <glyph glyph-name="g.ss01" horiz-adv-x="1206" 
d="M305.5 -397q-109.5 68 -172.5 184l101 74q42 -93 129.5 -151t201.5 -58q98 0 172 45.5t115.5 131t41.5 202.5v200q-47 -110 -142 -173t-214 -63q-132 0 -233.5 68.5t-157 185.5t-55.5 257q0 139 55.5 255.5t156.5 185t232 68.5q118 0 214.5 -63t143.5 -173v220h133v-968
q0 -149 -57.5 -261.5t-163 -173.5t-243.5 -61q-148 0 -257.5 68zM745.5 168.5q76.5 50.5 117.5 139t41 198.5q0 109 -41 197.5t-117.5 139.5t-178.5 51t-179.5 -51.5t-119.5 -140t-42 -196.5q0 -109 42 -197.5t119.5 -139.5t179.5 -51t178.5 50.5z" />
    <glyph glyph-name="gbreve.ss01" horiz-adv-x="1205" 
d="M305.5 -397q-109.5 68 -172.5 184l101 74q42 -93 129.5 -151t201.5 -58q98 0 172 45.5t115.5 131t41.5 202.5v200q-47 -110 -142 -173t-214 -63q-132 0 -233.5 68.5t-157 185.5t-55.5 257q0 139 55.5 255.5t156.5 185t232 68.5q118 0 214.5 -63t143.5 -173v220h133v-968
q0 -149 -57.5 -261.5t-163 -173.5t-243.5 -61q-148 0 -257.5 68zM745.5 168.5q76.5 50.5 117.5 139t41 198.5q0 109 -41 197.5t-117.5 139.5t-178.5 51t-179.5 -51.5t-119.5 -140t-42 -196.5q0 -109 42 -197.5t119.5 -139.5t179.5 -51t178.5 50.5zM372.5 1215.5
q-76.5 67.5 -76.5 197.5h96q0 -90 55 -136.5t154 -46.5t153.5 47t54.5 136h96q0 -131 -77 -198t-227 -67q-152 0 -228.5 67.5z" />
    <glyph glyph-name="uni0123.ss01" horiz-adv-x="1205" 
d="M661 1100h-141l238 299h85zM305.5 -397q-109.5 68 -172.5 184l101 74q42 -93 129.5 -151t201.5 -58q98 0 172 45.5t115.5 131t41.5 202.5v200q-47 -110 -142 -173t-214 -63q-132 0 -233.5 68.5t-157 185.5t-55.5 257q0 139 55.5 255.5t156.5 185t232 68.5
q118 0 214.5 -63t143.5 -173v220h133v-968q0 -149 -57.5 -261.5t-163 -173.5t-243.5 -61q-148 0 -257.5 68zM745.5 168.5q76.5 50.5 117.5 139t41 198.5q0 109 -41 197.5t-117.5 139.5t-178.5 51t-179.5 -51.5t-119.5 -140t-42 -196.5q0 -109 42 -197.5t119.5 -139.5
t179.5 -51t178.5 50.5z" />
    <glyph glyph-name="gdotaccent.ss01" horiz-adv-x="1205" 
d="M305.5 -397q-109.5 68 -172.5 184l101 74q42 -93 129.5 -151t201.5 -58q98 0 172 45.5t115.5 131t41.5 202.5v200q-47 -110 -142 -173t-214 -63q-132 0 -233.5 68.5t-157 185.5t-55.5 257q0 139 55.5 255.5t156.5 185t232 68.5q118 0 214.5 -63t143.5 -173v220h133v-968
q0 -149 -57.5 -261.5t-163 -173.5t-243.5 -61q-148 0 -257.5 68zM745.5 168.5q76.5 50.5 117.5 139t41 198.5q0 109 -41 197.5t-117.5 139.5t-178.5 51t-179.5 -51.5t-119.5 -140t-42 -196.5q0 -109 42 -197.5t119.5 -139.5t179.5 -51t178.5 50.5zM531 1413h138v-205h-138
v205z" />
    <glyph glyph-name="g.ss02" horiz-adv-x="1055" 
d="M896 62.5q86 -69.5 86 -202.5q0 -96 -48.5 -167.5t-143.5 -110.5t-230 -39q-140 0 -247.5 38.5t-168 113t-60.5 179.5q0 35 9 67l157 108q-59 28 -95.5 79.5t-36.5 126.5q0 118 110 198q-37 44 -57 99.5t-20 118.5q0 99 48.5 177.5t133.5 122.5t191 44q77 0 141.5 -23
t113.5 -66l153 135l68 -86l-152 -132q46 -78 46 -177q0 -100 -48.5 -177t-133 -119t-189.5 -42q-124 0 -215 57q-35 -26 -50.5 -55t-15.5 -62q0 -136 199 -136h224q145 0 231 -69.5zM398.5 877q-55.5 -31 -85.5 -85.5t-30 -122.5t29.5 -121t84.5 -83t128 -30t127.5 29.5
t84 82.5t29.5 121q0 69 -29.5 123.5t-84 85.5t-126.5 31t-127.5 -31zM772.5 -303q82.5 50 82.5 152q0 84 -61.5 127.5t-179.5 43.5h-237q-21 0 -44 3l-125 -119v-28q0 -98 78.5 -163.5t265.5 -65.5q138 0 220.5 50z" />
    <glyph glyph-name="gbreve.ss02" horiz-adv-x="1055" 
d="M896 62.5q86 -69.5 86 -202.5q0 -96 -48.5 -167.5t-143.5 -110.5t-230 -39q-140 0 -247.5 38.5t-168 113t-60.5 179.5q0 35 9 67l157 108q-59 28 -95.5 79.5t-36.5 126.5q0 118 110 198q-37 44 -57 99.5t-20 118.5q0 99 48.5 177.5t133.5 122.5t191 44q77 0 141.5 -23
t113.5 -66l153 135l68 -86l-152 -132q46 -78 46 -177q0 -100 -48.5 -177t-133 -119t-189.5 -42q-124 0 -215 57q-35 -26 -50.5 -55t-15.5 -62q0 -136 199 -136h224q145 0 231 -69.5zM398.5 877q-55.5 -31 -85.5 -85.5t-30 -122.5t29.5 -121t84.5 -83t128 -30t127.5 29.5
t84 82.5t29.5 121q0 69 -29.5 123.5t-84 85.5t-126.5 31t-127.5 -31zM772.5 -303q82.5 50 82.5 152q0 84 -61.5 127.5t-179.5 43.5h-237q-21 0 -44 3l-125 -119v-28q0 -98 78.5 -163.5t265.5 -65.5q138 0 220.5 50zM298.5 1215.5q-76.5 67.5 -76.5 197.5h96q0 -90 55 -136.5
t154 -46.5t153.5 47t54.5 136h96q0 -131 -77 -198t-227 -67q-152 0 -228.5 67.5z" />
    <glyph glyph-name="uni0123.ss02" horiz-adv-x="1055" 
d="M896 62.5q86 -69.5 86 -202.5q0 -96 -48.5 -167.5t-143.5 -110.5t-230 -39q-140 0 -247.5 38.5t-168 113t-60.5 179.5q0 35 9 67l157 108q-59 28 -95.5 79.5t-36.5 126.5q0 118 110 198q-37 44 -57 99.5t-20 118.5q0 99 48.5 177.5t133.5 122.5t191 44q77 0 141.5 -23
t113.5 -66l153 135l68 -86l-152 -132q46 -78 46 -177q0 -100 -48.5 -177t-133 -119t-189.5 -42q-124 0 -215 57q-35 -26 -50.5 -55t-15.5 -62q0 -136 199 -136h224q145 0 231 -69.5zM398.5 877q-55.5 -31 -85.5 -85.5t-30 -122.5t29.5 -121t84.5 -83t128 -30t127.5 29.5
t84 82.5t29.5 121q0 69 -29.5 123.5t-84 85.5t-126.5 31t-127.5 -31zM772.5 -303q82.5 50 82.5 152q0 84 -61.5 127.5t-179.5 43.5h-237q-21 0 -44 3l-125 -119v-28q0 -98 78.5 -163.5t265.5 -65.5q138 0 220.5 50zM584 1125h-141l238 299h85z" />
    <glyph glyph-name="gdotaccent.ss02" horiz-adv-x="1055" 
d="M896 62.5q86 -69.5 86 -202.5q0 -96 -48.5 -167.5t-143.5 -110.5t-230 -39q-140 0 -247.5 38.5t-168 113t-60.5 179.5q0 35 9 67l157 108q-59 28 -95.5 79.5t-36.5 126.5q0 118 110 198q-37 44 -57 99.5t-20 118.5q0 99 48.5 177.5t133.5 122.5t191 44q77 0 141.5 -23
t113.5 -66l153 135l68 -86l-152 -132q46 -78 46 -177q0 -100 -48.5 -177t-133 -119t-189.5 -42q-124 0 -215 57q-35 -26 -50.5 -55t-15.5 -62q0 -136 199 -136h224q145 0 231 -69.5zM398.5 877q-55.5 -31 -85.5 -85.5t-30 -122.5t29.5 -121t84.5 -83t128 -30t127.5 29.5
t84 82.5t29.5 121q0 69 -29.5 123.5t-84 85.5t-126.5 31t-127.5 -31zM772.5 -303q82.5 50 82.5 152q0 84 -61.5 127.5t-179.5 43.5h-237q-21 0 -44 3l-125 -119v-28q0 -98 78.5 -163.5t265.5 -65.5q138 0 220.5 50zM458 1413h138v-205h-138v205z" />
    <glyph glyph-name="T_h" horiz-adv-x="2102" 
d="M558 1289h-493v124h1224v-584q47 90 128 138t182 48q113 0 191 -49.5t117.5 -135.5t41.5 -197v-633h-134v602q0 139 -59 215.5t-186 76.5q-87 0 -150.5 -41t-97 -114t-33.5 -169v-570h-134v1289h-460v-1289h-137v1289z" />
    <glyph glyph-name="f_t" horiz-adv-x="1197" 
d="M776 61q-70 76 -70 219v607h-368v-887h-132v887h-166v112h166v83q0 115 44.5 192.5t121 115.5t173.5 38q171 0 292 -80v-349h280v-112h-280v-586q0 -104 40.5 -151.5t121.5 -47.5q30 0 61.5 7t55.5 17l2 -121q-25 -8 -63.5 -14t-75.5 -6q-133 0 -203 76zM708 999v275
q-30 22 -70.5 34t-86.5 12q-105 0 -159 -58.5t-54 -181.5v-81h370z" />
    <glyph glyph-name="t_t" horiz-adv-x="1340" 
d="M304 61q-76 76 -76 219v607h-183v112h185v289l129 97v-386h459v289l127 97v-386h316v-112h-316v-586q0 -104 47 -151.5t141 -47.5q62 0 127 24l2 -121q-27 -8 -68 -14t-81 -6q-145 0 -221 75.5t-76 219.5v607h-457v-586q0 -104 46.5 -151.5t140.5 -47.5q61 0 126 24
l2 -121q-27 -8 -67.5 -14t-81.5 -6q-145 0 -221 76z" />
    <glyph glyph-name="zero.lf" horiz-adv-x="1261" 
d="M337.5 94.5q-111.5 109.5 -155 271.5t-43.5 341q0 180 42 342.5t150.5 272t293.5 109.5q172 0 284 -103t163.5 -268t51.5 -357q0 -189 -50 -352t-158.5 -264.5t-275.5 -101.5q-191 0 -302.5 109.5zM838.5 198.5q77.5 83.5 111 217t33.5 290.5q0 160 -34.5 293t-114.5 216
t-209 83q-195 0 -273 -171.5t-78 -419.5q0 -247 80.5 -419.5t282.5 -172.5q124 0 201.5 83.5z" />
    <glyph glyph-name="one.lf" horiz-adv-x="767" 
d="M551 1413v-1413h-135v1078h-355v107h240q60 0 90 25t30 81v122h130z" />
    <glyph glyph-name="two.lf" horiz-adv-x="1177" 
d="M1082 125v-125h-986v125q217 135 380.5 263.5t278.5 289.5t115 338q0 132 -75 210t-212 78q-156 0 -236 -100.5t-82 -265.5l-134 8q0 138 53.5 247t155.5 171.5t242 62.5q127 0 223 -49t149 -142.5t53 -222.5q0 -176 -105.5 -342.5t-264 -302t-337.5 -243.5h782z" />
    <glyph glyph-name="three.lf" horiz-adv-x="1191" 
d="M331 36q-112 51 -175.5 149.5t-63.5 235.5l131 7q0 -97 45.5 -168.5t128 -109.5t190.5 -38q103 0 185 35.5t128.5 103.5t46.5 160q0 163 -124 220t-306 56v114q166 -1 260 56.5t94 192.5q0 75 -37.5 131.5t-103 87.5t-147.5 31q-87 0 -154 -33t-104 -94t-37 -142l-130 8
q0 118 55.5 206t151.5 135.5t216 47.5q115 0 211.5 -45.5t153.5 -128t57 -189.5q0 -125 -77 -202t-203 -110q159 -28 257 -115.5t98 -237.5q0 -128 -65 -222t-177 -143.5t-251 -49.5q-142 0 -254 51z" />
    <glyph glyph-name="four.lf" horiz-adv-x="1197" 
d="M1135 463v-126h-230v-337h-136v337h-707v88l718 988h125v-950h230zM769 463v748l-534 -748h534z" />
    <glyph glyph-name="five.lf" horiz-adv-x="1190" 
d="M850.5 880.5q104.5 -62.5 165 -170.5t60.5 -238q0 -132 -65.5 -243.5t-177.5 -177.5t-246 -66q-116 0 -216 52t-168 144t-94 209l128 35q19 -90 66 -161.5t119.5 -112.5t164.5 -41q98 0 178 49.5t126 132.5t46 181q0 97 -42 176t-118.5 124.5t-174.5 45.5
q-92 0 -174.5 -44.5t-138.5 -126.5l-136 38l129 727h726v-127h-617l-82 -466q142 123 311 123q126 0 230.5 -62.5z" />
    <glyph glyph-name="six.lf" horiz-adv-x="1141" 
d="M811 858.5q110 -63.5 175 -171t65 -233.5q0 -127 -64.5 -235t-174.5 -171t-240 -63t-240 63t-174.5 171t-64.5 235q0 71 21.5 137.5t61.5 124.5l416 697h156l-303 -508q62 17 127 17q129 0 239 -63.5zM744.5 159q79.5 46 126 124.5t46.5 170.5t-46.5 170t-126 124
t-172.5 46t-172.5 -46t-126 -124t-46.5 -170q0 -93 46.5 -171.5t125.5 -124t173 -45.5q93 0 172.5 46z" />
    <glyph glyph-name="seven.lf" horiz-adv-x="1133" 
d="M1070 1413v-83l-692 -1330h-152l682 1287h-848v126h1010z" />
    <glyph glyph-name="eight.lf" horiz-adv-x="1178" 
d="M355.5 32q-108.5 47 -175 139.5t-66.5 223.5q0 133 73 231.5t196 139.5q-88 42 -137.5 123t-49.5 186q0 109 56 189t146.5 122t191.5 42q109 0 199 -44.5t143 -126.5t53 -189q0 -101 -51 -181.5t-138 -120.5q124 -43 194 -141t70 -229q0 -132 -66 -225t-174 -139.5
t-232 -46.5t-232.5 47zM728 838.5q59 31.5 92.5 88.5t33.5 131q0 76 -33.5 134t-93 89.5t-134.5 31.5q-69 0 -129 -28.5t-96.5 -84t-36.5 -132.5q0 -78 33 -137t92.5 -91.5t137.5 -32.5q75 0 134 31.5zM756 137.5q77 34.5 122.5 103.5t45.5 168q0 91 -43 160.5t-119.5 107
t-174.5 37.5q-99 0 -176 -37.5t-120 -106.5t-43 -160q0 -99 46.5 -168.5t124 -104t168.5 -34.5q92 0 169 34.5z" />
    <glyph glyph-name="nine.lf" horiz-adv-x="1141" 
d="M1026.5 821.5q-21.5 -66.5 -61.5 -124.5l-416 -697h-156l303 508q-62 -17 -127 -17q-129 0 -239 63.5t-175 171t-65 233.5q0 127 64.5 235t174.5 171t240 63t240 -63t174.5 -171t64.5 -235q0 -71 -21.5 -137.5zM270.5 789q46.5 -78 126 -124t172.5 -46t172.5 46t126 124
t46.5 170q0 93 -46.5 171.5t-125.5 124t-173 45.5q-93 0 -172.5 -46t-126 -124.5t-46.5 -170.5t46.5 -170z" />
    <glyph glyph-name="zero.dnom" horiz-adv-x="771" 
d="M205 57.5q-70 66.5 -99 164.5t-29 202q0 105 28 203.5t96 165t181 66.5q105 0 175 -62t103.5 -162t33.5 -213q0 -112 -32.5 -210.5t-100.5 -159.5t-170 -61q-116 0 -186 66.5zM509.5 126.5q47.5 49.5 69 128.5t21.5 169q0 91 -22 170t-71 128t-125 49q-114 0 -164 -102
t-50 -245q0 -142 51.5 -244.5t169.5 -102.5q73 0 120.5 49.5z" />
    <glyph glyph-name="one.dnom" horiz-adv-x="456" 
d="M312 848v-848h-91v639h-210v73h139q38 0 56.5 16t18.5 51v69h87z" />
    <glyph glyph-name="two.dnom" horiz-adv-x="715" 
d="M657 84v-84h-616v80q137 86 234.5 159t171 168.5t73.5 199.5q0 76 -42.5 121t-122.5 45q-90 0 -136.5 -59.5t-48.5 -155.5l-90 6q0 82 32.5 149t94.5 105.5t148 38.5q76 0 134 -30t90.5 -86.5t32.5 -135.5q0 -151 -124.5 -284t-305.5 -237h475z" />
    <glyph glyph-name="three.dnom" horiz-adv-x="720" 
d="M196 22q-68 31 -107 90.5t-39 142.5l88 6q0 -87 59 -136t154 -49q91 0 150.5 46t59.5 129q0 94 -74.5 129.5t-177.5 34.5v63q96 0 151 34t55 106t-47 112.5t-118 40.5q-76 0 -124 -43t-49 -113l-87 6q0 72 34 125.5t92.5 82t130.5 28.5q70 0 128.5 -27.5t93.5 -77.5
t35 -115q0 -69 -40 -114t-106 -67q84 -18 137.5 -73t53.5 -140q0 -78 -39.5 -135t-107.5 -87t-152 -30q-86 0 -154 31z" />
    <glyph glyph-name="four.dnom" horiz-adv-x="694" 
d="M656 290v-85h-137v-205h-91v205h-419v56l428 587h82v-558h137zM428 290v421l-300 -421h300z" />
    <glyph glyph-name="five.dnom" horiz-adv-x="728" 
d="M522 531q63 -38 99.5 -103.5t36.5 -143.5q0 -79 -40 -146.5t-108 -107t-148 -39.5q-71 0 -131.5 31.5t-102 87.5t-56.5 127l85 23q17 -80 70.5 -133.5t134.5 -53.5q56 0 102.5 29.5t73.5 78.5t27 104t-25 101t-69.5 73t-101.5 27q-52 0 -101.5 -26.5t-80.5 -72.5l-89 23
l78 438h442v-86h-368l-45 -257q81 64 178 64q76 0 139 -38z" />
    <glyph glyph-name="six.dnom" horiz-adv-x="659" 
d="M485 512q63 -38 100.5 -101.5t37.5 -135.5q0 -76 -38.5 -141t-105.5 -104t-148 -39q-79 0 -146 37.5t-106 102t-39 141.5q0 74 43 146l257 430h104l-202 -321q54 23 107 23q73 0 136 -38zM431.5 105q45.5 26 72.5 71t27 98t-27 98.5t-72.5 72t-99.5 26.5t-100.5 -26.5
t-73.5 -72t-27 -98.5t27 -98t73 -71t101 -26q54 0 99.5 26z" />
    <glyph glyph-name="seven.dnom" horiz-adv-x="616" 
d="M605 848v-55l-387 -793h-102l382 763h-486v85h593z" />
    <glyph glyph-name="eight.dnom" horiz-adv-x="725" 
d="M219 19q-66 28 -106.5 84t-40.5 135q0 78 41 136.5t112 85.5q-50 26 -77.5 74t-27.5 108q0 66 34 115t89.5 74.5t118.5 25.5q67 0 122.5 -27t88.5 -76.5t33 -114.5q0 -59 -28.5 -106t-77.5 -73q71 -28 111 -86t40 -134q0 -80 -40.5 -136.5t-106.5 -84.5t-143 -28
q-76 0 -142 28zM475.5 532q42.5 39 42.5 104t-42.5 104t-110.5 39q-65 0 -110 -36t-45 -102q0 -67 43 -107.5t113 -40.5q67 0 109.5 39zM502.5 115.5q56.5 44.5 56.5 127.5q0 79 -55.5 125.5t-142.5 46.5q-88 0 -143.5 -46.5t-55.5 -124.5q0 -84 57.5 -128.5t141.5 -44.5
q85 0 141.5 44.5z" />
    <glyph glyph-name="nine.dnom" horiz-adv-x="662" 
d="M574 419l-252 -419h-107l179 297q-29 -7 -65 -7q-78 0 -145 38.5t-106.5 103.5t-39.5 141q0 77 39.5 142.5t106 103.5t145.5 38t146 -38t106.5 -103.5t39.5 -142.5q0 -83 -47 -154zM155 474.5q27 -45.5 73 -72t101 -26.5t101 26.5t73 72t27 98.5q0 54 -27 99.5t-73 72
t-101 26.5t-101 -26.5t-73 -72t-27 -99.5q0 -53 27 -98.5z" />
    <glyph glyph-name="zero.numr" horiz-adv-x="771" 
d="M205 630.5q-70 66.5 -99 164.5t-29 202q0 105 28 203.5t96 165t181 66.5q105 0 175 -62t103.5 -162t33.5 -213q0 -112 -32.5 -210.5t-100.5 -159.5t-170 -61q-116 0 -186 66.5zM509.5 699.5q47.5 49.5 69 128.5t21.5 169q0 91 -22 170t-71 128t-125 49q-114 0 -164 -102
t-50 -245q0 -142 51.5 -244.5t169.5 -102.5q73 0 120.5 49.5z" />
    <glyph glyph-name="one.numr" horiz-adv-x="456" 
d="M312 1421v-848h-91v639h-210v73h139q38 0 56.5 16t18.5 51v69h87z" />
    <glyph glyph-name="two.numr" horiz-adv-x="715" 
d="M657 657v-84h-616v80q137 86 234.5 159t171 168.5t73.5 199.5q0 76 -42.5 121t-122.5 45q-90 0 -136.5 -59.5t-48.5 -155.5l-90 6q0 82 32.5 149t94.5 105.5t148 38.5q76 0 134 -30t90.5 -86.5t32.5 -135.5q0 -151 -124.5 -284t-305.5 -237h475z" />
    <glyph glyph-name="three.numr" horiz-adv-x="720" 
d="M196 595q-68 31 -107 90.5t-39 142.5l88 6q0 -87 59 -136t154 -49q91 0 150.5 46t59.5 129q0 94 -74.5 129.5t-177.5 34.5v63q96 0 151 34t55 106t-47 112.5t-118 40.5q-76 0 -124 -43t-49 -113l-87 6q0 72 34 125.5t92.5 82t130.5 28.5q70 0 128.5 -27.5t93.5 -77.5
t35 -115q0 -69 -40 -114t-106 -67q84 -18 137.5 -73t53.5 -140q0 -78 -39.5 -135t-107.5 -87t-152 -30q-86 0 -154 31z" />
    <glyph glyph-name="four.numr" horiz-adv-x="694" 
d="M656 855v-85h-137v-205h-91v205h-419v56l428 587h82v-558h137zM428 855v421l-300 -421h300z" />
    <glyph glyph-name="five.numr" horiz-adv-x="728" 
d="M522 1096q63 -38 99.5 -103.5t36.5 -143.5q0 -79 -40 -146.5t-108 -107t-148 -39.5q-71 0 -131.5 31.5t-102 87.5t-56.5 127l85 23q17 -80 70.5 -133.5t134.5 -53.5q56 0 102.5 29.5t73.5 78.5t27 104t-25 101t-69.5 73t-101.5 27q-52 0 -101.5 -26.5t-80.5 -72.5l-89 23
l78 438h442v-86h-368l-45 -257q81 64 178 64q76 0 139 -38z" />
    <glyph glyph-name="six.numr" horiz-adv-x="659" 
d="M485 1077q63 -38 100.5 -101t37.5 -135q0 -76 -38.5 -141.5t-105.5 -104.5t-148 -39q-79 0 -146 37.5t-106 102.5t-39 142q0 76 43 145l257 430h104l-202 -321q54 23 107 23q73 0 136 -38zM431.5 670.5q45.5 26.5 72.5 71t27 98.5q0 53 -27 98t-72.5 71.5t-99.5 26.5
t-100 -26.5t-73.5 -71.5t-27.5 -98q0 -54 27 -99t73 -71t101 -26q54 0 99.5 26.5z" />
    <glyph glyph-name="seven.numr" horiz-adv-x="616" 
d="M605 1413v-55l-387 -793h-102l382 763h-486v85h593z" />
    <glyph glyph-name="eight.numr" horiz-adv-x="725" 
d="M219 592q-66 28 -106.5 84t-40.5 135q0 78 41 136.5t112 85.5q-50 26 -77.5 74t-27.5 108q0 66 34 115t89.5 74.5t118.5 25.5q67 0 122.5 -27t88.5 -76.5t33 -114.5q0 -59 -28.5 -106t-77.5 -73q71 -28 111 -86t40 -134q0 -80 -40.5 -136.5t-106.5 -84.5t-143 -28
q-76 0 -142 28zM475.5 1105q42.5 39 42.5 104t-42.5 104t-110.5 39q-65 0 -110 -36t-45 -102q0 -67 43 -107.5t113 -40.5q67 0 109.5 39zM502.5 688.5q56.5 44.5 56.5 127.5q0 79 -55.5 125.5t-142.5 46.5q-88 0 -143.5 -46.5t-55.5 -124.5q0 -84 57.5 -128.5t141.5 -44.5
q85 0 141.5 44.5z" />
    <glyph glyph-name="nine.numr" horiz-adv-x="662" 
d="M570 988l-248 -415h-107l179 297q-29 -7 -65 -7q-78 0 -145 38.5t-106.5 103.5t-39.5 142t39.5 142.5t106 103.5t145.5 38t146 -38t106.5 -103.5t39.5 -142.5q0 -87 -51 -159zM155 1047.5q27 -45.5 73 -72t101 -26.5t101 26.5t73 72t27 99.5t-27 99.5t-73 72t-101 26.5
t-101 -26.5t-73 -72t-27 -99.5t27 -99.5z" />
    <glyph glyph-name="caroncomb.alt" 
d="M-233 1413h139l-174 -420h-83z" />
    </font>
</defs>
</svg>
