<?xml version="1.0" standalone="no"?>
<!DOCTYPE svg PUBLIC "-//W3C//DTD SVG 1.1//EN" "http://www.w3.org/Graphics/SVG/1.1/DTD/svg11.dtd" >
<svg xmlns="http://www.w3.org/2000/svg" xmlns:xlink="http://www.w3.org/1999/xlink" version="1.1">
<metadata>
Created by FontForge 20160405 at Wed Jun 13 05:03:38 2018
 By www-data
Copyright (c)2015, HK Grotesk Pro Latin by Alfredo Marco Pradil (ammpradil@gmail.com). HK Grotesk Pro is a trademark of Alfredo Marco Pradil.
</metadata>
<defs>
<font id="HKGroteskPro-SemiBold" horiz-adv-x="0" >
  <font-face 
    font-family="HK Grotesk Pro SemiBold"
    font-weight="600"
    font-stretch="normal"
    units-per-em="2048"
    panose-1="0 0 7 0 0 0 0 0 0 0"
    ascent="1434"
    descent="-614"
    x-height="999"
    cap-height="1413"
    bbox="-973 -520 2645 2240"
    underline-thickness="82"
    underline-position="-328"
    unicode-range="U+0020-FB02"
  />
<missing-glyph horiz-adv-x="1136" 
d="M157 956h822v-956h-822v956zM891 89v778h-646v-778h646z" />
    <glyph glyph-name="fi" unicode="fi" horiz-adv-x="1104" 
d="M949 0h-191v825h-358v-825h-206v825h-167v174h167v76q0 112 53.5 193t144 122.5t200.5 41.5q111 0 196.5 -25t163.5 -76l-97 -146q-110 80 -253 80q-100 0 -151 -50.5t-51 -143.5v-72h549v-999z" />
    <glyph glyph-name="fl" unicode="fl" horiz-adv-x="1194" 
d="M830.5 32.5q-51.5 51.5 -51.5 170.5v1020q-82 42 -183 42q-98 0 -148 -50t-50 -144v-72h210l-2 -174h-208v-825h-207v825h-164v174h164v76q0 112 53 193t143 122.5t199 41.5q80 0 138.5 -8.5t119 -30.5t141.5 -65v-1069q0 -45 21 -68.5t69 -23.5q25 0 72 7l1 -174
q-93 -19 -168 -19q-98 0 -149.5 51.5z" />
    <glyph glyph-name="f_f" unicode="ff" horiz-adv-x="1240" 
d="M194 825h-167v174h167v79q0 108 55 188t148 123t204 43q69 0 135.5 -17t122.5 -51q43 33 97 50.5t114 17.5q85 0 172 -40l-68 -170q-45 26 -85 26q-55 0 -87 -32t-32 -97v-120h260v-174h-260v-825h-213v825h-357v-825h-206v825zM759 999v141q0 47 14 87q-73 38 -162 38
q-102 0 -156.5 -51.5t-54.5 -138.5v-76h359z" />
    <glyph glyph-name="f_f_i" unicode="ffi" horiz-adv-x="1678" 
d="M1527 0h-206v825h-357v-825h-207v825h-357v-825h-206v825h-167v174h167v79q0 108 55 188t148 123t204 43q76 0 149.5 -20.5t134.5 -63.5q54 41 123 62.5t147 21.5q112 0 197 -25t162 -76l-96 -146q-110 80 -252 80q-101 0 -151.5 -50t-50.5 -144v-72h563v-999zM757 1075
q0 79 28 144q-80 46 -174 46q-102 0 -156.5 -51.5t-54.5 -138.5v-76h357v76z" />
    <glyph glyph-name="f_f_l" unicode="ffl" horiz-adv-x="1739" 
d="M1372.5 32.5q-51.5 51.5 -51.5 170.5v1031q-75 31 -155 31q-101 0 -151.5 -50t-50.5 -144v-72h203v-174h-203v-825h-207v825h-357v-825h-206v825h-167v174h167v79q0 108 55 188t148 123t204 43q77 0 150 -20.5t134 -62.5q53 40 123 61.5t147 21.5q112 0 199 -26t173 -81
v-1066q0 -45 21.5 -68.5t70.5 -23.5q25 0 74 7l1 -174q-40 -8 -86 -13.5t-84 -5.5q-100 0 -151.5 51.5zM757 999v76q0 80 29 143q-76 47 -175 47q-102 0 -156.5 -51.5t-54.5 -138.5v-76h357z" />
    <glyph glyph-name="h_d_c_o.liga" unicode="hdco" horiz-adv-x="1745" 
d="M483.5 43q-177.5 104 -281.5 281.5t-104 388.5t104 388.5t281.5 281.5t388.5 104t389 -104t282 -282t104 -388t-104 -388t-282 -282t-389 -104t-388.5 104zM1225.5 104.5q161.5 94.5 255.5 256t94 352.5t-94 352.5t-255.5 255.5t-353.5 94q-191 0 -352.5 -94
t-255.5 -255.5t-94 -352.5t94 -352.5t255.5 -256t352.5 -94.5q192 0 353.5 94.5zM444.5 419.5q-10.5 9.5 -10.5 24.5v537q0 15 10.5 26t24.5 11q15 0 26 -11t11 -26v-537q0 -15 -11 -24.5t-26 -9.5q-14 0 -24.5 9.5zM847.5 419.5q-9.5 9.5 -9.5 24.5v537q0 15 9.5 26
t24.5 11t25 -11t10 -26v-537q0 -15 -9.5 -24.5t-25.5 -9.5q-15 0 -24.5 9.5zM1251 420l-270 268q-8 11 -8 25q0 16 8 24l269 267q10 13 25 13q14 0 25 -11t11 -25t-11 -25l-243 -243l243 -244q11 -10 11 -25q0 -13 -11.5 -23.5t-25.5 -10.5q-15 0 -23 10zM579 687.5
q-10 9.5 -10 25.5q0 15 10 25t25 10h133q16 0 26.5 -10t10.5 -25q0 -16 -10.5 -25.5t-26.5 -9.5h-133q-15 0 -25 9.5z" />
    <glyph glyph-name=".notdef" horiz-adv-x="1136" 
d="M157 956h822v-956h-822v956zM891 89v778h-646v-778h646z" />
    <glyph glyph-name=".null" 
 />
    <glyph glyph-name="nonmarkingreturn" horiz-adv-x="682" 
 />
    <glyph glyph-name="space" unicode=" " horiz-adv-x="503" 
 />
    <glyph glyph-name="exclam" unicode="!" horiz-adv-x="632" 
d="M214 1413h204l-23 -995h-157zM203 250h226v-250h-226v250z" />
    <glyph glyph-name="quotedbl" unicode="&#x22;" horiz-adv-x="886" 
d="M187 1413h174v-494h-174v494zM525 1413h174v-494h-174v494z" />
    <glyph glyph-name="numbersign" unicode="#" horiz-adv-x="1395" 
d="M329 419h-237v147h268l64 304h-249v153h280l90 390h164l-88 -397h285l84 397h164l-89 -397h240v-146h-271l-66 -304h254v-147h-285l-89 -419h-162l88 419h-285l-86 -419h-163zM809 566l62 304h-285l-62 -304h285z" />
    <glyph glyph-name="dollar" unicode="$" horiz-adv-x="1141" 
d="M1010 195q-56 -91 -153.5 -144.5t-219.5 -63.5v-247l-89 -2v248q-119 7 -222 55.5t-173.5 137.5t-90.5 212l213 54q14 -121 87.5 -188.5t185.5 -78.5v472q-128 50 -206 93t-133.5 118.5t-55.5 190.5q0 111 52.5 195t142.5 131t200 53v228h89v-230q116 -12 208.5 -71
t153.5 -167l-178 -110q-32 61 -79 100t-105 53v-403q142 -55 224.5 -98t143.5 -123.5t61 -205.5q0 -118 -56 -209zM414.5 951q46.5 -45 133.5 -83v372q-79 -8 -129.5 -56.5t-50.5 -120.5q0 -67 46.5 -112zM794 247q57 57 57 138t-55 132.5t-159 96.5v-435q100 11 157 68z
" />
    <glyph glyph-name="percent" unicode="%" horiz-adv-x="1462" 
d="M235.5 827q-64.5 43 -99.5 117.5t-35 164.5q0 89 34 163t97.5 117t147.5 43q80 0 144.5 -42.5t101 -116.5t36.5 -166q0 -91 -36 -164.5t-99 -116t-141 -42.5q-86 0 -150.5 43zM1074 1413h147l-833 -1413h-147zM456 947.5q31 23.5 48.5 65t17.5 94.5q0 81 -38.5 133
t-103.5 52q-66 0 -102.5 -51.5t-36.5 -131.5q0 -81 38 -133t107 -52q39 0 70 23.5zM933.5 24q-64.5 43 -99.5 117.5t-35 164.5q0 89 34 163t97.5 117t147.5 43q80 0 144.5 -42.5t101 -116.5t36.5 -166q0 -91 -36 -164.5t-99 -116t-141 -42.5q-86 0 -150.5 43zM1154 144.5
q31 23.5 48.5 65t17.5 94.5q0 81 -38.5 133t-103.5 52q-66 0 -102.5 -51.5t-36.5 -131.5q0 -81 38 -133t107 -52q39 0 70 23.5z" />
    <glyph glyph-name="ampersand" unicode="&#x26;" horiz-adv-x="1393" 
d="M1168 -72l-187 216q-87 -79 -196.5 -121.5t-233.5 -42.5q-129 0 -232 41t-161.5 119t-58.5 187q0 102 45.5 181t117 137t172.5 115q-72 75 -123.5 158t-51.5 182q0 98 54 172.5t142 115t186 40.5q99 0 183 -43t133 -118t49 -165q0 -122 -73 -210.5t-204 -169.5l241 -273
q49 113 52 244l201 -20q-6 -105 -36 -201t-81 -178l208 -236zM498 978q40 -62 97 -129q108 61 164 118t56 131q0 46 -21 84.5t-60 61t-91 22.5q-51 0 -93 -20t-67 -58.5t-25 -90.5q0 -57 40 -119zM718.5 188.5q79.5 33.5 140.5 95.5l-296 341q-84 -50 -139.5 -92.5
t-90 -94.5t-34.5 -114q0 -81 67 -125t180 -44q93 0 172.5 33.5z" />
    <glyph glyph-name="quotesingle" unicode="'" horiz-adv-x="548" 
d="M187 1413h174v-494h-174v494z" />
    <glyph glyph-name="parenleft" unicode="(" horiz-adv-x="565" 
d="M218 79.5q-51 138.5 -78.5 285.5t-27.5 264q0 196 56.5 410t171.5 374h180q-79 -107 -131.5 -243.5t-77.5 -276t-25 -264.5q0 -118 28.5 -266.5t81 -287t122.5 -226.5h-180q-69 92 -120 230.5z" />
    <glyph glyph-name="parenright" unicode=")" horiz-adv-x="565" 
d="M47 -151q70 88 122.5 226.5t81 287t28.5 266.5q0 125 -25 264.5t-77.5 276t-131.5 243.5h180q115 -160 171.5 -374t56.5 -410q0 -117 -27.5 -264t-78.5 -285.5t-120 -230.5h-180z" />
    <glyph glyph-name="asterisk" unicode="*" horiz-adv-x="913" 
d="M199 932l163 169l-234 32l56 156l215 -88l-30 212h177l-31 -212l215 88l55 -156l-234 -32l163 -169l-145 -95l-113 217l-113 -217z" />
    <glyph glyph-name="plus" unicode="+" horiz-adv-x="1220" 
d="M531 546h-437v157h437v438h157v-438h438v-157h-438v-437h-157v437z" />
    <glyph glyph-name="comma" unicode="," horiz-adv-x="641" 
d="M303 264h237l-258 -571h-139z" />
    <glyph glyph-name="hyphen" unicode="-" horiz-adv-x="871" 
d="M151 686h569v-157h-569v157z" />
    <glyph glyph-name="period" unicode="." horiz-adv-x="640" 
d="M216 250h208v-250h-208v250z" />
    <glyph glyph-name="slash" unicode="/" horiz-adv-x="890" 
d="M715 1413h194l-734 -1842h-194z" />
    <glyph glyph-name="zero" unicode="0" horiz-adv-x="1174" 
d="M207 194.5q-104 213.5 -104 512.5q0 300 100.5 513.5t379.5 213.5q179 0 289 -103.5t157 -268t47 -358.5q0 -193 -45.5 -355.5t-152 -265t-281.5 -102.5q-286 0 -390 213.5zM758 259.5q58 75.5 77 189t19 259.5q0 148 -20 260t-80 185.5t-171 73.5q-113 0 -172.5 -74.5
t-78 -186t-18.5 -259.5t19 -260t80.5 -187.5t178.5 -75.5q108 0 166 75.5z" />
    <glyph glyph-name="one" unicode="1" horiz-adv-x="1174" 
d="M787 1413v-1413h-211v1026h-338v164h205q70 0 105.5 30t35.5 95v98h203z" />
    <glyph glyph-name="two" unicode="2" horiz-adv-x="1174" 
d="M1092 195v-195h-1002v175q292 178 503.5 387t211.5 443q0 104 -58 168t-170 64q-136 0 -201 -92t-69 -233l-210 14q0 135 57.5 250.5t166 184.5t254.5 69q130 0 230.5 -50.5t157.5 -147.5t57 -232q0 -155 -90.5 -313t-226 -286t-268.5 -206h657z" />
    <glyph glyph-name="three" unicode="3" horiz-adv-x="1174" 
d="M314.5 33.5q-116.5 52.5 -185 155.5t-68.5 249l205 12q0 -84 40 -145t111 -93.5t162 -32.5q84 0 153.5 28.5t110.5 85t41 135.5q0 100 -54.5 150.5t-133 65t-186.5 14.5v166q112 0 177 22.5t92.5 66.5t27.5 114q0 65 -30 111t-83 70t-120 24q-109 0 -175.5 -60
t-67.5 -163l-203 13q0 125 59.5 218t160.5 142.5t223 49.5q118 0 219.5 -46.5t162 -132.5t60.5 -200q0 -102 -54.5 -179t-161.5 -119q142 -34 217 -124t75 -220q0 -135 -69.5 -232t-186.5 -147.5t-258 -50.5q-144 0 -260.5 52.5z" />
    <glyph glyph-name="four" unicode="4" horiz-adv-x="1174" 
d="M1138 530v-197h-227v-333h-211v333h-672v128l700 952h183v-883h227zM700 530v558l-397 -558h397z" />
    <glyph glyph-name="five" unicode="5" horiz-adv-x="1174" 
d="M851.5 897q108.5 -65 172 -176.5t63.5 -242.5q0 -132 -69 -246.5t-186 -182.5t-253 -68q-122 0 -226.5 55.5t-176 151.5t-97.5 215l200 55q25 -121 100 -201.5t200 -80.5q82 0 148 42.5t103.5 112.5t37.5 149q0 80 -34.5 146t-99.5 104.5t-151 38.5q-77 0 -148 -38.5
t-116 -106.5l-198 51l135 738h766v-198h-596l-61 -327q119 74 249 74q129 0 237.5 -65z" />
    <glyph glyph-name="six" unicode="6" horiz-adv-x="1174" 
d="M840 886.5q115 -65.5 183 -177t68 -242.5q0 -132 -68 -243.5t-183 -177t-251 -65.5q-137 0 -252.5 65.5t-183.5 177t-68 243.5q0 72 21.5 140t61.5 126l417 680h245l-286 -463q30 2 45 2q136 0 251 -65.5zM736 219.5q67 38.5 106 104.5t39 143t-39 142.5t-106 104
t-147 38.5t-147.5 -38.5t-107 -104t-39.5 -142.5t39.5 -143t107 -104.5t147.5 -38.5t147 38.5z" />
    <glyph glyph-name="seven" unicode="7" horiz-adv-x="1174" 
d="M1096 1413v-114l-648 -1299h-238l627 1217h-757v196h1016z" />
    <glyph glyph-name="eight" unicode="8" horiz-adv-x="1174" 
d="M335.5 29q-115.5 48 -186 143t-70.5 230q0 123 60.5 217t165.5 146q-73 51 -112 126.5t-39 165.5q0 115 60.5 200.5t159.5 130t212 44.5q115 0 214 -46t158.5 -131t59.5 -199q0 -91 -40.5 -166.5t-111.5 -124.5q108 -53 166.5 -146.5t58.5 -214.5q0 -136 -70.5 -232
t-186 -143.5t-249.5 -47.5t-249.5 48zM705.5 852.5q50.5 25.5 79 73.5t28.5 113q0 66 -29 114t-79.5 74t-115.5 26q-61 0 -111.5 -23.5t-81 -70.5t-30.5 -113q0 -65 27.5 -115t78.5 -77t118 -27q65 0 115.5 25.5zM732.5 194.5q66.5 28.5 106 87t39.5 142.5q0 81 -38 140
t-104.5 90.5t-151.5 31.5q-86 0 -153 -31t-104.5 -90t-37.5 -139q0 -85 40 -143.5t107 -87.5t148 -29q82 0 148.5 28.5z" />
    <glyph glyph-name="nine" unicode="9" horiz-adv-x="1174" 
d="M1072.5 806q-21.5 -68 -61.5 -126l-417 -680h-245l286 463q-30 -2 -45 -2q-136 0 -251 65.5t-183 177t-68 242.5q0 132 68 243.5t183 177t251 65.5q137 0 252.5 -65.5t183.5 -177t68 -243.5q0 -72 -21.5 -140zM337 803.5q39 -65.5 106 -104t147 -38.5t147.5 38.5t107 104
t39.5 142.5t-39.5 143t-107 104.5t-147.5 38.5t-147 -38.5t-106 -104.5t-39 -143t39 -142.5z" />
    <glyph glyph-name="colon" unicode=":" horiz-adv-x="666" 
d="M221 954h225v-249h-225v249zM221 250h225v-250h-225v250z" />
    <glyph glyph-name="semicolon" unicode=";" horiz-adv-x="664" 
d="M267 954h226v-249h-226v249zM269 264h237l-259 -571h-138z" />
    <glyph glyph-name="less" unicode="&#x3c;" horiz-adv-x="1299" 
d="M61 599l1055 601l78 -135l-815 -466l815 -466l-78 -136z" />
    <glyph glyph-name="equal" unicode="=" horiz-adv-x="1286" 
d="M236 975h814v-176h-814v176zM236 545h814v-176h-814v176z" />
    <glyph glyph-name="greater" unicode="&#x3e;" horiz-adv-x="1299" 
d="M105 133l815 466l-815 466l78 135l1055 -601l-1055 -602z" />
    <glyph glyph-name="question" unicode="?" horiz-adv-x="1016" 
d="M412 566q0 79 26 130.5t63 81t98 63.5q52 29 83 52t51.5 60t20.5 92q0 107 -68 161t-188 54q-126 0 -188.5 -65.5t-63.5 -188.5h-182q0 133 53 229t149.5 146.5t224.5 50.5q124 0 225 -45t160 -133.5t59 -211.5q0 -101 -33 -167.5t-78.5 -103t-114.5 -75.5
q-43 -24 -66.5 -40.5t-39 -38.5t-15.5 -52v-151h-176v152zM390 250h225v-250h-225v250z" />
    <glyph glyph-name="at" unicode="@" horiz-adv-x="2048" 
d="M564.5 -243.5q-204.5 106.5 -324.5 304t-120 458.5q0 255 115 464t323 329.5t475 120.5q268 0 472.5 -120t315.5 -322.5t111 -442.5q0 -161 -51.5 -303t-156 -230t-255.5 -88q-98 0 -160 43.5t-84 123.5q-14 45 -16 106q-63 -72 -145.5 -112.5t-171.5 -40.5
q-107 0 -180.5 52t-110.5 140.5t-37 196.5q0 140 59 285t170 240.5t259 95.5q98 0 166 -44t99 -121l24 115h167q-12 -63 -32 -150.5t-26 -111.5q-43 -185 -66.5 -304t-25.5 -204q-3 -75 20 -108t86 -33q105 0 173.5 66t100.5 170t32 219q0 196 -90 361.5t-257 264t-388 98.5
q-222 0 -393.5 -99.5t-265.5 -271t-94 -381.5q0 -217 99 -377t267 -244.5t370 -84.5q68 0 128 10.5t122 30.5l58 -155q-75 -27 -150 -40t-160 -13q-247 0 -451.5 106.5zM1094.5 283.5q80.5 71.5 122.5 180t42 215.5q0 103 -44.5 158t-138.5 55q-110 0 -190.5 -71
t-122.5 -178.5t-42 -213.5q0 -105 45.5 -161t138.5 -56q109 0 189.5 71.5z" />
    <glyph glyph-name="A" unicode="A" horiz-adv-x="1329" 
d="M583 1413h165l550 -1413h-232l-115 318h-568l-117 -318h-235zM883 503l-216 597l-217 -597h433z" />
    <glyph glyph-name="B" unicode="B" horiz-adv-x="1273" 
d="M196 1413h469q118 0 218.5 -38.5t162.5 -122.5t62 -214q0 -64 -23 -121.5t-61.5 -99.5t-84.5 -64q68 -23 122.5 -77t85 -125.5t30.5 -147.5q0 -125 -61.5 -216.5t-165.5 -139t-230 -47.5h-524v1413zM696 827q93 0 153.5 48t60.5 151q0 93 -65.5 143t-175.5 50h-258v-392
h285zM723 205q118 0 180.5 55.5t62.5 166.5q0 61 -29 109.5t-83 76.5t-126 28h-317v-436h312z" />
    <glyph glyph-name="C" unicode="C" horiz-adv-x="1439" 
d="M400 77.5q-151 96.5 -226 261t-75 368.5q0 205 75 369.5t226 261t370 96.5q211 0 366 -102t238 -296l-202 -80q-83 273 -404 273q-152 0 -254 -66t-152 -181.5t-50 -265.5q0 -155 48.5 -274t150.5 -187.5t257 -68.5q150 0 249.5 66t158.5 211l200 -82q-84 -194 -241 -297
t-367 -103q-217 0 -368 96.5z" />
    <glyph glyph-name="D" unicode="D" horiz-adv-x="1425" 
d="M196 1413h400q237 0 400.5 -83.5t247 -244t83.5 -389.5q0 -220 -85 -376t-249.5 -238t-398.5 -82h-398v1413zM574 198q261 0 399.5 121t138.5 386q0 179 -54 291t-168 165.5t-297 53.5h-182v-1017h163z" />
    <glyph glyph-name="E" unicode="E" horiz-adv-x="1255" 
d="M196 1413h935v-198h-720v-408h662v-198h-662v-406h720v-203h-935v1413z" />
    <glyph glyph-name="F" unicode="F" horiz-adv-x="1243" 
d="M196 1413h986v-198h-771v-408h679v-198h-679v-609h-215v1413z" />
    <glyph glyph-name="G" unicode="G" horiz-adv-x="1536" 
d="M400 77.5q-151 96.5 -226 261t-75 368.5q0 205 74.5 369.5t225.5 261t371 96.5q209 0 364 -102t238 -296l-191 -80q-51 146 -157 218t-256 72q-151 0 -253.5 -70t-152.5 -189.5t-50 -270.5q0 -156 48.5 -278t151 -193t256.5 -71q117 0 206.5 42t142.5 124.5t61 200.5
l5 37h-327v174h539v-752h-171l-19 217q-62 -111 -175.5 -173.5t-261.5 -62.5q-217 0 -368 96.5z" />
    <glyph glyph-name="H" unicode="H" horiz-adv-x="1482" 
d="M196 1413h215v-606h660v606h215v-1413h-215v609h-660v-609h-215v1413z" />
    <glyph glyph-name="I" unicode="I" horiz-adv-x="608" 
d="M196 1413h215v-1413h-215v1413z" />
    <glyph glyph-name="J" unicode="J" horiz-adv-x="1150" 
d="M276 40.5q-103 59.5 -161.5 162t-67.5 228.5l211 24q10 -123 74.5 -198.5t182.5 -75.5q96 0 151 37t77.5 108t22.5 182v707h-546v198h761v-901q0 -246 -113 -388.5t-353 -142.5q-136 0 -239 59.5z" />
    <glyph glyph-name="K" unicode="K" horiz-adv-x="1478" 
d="M196 1413h215v-774l728 774h288l-557 -572l574 -841h-267l-456 697l-310 -321v-376h-215v1413z" />
    <glyph glyph-name="L" unicode="L" horiz-adv-x="1066" 
d="M196 1413h215v-1210h618v-203h-833v1413z" />
    <glyph glyph-name="M" unicode="M" horiz-adv-x="1791" 
d="M1595 1413v-1413h-207v1116l-388 -996h-209l-388 996v-1116h-207v1413h291l409 -1052l408 1052h291z" />
    <glyph glyph-name="N" unicode="N" horiz-adv-x="1446" 
d="M1249 1413v-1413h-217l-629 1060v-1060h-207v1413h216l631 -1056v1056h206z" />
    <glyph glyph-name="O" unicode="O" horiz-adv-x="1538" 
d="M398 79.5q-151 98.5 -225.5 263.5t-74.5 364t74.5 363.5t225.5 263t371 98.5t371 -98.5t225.5 -263t74.5 -363.5t-74.5 -364t-225.5 -263.5t-371 -98.5t-371 98.5zM1021.5 244q99.5 72 145.5 192.5t46 270.5t-46 270.5t-145.5 192t-252.5 71.5t-252.5 -71.5t-145.5 -192
t-46 -270.5t46 -270.5t145.5 -192.5t252.5 -72t252.5 72z" />
    <glyph glyph-name="P" unicode="P" horiz-adv-x="1172" 
d="M196 1413h425q144 0 255 -49t173.5 -142t62.5 -221q0 -127 -62 -218t-173 -138.5t-256 -47.5h-211v-597h-214v1413zM621 798q278 0 278 203q0 102 -69.5 156.5t-208.5 54.5h-211v-414h211z" />
    <glyph glyph-name="Q" unicode="Q" horiz-adv-x="1570" 
d="M1160 95q-162 -114 -392 -114q-220 0 -371 98.5t-225 263.5t-74 364t74 363.5t225 263t371 98.5t371.5 -98t225.5 -263t74 -364q0 -140 -36 -263.5t-108 -218.5l170 -159l-132 -132zM1006 237l-212 200l139 127l200 -190q40 67 59.5 152t19.5 181q0 150 -46 270.5
t-145 192t-253 71.5q-153 0 -252 -71.5t-145 -192t-46 -270.5t46 -270.5t145 -192.5t252 -72q141 0 238 65z" />
    <glyph glyph-name="R" unicode="R" horiz-adv-x="1266" 
d="M196 1413h436q135 0 245 -48.5t174 -141t64 -218.5q0 -134 -77.5 -231t-206.5 -136l393 -638h-246l-355 616l-86 -1h-126v-615h-215v1413zM651 791q119 4 185 59.5t66 150.5q0 101 -72 160t-196 59h-221v-429h238z" />
    <glyph glyph-name="S" unicode="S" horiz-adv-x="1141" 
d="M347.5 31.5q-111.5 46.5 -188 138t-97.5 221.5l213 54q16 -132 101.5 -200.5t213.5 -68.5q80 0 139.5 27.5t90.5 75t31 106.5q0 68 -40 115.5t-100 78.5t-163 71q-128 50 -206 93t-133.5 118.5t-55.5 190.5q0 116 57 202.5t154.5 132t214.5 45.5q135 0 243 -59.5
t177 -181.5l-178 -110q-41 78 -105 119t-144 41q-57 0 -104 -23t-73.5 -63.5t-26.5 -91.5q0 -60 37.5 -102t94 -70t155.5 -66q132 -52 213.5 -96t139.5 -123.5t58 -201.5q0 -126 -63.5 -221t-173.5 -146.5t-243 -51.5q-127 0 -238.5 46.5z" />
    <glyph glyph-name="T" unicode="T" horiz-adv-x="1204" 
d="M495 1220h-460v193h1134v-193h-459v-1220h-215v1220z" />
    <glyph glyph-name="U" unicode="U" horiz-adv-x="1387" 
d="M295.5 129q-130.5 148 -130.5 415v869h215v-845q0 -126 29.5 -209t98.5 -126.5t185 -43.5q117 0 186 43.5t99 127t30 210.5v843h215v-859q0 -273 -131.5 -423t-398.5 -150t-397.5 148z" />
    <glyph glyph-name="V" unicode="V" horiz-adv-x="1350" 
d="M1320 1413l-562 -1413h-164l-564 1413h238l409 -1068l407 1068h236z" />
    <glyph glyph-name="W" unicode="W" horiz-adv-x="1995" 
d="M43 1413h224l315 -1099l331 1019h169l331 -1019l316 1099h223l-418 -1413h-210l-326 994l-327 -994h-210z" />
    <glyph glyph-name="X" unicode="X" horiz-adv-x="1337" 
d="M522 709l-476 704h257l366 -567l366 567h256l-475 -704l480 -709h-257l-372 564l-369 -564h-256z" />
    <glyph glyph-name="Y" unicode="Y" horiz-adv-x="1322" 
d="M550 547l-533 866h260l382 -659l384 659h262l-532 -866v-547h-223v547z" />
    <glyph glyph-name="Z" unicode="Z" horiz-adv-x="1283" 
d="M1200 1254l-832 -1059h831v-195h-1129v152l835 1063h-789v198h1084v-159z" />
    <glyph glyph-name="bracketleft" unicode="[" horiz-adv-x="648" 
d="M189 1560h413v-138h-245v-1433h245v-140h-413v1711z" />
    <glyph glyph-name="backslash" unicode="\" horiz-adv-x="926" 
d="M-21 1515h194l774 -1944h-194z" />
    <glyph glyph-name="bracketright" unicode="]" horiz-adv-x="648" 
d="M46 -151v140h245v1433h-245v138h413v-1711h-413z" />
    <glyph glyph-name="asciicircum" unicode="^" horiz-adv-x="1208" 
d="M603 1486l532 -1054h-219l-313 664l-311 -664h-219z" />
    <glyph glyph-name="underscore" unicode="_" horiz-adv-x="1137" 
d="M151 0h835v-157h-835v157z" />
    <glyph glyph-name="grave" unicode="`" horiz-adv-x="522" 
d="M31 1413h221l223 -305h-152z" />
    <glyph glyph-name="a" unicode="a" horiz-adv-x="1057" 
d="M736 967q95 -51 144.5 -143.5t49.5 -215.5v-608h-170l-14 156q-48 -84 -138.5 -129.5t-190.5 -45.5q-103 0 -183.5 38t-126.5 110.5t-46 171.5q0 152 107.5 220t296.5 68h278q-2 89 -24 142.5t-71.5 79.5t-136.5 26q-86 0 -148.5 -40t-104.5 -108l-158 114
q76 105 174.5 160t235.5 55q131 0 226 -51zM597.5 191q60.5 34 97.5 91t48 126v31h-266q-100 0 -152.5 -40t-52.5 -104q0 -63 48.5 -100.5t137.5 -37.5q79 0 139.5 34z" />
    <glyph glyph-name="b" unicode="b" horiz-adv-x="1183" 
d="M503.5 22q-82.5 41 -131.5 119v-141h-213v1413h213v-554q49 78 130 118.5t176 40.5q134 0 231.5 -69.5t148 -188t50.5 -260.5t-50.5 -260.5t-147.5 -188.5t-229 -70q-95 0 -177.5 41zM778.5 214.5q60.5 42.5 90.5 116.5t30 169q0 94 -30 169t-90.5 118t-148.5 43
t-150.5 -43t-94.5 -118t-32 -169q0 -95 32 -169t94.5 -116.5t150.5 -42.5t148.5 42.5z" />
    <glyph glyph-name="c" unicode="c" horiz-adv-x="1008" 
d="M286 52q-107 71 -161 189t-54 257q0 136 53 255t159.5 192t257.5 73q147 0 257 -73t165 -215l-196 -76q-26 80 -86 128t-140 48q-88 0 -146.5 -46.5t-86 -122t-27.5 -163.5q0 -89 27.5 -164t86 -120t146.5 -45q81 0 140.5 47t83.5 126l188 -71q-49 -137 -157 -213.5
t-253 -76.5q-150 0 -257 71z" />
    <glyph glyph-name="d" unicode="d" horiz-adv-x="1186" 
d="M278 51q-99 70 -151 188.5t-52 260.5q0 141 52 259.5t150 188.5t231 70q95 0 177.5 -41t131.5 -118v554h210v-1413h-193l-8 151q-50 -83 -133 -126.5t-182 -43.5q-134 0 -233 70zM710.5 212q61.5 43 92.5 117.5t31 170.5q0 95 -31 169.5t-92.5 117.5t-149.5 43
t-150.5 -43.5t-94 -118t-31.5 -168.5q0 -95 31.5 -170t94 -118t150.5 -43t149.5 43z" />
    <glyph glyph-name="e" unicode="e" horiz-adv-x="1071" 
d="M294 50.5q-111 69.5 -167 186.5t-56 258q0 139 53.5 258.5t161 192t261.5 72.5q161 0 262.5 -73.5t146 -185.5t44.5 -231q0 -28 -2.5 -55t-5.5 -38h-703q14 -126 82.5 -196t193.5 -70q77 0 139.5 26t118.5 87l142 -125q-83 -90 -180.5 -133t-220.5 -43q-159 0 -270 69.5z
M796 585q2 33 -6 63q-16 88 -80 142t-165 54q-112 0 -175.5 -70t-80.5 -189h507z" />
    <glyph glyph-name="f" unicode="f" horiz-adv-x="694" 
d="M218 825h-191v174h192v141q0 91 41 157.5t111.5 100.5t155.5 34t170 -40l-68 -170q-45 26 -83 26q-53 0 -84 -32t-31 -97v-120h253v-174h-253v-825h-213v825z" />
    <glyph glyph-name="g" unicode="g" horiz-adv-x="1047" 
d="M791.5 102q81.5 -25 136.5 -83.5t55 -163.5q0 -104 -56 -177t-154 -109.5t-223 -36.5q-149 0 -255 44.5t-160.5 123.5t-54.5 182q0 21 4 43l128 111q-109 63 -109 194q0 122 98 201q-40 46 -62 104.5t-22 123.5q0 103 54 185t145 128t200 46q135 0 242 -69l147 127
l108 -133l-141 -116q46 -81 46 -178q0 -106 -53 -187t-143.5 -125t-198.5 -44t-197 43q-24 -13 -35 -30t-11 -40q0 -39 30 -61t79 -32t144 -22l53 -7q124 -17 205.5 -42zM382 802q-52 -56 -52 -145q0 -88 51.5 -142t141.5 -54q89 0 139.5 54t50.5 142q0 90 -51 145.5
t-139 55.5q-89 0 -141 -56zM723 -271.5q64 36.5 64 104.5q0 45 -30.5 70t-86.5 37.5t-156 24.5q-9 1 -65.5 7t-109.5 18l-74 -107q1 -11 5 -29q17 -81 92 -121.5t186 -40.5t175 36.5z" />
    <glyph glyph-name="h" unicode="h" horiz-adv-x="1156" 
d="M159 1413h210v-548q53 76 131 114.5t165 38.5q120 0 201.5 -56t120.5 -148t40 -203v-611h-210v580q0 117 -46 183.5t-156 66.5q-79 0 -134.5 -39t-83.5 -107.5t-28 -156.5v-527h-210v1413z" />
    <glyph glyph-name="i" unicode="i" horiz-adv-x="520" 
d="M152 1413h216v-218h-216v218zM157 999h206v-999h-206v999z" />
    <glyph glyph-name="j" unicode="j" horiz-adv-x="527" 
d="M155 1413h218v-218h-218v218zM-3 -427.5q-48 9.5 -81 23.5l53 179q58 -24 97 -24q48 0 71 30t23 92v1126h208v-1111q0 -145 -71 -235t-211 -90q-41 0 -89 9.5z" />
    <glyph glyph-name="k" unicode="k" horiz-adv-x="1109" 
d="M159 1413h206v-872l423 458h269l-371 -382l418 -617h-245l-313 489l-181 -195v-294h-206v1413z" />
    <glyph glyph-name="l" unicode="l" horiz-adv-x="566" 
d="M202.5 32.5q-51.5 51.5 -51.5 170.5v1210h206v-1154q0 -45 21 -68.5t69 -23.5q25 0 72 7l1 -174q-93 -19 -168 -19q-98 0 -149.5 51.5z" />
    <glyph glyph-name="m" unicode="m" horiz-adv-x="1741" 
d="M157 999h199v-141q44 83 117 121.5t164 38.5q101 0 181 -46t118 -145q53 97 137 144t186 47q119 0 198.5 -57t117.5 -152.5t38 -213.5v-595h-207v569q0 122 -43.5 189t-144.5 67q-69 0 -121 -34.5t-80 -94t-28 -133.5v-563h-207v584q0 112 -44 176.5t-142 64.5
q-70 0 -122.5 -34.5t-80.5 -94t-28 -133.5v-563h-207z" />
    <glyph glyph-name="n" unicode="n" horiz-adv-x="1150" 
d="M157 999h206v-134q53 76 133 114.5t167 38.5q120 0 200.5 -56t118.5 -148t39 -203v-611h-206v580q0 113 -54.5 180t-155.5 67q-114 0 -178 -67t-64 -199v-561h-206v999z" />
    <glyph glyph-name="o" unicode="o" horiz-adv-x="1138" 
d="M306.5 51q-114.5 70 -177.5 189.5t-63 261.5q0 141 63 259.5t177.5 187.5t261.5 69t261.5 -69t178 -187.5t63.5 -259.5q0 -142 -63.5 -261.5t-178 -189.5t-261.5 -70t-261.5 70zM727 206q65 46 97 123.5t32 172.5q0 94 -32 170.5t-97 121.5t-159 45t-158.5 -45
t-96.5 -121.5t-32 -170.5q0 -95 32 -172.5t96.5 -123.5t158.5 -46t159 46z" />
    <glyph glyph-name="p" unicode="p" horiz-adv-x="1183" 
d="M159 999h213v-140q49 77 131.5 118t177.5 41q132 0 229 -70t147.5 -188.5t50.5 -260.5t-50.5 -260.5t-148 -188t-231.5 -69.5q-95 0 -176 40.5t-130 118.5v-554h-213v1413zM778.5 212q60.5 43 90.5 118t30 169q0 95 -30 169t-90.5 116.5t-148.5 42.5t-150.5 -42.5
t-94.5 -116.5t-32 -169q0 -94 32 -169t94.5 -118t150.5 -43t148.5 43z" />
    <glyph glyph-name="q" unicode="q" horiz-adv-x="1183" 
d="M811 -414v554q-49 -78 -130 -118.5t-176 -40.5q-134 0 -231.5 69.5t-148 188t-50.5 260.5t50.5 260.5t147.5 188.5t229 70q95 0 177.5 -41t131.5 -118v140h213v-1413h-213zM703.5 212q62.5 43 94.5 118t32 169q0 95 -32 169t-94.5 116.5t-150.5 42.5t-148.5 -42.5
t-90.5 -116.5t-30 -169q0 -94 30 -169t90.5 -118t148.5 -43t150.5 43z" />
    <glyph glyph-name="r" unicode="r" horiz-adv-x="808" 
d="M157 999h201v-182q22 64 66 109.5t100.5 68.5t115.5 23q49 0 94.5 -16t78.5 -48l-94 -170q-52 33 -110 33q-64 0 -122 -39t-94.5 -121.5t-36.5 -205.5v-451h-199v999z" />
    <glyph glyph-name="s" unicode="s" horiz-adv-x="915" 
d="M270.5 17.5q-85.5 36.5 -145 99t-84.5 139.5l166 73q27 -74 85 -124.5t154 -50.5q60 0 101.5 20t62.5 52t21 68q0 41 -27 66.5t-68 40.5t-114 34q-101 26 -164.5 52.5t-109 82t-45.5 149.5q0 96 49 163.5t131 101.5t181 34q124 0 219 -56t151 -158l-160 -87
q-75 137 -217 137q-71 0 -113.5 -30.5t-42.5 -77.5q0 -35 25.5 -58.5t64.5 -38t107 -33.5q105 -29 172 -58.5t115.5 -90.5t48.5 -163q0 -106 -53 -178.5t-139 -108.5t-186 -36t-185.5 36.5z" />
    <glyph glyph-name="t" unicode="t" horiz-adv-x="737" 
d="M273.5 60q-78.5 79 -78.5 218v547h-164v174h167v262l203 148v-410h260v-174h-260v-512q0 -80 33 -114.5t95 -34.5q60 0 131 32l1 -187q-30 -11 -76 -19.5t-92 -8.5q-141 0 -219.5 79z" />
    <glyph glyph-name="u" unicode="u" horiz-adv-x="1149" 
d="M285 37q-80 56 -117.5 148t-38.5 203v611h205v-580q0 -114 54.5 -180.5t155.5 -66.5q114 0 178.5 67t64.5 199v561h205v-999h-205v134q-53 -76 -133.5 -114.5t-167.5 -38.5q-121 0 -201 56z" />
    <glyph glyph-name="v" unicode="v" horiz-adv-x="1000" 
d="M6 999h226l268 -733l269 733h225l-408 -999h-172z" />
    <glyph glyph-name="w" unicode="w" horiz-adv-x="1473" 
d="M25 999h220l187 -684l215 684h179l215 -683l188 683h221l-304 -999h-188l-221 709l-223 -709h-187z" />
    <glyph glyph-name="x" unicode="x" horiz-adv-x="1022" 
d="M373 503l-350 496h251l236 -355l235 355h254l-352 -496l352 -503h-254l-235 360l-235 -360h-252z" />
    <glyph glyph-name="y" unicode="y" horiz-adv-x="1028" 
d="M410 22l-402 977h227l285 -740l273 740h227l-564 -1428h-226z" />
    <glyph glyph-name="z" unicode="z" horiz-adv-x="995" 
d="M922 848l-580 -674h579v-174h-863v140l600 685h-570v174h834v-151z" />
    <glyph glyph-name="braceleft" unicode="{" horiz-adv-x="621" 
d="M251.5 -77q-55.5 73 -55.5 200v317q0 52 -17.5 83t-43.5 46.5t-66 29.5v140q40 14 66 29.5t43.5 48t17.5 87.5v327q0 129 57 200t164 71h141v-135h-71q-62 0 -88.5 -36.5t-26.5 -103.5v-327q0 -93 -34.5 -145.5t-101.5 -79.5v-11q67 -30 101.5 -81t34.5 -140v-317
q0 -65 27 -103t85 -38h73v-135h-143q-107 0 -162.5 73z" />
    <glyph glyph-name="bar" unicode="|" horiz-adv-x="629" 
d="M238 1534h154v-2046h-154v2046z" />
    <glyph glyph-name="braceright" unicode="}" horiz-adv-x="621" 
d="M64 -150v135h73q58 0 85 38t27 103v317q0 89 34.5 140t101.5 81v11q-67 27 -101.5 79.5t-34.5 145.5v327q0 67 -26.5 103.5t-88.5 36.5h-71v135h141q107 0 164 -71t57 -200v-327q0 -55 17.5 -87.5t43.5 -48t66 -29.5v-140q-40 -14 -66 -29.5t-43.5 -46.5t-17.5 -83v-317
q0 -127 -55.5 -200t-162.5 -73h-143z" />
    <glyph glyph-name="asciitilde" unicode="~" horiz-adv-x="1234" 
d="M691.5 365q-42.5 20 -68 48t-56.5 72q-24 34 -40 53t-38 31.5t-51 12.5q-49 0 -76.5 -49t-27.5 -134h-157q0 96 32.5 169.5t91.5 113.5t137 40q63 0 107 -20.5t70.5 -49t58.5 -74.5q33 -48 57.5 -70.5t62.5 -22.5q48 0 78 57.5t30 147.5h157q0 -101 -33 -179.5t-93 -122
t-139 -43.5q-60 0 -102.5 20z" />
    <glyph glyph-name="uni00A0" unicode="&#xa0;" horiz-adv-x="563" 
 />
    <glyph glyph-name="exclamdown" unicode="&#xa1;" horiz-adv-x="632" 
d="M429 1413v-250h-226v250h226zM395 995l23 -995h-204l24 995h157z" />
    <glyph glyph-name="cent" unicode="&#xa2;" horiz-adv-x="1138" 
d="M537 -14q-129 15 -220.5 88.5t-138 184.5t-46.5 239q0 126 45.5 238t137 187.5t222.5 91.5v185h106v-184q132 -9 230.5 -81.5t150.5 -204.5l-196 -76q-23 69 -71.5 115t-113.5 56v-651q66 10 114 55t69 113l188 -71q-46 -127 -143 -202t-228 -86v-194l-106 -2v199z
M537 820q-97 -23 -146 -113t-49 -209q0 -120 49 -208t146 -111v641z" />
    <glyph glyph-name="sterling" unicode="&#xa3;" horiz-adv-x="1224" 
d="M1187 174v-174h-1037v182q69 25 127.5 68.5t93 98t34.5 110.5q0 36 -10 77t-26 92h-214v174h171q-15 40 -26 102t-11 126q0 115 50 208.5t146 147.5t227 54q96 0 175.5 -40t137 -109.5t88.5 -156.5l-162 -60q-34 91 -96 141.5t-143 50.5q-117 0 -183 -62t-66 -177
q0 -58 12.5 -119t30.5 -106h474v-174h-434q30 -99 30 -165q0 -98 -39.5 -169.5t-106.5 -119.5h757z" />
    <glyph glyph-name="currency" unicode="&#xa4;" horiz-adv-x="1369" 
d="M199 259l104 103q-44 58 -66 127.5t-22 141.5t22.5 141.5t65.5 128.5l-103 101l110 116l105 -107q60 44 130.5 67t142.5 23t140 -22t126 -66l104 103l112 -110l-104 -103q44 -59 66 -128.5t22 -142.5t-22 -142.5t-66 -129.5l104 -101l-110 -115l-106 107
q-58 -44 -127.5 -66t-142.5 -22t-142.5 22t-128.5 66l-104 -107zM564.5 341q57.5 -24 118.5 -24q62 0 119.5 24t102.5 70t68.5 103.5t23.5 118.5t-23.5 118t-68.5 101q-45 45 -102.5 68t-118.5 23t-118.5 -23t-103.5 -69q-44 -45 -67.5 -103t-23.5 -119q0 -60 22.5 -117
t66.5 -101q47 -46 104.5 -70z" />
    <glyph glyph-name="yen" unicode="&#xa5;" horiz-adv-x="1437" 
d="M607 215h-331v168h331v155h-331v167h234l-436 708h261l381 -659l384 659h262l-434 -708h230v-167h-327v-155h327v-168h-327v-215h-224v215z" />
    <glyph glyph-name="brokenbar" unicode="&#xa6;" horiz-adv-x="646" 
d="M238 1475h171v-744h-171v744zM238 420h171v-727h-171v727z" />
    <glyph glyph-name="section" unicode="&#xa7;" horiz-adv-x="1139" 
d="M382.5 13.5q-89.5 30.5 -154 95.5t-88.5 163l197 59q28 -96 88.5 -138.5t163.5 -42.5q99 0 160.5 35t61.5 98q0 46 -33.5 75.5t-83 46.5t-138.5 39q-118 29 -192 57t-126.5 86t-52.5 155q0 62 22.5 111.5t64.5 93.5q-85 72 -85 185q0 93 53 161t140.5 103.5t188.5 35.5
q129 0 229 -52t147 -133l-165 -96q-26 57 -81 88.5t-137 31.5q-63 0 -109 -20t-70 -53t-24 -70q0 -42 32 -69t80.5 -43t132.5 -35q120 -28 196 -57t130.5 -89.5t54.5 -161.5q0 -119 -81 -203q81 -72 81 -187q0 -100 -58 -167.5t-151.5 -100t-200.5 -32.5q-103 0 -192.5 30.5
zM789 595q22 32 22 73q0 53 -35 87t-88 53.5t-146 44.5q-43 12 -100 29q-41 -22 -62 -59t-21 -74q0 -49 35 -81t86.5 -50.5t141.5 -42.5q18 -5 50 -14t55 -16q40 18 62 50z" />
    <glyph glyph-name="dieresis" unicode="&#xa8;" horiz-adv-x="863" 
d="M152 1413h174v-218h-174v218zM537 1413h174v-218h-174v218z" />
    <glyph glyph-name="copyright" unicode="&#xa9;" horiz-adv-x="1699" 
d="M472.5 72.5q-172.5 98.5 -273.5 266.5t-101 368q0 199 101 367t273.5 266.5t377.5 98.5q204 0 376.5 -98.5t273.5 -266.5t101 -367q0 -200 -101 -368t-273.5 -266.5t-376.5 -98.5q-205 0 -377.5 98.5zM1161.5 187q142.5 81 226 219t83.5 301t-83.5 300.5t-226 218.5
t-311.5 81t-312 -80.5t-226.5 -218.5t-83.5 -301q0 -164 83.5 -302t226.5 -218.5t312 -80.5t311.5 81zM653.5 325q-90.5 60 -136.5 160.5t-46 219.5q0 115 45 216.5t135 163.5t218 62q125 0 218 -62t141 -182l-162 -63q-23 69 -75.5 111t-121.5 42q-75 0 -126 -40.5
t-75.5 -106t-24.5 -141.5q0 -78 24 -142.5t75 -103.5t127 -39q71 0 122.5 40.5t72.5 109.5l154 -60q-40 -116 -131.5 -180.5t-215.5 -64.5q-127 0 -217.5 60z" />
    <glyph glyph-name="ordfeminine" unicode="&#xaa;" horiz-adv-x="983" 
d="M288 733.5q-56 26.5 -89 75.5t-33 114q0 109 77 163t207 54h198q0 28 -6 49q-10 63 -50 95t-115 32q-113 0 -188 -110l-102 69q61 83 129.5 120t164.5 37q90 0 155.5 -35t99.5 -99t34 -150v-427h-114l-3 101q-47 -58 -106.5 -86.5t-135.5 -28.5q-67 0 -123 26.5z
M548.5 859.5q52.5 34.5 81.5 89.5q15 41 18 77h-190q-75 0 -115.5 -26.5t-40.5 -76.5q0 -41 39 -69.5t92 -28.5q63 0 115.5 34.5z" />
    <glyph glyph-name="guillemotleft" unicode="&#xab;" horiz-adv-x="1016" 
d="M38 510l417 352v-181l-206 -171l206 -169v-181zM452 510l418 352v-181l-206 -171l206 -169v-181z" />
    <glyph glyph-name="logicalnot" unicode="&#xac;" horiz-adv-x="1311" 
d="M879 612h-735v185h933v-506h-198v321z" />
    <glyph glyph-name="uni00AD" unicode="&#xad;" horiz-adv-x="1014" 
d="M151 686h712v-157h-712v157z" />
    <glyph glyph-name="registered" unicode="&#xae;" horiz-adv-x="1699" 
d="M472.5 72.5q-172.5 98.5 -273.5 266.5t-101 368q0 199 101 367t273.5 266.5t377.5 98.5q204 0 376.5 -98.5t273.5 -266.5t101 -367q0 -200 -101 -368t-273.5 -266.5t-376.5 -98.5q-205 0 -377.5 98.5zM1161.5 187q142.5 81 226 219t83.5 301t-83.5 300.5t-226 218.5
t-311.5 81t-312 -80.5t-226.5 -218.5t-83.5 -301q0 -164 83.5 -302t226.5 -218.5t312 -80.5t311.5 81zM605 1131h262q86 0 152.5 -31t103 -87t36.5 -129q0 -77 -44 -135.5t-121 -84.5l233 -382h-158l-210 368l-47 -1h-70v-367h-137v849zM879 762q69 2 106.5 34t37.5 86
q0 59 -41 92.5t-114 33.5h-126v-246h137z" />
    <glyph glyph-name="macron" unicode="&#xaf;" horiz-adv-x="854" 
d="M149 1294h556v-123h-556v123z" />
    <glyph glyph-name="degree" unicode="&#xb0;" horiz-adv-x="908" 
d="M309 889q-67 39 -106.5 106t-39.5 146t39.5 146t106.5 106t145 39q79 0 145.5 -39t106 -106t39.5 -146t-39.5 -146t-106 -106t-145.5 -39q-78 0 -145 39zM531 1010q35 20 55.5 55t20.5 76t-20.5 76t-55.5 55t-77 20q-41 0 -76 -20t-55 -55t-20 -76t20 -76t55 -55t76 -20
q42 0 77 20z" />
    <glyph glyph-name="plusminus" unicode="&#xb1;" horiz-adv-x="1330" 
d="M587 628h-463v157h463v440h157v-440h463v-157h-463v-440h-157v440zM124 0h1079v-157h-1079v157z" />
    <glyph glyph-name="uni00B2" unicode="&#xb2;" horiz-adv-x="713" 
d="M666 1125v-126h-637v111q116 71 211 140.5t169 161.5t74 188q0 59 -32 95.5t-96 36.5q-78 0 -115 -55t-40 -136l-137 11q0 81 35 151t101 112.5t156 42.5q78 0 138.5 -30.5t95 -89.5t34.5 -141q0 -92 -54 -182.5t-138 -165t-175 -124.5h410z" />
    <glyph glyph-name="uni00B3" unicode="&#xb3;" horiz-adv-x="707" 
d="M186 1015.5q-71 31.5 -112.5 93.5t-41.5 151l133 9q0 -74 50 -115.5t130 -41.5q75 0 126 37t51 108q0 82 -62 109.5t-155 27.5v92q93 0 131.5 28.5t38.5 81.5q0 65 -36.5 96.5t-93.5 31.5q-63 0 -101.5 -34.5t-39.5 -92.5l-132 9q0 76 36 132.5t97.5 86t135.5 29.5
q71 0 133 -28t99 -80t37 -121q0 -56 -28.5 -99.5t-87.5 -71.5q79 -20 120 -77t41 -133q0 -82 -42.5 -141t-113.5 -89t-156 -30q-86 0 -157 31.5z" />
    <glyph glyph-name="acute" unicode="&#xb4;" horiz-adv-x="525" 
d="M269 1413h221l-291 -288h-153z" />
    <glyph glyph-name="uni00B5" unicode="&#xb5;" horiz-adv-x="1296" 
d="M236 999h205v-580q0 -114 54.5 -180.5t155.5 -66.5q114 0 178.5 67t64.5 199v561h205v-999h-205v134q-53 -76 -133.5 -114.5t-167.5 -38.5q-120 0 -190 65v-381h-167v1334z" />
    <glyph glyph-name="paragraph" unicode="&#xb6;" horiz-adv-x="1290" 
d="M539 623q-119 0 -223 47.5t-167 137.5t-63 210t63 210t167 137.5t223 47.5h145v-1659h-145v869zM905 1413h147v-1659h-147v1659z" />
    <glyph glyph-name="periodcentered" unicode="&#xb7;" horiz-adv-x="639" 
d="M246.5 612.5q-32.5 19.5 -51.5 52.5t-19 72t19 72t52 52t72 19t72 -18.5t52.5 -51.5t19.5 -73q0 -39 -19 -72t-52 -52.5t-73 -19.5t-72.5 19.5z" />
    <glyph glyph-name="cedilla" unicode="&#xb8;" horiz-adv-x="580" 
d="M142.5 -481.5q-56.5 38.5 -73.5 115.5l114 48q11 -35 36 -59t59 -24q43 0 68.5 24.5t25.5 65.5q0 51 -47 83t-125 34l-76 1l119 191h123l-78 -109q29 -3 59 -11q72 -20 110 -67t38 -115q0 -61 -28.5 -110.5t-79 -77.5t-114.5 -28q-74 0 -130.5 38.5z" />
    <glyph glyph-name="uni00B9" unicode="&#xb9;" horiz-adv-x="460" 
d="M335 1847v-848h-138v608h-200v107h118q88 0 88 79v54h132z" />
    <glyph glyph-name="ordmasculine" unicode="&#xba;" horiz-adv-x="999" 
d="M317 760.5q-81 48.5 -126 131t-45 181.5q0 98 45 180.5t126 130.5t183 48q101 0 181 -48t125 -130.5t45 -180.5q0 -99 -45 -181.5t-125 -131t-181 -48.5q-102 0 -183 48.5zM654.5 903q53.5 66 53.5 170t-53.5 170t-154.5 66q-103 0 -156.5 -65.5t-53.5 -170.5
t53.5 -170.5t156.5 -65.5q101 0 154.5 66z" />
    <glyph glyph-name="guillemotright" unicode="&#xbb;" horiz-adv-x="1016" 
d="M146 341l206 169l-206 171v181l418 -352l-418 -350v181zM561 341l206 169l-206 171v181l417 -352l-417 -350v181z" />
    <glyph glyph-name="onequarter" unicode="&#xbc;" horiz-adv-x="1464" 
d="M335 1421v-848h-138v608h-200v107h118q88 0 88 79v54h132zM960 1413h147l-833 -1413h-147zM1436 329v-128h-134v-201h-139v201h-397v81l417 566h119v-519h134zM1163 329v305l-217 -305h217z" />
    <glyph glyph-name="onehalf" unicode="&#xbd;" horiz-adv-x="1488" 
d="M335 1421v-848h-138v608h-200v107h118q88 0 88 79v54h132zM960 1413h147l-833 -1413h-147zM1441 126v-126h-637v111q116 71 211 140.5t169 161.5t74 188q0 59 -32 95.5t-96 36.5q-78 0 -115 -55t-40 -136l-137 11q0 81 35 151t101 112.5t156 42.5q78 0 138.5 -30.5
t95 -89.5t34.5 -141q0 -92 -54 -182.5t-138 -165t-175 -124.5h410z" />
    <glyph glyph-name="threequarters" unicode="&#xbe;" horiz-adv-x="1710" 
d="M186 593.5q-71 31.5 -112.5 93.5t-41.5 151l133 9q0 -74 50 -115.5t130 -41.5q75 0 126 37t51 108q0 82 -62 109.5t-155 27.5v92q93 0 131.5 28.5t38.5 81.5q0 65 -36.5 96.5t-93.5 31.5q-63 0 -101.5 -34.5t-39.5 -92.5l-132 9q0 76 36 132.5t97.5 86t135.5 29.5
q71 0 133 -28t99 -80t37 -121q0 -56 -28.5 -99.5t-87.5 -71.5q79 -20 120 -77t41 -133q0 -82 -42.5 -141t-113.5 -89t-156 -30q-86 0 -157 31.5zM1207 1413h147l-833 -1413h-147zM1682 329v-128h-134v-201h-139v201h-397v81l417 566h119v-519h134zM1409 329v305l-217 -305
h217z" />
    <glyph glyph-name="questiondown" unicode="&#xbf;" horiz-adv-x="1016" 
d="M626 1163h-225v250h225v-250zM604 847q0 -79 -26 -130.5t-63 -81t-98 -63.5q-52 -29 -83 -52t-51.5 -60t-20.5 -92q0 -107 68 -161t188 -54q126 0 188.5 65.5t63.5 188.5h182q0 -133 -53 -229t-149.5 -146.5t-224.5 -50.5q-124 0 -225 45t-160 133.5t-59 211.5
q0 101 33 167.5t78.5 103t114.5 75.5q43 24 66.5 40.5t39 38.5t15.5 52v151h176v-152z" />
    <glyph glyph-name="Agrave" unicode="&#xc0;" horiz-adv-x="1329" 
d="M583 1413h165l550 -1413h-232l-115 318h-568l-117 -318h-235zM883 503l-216 597l-217 -597h433zM316 1827h221l223 -305h-152z" />
    <glyph glyph-name="Aacute" unicode="&#xc1;" horiz-adv-x="1329" 
d="M583 1413h165l550 -1413h-232l-115 318h-568l-117 -318h-235zM883 503l-216 597l-217 -597h433zM786 1827h221l-291 -288h-153z" />
    <glyph glyph-name="Acircumflex" unicode="&#xc2;" horiz-adv-x="1329" 
d="M583 1413h165l550 -1413h-232l-115 318h-568l-117 -318h-235zM883 503l-216 597l-217 -597h433zM663 1858l312 -341h-162l-150 164l-148 -164h-163z" />
    <glyph glyph-name="Atilde" unicode="&#xc3;" horiz-adv-x="1329" 
d="M583 1413h165l550 -1413h-232l-115 318h-568l-117 -318h-235zM883 503l-216 597l-217 -597h433zM720.5 1547.5q-32.5 13.5 -54 32.5t-47.5 49q-27 31 -46 45.5t-43 14.5q-37 0 -57.5 -38t-20.5 -107h-120q0 130 54.5 201.5t149.5 71.5q38 0 68.5 -13t51.5 -31t49 -48
q29 -31 48.5 -46t43.5 -15q32 0 52.5 39t20.5 107h125q0 -130 -53.5 -203t-145.5 -73q-43 0 -75.5 13.5z" />
    <glyph glyph-name="Adieresis" unicode="&#xc4;" horiz-adv-x="1329" 
d="M583 1413h165l550 -1413h-232l-115 318h-568l-117 -318h-235zM883 503l-216 597l-217 -597h433zM383 1827h174v-218h-174v218zM768 1827h174v-218h-174v218z" />
    <glyph glyph-name="Aring" unicode="&#xc5;" horiz-adv-x="1329" 
d="M583 1413h165l550 -1413h-232l-115 318h-568l-117 -318h-235zM883 503l-216 597l-217 -597h433zM552 1522q-50 30 -79 80t-29 109t29 109t79.5 79t109.5 29q58 0 108.5 -29t80.5 -78.5t30 -109.5t-29 -110.5t-79.5 -79.5t-110.5 -29t-110 30zM738 1634.5q30 30.5 30 77.5
q0 45 -29 74.5t-77 29.5q-46 0 -75.5 -29.5t-29.5 -74.5q0 -46 30.5 -77t74.5 -31q46 0 76 30.5z" />
    <glyph glyph-name="AE" unicode="&#xc6;" horiz-adv-x="1898" 
d="M578 1413h1196v-189h-726v-426h634v-181h-634v-422h726v-195h-941v318h-454l-113 -318h-235zM833 486v746h-121l-265 -746h386z" />
    <glyph glyph-name="Ccedilla" unicode="&#xc7;" horiz-adv-x="1439" 
d="M1162.5 103q-137.5 -102 -320.5 -119l-68 -95q29 -3 59 -11q72 -20 110 -67t38 -115q0 -61 -28.5 -110.5t-79 -77.5t-114.5 -28q-74 0 -130.5 38.5t-73.5 115.5l114 48q11 -35 36 -59t59 -24q43 0 68.5 24.5t25.5 65.5q0 51 -47 83t-125 34l-76 1l109 175
q-202 11 -341.5 110t-209 259t-69.5 356q0 205 75 369.5t226 261t370 96.5q211 0 366 -102t238 -296l-202 -80q-83 273 -404 273q-152 0 -254 -66t-152 -181.5t-50 -265.5q0 -155 48.5 -274t150.5 -187.5t257 -68.5q150 0 249.5 66t158.5 211l200 -82q-76 -176 -213.5 -278z
" />
    <glyph glyph-name="Egrave" unicode="&#xc8;" horiz-adv-x="1255" 
d="M196 1413h935v-198h-720v-408h662v-198h-662v-406h720v-203h-935v1413zM316 1827h221l223 -305h-152z" />
    <glyph glyph-name="Eacute" unicode="&#xc9;" horiz-adv-x="1255" 
d="M196 1413h935v-198h-720v-408h662v-198h-662v-406h720v-203h-935v1413zM786 1827h221l-291 -288h-153z" />
    <glyph glyph-name="Ecircumflex" unicode="&#xca;" horiz-adv-x="1255" 
d="M196 1413h935v-198h-720v-408h662v-198h-662v-406h720v-203h-935v1413zM663 1858l312 -341h-162l-150 164l-148 -164h-163z" />
    <glyph glyph-name="Edieresis" unicode="&#xcb;" horiz-adv-x="1255" 
d="M196 1413h935v-198h-720v-408h662v-198h-662v-406h720v-203h-935v1413zM384 1827h174v-218h-174v218zM769 1827h174v-218h-174v218z" />
    <glyph glyph-name="Igrave" unicode="&#xcc;" horiz-adv-x="608" 
d="M196 1413h215v-1413h-215v1413zM-45 1827h221l223 -305h-152z" />
    <glyph glyph-name="Iacute" unicode="&#xcd;" horiz-adv-x="608" 
d="M196 1413h215v-1413h-215v1413zM425 1827h221l-291 -288h-153z" />
    <glyph glyph-name="Icircumflex" unicode="&#xce;" horiz-adv-x="608" 
d="M196 1413h215v-1413h-215v1413zM302 1858l312 -341h-162l-150 164l-148 -164h-163z" />
    <glyph glyph-name="Idieresis" unicode="&#xcf;" horiz-adv-x="608" 
d="M196 1413h215v-1413h-215v1413zM23 1827h174v-218h-174v218zM408 1827h174v-218h-174v218z" />
    <glyph glyph-name="Eth" unicode="&#xd0;" horiz-adv-x="1425" 
d="M996.5 1329.5q163.5 -83.5 247 -244t83.5 -389.5q0 -220 -85 -376t-249.5 -238t-398.5 -82h-398v637h-147v140h147v636h400q237 0 400.5 -83.5zM973.5 319q138.5 121 138.5 386q0 179 -54 291t-168 165.5t-297 53.5h-182v-438h273v-140h-273v-439h163q261 0 399.5 121z
" />
    <glyph glyph-name="Ntilde" unicode="&#xd1;" horiz-adv-x="1446" 
d="M1249 1413v-1413h-217l-629 1060v-1060h-207v1413h216l631 -1056v1056h206zM778.5 1547.5q-32.5 13.5 -54 32.5t-47.5 49q-27 31 -46 45.5t-43 14.5q-37 0 -57.5 -38t-20.5 -107h-120q0 130 54.5 201.5t149.5 71.5q38 0 68.5 -13t51.5 -31t49 -48q29 -31 48.5 -46
t43.5 -15q32 0 52.5 39t20.5 107h125q0 -130 -53.5 -203t-145.5 -73q-43 0 -75.5 13.5z" />
    <glyph glyph-name="Ograve" unicode="&#xd2;" horiz-adv-x="1538" 
d="M398 79.5q-151 98.5 -225.5 263.5t-74.5 364t74.5 363.5t225.5 263t371 98.5t371 -98.5t225.5 -263t74.5 -363.5t-74.5 -364t-225.5 -263.5t-371 -98.5t-371 98.5zM1021.5 244q99.5 72 145.5 192.5t46 270.5t-46 270.5t-145.5 192t-252.5 71.5t-252.5 -71.5t-145.5 -192
t-46 -270.5t46 -270.5t145.5 -192.5t252.5 -72t252.5 72zM420 1827h221l223 -305h-152z" />
    <glyph glyph-name="Oacute" unicode="&#xd3;" horiz-adv-x="1538" 
d="M398 79.5q-151 98.5 -225.5 263.5t-74.5 364t74.5 363.5t225.5 263t371 98.5t371 -98.5t225.5 -263t74.5 -363.5t-74.5 -364t-225.5 -263.5t-371 -98.5t-371 98.5zM1021.5 244q99.5 72 145.5 192.5t46 270.5t-46 270.5t-145.5 192t-252.5 71.5t-252.5 -71.5t-145.5 -192
t-46 -270.5t46 -270.5t145.5 -192.5t252.5 -72t252.5 72zM890 1827h221l-291 -288h-153z" />
    <glyph glyph-name="Ocircumflex" unicode="&#xd4;" horiz-adv-x="1538" 
d="M398 79.5q-151 98.5 -225.5 263.5t-74.5 364t74.5 363.5t225.5 263t371 98.5t371 -98.5t225.5 -263t74.5 -363.5t-74.5 -364t-225.5 -263.5t-371 -98.5t-371 98.5zM1021.5 244q99.5 72 145.5 192.5t46 270.5t-46 270.5t-145.5 192t-252.5 71.5t-252.5 -71.5t-145.5 -192
t-46 -270.5t46 -270.5t145.5 -192.5t252.5 -72t252.5 72zM767 1858l312 -341h-162l-150 164l-148 -164h-163z" />
    <glyph glyph-name="Otilde" unicode="&#xd5;" horiz-adv-x="1538" 
d="M398 79.5q-151 98.5 -225.5 263.5t-74.5 364t74.5 363.5t225.5 263t371 98.5t371 -98.5t225.5 -263t74.5 -363.5t-74.5 -364t-225.5 -263.5t-371 -98.5t-371 98.5zM1021.5 244q99.5 72 145.5 192.5t46 270.5t-46 270.5t-145.5 192t-252.5 71.5t-252.5 -71.5t-145.5 -192
t-46 -270.5t46 -270.5t145.5 -192.5t252.5 -72t252.5 72zM824.5 1547.5q-32.5 13.5 -54 32.5t-47.5 49q-27 31 -46 45.5t-43 14.5q-37 0 -57.5 -38t-20.5 -107h-120q0 130 54.5 201.5t149.5 71.5q38 0 68.5 -13t51.5 -31t49 -48q29 -31 48.5 -46t43.5 -15q32 0 52.5 39
t20.5 107h125q0 -130 -53.5 -203t-145.5 -73q-43 0 -75.5 13.5z" />
    <glyph glyph-name="Odieresis" unicode="&#xd6;" horiz-adv-x="1538" 
d="M398 79.5q-151 98.5 -225.5 263.5t-74.5 364t74.5 363.5t225.5 263t371 98.5t371 -98.5t225.5 -263t74.5 -363.5t-74.5 -364t-225.5 -263.5t-371 -98.5t-371 98.5zM1021.5 244q99.5 72 145.5 192.5t46 270.5t-46 270.5t-145.5 192t-252.5 71.5t-252.5 -71.5t-145.5 -192
t-46 -270.5t46 -270.5t145.5 -192.5t252.5 -72t252.5 72zM488 1827h174v-218h-174v218zM873 1827h174v-218h-174v218z" />
    <glyph glyph-name="multiply" unicode="&#xd7;" horiz-adv-x="1085" 
d="M542 504l-309 -309l-111 111l309 309l-309 309l111 111l309 -309l310 309l111 -111l-310 -309l309 -309l-111 -111z" />
    <glyph glyph-name="Oslash" unicode="&#xd8;" horiz-adv-x="1538" 
d="M1379.5 1038q60.5 -152 60.5 -331q0 -199 -74.5 -364t-225.5 -263.5t-371 -98.5q-181 0 -323 71l-32 -52h-156l77 126q-117 99 -177 251t-60 330q0 199 74.5 363.5t225.5 263t371 98.5q182 0 322 -70l31 51h155l-76 -124q118 -99 178.5 -251zM355 483q30 -103 91 -175
l540 883q-92 50 -217 50q-153 0 -252.5 -71.5t-145.5 -192t-46 -270.5q0 -121 30 -224zM1021.5 244q99.5 72 145.5 192.5t46 270.5q0 122 -30.5 225t-92.5 175l-540 -884q93 -51 219 -51q153 0 252.5 72z" />
    <glyph glyph-name="Ugrave" unicode="&#xd9;" horiz-adv-x="1387" 
d="M295.5 129q-130.5 148 -130.5 415v869h215v-845q0 -126 29.5 -209t98.5 -126.5t185 -43.5q117 0 186 43.5t99 127t30 210.5v843h215v-859q0 -273 -131.5 -423t-398.5 -150t-397.5 148zM343 1827h221l223 -305h-152z" />
    <glyph glyph-name="Uacute" unicode="&#xda;" horiz-adv-x="1387" 
d="M295.5 129q-130.5 148 -130.5 415v869h215v-845q0 -126 29.5 -209t98.5 -126.5t185 -43.5q117 0 186 43.5t99 127t30 210.5v843h215v-859q0 -273 -131.5 -423t-398.5 -150t-397.5 148zM812 1827h221l-291 -288h-153z" />
    <glyph glyph-name="Ucircumflex" unicode="&#xdb;" horiz-adv-x="1387" 
d="M295.5 129q-130.5 148 -130.5 415v869h215v-845q0 -126 29.5 -209t98.5 -126.5t185 -43.5q117 0 186 43.5t99 127t30 210.5v843h215v-859q0 -273 -131.5 -423t-398.5 -150t-397.5 148zM689 1858l312 -341h-162l-150 164l-148 -164h-163z" />
    <glyph glyph-name="Udieresis" unicode="&#xdc;" horiz-adv-x="1387" 
d="M295.5 129q-130.5 148 -130.5 415v869h215v-845q0 -126 29.5 -209t98.5 -126.5t185 -43.5q117 0 186 43.5t99 127t30 210.5v843h215v-859q0 -273 -131.5 -423t-398.5 -150t-397.5 148zM410 1827h174v-218h-174v218zM795 1827h174v-218h-174v218z" />
    <glyph glyph-name="Yacute" unicode="&#xdd;" horiz-adv-x="1322" 
d="M550 547l-533 866h260l382 -659l384 659h262l-532 -866v-547h-223v547zM781 1827h221l-291 -288h-153z" />
    <glyph glyph-name="Thorn" unicode="&#xde;" horiz-adv-x="1172" 
d="M196 1413h215v-247h210q144 0 255 -49t173.5 -142t62.5 -221q0 -127 -62 -218t-173 -138.5t-256 -47.5h-210v-350h-215v1413zM621 551q278 0 278 203q0 102 -69.5 156.5t-208.5 54.5h-210v-414h210z" />
    <glyph glyph-name="germandbls" unicode="&#xdf;" horiz-adv-x="1147" 
d="M480 16l61 177q82 -38 145 -38q75 0 117.5 45.5t42.5 126.5q0 56 -19.5 97t-47 68t-76.5 65l-19 14q-57 44 -88.5 89.5t-31.5 112.5q0 42 13.5 74t34.5 55.5t58 56.5q40 36 57.5 71t17.5 78q0 71 -41 111.5t-112 40.5q-139 0 -185.5 -138t-46.5 -317v-805h-203v805
q0 201 49.5 342t144.5 214t231 73q105 0 187.5 -43t128.5 -117t46 -165q0 -74 -29 -130t-74 -101l-27 -27q-30 -29 -43.5 -46t-13.5 -32q0 -19 20.5 -40t67.5 -57l21 -16q53 -40 92 -81.5t66 -103.5t27 -143q0 -102 -44.5 -182t-127.5 -124.5t-194 -44.5q-87 0 -205 35z" />
    <glyph glyph-name="agrave" unicode="&#xe0;" horiz-adv-x="1057" 
d="M736 967q95 -51 144.5 -143.5t49.5 -215.5v-608h-170l-14 156q-48 -84 -138.5 -129.5t-190.5 -45.5q-103 0 -183.5 38t-126.5 110.5t-46 171.5q0 152 107.5 220t296.5 68h278q-2 89 -24 142.5t-71.5 79.5t-136.5 26q-86 0 -148.5 -40t-104.5 -108l-158 114
q76 105 174.5 160t235.5 55q131 0 226 -51zM597.5 191q60.5 34 97.5 91t48 126v31h-266q-100 0 -152.5 -40t-52.5 -104q0 -63 48.5 -100.5t137.5 -37.5q79 0 139.5 34zM155 1413h221l223 -305h-152z" />
    <glyph glyph-name="aacute" unicode="&#xe1;" horiz-adv-x="1057" 
d="M736 967q95 -51 144.5 -143.5t49.5 -215.5v-608h-170l-14 156q-48 -84 -138.5 -129.5t-190.5 -45.5q-103 0 -183.5 38t-126.5 110.5t-46 171.5q0 152 107.5 220t296.5 68h278q-2 89 -24 142.5t-71.5 79.5t-136.5 26q-86 0 -148.5 -40t-104.5 -108l-158 114
q76 105 174.5 160t235.5 55q131 0 226 -51zM597.5 191q60.5 34 97.5 91t48 126v31h-266q-100 0 -152.5 -40t-52.5 -104q0 -63 48.5 -100.5t137.5 -37.5q79 0 139.5 34zM624 1413h221l-291 -288h-153z" />
    <glyph glyph-name="acircumflex" unicode="&#xe2;" horiz-adv-x="1057" 
d="M736 967q95 -51 144.5 -143.5t49.5 -215.5v-608h-170l-14 156q-48 -84 -138.5 -129.5t-190.5 -45.5q-103 0 -183.5 38t-126.5 110.5t-46 171.5q0 152 107.5 220t296.5 68h278q-2 89 -24 142.5t-71.5 79.5t-136.5 26q-86 0 -148.5 -40t-104.5 -108l-158 114
q76 105 174.5 160t235.5 55q131 0 226 -51zM597.5 191q60.5 34 97.5 91t48 126v31h-266q-100 0 -152.5 -40t-52.5 -104q0 -63 48.5 -100.5t137.5 -37.5q79 0 139.5 34zM501 1444l312 -341h-162l-150 164l-148 -164h-163z" />
    <glyph glyph-name="atilde" unicode="&#xe3;" horiz-adv-x="1057" 
d="M736 967q95 -51 144.5 -143.5t49.5 -215.5v-608h-170l-14 156q-48 -84 -138.5 -129.5t-190.5 -45.5q-103 0 -183.5 38t-126.5 110.5t-46 171.5q0 152 107.5 220t296.5 68h278q-2 89 -24 142.5t-71.5 79.5t-136.5 26q-86 0 -148.5 -40t-104.5 -108l-158 114
q76 105 174.5 160t235.5 55q131 0 226 -51zM597.5 191q60.5 34 97.5 91t48 126v31h-266q-100 0 -152.5 -40t-52.5 -104q0 -63 48.5 -100.5t137.5 -37.5q79 0 139.5 34zM558.5 1133.5q-32.5 13.5 -54 32.5t-47.5 49q-27 31 -46 45.5t-43 14.5q-37 0 -57.5 -38t-20.5 -107
h-120q0 130 54.5 201.5t149.5 71.5q38 0 68.5 -13t51.5 -31t49 -48q29 -31 48.5 -46t43.5 -15q32 0 52.5 39t20.5 107h125q0 -130 -53.5 -203t-145.5 -73q-43 0 -75.5 13.5z" />
    <glyph glyph-name="adieresis" unicode="&#xe4;" horiz-adv-x="1057" 
d="M736 967q95 -51 144.5 -143.5t49.5 -215.5v-608h-170l-14 156q-48 -84 -138.5 -129.5t-190.5 -45.5q-103 0 -183.5 38t-126.5 110.5t-46 171.5q0 152 107.5 220t296.5 68h278q-2 89 -24 142.5t-71.5 79.5t-136.5 26q-86 0 -148.5 -40t-104.5 -108l-158 114
q76 105 174.5 160t235.5 55q131 0 226 -51zM597.5 191q60.5 34 97.5 91t48 126v31h-266q-100 0 -152.5 -40t-52.5 -104q0 -63 48.5 -100.5t137.5 -37.5q79 0 139.5 34zM222 1413h174v-218h-174v218zM607 1413h174v-218h-174v218z" />
    <glyph glyph-name="aring" unicode="&#xe5;" horiz-adv-x="1057" 
d="M736 967q95 -51 144.5 -143.5t49.5 -215.5v-608h-170l-14 156q-48 -84 -138.5 -129.5t-190.5 -45.5q-103 0 -183.5 38t-126.5 110.5t-46 171.5q0 152 107.5 220t296.5 68h278q-2 89 -24 142.5t-71.5 79.5t-136.5 26q-86 0 -148.5 -40t-104.5 -108l-158 114
q76 105 174.5 160t235.5 55q131 0 226 -51zM597.5 191q60.5 34 97.5 91t48 126v31h-266q-100 0 -152.5 -40t-52.5 -104q0 -63 48.5 -100.5t137.5 -37.5q79 0 139.5 34zM391 1108q-50 30 -79 80t-29 109t29 109t79.5 79t109.5 29q58 0 108.5 -29t80.5 -78.5t30 -109.5
t-29 -110.5t-79.5 -79.5t-110.5 -29t-110 30zM577 1220.5q30 30.5 30 77.5q0 45 -29 74.5t-77 29.5q-46 0 -75.5 -29.5t-29.5 -74.5q0 -46 30.5 -77t74.5 -31q46 0 76 30.5z" />
    <glyph glyph-name="ae" unicode="&#xe6;" horiz-adv-x="1698" 
d="M231.5 19q-80.5 38 -127.5 108t-47 162q0 156 108.5 226t298.5 70h275q0 44 -8 82q-14 88 -70 130t-160 42q-80 0 -145.5 -37.5t-108.5 -99.5l-146 107q76 105 174.5 155.5t232.5 50.5q121 0 211 -51.5t134 -144.5q56 91 138.5 141.5t193.5 50.5q158 0 257 -71
t142 -183.5t43 -245.5q0 -19 -3.5 -43.5t-5.5 -32.5h-682q8 -122 69.5 -192.5t178.5 -70.5q86 0 146.5 25t117.5 85l145 -125q-88 -91 -184.5 -130t-222.5 -39q-130 0 -223 50t-143 140q-73 -95 -167 -146t-246 -51q-95 0 -175.5 38zM1424 585q0 35 -8 70
q-17 81 -80.5 131.5t-167.5 50.5q-73 0 -125.5 -34.5t-80 -92t-28.5 -125.5h490zM621.5 179.5q75.5 44.5 135.5 133.5q-15 51 -18 122h-264q-106 0 -164.5 -38.5t-58.5 -105.5q0 -69 51.5 -112.5t136.5 -43.5q106 0 181.5 44.5z" />
    <glyph glyph-name="ccedilla" unicode="&#xe7;" horiz-adv-x="1008" 
d="M681.5 216q59.5 47 83.5 126l188 -71q-44 -125 -138.5 -200t-221.5 -88l-68 -94q29 -3 59 -11q72 -20 110 -67t38 -115q0 -61 -28.5 -110.5t-79 -77.5t-114.5 -28q-74 0 -130.5 38.5t-73.5 115.5l114 48q11 -35 36 -59t59 -24q43 0 68.5 24.5t25.5 65.5q0 51 -47 83
t-125 34l-76 1l111 178q-128 17 -218.5 90.5t-136.5 184t-46 238.5q0 136 53 255t159.5 192t257.5 73q147 0 257 -73t165 -215l-196 -76q-26 80 -86 128t-140 48q-88 0 -146.5 -46.5t-86 -122t-27.5 -163.5q0 -89 27.5 -164t86 -120t146.5 -45q81 0 140.5 47z" />
    <glyph glyph-name="egrave" unicode="&#xe8;" horiz-adv-x="1071" 
d="M294 50.5q-111 69.5 -167 186.5t-56 258q0 139 53.5 258.5t161 192t261.5 72.5q161 0 262.5 -73.5t146 -185.5t44.5 -231q0 -28 -2.5 -55t-5.5 -38h-703q14 -126 82.5 -196t193.5 -70q77 0 139.5 26t118.5 87l142 -125q-83 -90 -180.5 -133t-220.5 -43q-159 0 -270 69.5z
M796 585q2 33 -6 63q-16 88 -80 142t-165 54q-112 0 -175.5 -70t-80.5 -189h507zM182 1413h221l223 -305h-152z" />
    <glyph glyph-name="eacute" unicode="&#xe9;" horiz-adv-x="1071" 
d="M294 50.5q-111 69.5 -167 186.5t-56 258q0 139 53.5 258.5t161 192t261.5 72.5q161 0 262.5 -73.5t146 -185.5t44.5 -231q0 -28 -2.5 -55t-5.5 -38h-703q14 -126 82.5 -196t193.5 -70q77 0 139.5 26t118.5 87l142 -125q-83 -90 -180.5 -133t-220.5 -43q-159 0 -270 69.5z
M796 585q2 33 -6 63q-16 88 -80 142t-165 54q-112 0 -175.5 -70t-80.5 -189h507zM652 1413h221l-291 -288h-153z" />
    <glyph glyph-name="ecircumflex" unicode="&#xea;" horiz-adv-x="1071" 
d="M294 50.5q-111 69.5 -167 186.5t-56 258q0 139 53.5 258.5t161 192t261.5 72.5q161 0 262.5 -73.5t146 -185.5t44.5 -231q0 -28 -2.5 -55t-5.5 -38h-703q14 -126 82.5 -196t193.5 -70q77 0 139.5 26t118.5 87l142 -125q-83 -90 -180.5 -133t-220.5 -43q-159 0 -270 69.5z
M796 585q2 33 -6 63q-16 88 -80 142t-165 54q-112 0 -175.5 -70t-80.5 -189h507zM529 1444l312 -341h-162l-150 164l-148 -164h-163z" />
    <glyph glyph-name="edieresis" unicode="&#xeb;" horiz-adv-x="1071" 
d="M294 50.5q-111 69.5 -167 186.5t-56 258q0 139 53.5 258.5t161 192t261.5 72.5q161 0 262.5 -73.5t146 -185.5t44.5 -231q0 -28 -2.5 -55t-5.5 -38h-703q14 -126 82.5 -196t193.5 -70q77 0 139.5 26t118.5 87l142 -125q-83 -90 -180.5 -133t-220.5 -43q-159 0 -270 69.5z
M796 585q2 33 -6 63q-16 88 -80 142t-165 54q-112 0 -175.5 -70t-80.5 -189h507zM250 1413h174v-218h-174v218zM635 1413h174v-218h-174v218z" />
    <glyph glyph-name="igrave" unicode="&#xec;" horiz-adv-x="520" 
d="M157 999h206v-999h-206v999zM-88 1413h221l223 -305h-152z" />
    <glyph glyph-name="iacute" unicode="&#xed;" horiz-adv-x="520" 
d="M157 999h206v-999h-206v999zM382 1413h221l-291 -288h-153z" />
    <glyph glyph-name="icircumflex" unicode="&#xee;" horiz-adv-x="520" 
d="M157 999h206v-999h-206v999zM259 1444l312 -341h-162l-150 164l-148 -164h-163z" />
    <glyph glyph-name="idieresis" unicode="&#xef;" horiz-adv-x="520" 
d="M157 999h206v-999h-206v999zM-20 1413h174v-218h-174v218zM365 1413h174v-218h-174v218z" />
    <glyph glyph-name="eth" unicode="&#xf0;" horiz-adv-x="1121" 
d="M304.5 48q-115.5 67 -181.5 179t-66 241q0 132 68 239t183 168t251 61q41 0 76 -19l-122 194l-119 -95h-148l221 166l-149 231h229l78 -124l167 124h147l-270 -194l320 -511q37 -61 55.5 -120t18.5 -127q0 -131 -67.5 -241t-182.5 -174.5t-252 -64.5q-141 0 -256.5 67z
M706.5 221q67.5 38 107 103.5t39.5 142.5t-39.5 142t-107 103t-147.5 38q-78 0 -145.5 -38t-107 -103t-39.5 -142t39.5 -142.5t107 -103.5t145.5 -38q80 0 147.5 38z" />
    <glyph glyph-name="ntilde" unicode="&#xf1;" horiz-adv-x="1150" 
d="M157 999h206v-134q53 76 133 114.5t167 38.5q120 0 200.5 -56t118.5 -148t39 -203v-611h-206v580q0 113 -54.5 180t-155.5 67q-114 0 -178 -67t-64 -199v-561h-206v999zM637.5 1133.5q-32.5 13.5 -54 32.5t-47.5 49q-27 31 -46 45.5t-43 14.5q-37 0 -57.5 -38t-20.5 -107
h-120q0 130 54.5 201.5t149.5 71.5q38 0 68.5 -13t51.5 -31t49 -48q29 -31 48.5 -46t43.5 -15q32 0 52.5 39t20.5 107h125q0 -130 -53.5 -203t-145.5 -73q-43 0 -75.5 13.5z" />
    <glyph glyph-name="ograve" unicode="&#xf2;" horiz-adv-x="1138" 
d="M306.5 51q-114.5 70 -177.5 189.5t-63 261.5q0 141 63 259.5t177.5 187.5t261.5 69t261.5 -69t178 -187.5t63.5 -259.5q0 -142 -63.5 -261.5t-178 -189.5t-261.5 -70t-261.5 70zM727 206q65 46 97 123.5t32 172.5q0 94 -32 170.5t-97 121.5t-159 45t-158.5 -45
t-96.5 -121.5t-32 -170.5q0 -95 32 -172.5t96.5 -123.5t158.5 -46t159 46zM220 1413h221l223 -305h-152z" />
    <glyph glyph-name="oacute" unicode="&#xf3;" horiz-adv-x="1138" 
d="M306.5 51q-114.5 70 -177.5 189.5t-63 261.5q0 141 63 259.5t177.5 187.5t261.5 69t261.5 -69t178 -187.5t63.5 -259.5q0 -142 -63.5 -261.5t-178 -189.5t-261.5 -70t-261.5 70zM727 206q65 46 97 123.5t32 172.5q0 94 -32 170.5t-97 121.5t-159 45t-158.5 -45
t-96.5 -121.5t-32 -170.5q0 -95 32 -172.5t96.5 -123.5t158.5 -46t159 46zM690 1413h221l-291 -288h-153z" />
    <glyph glyph-name="ocircumflex" unicode="&#xf4;" horiz-adv-x="1138" 
d="M306.5 51q-114.5 70 -177.5 189.5t-63 261.5q0 141 63 259.5t177.5 187.5t261.5 69t261.5 -69t178 -187.5t63.5 -259.5q0 -142 -63.5 -261.5t-178 -189.5t-261.5 -70t-261.5 70zM727 206q65 46 97 123.5t32 172.5q0 94 -32 170.5t-97 121.5t-159 45t-158.5 -45
t-96.5 -121.5t-32 -170.5q0 -95 32 -172.5t96.5 -123.5t158.5 -46t159 46zM567 1444l312 -341h-162l-150 164l-148 -164h-163z" />
    <glyph glyph-name="otilde" unicode="&#xf5;" horiz-adv-x="1138" 
d="M306.5 51q-114.5 70 -177.5 189.5t-63 261.5q0 141 63 259.5t177.5 187.5t261.5 69t261.5 -69t178 -187.5t63.5 -259.5q0 -142 -63.5 -261.5t-178 -189.5t-261.5 -70t-261.5 70zM727 206q65 46 97 123.5t32 172.5q0 94 -32 170.5t-97 121.5t-159 45t-158.5 -45
t-96.5 -121.5t-32 -170.5q0 -95 32 -172.5t96.5 -123.5t158.5 -46t159 46zM624.5 1133.5q-32.5 13.5 -54 32.5t-47.5 49q-27 31 -46 45.5t-43 14.5q-37 0 -57.5 -38t-20.5 -107h-120q0 130 54.5 201.5t149.5 71.5q38 0 68.5 -13t51.5 -31t49 -48q29 -31 48.5 -46t43.5 -15
q32 0 52.5 39t20.5 107h125q0 -130 -53.5 -203t-145.5 -73q-43 0 -75.5 13.5z" />
    <glyph glyph-name="odieresis" unicode="&#xf6;" horiz-adv-x="1138" 
d="M306.5 51q-114.5 70 -177.5 189.5t-63 261.5q0 141 63 259.5t177.5 187.5t261.5 69t261.5 -69t178 -187.5t63.5 -259.5q0 -142 -63.5 -261.5t-178 -189.5t-261.5 -70t-261.5 70zM727 206q65 46 97 123.5t32 172.5q0 94 -32 170.5t-97 121.5t-159 45t-158.5 -45
t-96.5 -121.5t-32 -170.5q0 -95 32 -172.5t96.5 -123.5t158.5 -46t159 46zM288 1413h174v-218h-174v218zM673 1413h174v-218h-174v218z" />
    <glyph glyph-name="divide" unicode="&#xf7;" horiz-adv-x="1012" 
d="M392 1097h225v-249h-225v249zM99 707h810v-157h-810v157zM392 393h225v-250h-225v250z" />
    <glyph glyph-name="oslash" unicode="&#xf8;" horiz-adv-x="1138" 
d="M1020 736.5q51 -108.5 51 -234.5q0 -142 -63.5 -261.5t-178 -189.5t-261.5 -70q-126 0 -229 53l-21 -34h-110l51 84q-91 72 -142 181.5t-51 236.5q0 141 63 259.5t177.5 187.5t261.5 69q124 0 230 -52l21 34h110l-51 -84q91 -71 142 -179.5zM301 361.5
q20 -65.5 60 -111.5l341 559q-58 30 -134 30q-94 0 -158.5 -45t-96.5 -121.5t-32 -170.5q0 -75 20 -140.5zM727 206q65 46 97 123.5t32 172.5q0 74 -20 138t-60 110l-341 -559q57 -31 133 -31q94 0 159 46z" />
    <glyph glyph-name="ugrave" unicode="&#xf9;" horiz-adv-x="1149" 
d="M285 37q-80 56 -117.5 148t-38.5 203v611h205v-580q0 -114 54.5 -180.5t155.5 -66.5q114 0 178.5 67t64.5 199v561h205v-999h-205v134q-53 -76 -133.5 -114.5t-167.5 -38.5q-121 0 -201 56zM226 1413h221l223 -305h-152z" />
    <glyph glyph-name="uacute" unicode="&#xfa;" horiz-adv-x="1149" 
d="M285 37q-80 56 -117.5 148t-38.5 203v611h205v-580q0 -114 54.5 -180.5t155.5 -66.5q114 0 178.5 67t64.5 199v561h205v-999h-205v134q-53 -76 -133.5 -114.5t-167.5 -38.5q-121 0 -201 56zM696 1413h221l-291 -288h-153z" />
    <glyph glyph-name="ucircumflex" unicode="&#xfb;" horiz-adv-x="1149" 
d="M285 37q-80 56 -117.5 148t-38.5 203v611h205v-580q0 -114 54.5 -180.5t155.5 -66.5q114 0 178.5 67t64.5 199v561h205v-999h-205v134q-53 -76 -133.5 -114.5t-167.5 -38.5q-121 0 -201 56zM573 1444l312 -341h-162l-150 164l-148 -164h-163z" />
    <glyph glyph-name="udieresis" unicode="&#xfc;" horiz-adv-x="1149" 
d="M285 37q-80 56 -117.5 148t-38.5 203v611h205v-580q0 -114 54.5 -180.5t155.5 -66.5q114 0 178.5 67t64.5 199v561h205v-999h-205v134q-53 -76 -133.5 -114.5t-167.5 -38.5q-121 0 -201 56zM293 1413h174v-218h-174v218zM678 1413h174v-218h-174v218z" />
    <glyph glyph-name="yacute" unicode="&#xfd;" horiz-adv-x="1028" 
d="M410 22l-402 977h227l285 -740l273 740h227l-564 -1428h-226zM634 1413h221l-291 -288h-153z" />
    <glyph glyph-name="thorn" unicode="&#xfe;" horiz-adv-x="1183" 
d="M910 948q97 -70 147.5 -188.5t50.5 -260.5t-50.5 -260.5t-148 -188t-231.5 -69.5q-95 0 -176 40.5t-130 118.5v-554h-213v1827h213v-554q49 77 131.5 118t177.5 41q132 0 229 -70zM479.5 784.5q-62.5 -42.5 -94.5 -116.5t-32 -169q0 -94 32 -169t94.5 -118t150.5 -43
t148.5 43t90.5 118t30 169q0 95 -30 169t-90.5 116.5t-148.5 42.5t-150.5 -42.5z" />
    <glyph glyph-name="ydieresis" unicode="&#xff;" horiz-adv-x="1028" 
d="M410 22l-402 977h227l285 -740l273 740h227l-564 -1428h-226zM232 1413h174v-218h-174v218zM617 1413h174v-218h-174v218z" />
    <glyph glyph-name="Amacron" unicode="&#x100;" horiz-adv-x="1329" 
d="M583 1413h165l550 -1413h-232l-115 318h-568l-117 -318h-235zM883 503l-216 597l-217 -597h433zM386 1708h556v-123h-556v123z" />
    <glyph glyph-name="amacron" unicode="&#x101;" horiz-adv-x="1057" 
d="M736 967q95 -51 144.5 -143.5t49.5 -215.5v-608h-170l-14 156q-48 -84 -138.5 -129.5t-190.5 -45.5q-103 0 -183.5 38t-126.5 110.5t-46 171.5q0 152 107.5 220t296.5 68h278q-2 89 -24 142.5t-71.5 79.5t-136.5 26q-86 0 -148.5 -40t-104.5 -108l-158 114
q76 105 174.5 160t235.5 55q131 0 226 -51zM597.5 191q60.5 34 97.5 91t48 126v31h-266q-100 0 -152.5 -40t-52.5 -104q0 -63 48.5 -100.5t137.5 -37.5q79 0 139.5 34zM224 1294h556v-123h-556v123z" />
    <glyph glyph-name="Abreve" unicode="&#x102;" horiz-adv-x="1329" 
d="M583 1413h165l550 -1413h-232l-115 318h-568l-117 -318h-235zM883 503l-216 597l-217 -597h433zM352 1827h147q0 -72 45 -109t120 -37q77 0 121 37.5t44 108.5h147q0 -269 -312 -269t-312 269z" />
    <glyph glyph-name="abreve" unicode="&#x103;" horiz-adv-x="1057" 
d="M736 967q95 -51 144.5 -143.5t49.5 -215.5v-608h-170l-14 156q-48 -84 -138.5 -129.5t-190.5 -45.5q-103 0 -183.5 38t-126.5 110.5t-46 171.5q0 152 107.5 220t296.5 68h278q-2 89 -24 142.5t-71.5 79.5t-136.5 26q-86 0 -148.5 -40t-104.5 -108l-158 114
q76 105 174.5 160t235.5 55q131 0 226 -51zM597.5 191q60.5 34 97.5 91t48 126v31h-266q-100 0 -152.5 -40t-52.5 -104q0 -63 48.5 -100.5t137.5 -37.5q79 0 139.5 34zM190 1413h147q0 -72 45 -109t120 -37q77 0 121 37.5t44 108.5h147q0 -269 -312 -269t-312 269z" />
    <glyph glyph-name="Aogonek" unicode="&#x104;" horiz-adv-x="1329" 
d="M1387 -331q-80 -121 -218 -121q-63 0 -113 25t-78 70t-28 104q0 69 35 123.5t78.5 87.5t69.5 42h-67l-115 318h-568l-117 -318h-235l552 1413h165l550 -1413h1q-34 -10 -87 -40.5t-95 -78.5t-42 -106q0 -99 89 -99q37 0 65.5 16t52.5 49zM883 503l-216 597l-217 -597h433
z" />
    <glyph glyph-name="aogonek" unicode="&#x105;" horiz-adv-x="1057" 
d="M1019 -331q-80 -121 -218 -121q-63 0 -113 25t-78 70t-28 104q0 69 35 123.5t78.5 87.5t69.5 42h-5l-14 156q-48 -84 -138.5 -129.5t-190.5 -45.5q-103 0 -183.5 38t-126.5 110.5t-46 171.5q0 152 107.5 220t296.5 68h278q-2 89 -24 142.5t-71.5 79.5t-136.5 26
q-86 0 -148.5 -40t-104.5 -108l-158 114q76 105 174.5 160t235.5 55q131 0 226 -51t144.5 -143.5t49.5 -215.5v-608h1q-34 -10 -87 -40.5t-95 -78.5t-42 -106q0 -99 89 -99q37 0 65.5 16t52.5 49zM597.5 191q60.5 34 97.5 91t48 126v31h-266q-100 0 -152.5 -40t-52.5 -104
q0 -63 48.5 -100.5t137.5 -37.5q79 0 139.5 34z" />
    <glyph glyph-name="Cacute" unicode="&#x106;" horiz-adv-x="1439" 
d="M400 77.5q-151 96.5 -226 261t-75 368.5q0 205 75 369.5t226 261t370 96.5q211 0 366 -102t238 -296l-202 -80q-83 273 -404 273q-152 0 -254 -66t-152 -181.5t-50 -265.5q0 -155 48.5 -274t150.5 -187.5t257 -68.5q150 0 249.5 66t158.5 211l200 -82q-84 -194 -241 -297
t-367 -103q-217 0 -368 96.5zM878 1827h221l-291 -288h-153z" />
    <glyph glyph-name="cacute" unicode="&#x107;" horiz-adv-x="1008" 
d="M286 52q-107 71 -161 189t-54 257q0 136 53 255t159.5 192t257.5 73q147 0 257 -73t165 -215l-196 -76q-26 80 -86 128t-140 48q-88 0 -146.5 -46.5t-86 -122t-27.5 -163.5q0 -89 27.5 -164t86 -120t146.5 -45q81 0 140.5 47t83.5 126l188 -71q-49 -137 -157 -213.5
t-253 -76.5q-150 0 -257 71zM663 1413h221l-291 -288h-153z" />
    <glyph glyph-name="Cdotaccent" unicode="&#x10a;" horiz-adv-x="1439" 
d="M400 77.5q-151 96.5 -226 261t-75 368.5q0 205 75 369.5t226 261t370 96.5q211 0 366 -102t238 -296l-202 -80q-83 273 -404 273q-152 0 -254 -66t-152 -181.5t-50 -265.5q0 -155 48.5 -274t150.5 -187.5t257 -68.5q150 0 249.5 66t158.5 211l200 -82q-84 -194 -241 -297
t-367 -103q-217 0 -368 96.5zM647 1827h217v-218h-217v218z" />
    <glyph glyph-name="cdotaccent" unicode="&#x10b;" horiz-adv-x="1008" 
d="M286 52q-107 71 -161 189t-54 257q0 136 53 255t159.5 192t257.5 73q147 0 257 -73t165 -215l-196 -76q-26 80 -86 128t-140 48q-88 0 -146.5 -46.5t-86 -122t-27.5 -163.5q0 -89 27.5 -164t86 -120t146.5 -45q81 0 140.5 47t83.5 126l188 -71q-49 -137 -157 -213.5
t-253 -76.5q-150 0 -257 71zM432 1413h217v-218h-217v218z" />
    <glyph glyph-name="Ccaron" unicode="&#x10c;" horiz-adv-x="1439" 
d="M400 77.5q-151 96.5 -226 261t-75 368.5q0 205 75 369.5t226 261t370 96.5q211 0 366 -102t238 -296l-202 -80q-83 273 -404 273q-152 0 -254 -66t-152 -181.5t-50 -265.5q0 -155 48.5 -274t150.5 -187.5t257 -68.5q150 0 249.5 66t158.5 211l200 -82q-84 -194 -241 -297
t-367 -103q-217 0 -368 96.5zM444 1827h162l149 -155l149 155h163l-312 -324z" />
    <glyph glyph-name="ccaron" unicode="&#x10d;" horiz-adv-x="1008" 
d="M286 52q-107 71 -161 189t-54 257q0 136 53 255t159.5 192t257.5 73q147 0 257 -73t165 -215l-196 -76q-26 80 -86 128t-140 48q-88 0 -146.5 -46.5t-86 -122t-27.5 -163.5q0 -89 27.5 -164t86 -120t146.5 -45q81 0 140.5 47t83.5 126l188 -71q-49 -137 -157 -213.5
t-253 -76.5q-150 0 -257 71zM229 1413h162l149 -155l149 155h163l-312 -324z" />
    <glyph glyph-name="Dcaron" unicode="&#x10e;" horiz-adv-x="1425" 
d="M196 1413h400q237 0 400.5 -83.5t247 -244t83.5 -389.5q0 -220 -85 -376t-249.5 -238t-398.5 -82h-398v1413zM574 198q261 0 399.5 121t138.5 386q0 179 -54 291t-168 165.5t-297 53.5h-182v-1017h163zM417 1827h162l149 -155l149 155h163l-312 -324z" />
    <glyph glyph-name="dcaron" unicode="&#x10f;" horiz-adv-x="1186" 
d="M278 51q-99 70 -151 188.5t-52 260.5q0 141 52 259.5t150 188.5t231 70q95 0 177.5 -41t131.5 -118v554h210v-1413h-193l-8 151q-50 -83 -133 -126.5t-182 -43.5q-134 0 -233 70zM710.5 212q61.5 43 92.5 117.5t31 170.5q0 95 -31 169.5t-92.5 117.5t-149.5 43
t-150.5 -43.5t-94 -118t-31.5 -168.5q0 -95 31.5 -170t94 -118t150.5 -43t149.5 43zM1236 1413h217l-209 -443h-123z" />
    <glyph glyph-name="Dcroat" unicode="&#x110;" horiz-adv-x="1425" 
d="M996.5 1329.5q163.5 -83.5 247 -244t83.5 -389.5q0 -220 -85 -376t-249.5 -238t-398.5 -82h-398v637h-147v140h147v636h400q237 0 400.5 -83.5zM973.5 319q138.5 121 138.5 386q0 179 -54 291t-168 165.5t-297 53.5h-182v-438h273v-140h-273v-439h163q261 0 399.5 121z
" />
    <glyph glyph-name="dcroat" unicode="&#x111;" horiz-adv-x="1186" 
d="M1160 1150h-133v-1150h-193l-8 151q-50 -83 -133 -126.5t-182 -43.5q-134 0 -233 70t-151 188.5t-52 260.5q0 141 52 259.5t150 188.5t231 70q95 0 177.5 -41t131.5 -118v291h-292v140h292v123h210v-123h133v-140zM710.5 212q61.5 43 92.5 117.5t31 170.5q0 95 -31 169.5
t-92.5 117.5t-149.5 43t-150.5 -43.5t-94 -118t-31.5 -168.5q0 -95 31.5 -170t94 -118t150.5 -43t149.5 43z" />
    <glyph glyph-name="Emacron" unicode="&#x112;" horiz-adv-x="1255" 
d="M196 1413h935v-198h-720v-408h662v-198h-662v-406h720v-203h-935v1413zM386 1708h556v-123h-556v123z" />
    <glyph glyph-name="emacron" unicode="&#x113;" horiz-adv-x="1071" 
d="M294 50.5q-111 69.5 -167 186.5t-56 258q0 139 53.5 258.5t161 192t261.5 72.5q161 0 262.5 -73.5t146 -185.5t44.5 -231q0 -28 -2.5 -55t-5.5 -38h-703q14 -126 82.5 -196t193.5 -70q77 0 139.5 26t118.5 87l142 -125q-83 -90 -180.5 -133t-220.5 -43q-159 0 -270 69.5z
M796 585q2 33 -6 63q-16 88 -80 142t-165 54q-112 0 -175.5 -70t-80.5 -189h507zM252 1294h556v-123h-556v123z" />
    <glyph glyph-name="Edotaccent" unicode="&#x116;" horiz-adv-x="1255" 
d="M196 1413h935v-198h-720v-408h662v-198h-662v-406h720v-203h-935v1413zM555 1827h217v-218h-217v218z" />
    <glyph glyph-name="edotaccent" unicode="&#x117;" horiz-adv-x="1071" 
d="M294 50.5q-111 69.5 -167 186.5t-56 258q0 139 53.5 258.5t161 192t261.5 72.5q161 0 262.5 -73.5t146 -185.5t44.5 -231q0 -28 -2.5 -55t-5.5 -38h-703q14 -126 82.5 -196t193.5 -70q77 0 139.5 26t118.5 87l142 -125q-83 -90 -180.5 -133t-220.5 -43q-159 0 -270 69.5z
M796 585q2 33 -6 63q-16 88 -80 142t-165 54q-112 0 -175.5 -70t-80.5 -189h507zM421 1413h217v-218h-217v218z" />
    <glyph glyph-name="Eogonek" unicode="&#x118;" horiz-adv-x="1255" 
d="M1219 -331q-80 -121 -218 -121q-63 0 -113 25t-78 70t-28 104q0 69 35 123.5t78.5 87.5t69.5 42h-769v1413h935v-198h-720v-408h662v-198h-662v-406h720v-203q-34 -10 -87 -40.5t-95 -78.5t-42 -106q0 -99 89 -99q37 0 65.5 16t52.5 49z" />
    <glyph glyph-name="eogonek" unicode="&#x119;" horiz-adv-x="1071" 
d="M997.5 473q-2.5 -27 -5.5 -38h-703q14 -126 82.5 -196t193.5 -70q77 0 139.5 26t118.5 87l142 -125q-104 -113 -234 -153q-56 -35 -94 -81t-38 -101q0 -99 89 -99q37 0 65.5 16t52.5 49l105 -72q-80 -121 -218 -121q-63 0 -113 25t-78 70t-28 104q0 56 24 103.5t62 83.5
q-157 1 -267.5 71t-166 186.5t-55.5 256.5q0 139 53.5 258.5t161 192t261.5 72.5q161 0 262.5 -73.5t146 -185.5t44.5 -231q0 -28 -2.5 -55zM790 648q-16 88 -80 142t-165 54q-112 0 -175.5 -70t-80.5 -189h507q2 33 -6 63z" />
    <glyph glyph-name="Ecaron" unicode="&#x11a;" horiz-adv-x="1255" 
d="M196 1413h935v-198h-720v-408h662v-198h-662v-406h720v-203h-935v1413zM352 1827h162l149 -155l149 155h163l-312 -324z" />
    <glyph glyph-name="ecaron" unicode="&#x11b;" horiz-adv-x="1071" 
d="M294 50.5q-111 69.5 -167 186.5t-56 258q0 139 53.5 258.5t161 192t261.5 72.5q161 0 262.5 -73.5t146 -185.5t44.5 -231q0 -28 -2.5 -55t-5.5 -38h-703q14 -126 82.5 -196t193.5 -70q77 0 139.5 26t118.5 87l142 -125q-83 -90 -180.5 -133t-220.5 -43q-159 0 -270 69.5z
M796 585q2 33 -6 63q-16 88 -80 142t-165 54q-112 0 -175.5 -70t-80.5 -189h507zM218 1413h162l149 -155l149 155h163l-312 -324z" />
    <glyph glyph-name="Gbreve" unicode="&#x11e;" horiz-adv-x="1536" 
d="M400 77.5q-151 96.5 -226 261t-75 368.5q0 205 74.5 369.5t225.5 261t371 96.5q209 0 364 -102t238 -296l-191 -80q-51 146 -157 218t-256 72q-151 0 -253.5 -70t-152.5 -189.5t-50 -270.5q0 -156 48.5 -278t151 -193t256.5 -71q117 0 206.5 42t142.5 124.5t61 200.5
l5 37h-327v174h539v-752h-171l-19 217q-62 -111 -175.5 -173.5t-261.5 -62.5q-217 0 -368 96.5zM454 1827h147q0 -72 45 -109t120 -37q77 0 121 37.5t44 108.5h147q0 -269 -312 -269t-312 269z" />
    <glyph glyph-name="gbreve" unicode="&#x11f;" horiz-adv-x="1051" 
d="M791.5 102q81.5 -25 136.5 -83.5t55 -163.5q0 -104 -56 -177t-154 -109.5t-223 -36.5q-149 0 -255 44.5t-160.5 123.5t-54.5 182q0 21 4 43l128 111q-109 63 -109 194q0 122 98 201q-40 46 -62 104.5t-22 123.5q0 103 54 185t145 128t200 46q135 0 242 -69l147 127
l108 -133l-141 -116q46 -81 46 -178q0 -106 -53 -187t-143.5 -125t-198.5 -44t-197 43q-24 -13 -35 -30t-11 -40q0 -39 30 -61t79 -32t144 -22l53 -7q124 -17 205.5 -42zM382 802q-52 -56 -52 -145q0 -88 51.5 -142t141.5 -54q89 0 139.5 54t50.5 142q0 90 -51 145.5
t-139 55.5q-89 0 -141 -56zM723 -271.5q64 36.5 64 104.5q0 45 -30.5 70t-86.5 37.5t-156 24.5q-9 1 -65.5 7t-109.5 18l-74 -107q1 -11 5 -29q17 -81 92 -121.5t186 -40.5t175 36.5zM215 1413h147q0 -72 45 -109t120 -37q77 0 121 37.5t44 108.5h147q0 -269 -312 -269
t-312 269z" />
    <glyph glyph-name="Gdotaccent" unicode="&#x120;" horiz-adv-x="1536" 
d="M400 77.5q-151 96.5 -226 261t-75 368.5q0 205 74.5 369.5t225.5 261t371 96.5q209 0 364 -102t238 -296l-191 -80q-51 146 -157 218t-256 72q-151 0 -253.5 -70t-152.5 -189.5t-50 -270.5q0 -156 48.5 -278t151 -193t256.5 -71q117 0 206.5 42t142.5 124.5t61 200.5
l5 37h-327v174h539v-752h-171l-19 217q-62 -111 -175.5 -173.5t-261.5 -62.5q-217 0 -368 96.5zM657 1827h217v-218h-217v218z" />
    <glyph glyph-name="gdotaccent" unicode="&#x121;" horiz-adv-x="1051" 
d="M791.5 102q81.5 -25 136.5 -83.5t55 -163.5q0 -104 -56 -177t-154 -109.5t-223 -36.5q-149 0 -255 44.5t-160.5 123.5t-54.5 182q0 21 4 43l128 111q-109 63 -109 194q0 122 98 201q-40 46 -62 104.5t-22 123.5q0 103 54 185t145 128t200 46q135 0 242 -69l147 127
l108 -133l-141 -116q46 -81 46 -178q0 -106 -53 -187t-143.5 -125t-198.5 -44t-197 43q-24 -13 -35 -30t-11 -40q0 -39 30 -61t79 -32t144 -22l53 -7q124 -17 205.5 -42zM382 802q-52 -56 -52 -145q0 -88 51.5 -142t141.5 -54q89 0 139.5 54t50.5 142q0 90 -51 145.5
t-139 55.5q-89 0 -141 -56zM723 -271.5q64 36.5 64 104.5q0 45 -30.5 70t-86.5 37.5t-156 24.5q-9 1 -65.5 7t-109.5 18l-74 -107q1 -11 5 -29q17 -81 92 -121.5t186 -40.5t175 36.5zM418 1413h217v-218h-217v218z" />
    <glyph glyph-name="uni0122" unicode="&#x122;" horiz-adv-x="1536" 
d="M400 77.5q-151 96.5 -226 261t-75 368.5q0 205 74.5 369.5t225.5 261t371 96.5q209 0 364 -102t238 -296l-191 -80q-51 146 -157 218t-256 72q-151 0 -253.5 -70t-152.5 -189.5t-50 -270.5q0 -156 48.5 -278t151 -193t256.5 -71q117 0 206.5 42t142.5 124.5t61 200.5
l5 37h-327v174h539v-752h-171l-19 217q-62 -111 -175.5 -173.5t-261.5 -62.5q-217 0 -368 96.5zM680 -109h217l-245 -346h-122z" />
    <glyph glyph-name="uni0123" unicode="&#x123;" horiz-adv-x="1049" 
d="M599 1121h-217l245 310h122zM791.5 102q81.5 -25 136.5 -83.5t55 -163.5q0 -104 -56 -177t-154 -109.5t-223 -36.5q-149 0 -255 44.5t-160.5 123.5t-54.5 182q0 21 4 43l128 111q-109 63 -109 194q0 122 98 201q-40 46 -62 104.5t-22 123.5q0 103 54 185t145 128t200 46
q135 0 242 -69l147 127l108 -133l-141 -116q46 -81 46 -178q0 -106 -53 -187t-143.5 -125t-198.5 -44t-197 43q-24 -13 -35 -30t-11 -40q0 -39 30 -61t79 -32t144 -22l53 -7q124 -17 205.5 -42zM382 802q-52 -56 -52 -145q0 -88 51.5 -142t141.5 -54q89 0 139.5 54t50.5 142
q0 90 -51 145.5t-139 55.5q-89 0 -141 -56zM723 -271.5q64 36.5 64 104.5q0 45 -30.5 70t-86.5 37.5t-156 24.5q-9 1 -65.5 7t-109.5 18l-74 -107q1 -11 5 -29q17 -81 92 -121.5t186 -40.5t175 36.5z" />
    <glyph glyph-name="Hbar" unicode="&#x126;" horiz-adv-x="1482" 
d="M1399 1053h-113v-1053h-215v609h-660v-609h-215v1053h-113v123h113v237h215v-237h660v237h215v-237h113v-123zM1071 1053h-660v-246h660v246z" />
    <glyph glyph-name="hbar" unicode="&#x127;" horiz-adv-x="1156" 
d="M866.5 962q81.5 -56 120.5 -148t40 -203v-611h-210v580q0 117 -46 183.5t-156 66.5q-79 0 -134.5 -39t-83.5 -107.5t-28 -156.5v-527h-210v1119h-158v140h158v154h210v-154h267v-140h-267v-254q53 76 131 114.5t165 38.5q120 0 201.5 -56z" />
    <glyph glyph-name="Itilde" unicode="&#x128;" horiz-adv-x="608" 
d="M196 1413h215v-1413h-215v1413zM359.5 1547.5q-32.5 13.5 -54 32.5t-47.5 49q-27 31 -46 45.5t-43 14.5q-37 0 -57.5 -38t-20.5 -107h-120q0 130 54.5 201.5t149.5 71.5q38 0 68.5 -13t51.5 -31t49 -48q29 -31 48.5 -46t43.5 -15q32 0 52.5 39t20.5 107h125
q0 -130 -53.5 -203t-145.5 -73q-43 0 -75.5 13.5z" />
    <glyph glyph-name="itilde" unicode="&#x129;" horiz-adv-x="520" 
d="M157 999h206v-999h-206v999zM316.5 1133.5q-32.5 13.5 -54 32.5t-47.5 49q-27 31 -46 45.5t-43 14.5q-37 0 -57.5 -38t-20.5 -107h-120q0 130 54.5 201.5t149.5 71.5q38 0 68.5 -13t51.5 -31t49 -48q29 -31 48.5 -46t43.5 -15q32 0 52.5 39t20.5 107h125
q0 -130 -53.5 -203t-145.5 -73q-43 0 -75.5 13.5z" />
    <glyph glyph-name="Imacron" unicode="&#x12a;" horiz-adv-x="608" 
d="M196 1413h215v-1413h-215v1413zM25 1708h556v-123h-556v123z" />
    <glyph glyph-name="imacron" unicode="&#x12b;" horiz-adv-x="520" 
d="M157 999h206v-999h-206v999zM-18 1294h556v-123h-556v123z" />
    <glyph glyph-name="Iogonek" unicode="&#x12e;" horiz-adv-x="608" 
d="M500 -331q-80 -121 -218 -121q-63 0 -113 25t-78 70t-28 104q0 69 35 123.5t78.5 87.5t69.5 42h-50v1413h215v-1413h1q-34 -10 -87 -40.5t-95 -78.5t-42 -106q0 -99 89 -99q37 0 65.5 16t52.5 49z" />
    <glyph glyph-name="iogonek" unicode="&#x12f;" horiz-adv-x="520" 
d="M368 1195h-217v218h217v-218zM451 -331q-80 -121 -218 -121q-63 0 -113 25t-78 70t-28 104q0 69 35 123.5t78.5 87.5t69.5 42h-40v999h206v-999q-34 -10 -87 -40.5t-95 -78.5t-42 -106q0 -99 89 -99q37 0 65.5 16t52.5 49z" />
    <glyph glyph-name="Idotaccent" unicode="&#x130;" horiz-adv-x="608" 
d="M196 1413h215v-1413h-215v1413zM194 1827h217v-218h-217v218z" />
    <glyph glyph-name="dotlessi" unicode="&#x131;" horiz-adv-x="520" 
d="M157 999h206v-999h-206v999z" />
    <glyph glyph-name="IJ" unicode="&#x132;" horiz-adv-x="1757" 
d="M196 1413h215v-1413h-215v1413zM884 40.5q-103 59.5 -161.5 162t-67.5 228.5l211 24q10 -123 74.5 -198.5t182.5 -75.5q96 0 151 37t77.5 108t22.5 182v707h-546v198h761v-901q0 -246 -113 -388.5t-353 -142.5q-136 0 -239 59.5z" />
    <glyph glyph-name="uni0136" unicode="&#x136;" horiz-adv-x="1478" 
d="M196 1413h215v-774l728 774h288l-557 -572l574 -841h-267l-456 697l-310 -321v-376h-215v1413zM638 -109h217l-245 -346h-122z" />
    <glyph glyph-name="uni0137" unicode="&#x137;" horiz-adv-x="1109" 
d="M159 1413h206v-872l423 458h269l-371 -382l418 -617h-245l-313 489l-181 -195v-294h-206v1413zM521 -109h217l-245 -346h-122z" />
    <glyph glyph-name="kgreenlandic" unicode="&#x138;" horiz-adv-x="1107" 
d="M157 999h206v-458l423 458h269l-371 -382l418 -617h-245l-313 489l-181 -195v-294h-206v999z" />
    <glyph glyph-name="Lacute" unicode="&#x139;" horiz-adv-x="1066" 
d="M196 1413h215v-1210h618v-203h-833v1413zM427 1827h221l-291 -288h-153z" />
    <glyph glyph-name="lacute" unicode="&#x13a;" horiz-adv-x="566" 
d="M202.5 32.5q-51.5 51.5 -51.5 170.5v1210h206v-1154q0 -45 21 -68.5t69 -23.5q25 0 72 7l1 -174q-93 -19 -168 -19q-98 0 -149.5 51.5zM396 1825h221l-291 -288h-153z" />
    <glyph glyph-name="uni013B" unicode="&#x13b;" horiz-adv-x="1066" 
d="M196 1413h215v-1210h618v-203h-833v1413zM522 -109h217l-245 -346h-122z" />
    <glyph glyph-name="uni013C" unicode="&#x13c;" horiz-adv-x="566" 
d="M202.5 32.5q-51.5 51.5 -51.5 170.5v1210h206v-1154q0 -45 21 -68.5t69 -23.5q25 0 72 7l1 -174q-93 -19 -168 -19q-98 0 -149.5 51.5zM267 -109h217l-245 -346h-122z" />
    <glyph glyph-name="Lcaron" unicode="&#x13d;" horiz-adv-x="1066" 
d="M196 1413h215v-1210h618v-203h-833v1413zM752 1413h217l-209 -443h-123z" />
    <glyph glyph-name="lcaron" unicode="&#x13e;" horiz-adv-x="566" 
d="M202.5 32.5q-51.5 51.5 -51.5 170.5v1210h206v-1154q0 -45 21 -68.5t69 -23.5q25 0 72 7l1 -174q-93 -19 -168 -19q-98 0 -149.5 51.5zM560 1413h217l-209 -443h-123z" />
    <glyph glyph-name="Lslash" unicode="&#x141;" horiz-adv-x="1066" 
d="M1029 203v-203h-833v347l-142 -161v230l142 160v837h215v-594l245 277v-229l-245 -277v-387h618z" />
    <glyph glyph-name="lslash" unicode="&#x142;" horiz-adv-x="571" 
d="M522 0q-93 -19 -168 -19q-98 0 -149.5 51.5t-51.5 170.5v231l-90 -90v196l90 89v784h206v-579l155 154v-195l-155 -154v-380q0 -45 21 -68.5t69 -23.5q25 0 72 7z" />
    <glyph glyph-name="Nacute" unicode="&#x143;" horiz-adv-x="1446" 
d="M1249 1413v-1413h-217l-629 1060v-1060h-207v1413h216l631 -1056v1056h206zM844 1827h221l-291 -288h-153z" />
    <glyph glyph-name="nacute" unicode="&#x144;" horiz-adv-x="1150" 
d="M157 999h206v-134q53 76 133 114.5t167 38.5q120 0 200.5 -56t118.5 -148t39 -203v-611h-206v580q0 113 -54.5 180t-155.5 67q-114 0 -178 -67t-64 -199v-561h-206v999zM703 1413h221l-291 -288h-153z" />
    <glyph glyph-name="uni0145" unicode="&#x145;" horiz-adv-x="1446" 
d="M1249 1413v-1413h-217l-629 1060v-1060h-207v1413h216l631 -1056v1056h206zM631 -109h217l-245 -346h-122z" />
    <glyph glyph-name="uni0146" unicode="&#x146;" horiz-adv-x="1150" 
d="M157 999h206v-134q53 76 133 114.5t167 38.5q120 0 200.5 -56t118.5 -148t39 -203v-611h-206v580q0 113 -54.5 180t-155.5 67q-114 0 -178 -67t-64 -199v-561h-206v999zM490 -109h217l-245 -346h-122z" />
    <glyph glyph-name="Ncaron" unicode="&#x147;" horiz-adv-x="1446" 
d="M1249 1413v-1413h-217l-629 1060v-1060h-207v1413h216l631 -1056v1056h206zM410 1827h162l149 -155l149 155h163l-312 -324z" />
    <glyph glyph-name="ncaron" unicode="&#x148;" horiz-adv-x="1150" 
d="M157 999h206v-134q53 76 133 114.5t167 38.5q120 0 200.5 -56t118.5 -148t39 -203v-611h-206v580q0 113 -54.5 180t-155.5 67q-114 0 -178 -67t-64 -199v-561h-206v999zM269 1413h162l149 -155l149 155h163l-312 -324z" />
    <glyph glyph-name="Eng" unicode="&#x14a;" horiz-adv-x="1446" 
d="M1248 1413v-1423q0 -156 -71.5 -253t-239.5 -97q-72 0 -143 15l1 136q50 -10 87 -10q83 0 131.5 34.5t48.5 95.5q0 31 -12 50l-647 1104v-1065h-207v1413h216l631 -1066v1066h205z" />
    <glyph glyph-name="eng" unicode="&#x14b;" horiz-adv-x="1205" 
d="M650 -427.5q-43 9.5 -79 21.5l47 154q62 -16 107 -16q52 0 71 30t19 95v723q0 113 -54.5 180t-155.5 67q-114 0 -179 -67t-65 -199v-561h-204v999h204v-134q54 76 134.5 114.5t167.5 38.5q120 0 200 -56t118 -148t39 -203v-730q0 -93 -32 -164.5t-97 -112.5t-161 -41
q-37 0 -80 9.5z" />
    <glyph glyph-name="Omacron" unicode="&#x14c;" horiz-adv-x="1538" 
d="M398 79.5q-151 98.5 -225.5 263.5t-74.5 364t74.5 363.5t225.5 263t371 98.5t371 -98.5t225.5 -263t74.5 -363.5t-74.5 -364t-225.5 -263.5t-371 -98.5t-371 98.5zM1021.5 244q99.5 72 145.5 192.5t46 270.5t-46 270.5t-145.5 192t-252.5 71.5t-252.5 -71.5t-145.5 -192
t-46 -270.5t46 -270.5t145.5 -192.5t252.5 -72t252.5 72zM490 1708h556v-123h-556v123z" />
    <glyph glyph-name="omacron" unicode="&#x14d;" horiz-adv-x="1138" 
d="M306.5 51q-114.5 70 -177.5 189.5t-63 261.5q0 141 63 259.5t177.5 187.5t261.5 69t261.5 -69t178 -187.5t63.5 -259.5q0 -142 -63.5 -261.5t-178 -189.5t-261.5 -70t-261.5 70zM727 206q65 46 97 123.5t32 172.5q0 94 -32 170.5t-97 121.5t-159 45t-158.5 -45
t-96.5 -121.5t-32 -170.5q0 -95 32 -172.5t96.5 -123.5t158.5 -46t159 46zM290 1294h556v-123h-556v123z" />
    <glyph glyph-name="Ohungarumlaut" unicode="&#x150;" horiz-adv-x="1538" 
d="M398 79.5q-151 98.5 -225.5 263.5t-74.5 364t74.5 363.5t225.5 263t371 98.5t371 -98.5t225.5 -263t74.5 -363.5t-74.5 -364t-225.5 -263.5t-371 -98.5t-371 98.5zM1021.5 244q99.5 72 145.5 192.5t46 270.5t-46 270.5t-145.5 192t-252.5 71.5t-252.5 -71.5t-145.5 -192
t-46 -270.5t46 -270.5t145.5 -192.5t252.5 -72t252.5 72zM697 1827h187l-257 -322h-153zM1070 1827h221l-291 -322h-152z" />
    <glyph glyph-name="ohungarumlaut" unicode="&#x151;" horiz-adv-x="1138" 
d="M306.5 51q-114.5 70 -177.5 189.5t-63 261.5q0 141 63 259.5t177.5 187.5t261.5 69t261.5 -69t178 -187.5t63.5 -259.5q0 -142 -63.5 -261.5t-178 -189.5t-261.5 -70t-261.5 70zM727 206q65 46 97 123.5t32 172.5q0 94 -32 170.5t-97 121.5t-159 45t-158.5 -45
t-96.5 -121.5t-32 -170.5q0 -95 32 -172.5t96.5 -123.5t158.5 -46t159 46zM497 1413h187l-257 -322h-153zM870 1413h221l-291 -322h-152z" />
    <glyph glyph-name="OE" unicode="&#x152;" horiz-adv-x="2281" 
d="M1437 1215v-408h662v-198h-662v-406h720v-203h-935v142q-84 -77 -197.5 -119t-255.5 -42q-220 0 -371 98.5t-225.5 263.5t-74.5 364t74.5 363.5t225.5 263t371 98.5q142 0 255.5 -42t197.5 -119v142h935v-198h-720zM1021.5 244q99.5 72 145.5 192.5t46 270.5t-46 270.5
t-145.5 192t-252.5 71.5t-252.5 -71.5t-145.5 -192t-46 -270.5t46 -270.5t145.5 -192.5t252.5 -72t252.5 72z" />
    <glyph glyph-name="oe" unicode="&#x153;" horiz-adv-x="1855" 
d="M1781.5 473q-2.5 -27 -5.5 -38h-703q14 -126 82.5 -196t193.5 -70q77 0 139.5 26t118.5 87l142 -125q-83 -90 -180.5 -133t-220.5 -43q-131 0 -230 48t-162 133q-69 -85 -168.5 -133t-219.5 -48q-147 0 -261.5 70t-177.5 189.5t-63 261.5q0 141 63 259.5t177.5 187.5
t261.5 69q121 0 221 -48t168 -133q62 85 156 133t218 48q161 0 262.5 -73.5t146 -185.5t44.5 -231q0 -28 -2.5 -55zM1574 648q-16 88 -80 142t-165 54q-112 0 -175.5 -70t-80.5 -189h507q2 33 -6 63zM721 202q63 42 96 113t38 160v20q0 19 1 28q-4 89 -37 160.5t-96.5 113.5
t-154.5 42q-94 0 -158.5 -45t-96.5 -121.5t-32 -170.5q0 -95 32 -172.5t96.5 -123.5t158.5 -46q90 0 153 42z" />
    <glyph glyph-name="Racute" unicode="&#x154;" horiz-adv-x="1266" 
d="M196 1413h436q135 0 245 -48.5t174 -141t64 -218.5q0 -134 -77.5 -231t-206.5 -136l393 -638h-246l-355 616l-86 -1h-126v-615h-215v1413zM651 791q119 4 185 59.5t66 150.5q0 101 -72 160t-196 59h-221v-429h238zM744 1827h221l-291 -288h-153z" />
    <glyph glyph-name="racute" unicode="&#x155;" horiz-adv-x="808" 
d="M157 999h201v-182q22 64 66 109.5t100.5 68.5t115.5 23q49 0 94.5 -16t78.5 -48l-94 -170q-52 33 -110 33q-64 0 -122 -39t-94.5 -121.5t-36.5 -205.5v-451h-199v999zM571 1413h221l-291 -288h-153z" />
    <glyph glyph-name="uni0156" unicode="&#x156;" horiz-adv-x="1266" 
d="M196 1413h436q135 0 245 -48.5t174 -141t64 -218.5q0 -134 -77.5 -231t-206.5 -136l393 -638h-246l-355 616l-86 -1h-126v-615h-215v1413zM651 791q119 4 185 59.5t66 150.5q0 101 -72 160t-196 59h-221v-429h238zM600 -109h217l-245 -346h-122z" />
    <glyph glyph-name="uni0157" unicode="&#x157;" horiz-adv-x="808" 
d="M157 999h201v-182q22 64 66 109.5t100.5 68.5t115.5 23q49 0 94.5 -16t78.5 -48l-94 -170q-52 33 -110 33q-64 0 -122 -39t-94.5 -121.5t-36.5 -205.5v-451h-199v999zM313 -109h217l-245 -346h-122z" />
    <glyph glyph-name="Rcaron" unicode="&#x158;" horiz-adv-x="1266" 
d="M196 1413h436q135 0 245 -48.5t174 -141t64 -218.5q0 -134 -77.5 -231t-206.5 -136l393 -638h-246l-355 616l-86 -1h-126v-615h-215v1413zM651 791q119 4 185 59.5t66 150.5q0 101 -72 160t-196 59h-221v-429h238zM311 1827h162l149 -155l149 155h163l-312 -324z" />
    <glyph glyph-name="rcaron" unicode="&#x159;" horiz-adv-x="808" 
d="M157 999h201v-182q22 64 66 109.5t100.5 68.5t115.5 23q49 0 94.5 -16t78.5 -48l-94 -170q-52 33 -110 33q-64 0 -122 -39t-94.5 -121.5t-36.5 -205.5v-451h-199v999zM138 1413h162l149 -155l149 155h163l-312 -324z" />
    <glyph glyph-name="Sacute" unicode="&#x15a;" horiz-adv-x="1141" 
d="M347.5 31.5q-111.5 46.5 -188 138t-97.5 221.5l213 54q16 -132 101.5 -200.5t213.5 -68.5q80 0 139.5 27.5t90.5 75t31 106.5q0 68 -40 115.5t-100 78.5t-163 71q-128 50 -206 93t-133.5 118.5t-55.5 190.5q0 116 57 202.5t154.5 132t214.5 45.5q135 0 243 -59.5
t177 -181.5l-178 -110q-41 78 -105 119t-144 41q-57 0 -104 -23t-73.5 -63.5t-26.5 -91.5q0 -60 37.5 -102t94 -70t155.5 -66q132 -52 213.5 -96t139.5 -123.5t58 -201.5q0 -126 -63.5 -221t-173.5 -146.5t-243 -51.5q-127 0 -238.5 46.5zM698 1827h221l-291 -288h-153z" />
    <glyph glyph-name="sacute" unicode="&#x15b;" horiz-adv-x="915" 
d="M270.5 17.5q-85.5 36.5 -145 99t-84.5 139.5l166 73q27 -74 85 -124.5t154 -50.5q60 0 101.5 20t62.5 52t21 68q0 41 -27 66.5t-68 40.5t-114 34q-101 26 -164.5 52.5t-109 82t-45.5 149.5q0 96 49 163.5t131 101.5t181 34q124 0 219 -56t151 -158l-160 -87
q-75 137 -217 137q-71 0 -113.5 -30.5t-42.5 -77.5q0 -35 25.5 -58.5t64.5 -38t107 -33.5q105 -29 172 -58.5t115.5 -90.5t48.5 -163q0 -106 -53 -178.5t-139 -108.5t-186 -36t-185.5 36.5zM558 1413h221l-291 -288h-153z" />
    <glyph glyph-name="Scedilla" unicode="&#x15e;" horiz-adv-x="1141" 
d="M1007 191q-59 -93 -161 -146t-228 -59l-69 -97q29 -3 59 -11q72 -20 110 -67t38 -115q0 -61 -28.5 -110.5t-79 -77.5t-114.5 -28q-74 0 -130.5 38.5t-73.5 115.5l114 48q11 -35 36 -59t59 -24q43 0 68.5 24.5t25.5 65.5q0 51 -47 83t-125 34l-76 1l114 184
q-109 14 -201 64.5t-154.5 135.5t-81.5 200l213 54q16 -132 101.5 -200.5t213.5 -68.5q80 0 139.5 27.5t90.5 75t31 106.5q0 68 -40 115.5t-100 78.5t-163 71q-128 50 -206 93t-133.5 118.5t-55.5 190.5q0 116 57 202.5t154.5 132t214.5 45.5q135 0 243 -59.5t177 -181.5
l-178 -110q-41 78 -105 119t-144 41q-57 0 -104 -23t-73.5 -63.5t-26.5 -91.5q0 -60 37.5 -102t94 -70t155.5 -66q132 -52 213.5 -96t139.5 -123.5t58 -201.5q0 -120 -59 -213z" />
    <glyph glyph-name="scedilla" unicode="&#x15f;" horiz-adv-x="915" 
d="M326.5 687.5q25.5 -23.5 64.5 -38t107 -33.5q105 -29 172 -58.5t115.5 -90.5t48.5 -163q0 -131 -80.5 -211.5t-205.5 -103.5l-72 -100q29 -3 59 -11q72 -20 110 -67t38 -115q0 -61 -28.5 -110.5t-79 -77.5t-114.5 -28q-74 0 -130.5 38.5t-73.5 115.5l114 48
q11 -35 36 -59t59 -24q43 0 68.5 24.5t25.5 65.5q0 51 -47 83t-125 34l-76 1l109 175q-92 6 -170 43.5t-132 97.5t-78 133l166 73q27 -74 85 -124.5t154 -50.5q60 0 101.5 20t62.5 52t21 68q0 41 -27 66.5t-68 40.5t-114 34q-101 26 -164.5 52.5t-109 82t-45.5 149.5
q0 96 49 163.5t131 101.5t181 34q124 0 219 -56t151 -158l-160 -87q-75 137 -217 137q-71 0 -113.5 -30.5t-42.5 -77.5q0 -35 25.5 -58.5z" />
    <glyph glyph-name="Scaron" unicode="&#x160;" horiz-adv-x="1141" 
d="M347.5 31.5q-111.5 46.5 -188 138t-97.5 221.5l213 54q16 -132 101.5 -200.5t213.5 -68.5q80 0 139.5 27.5t90.5 75t31 106.5q0 68 -40 115.5t-100 78.5t-163 71q-128 50 -206 93t-133.5 118.5t-55.5 190.5q0 116 57 202.5t154.5 132t214.5 45.5q135 0 243 -59.5
t177 -181.5l-178 -110q-41 78 -105 119t-144 41q-57 0 -104 -23t-73.5 -63.5t-26.5 -91.5q0 -60 37.5 -102t94 -70t155.5 -66q132 -52 213.5 -96t139.5 -123.5t58 -201.5q0 -126 -63.5 -221t-173.5 -146.5t-243 -51.5q-127 0 -238.5 46.5zM264 1827h162l149 -155l149 155
h163l-312 -324z" />
    <glyph glyph-name="scaron" unicode="&#x161;" horiz-adv-x="915" 
d="M270.5 17.5q-85.5 36.5 -145 99t-84.5 139.5l166 73q27 -74 85 -124.5t154 -50.5q60 0 101.5 20t62.5 52t21 68q0 41 -27 66.5t-68 40.5t-114 34q-101 26 -164.5 52.5t-109 82t-45.5 149.5q0 96 49 163.5t131 101.5t181 34q124 0 219 -56t151 -158l-160 -87
q-75 137 -217 137q-71 0 -113.5 -30.5t-42.5 -77.5q0 -35 25.5 -58.5t64.5 -38t107 -33.5q105 -29 172 -58.5t115.5 -90.5t48.5 -163q0 -106 -53 -178.5t-139 -108.5t-186 -36t-185.5 36.5zM124 1413h162l149 -155l149 155h163l-312 -324z" />
    <glyph glyph-name="uni0162" unicode="&#x162;" horiz-adv-x="1204" 
d="M495 1220h-460v193h1134v-193h-459v-1220h-215v1220zM440.5 -481.5q-56.5 38.5 -73.5 115.5l114 48q11 -35 36 -59t59 -24q43 0 68.5 24.5t25.5 65.5q0 51 -47 83t-125 34l-76 1l119 191h123l-78 -109q29 -3 59 -11q72 -20 110 -67t38 -115q0 -61 -28.5 -110.5t-79 -77.5
t-114.5 -28q-74 0 -130.5 38.5z" />
    <glyph glyph-name="uni0163" unicode="&#x163;" horiz-adv-x="737" 
d="M642 -189q38 -47 38 -115q0 -61 -28.5 -110.5t-79 -77.5t-114.5 -28q-74 0 -130.5 38.5t-73.5 115.5l114 48q11 -35 36 -59t59 -24q43 0 68.5 24.5t25.5 65.5q0 51 -47 83t-125 34l-76 1l112 180q-108 19 -167 95t-59 196v547h-164v174h167v262l203 148v-410h260v-174
h-260v-512q0 -80 33 -114.5t95 -34.5q60 0 131 32l1 -187q-51 -19 -120 -26l-68 -94q29 -3 59 -11q72 -20 110 -67z" />
    <glyph glyph-name="Tcaron" unicode="&#x164;" horiz-adv-x="1204" 
d="M495 1220h-460v193h1134v-193h-459v-1220h-215v1220zM290 1827h162l149 -155l149 155h163l-312 -324z" />
    <glyph glyph-name="tcaron" unicode="&#x165;" horiz-adv-x="737" 
d="M273.5 60q-78.5 79 -78.5 218v547h-164v174h167v262l203 148v-410h260v-174h-260v-512q0 -80 33 -114.5t95 -34.5q60 0 131 32l1 -187q-30 -11 -76 -19.5t-92 -8.5q-141 0 -219.5 79zM632 1563h217l-209 -443h-123z" />
    <glyph glyph-name="Tbar" unicode="&#x166;" horiz-adv-x="1204" 
d="M710 1220v-443h210v-140h-210v-637h-215v637h-210v140h210v443h-460v193h1134v-193h-459z" />
    <glyph glyph-name="tbar" unicode="&#x167;" horiz-adv-x="737" 
d="M401 430v-117q0 -80 33 -114.5t95 -34.5q60 0 131 32l1 -187q-30 -11 -76 -19.5t-92 -8.5q-141 0 -219.5 79t-78.5 218v152h-160v140h160v255h-164v174h167v262l203 148v-410h260v-174h-260v-255h269v-140h-269z" />
    <glyph glyph-name="Utilde" unicode="&#x168;" horiz-adv-x="1387" 
d="M295.5 129q-130.5 148 -130.5 415v869h215v-845q0 -126 29.5 -209t98.5 -126.5t185 -43.5q117 0 186 43.5t99 127t30 210.5v843h215v-859q0 -273 -131.5 -423t-398.5 -150t-397.5 148zM746.5 1547.5q-32.5 13.5 -54 32.5t-47.5 49q-27 31 -46 45.5t-43 14.5
q-37 0 -57.5 -38t-20.5 -107h-120q0 130 54.5 201.5t149.5 71.5q38 0 68.5 -13t51.5 -31t49 -48q29 -31 48.5 -46t43.5 -15q32 0 52.5 39t20.5 107h125q0 -130 -53.5 -203t-145.5 -73q-43 0 -75.5 13.5z" />
    <glyph glyph-name="utilde" unicode="&#x169;" horiz-adv-x="1149" 
d="M285 37q-80 56 -117.5 148t-38.5 203v611h205v-580q0 -114 54.5 -180.5t155.5 -66.5q114 0 178.5 67t64.5 199v561h205v-999h-205v134q-53 -76 -133.5 -114.5t-167.5 -38.5q-121 0 -201 56zM630.5 1133.5q-32.5 13.5 -54 32.5t-47.5 49q-27 31 -46 45.5t-43 14.5
q-37 0 -57.5 -38t-20.5 -107h-120q0 130 54.5 201.5t149.5 71.5q38 0 68.5 -13t51.5 -31t49 -48q29 -31 48.5 -46t43.5 -15q32 0 52.5 39t20.5 107h125q0 -130 -53.5 -203t-145.5 -73q-43 0 -75.5 13.5z" />
    <glyph glyph-name="Umacron" unicode="&#x16a;" horiz-adv-x="1387" 
d="M295.5 129q-130.5 148 -130.5 415v869h215v-845q0 -126 29.5 -209t98.5 -126.5t185 -43.5q117 0 186 43.5t99 127t30 210.5v843h215v-859q0 -273 -131.5 -423t-398.5 -150t-397.5 148zM413 1708h556v-123h-556v123z" />
    <glyph glyph-name="umacron" unicode="&#x16b;" horiz-adv-x="1149" 
d="M285 37q-80 56 -117.5 148t-38.5 203v611h205v-580q0 -114 54.5 -180.5t155.5 -66.5q114 0 178.5 67t64.5 199v561h205v-999h-205v134q-53 -76 -133.5 -114.5t-167.5 -38.5q-121 0 -201 56zM296 1294h556v-123h-556v123z" />
    <glyph glyph-name="Uring" unicode="&#x16e;" horiz-adv-x="1387" 
d="M295.5 129q-130.5 148 -130.5 415v869h215v-845q0 -126 29.5 -209t98.5 -126.5t185 -43.5q117 0 186 43.5t99 127t30 210.5v843h215v-859q0 -273 -131.5 -423t-398.5 -150t-397.5 148zM579 1522q-50 30 -79 80t-29 109t29 109t79.5 79t109.5 29q58 0 108.5 -29
t80.5 -78.5t30 -109.5t-29 -110.5t-79.5 -79.5t-110.5 -29t-110 30zM765 1634.5q30 30.5 30 77.5q0 45 -29 74.5t-77 29.5q-46 0 -75.5 -29.5t-29.5 -74.5q0 -46 30.5 -77t74.5 -31q46 0 76 30.5z" />
    <glyph glyph-name="uring" unicode="&#x16f;" horiz-adv-x="1149" 
d="M285 37q-80 56 -117.5 148t-38.5 203v611h205v-580q0 -114 54.5 -180.5t155.5 -66.5q114 0 178.5 67t64.5 199v561h205v-999h-205v134q-53 -76 -133.5 -114.5t-167.5 -38.5q-121 0 -201 56zM462 1108q-50 30 -79 80t-29 109t29 109t79.5 79t109.5 29q58 0 108.5 -29
t80.5 -78.5t30 -109.5t-29 -110.5t-79.5 -79.5t-110.5 -29t-110 30zM648 1220.5q30 30.5 30 77.5q0 45 -29 74.5t-77 29.5q-46 0 -75.5 -29.5t-29.5 -74.5q0 -46 30.5 -77t74.5 -31q46 0 76 30.5z" />
    <glyph glyph-name="Uhungarumlaut" unicode="&#x170;" horiz-adv-x="1387" 
d="M295.5 129q-130.5 148 -130.5 415v869h215v-845q0 -126 29.5 -209t98.5 -126.5t185 -43.5q117 0 186 43.5t99 127t30 210.5v843h215v-859q0 -273 -131.5 -423t-398.5 -150t-397.5 148zM619 1827h187l-257 -322h-153zM992 1827h221l-291 -322h-152z" />
    <glyph glyph-name="uhungarumlaut" unicode="&#x171;" horiz-adv-x="1149" 
d="M285 37q-80 56 -117.5 148t-38.5 203v611h205v-580q0 -114 54.5 -180.5t155.5 -66.5q114 0 178.5 67t64.5 199v561h205v-999h-205v134q-53 -76 -133.5 -114.5t-167.5 -38.5q-121 0 -201 56zM502 1413h187l-257 -322h-153zM875 1413h221l-291 -322h-152z" />
    <glyph glyph-name="Uogonek" unicode="&#x172;" horiz-adv-x="1387" 
d="M1223 1413v-859q0 -212 -80 -351.5t-242 -191.5q-60 -36 -101.5 -83.5t-41.5 -105.5q0 -99 89 -99q37 0 65.5 16t52.5 49l105 -72q-80 -121 -218 -121q-63 0 -113 25t-78 70t-28 104q0 103 86 187h-26q-267 0 -397.5 148t-130.5 415v869h215v-845q0 -126 29.5 -209
t98.5 -126.5t185 -43.5q117 0 186 43.5t99 127t30 210.5v843h215z" />
    <glyph glyph-name="uogonek" unicode="&#x173;" horiz-adv-x="1149" 
d="M1080 -331q-80 -121 -218 -121q-63 0 -113 25t-78 70t-28 104q0 69 35 123.5t78.5 87.5t69.5 42h-39v134q-53 -76 -133.5 -114.5t-167.5 -38.5q-121 0 -201 56t-117.5 148t-38.5 203v611h205v-580q0 -114 54.5 -180.5t155.5 -66.5q114 0 178.5 67t64.5 199v561h205v-999
q-34 -10 -87 -40.5t-95 -78.5t-42 -106q0 -99 89 -99q37 0 65.5 16t52.5 49z" />
    <glyph glyph-name="Wcircumflex" unicode="&#x174;" horiz-adv-x="1995" 
d="M43 1413h224l315 -1099l331 1019h169l331 -1019l316 1099h223l-418 -1413h-210l-326 994l-327 -994h-210zM998 1853l312 -341h-162l-150 164l-148 -164h-163z" />
    <glyph glyph-name="wcircumflex" unicode="&#x175;" horiz-adv-x="1473" 
d="M25 999h220l187 -684l215 684h179l215 -683l188 683h221l-304 -999h-188l-221 709l-223 -709h-187zM737 1444l312 -341h-162l-150 164l-148 -164h-163z" />
    <glyph glyph-name="Ycircumflex" unicode="&#x176;" horiz-adv-x="1322" 
d="M550 547l-533 866h260l382 -659l384 659h262l-532 -866v-547h-223v547zM658 1858l312 -341h-162l-150 164l-148 -164h-163z" />
    <glyph glyph-name="ycircumflex" unicode="&#x177;" horiz-adv-x="1028" 
d="M410 22l-402 977h227l285 -740l273 740h227l-564 -1428h-226zM511 1444l312 -341h-162l-150 164l-148 -164h-163z" />
    <glyph glyph-name="Ydieresis" unicode="&#x178;" horiz-adv-x="1322" 
d="M550 547l-533 866h260l382 -659l384 659h262l-532 -866v-547h-223v547zM378 1827h174v-218h-174v218zM763 1827h174v-218h-174v218z" />
    <glyph glyph-name="Zacute" unicode="&#x179;" horiz-adv-x="1283" 
d="M1200 1254l-832 -1059h831v-195h-1129v152l835 1063h-789v198h1084v-159zM758 1827h221l-291 -288h-153z" />
    <glyph glyph-name="zacute" unicode="&#x17a;" horiz-adv-x="995" 
d="M922 848l-580 -674h579v-174h-863v140l600 685h-570v174h834v-151zM611 1413h221l-291 -288h-153z" />
    <glyph glyph-name="Zdotaccent" unicode="&#x17b;" horiz-adv-x="1283" 
d="M1200 1254l-832 -1059h831v-195h-1129v152l835 1063h-789v198h1084v-159zM527 1827h217v-218h-217v218z" />
    <glyph glyph-name="zdotaccent" unicode="&#x17c;" horiz-adv-x="995" 
d="M922 848l-580 -674h579v-174h-863v140l600 685h-570v174h834v-151zM380 1413h217v-218h-217v218z" />
    <glyph glyph-name="Zcaron" unicode="&#x17d;" horiz-adv-x="1283" 
d="M1200 1254l-832 -1059h831v-195h-1129v152l835 1063h-789v198h1084v-159zM324 1827h162l149 -155l149 155h163l-312 -324z" />
    <glyph glyph-name="zcaron" unicode="&#x17e;" horiz-adv-x="995" 
d="M922 848l-580 -674h579v-174h-863v140l600 685h-570v174h834v-151zM177 1413h162l149 -155l149 155h163l-312 -324z" />
    <glyph glyph-name="florin" unicode="&#x192;" horiz-adv-x="970" 
d="M95 -285q101 0 158.5 26t83 88t25.5 174v841h-176v155h176v127q0 92 38 164.5t104.5 113t146.5 40.5q65 0 122 -25t117 -76l-113 -132q-38 33 -64.5 46t-61.5 13q-49 0 -81.5 -36.5t-32.5 -107.5v-127h243v-155h-243v-858q0 -220 -112 -324t-330 -104v157z" />
    <glyph glyph-name="uni01C3" unicode="&#x1c3;" horiz-adv-x="587" 
d="M191 1413h205l-24 -995h-157zM181 249h225v-249h-225v249z" />
    <glyph glyph-name="uni01C4" unicode="&#x1c4;" horiz-adv-x="2687" 
d="M196 1413h400q237 0 400.5 -83.5t247 -244t83.5 -389.5q0 -220 -85 -376t-249.5 -238t-398.5 -82h-398v1413zM574 198q261 0 399.5 121t138.5 386q0 179 -54 291t-168 165.5t-297 53.5h-182v-1017h163zM2604 1254l-832 -1059h831v-195h-1129v152l835 1063h-789v198h1084
v-159zM1728 1827h162l149 -155l149 155h163l-312 -324z" />
    <glyph glyph-name="uni01C5" unicode="&#x1c5;" horiz-adv-x="2425" 
d="M196 1413h400q237 0 400.5 -83.5t247 -244t83.5 -389.5q0 -220 -85 -376t-249.5 -238t-398.5 -82h-398v1413zM574 198q261 0 399.5 121t138.5 386q0 179 -54 291t-168 165.5t-297 53.5h-182v-1017h163zM2352 848l-580 -674h579v-174h-863v140l600 685h-570v174h834v-151z
M1607 1413h162l149 -155l149 155h163l-312 -324z" />
    <glyph glyph-name="uni01C6" unicode="&#x1c6;" horiz-adv-x="2181" 
d="M278 51q-99 70 -151 188.5t-52 260.5q0 141 52 259.5t150 188.5t231 70q95 0 177.5 -41t131.5 -118v554h210v-1413h-193l-8 151q-50 -83 -133 -126.5t-182 -43.5q-134 0 -233 70zM710.5 212q61.5 43 92.5 117.5t31 170.5q0 95 -31 169.5t-92.5 117.5t-149.5 43
t-150.5 -43.5t-94 -118t-31.5 -168.5q0 -95 31.5 -170t94 -118t150.5 -43t149.5 43zM2108 848l-580 -674h579v-174h-863v140l600 685h-570v174h834v-151zM1363 1413h162l149 -155l149 155h163l-312 -324z" />
    <glyph glyph-name="uni01C7" unicode="&#x1c7;" horiz-adv-x="2252" 
d="M196 1413h215v-1210h618v-203h-833v1413zM1378 40.5q-103 59.5 -161.5 162t-67.5 228.5l211 24q10 -123 74.5 -198.5t182.5 -75.5q96 0 151 37t77.5 108t22.5 182v707h-546v198h761v-901q0 -246 -113 -388.5t-353 -142.5q-136 0 -239 59.5z" />
    <glyph glyph-name="uni01C8" unicode="&#x1c8;" horiz-adv-x="1603" 
d="M196 1413h215v-1210h618v-203h-833v1413zM1232 1413h218v-218h-218v218zM1074 -427.5q-48 9.5 -81 23.5l53 179q58 -24 97 -24q48 0 71 30t23 92v1126h208v-1111q0 -145 -71 -235t-211 -90q-41 0 -89 9.5z" />
    <glyph glyph-name="uni01C9" unicode="&#x1c9;" horiz-adv-x="1092" 
d="M202.5 32.5q-51.5 51.5 -51.5 170.5v1210h206v-1154q0 -45 21 -68.5t69 -23.5q25 0 72 7l1 -174q-93 -19 -168 -19q-98 0 -149.5 51.5zM721 1413h218v-218h-218v218zM563 -427.5q-48 9.5 -81 23.5l53 179q58 -24 97 -24q48 0 71 30t23 92v1126h208v-1111q0 -145 -71 -235
t-211 -90q-41 0 -89 9.5z" />
    <glyph glyph-name="uni01CA" unicode="&#x1ca;" horiz-adv-x="2595" 
d="M1249 1413v-1413h-217l-629 1060v-1060h-207v1413h216l631 -1056v1056h206zM1722 40.5q-103 59.5 -161.5 162t-67.5 228.5l211 24q10 -123 74.5 -198.5t182.5 -75.5q96 0 151 37t77.5 108t22.5 182v707h-546v198h761v-901q0 -246 -113 -388.5t-353 -142.5
q-136 0 -239 59.5z" />
    <glyph glyph-name="uni01CB" unicode="&#x1cb;" horiz-adv-x="1972" 
d="M1249 1413v-1413h-217l-629 1060v-1060h-207v1413h216l631 -1056v1056h206zM1601 1413h218v-218h-218v218zM1443 -427.5q-48 9.5 -81 23.5l53 179q58 -24 97 -24q48 0 71 30t23 92v1126h208v-1111q0 -145 -71 -235t-211 -90q-41 0 -89 9.5z" />
    <glyph glyph-name="uni01CC" unicode="&#x1cc;" horiz-adv-x="1677" 
d="M157 999h206v-134q53 76 133 114.5t167 38.5q120 0 200.5 -56t118.5 -148t39 -203v-611h-206v580q0 113 -54.5 180t-155.5 67q-114 0 -178 -67t-64 -199v-561h-206v999zM1305 1413h218v-218h-218v218zM1147 -427.5q-48 9.5 -81 23.5l53 179q58 -24 97 -24q48 0 71 30
t23 92v1126h208v-1111q0 -145 -71 -235t-211 -90q-41 0 -89 9.5z" />
    <glyph glyph-name="uni01CD" unicode="&#x1cd;" horiz-adv-x="1329" 
d="M583 1413h165l550 -1413h-232l-115 318h-568l-117 -318h-235zM883 503l-216 597l-217 -597h433zM352 1827h162l149 -155l149 155h163l-312 -324z" />
    <glyph glyph-name="uni01CE" unicode="&#x1ce;" horiz-adv-x="1057" 
d="M736 967q95 -51 144.5 -143.5t49.5 -215.5v-608h-170l-14 156q-48 -84 -138.5 -129.5t-190.5 -45.5q-103 0 -183.5 38t-126.5 110.5t-46 171.5q0 152 107.5 220t296.5 68h278q-2 89 -24 142.5t-71.5 79.5t-136.5 26q-86 0 -148.5 -40t-104.5 -108l-158 114
q76 105 174.5 160t235.5 55q131 0 226 -51zM597.5 191q60.5 34 97.5 91t48 126v31h-266q-100 0 -152.5 -40t-52.5 -104q0 -63 48.5 -100.5t137.5 -37.5q79 0 139.5 34zM190 1413h162l149 -155l149 155h163l-312 -324z" />
    <glyph glyph-name="uni01CF" unicode="&#x1cf;" horiz-adv-x="608" 
d="M196 1413h215v-1413h-215v1413zM-9 1827h162l149 -155l149 155h163l-312 -324z" />
    <glyph glyph-name="uni01D0" unicode="&#x1d0;" horiz-adv-x="520" 
d="M157 999h206v-999h-206v999zM-52 1413h162l149 -155l149 155h163l-312 -324z" />
    <glyph glyph-name="uni01D1" unicode="&#x1d1;" horiz-adv-x="1538" 
d="M398 79.5q-151 98.5 -225.5 263.5t-74.5 364t74.5 363.5t225.5 263t371 98.5t371 -98.5t225.5 -263t74.5 -363.5t-74.5 -364t-225.5 -263.5t-371 -98.5t-371 98.5zM1021.5 244q99.5 72 145.5 192.5t46 270.5t-46 270.5t-145.5 192t-252.5 71.5t-252.5 -71.5t-145.5 -192
t-46 -270.5t46 -270.5t145.5 -192.5t252.5 -72t252.5 72zM456 1827h162l149 -155l149 155h163l-312 -324z" />
    <glyph glyph-name="uni01D2" unicode="&#x1d2;" horiz-adv-x="1138" 
d="M306.5 51q-114.5 70 -177.5 189.5t-63 261.5q0 141 63 259.5t177.5 187.5t261.5 69t261.5 -69t178 -187.5t63.5 -259.5q0 -142 -63.5 -261.5t-178 -189.5t-261.5 -70t-261.5 70zM727 206q65 46 97 123.5t32 172.5q0 94 -32 170.5t-97 121.5t-159 45t-158.5 -45
t-96.5 -121.5t-32 -170.5q0 -95 32 -172.5t96.5 -123.5t158.5 -46t159 46zM256 1413h162l149 -155l149 155h163l-312 -324z" />
    <glyph glyph-name="uni01D3" unicode="&#x1d3;" horiz-adv-x="1387" 
d="M295.5 129q-130.5 148 -130.5 415v869h215v-845q0 -126 29.5 -209t98.5 -126.5t185 -43.5q117 0 186 43.5t99 127t30 210.5v843h215v-859q0 -273 -131.5 -423t-398.5 -150t-397.5 148zM379 1827h162l149 -155l149 155h163l-312 -324z" />
    <glyph glyph-name="uni01D4" unicode="&#x1d4;" horiz-adv-x="1149" 
d="M285 37q-80 56 -117.5 148t-38.5 203v611h205v-580q0 -114 54.5 -180.5t155.5 -66.5q114 0 178.5 67t64.5 199v561h205v-999h-205v134q-53 -76 -133.5 -114.5t-167.5 -38.5q-121 0 -201 56zM262 1413h162l149 -155l149 155h163l-312 -324z" />
    <glyph glyph-name="uni01D5" unicode="&#x1d5;" horiz-adv-x="1387" 
d="M295.5 129q-130.5 148 -130.5 415v869h215v-845q0 -126 29.5 -209t98.5 -126.5t185 -43.5q117 0 186 43.5t99 127t30 210.5v843h215v-859q0 -273 -131.5 -423t-398.5 -150t-397.5 148zM410 1827h174v-218h-174v218zM795 1827h174v-218h-174v218zM413 2121h556v-123h-556
v123z" />
    <glyph glyph-name="uni01D6" unicode="&#x1d6;" horiz-adv-x="1149" 
d="M285 37q-80 56 -117.5 148t-38.5 203v611h205v-580q0 -114 54.5 -180.5t155.5 -66.5q114 0 178.5 67t64.5 199v561h205v-999h-205v134q-53 -76 -133.5 -114.5t-167.5 -38.5q-121 0 -201 56zM293 1413h174v-218h-174v218zM678 1413h174v-218h-174v218zM296 1708h556v-123
h-556v123z" />
    <glyph glyph-name="uni01D7" unicode="&#x1d7;" horiz-adv-x="1387" 
d="M295.5 129q-130.5 148 -130.5 415v869h215v-845q0 -126 29.5 -209t98.5 -126.5t185 -43.5q117 0 186 43.5t99 127t30 210.5v843h215v-859q0 -273 -131.5 -423t-398.5 -150t-397.5 148zM410 1827h174v-218h-174v218zM795 1827h174v-218h-174v218zM812 2240h221l-291 -288
h-153z" />
    <glyph glyph-name="uni01D8" unicode="&#x1d8;" horiz-adv-x="1149" 
d="M285 37q-80 56 -117.5 148t-38.5 203v611h205v-580q0 -114 54.5 -180.5t155.5 -66.5q114 0 178.5 67t64.5 199v561h205v-999h-205v134q-53 -76 -133.5 -114.5t-167.5 -38.5q-121 0 -201 56zM293 1413h174v-218h-174v218zM678 1413h174v-218h-174v218zM696 1827h221
l-291 -288h-153z" />
    <glyph glyph-name="uni01D9" unicode="&#x1d9;" horiz-adv-x="1387" 
d="M295.5 129q-130.5 148 -130.5 415v869h215v-845q0 -126 29.5 -209t98.5 -126.5t185 -43.5q117 0 186 43.5t99 127t30 210.5v843h215v-859q0 -273 -131.5 -423t-398.5 -150t-397.5 148zM410 1827h174v-218h-174v218zM795 1827h174v-218h-174v218zM379 2240h162l149 -155
l149 155h163l-312 -324z" />
    <glyph glyph-name="uni01DA" unicode="&#x1da;" horiz-adv-x="1149" 
d="M285 37q-80 56 -117.5 148t-38.5 203v611h205v-580q0 -114 54.5 -180.5t155.5 -66.5q114 0 178.5 67t64.5 199v561h205v-999h-205v134q-53 -76 -133.5 -114.5t-167.5 -38.5q-121 0 -201 56zM293 1413h174v-218h-174v218zM678 1413h174v-218h-174v218zM262 1827h162
l149 -155l149 155h163l-312 -324z" />
    <glyph glyph-name="uni01DB" unicode="&#x1db;" horiz-adv-x="1387" 
d="M295.5 129q-130.5 148 -130.5 415v869h215v-845q0 -126 29.5 -209t98.5 -126.5t185 -43.5q117 0 186 43.5t99 127t30 210.5v843h215v-859q0 -273 -131.5 -423t-398.5 -150t-397.5 148zM410 1827h174v-218h-174v218zM795 1827h174v-218h-174v218zM343 2240h221l223 -305
h-152z" />
    <glyph glyph-name="uni01DC" unicode="&#x1dc;" horiz-adv-x="1149" 
d="M285 37q-80 56 -117.5 148t-38.5 203v611h205v-580q0 -114 54.5 -180.5t155.5 -66.5q114 0 178.5 67t64.5 199v561h205v-999h-205v134q-53 -76 -133.5 -114.5t-167.5 -38.5q-121 0 -201 56zM293 1413h174v-218h-174v218zM678 1413h174v-218h-174v218zM226 1827h221
l223 -305h-152z" />
    <glyph glyph-name="uni01DD" unicode="&#x1dd;" horiz-adv-x="1071" 
d="M777 948.5q111 -69.5 167 -186.5t56 -258q0 -139 -53.5 -258.5t-161 -192t-261.5 -72.5q-161 0 -262.5 73.5t-146 185.5t-44.5 231q0 28 2.5 55t5.5 38h703q-14 126 -82.5 196t-193.5 70q-77 0 -139.5 -26t-118.5 -87l-142 125q83 90 180.5 133t220.5 43q159 0 270 -69.5
zM275 414q-1 -33 6 -63q16 -88 80 -142t165 -54q112 0 175.5 70t80.5 189h-507z" />
    <glyph glyph-name="uni01EB" unicode="&#x1eb;" horiz-adv-x="1138" 
d="M595 -53q-47 -30 -81.5 -74.5t-34.5 -97.5q0 -99 89 -99q37 0 65.5 16t52.5 49l105 -72q-80 -121 -218 -121q-63 0 -113 25t-78 70t-28 104q0 82 47 142.5t104 95.5q-130 15 -230 87t-154.5 185t-54.5 245q0 141 63 259.5t177.5 187.5t261.5 69t261.5 -69t178 -187.5
t63.5 -259.5q0 -123 -48 -229.5t-136 -180t-204 -99.5q-41 -16 -88 -46zM313 329.5q32 -77.5 96.5 -123.5t158.5 -46t159 46t97 123.5t32 172.5q0 94 -32 170.5t-97 121.5t-159 45t-158.5 -45t-96.5 -121.5t-32 -170.5q0 -95 32 -172.5z" />
    <glyph glyph-name="uni01F1" unicode="&#x1f1;" horiz-adv-x="2687" 
d="M196 1413h400q237 0 400.5 -83.5t247 -244t83.5 -389.5q0 -220 -85 -376t-249.5 -238t-398.5 -82h-398v1413zM574 198q261 0 399.5 121t138.5 386q0 179 -54 291t-168 165.5t-297 53.5h-182v-1017h163zM2604 1254l-832 -1059h831v-195h-1129v152l835 1063h-789v198h1084
v-159z" />
    <glyph glyph-name="uni01F2" unicode="&#x1f2;" horiz-adv-x="2425" 
d="M196 1413h400q237 0 400.5 -83.5t247 -244t83.5 -389.5q0 -220 -85 -376t-249.5 -238t-398.5 -82h-398v1413zM574 198q261 0 399.5 121t138.5 386q0 179 -54 291t-168 165.5t-297 53.5h-182v-1017h163zM2352 848l-580 -674h579v-174h-863v140l600 685h-570v174h834v-151z
" />
    <glyph glyph-name="uni01F3" unicode="&#x1f3;" horiz-adv-x="2181" 
d="M278 51q-99 70 -151 188.5t-52 260.5q0 141 52 259.5t150 188.5t231 70q95 0 177.5 -41t131.5 -118v554h210v-1413h-193l-8 151q-50 -83 -133 -126.5t-182 -43.5q-134 0 -233 70zM710.5 212q61.5 43 92.5 117.5t31 170.5q0 95 -31 169.5t-92.5 117.5t-149.5 43
t-150.5 -43.5t-94 -118t-31.5 -168.5q0 -95 31.5 -170t94 -118t150.5 -43t149.5 43zM2108 848l-580 -674h579v-174h-863v140l600 685h-570v174h834v-151z" />
    <glyph glyph-name="Oslashacute" unicode="&#x1fe;" horiz-adv-x="1538" 
d="M1379.5 1038q60.5 -152 60.5 -331q0 -199 -74.5 -364t-225.5 -263.5t-371 -98.5q-181 0 -323 71l-32 -52h-156l77 126q-117 99 -177 251t-60 330q0 199 74.5 363.5t225.5 263t371 98.5q182 0 322 -70l31 51h155l-76 -124q118 -99 178.5 -251zM355 483q30 -103 91 -175
l540 883q-92 50 -217 50q-153 0 -252.5 -71.5t-145.5 -192t-46 -270.5q0 -121 30 -224zM1021.5 244q99.5 72 145.5 192.5t46 270.5q0 122 -30.5 225t-92.5 175l-540 -884q93 -51 219 -51q153 0 252.5 72zM890 1827h221l-291 -288h-153z" />
    <glyph glyph-name="oslashacute" unicode="&#x1ff;" horiz-adv-x="1138" 
d="M1020 736.5q51 -108.5 51 -234.5q0 -142 -63.5 -261.5t-178 -189.5t-261.5 -70q-126 0 -229 53l-21 -34h-110l51 84q-91 72 -142 181.5t-51 236.5q0 141 63 259.5t177.5 187.5t261.5 69q124 0 230 -52l21 34h110l-51 -84q91 -71 142 -179.5zM301 361.5
q20 -65.5 60 -111.5l341 559q-58 30 -134 30q-94 0 -158.5 -45t-96.5 -121.5t-32 -170.5q0 -75 20 -140.5zM727 206q65 46 97 123.5t32 172.5q0 74 -20 138t-60 110l-341 -559q57 -31 133 -31q94 0 159 46zM690 1413h221l-291 -288h-153z" />
    <glyph glyph-name="uni0218" unicode="&#x218;" horiz-adv-x="1141" 
d="M347.5 31.5q-111.5 46.5 -188 138t-97.5 221.5l213 54q16 -132 101.5 -200.5t213.5 -68.5q80 0 139.5 27.5t90.5 75t31 106.5q0 68 -40 115.5t-100 78.5t-163 71q-128 50 -206 93t-133.5 118.5t-55.5 190.5q0 116 57 202.5t154.5 132t214.5 45.5q135 0 243 -59.5
t177 -181.5l-178 -110q-41 78 -105 119t-144 41q-57 0 -104 -23t-73.5 -63.5t-26.5 -91.5q0 -60 37.5 -102t94 -70t155.5 -66q132 -52 213.5 -96t139.5 -123.5t58 -201.5q0 -126 -63.5 -221t-173.5 -146.5t-243 -51.5q-127 0 -238.5 46.5zM475 -109h217l-245 -346h-122z" />
    <glyph glyph-name="uni0219" unicode="&#x219;" horiz-adv-x="915" 
d="M270.5 17.5q-85.5 36.5 -145 99t-84.5 139.5l166 73q27 -74 85 -124.5t154 -50.5q60 0 101.5 20t62.5 52t21 68q0 41 -27 66.5t-68 40.5t-114 34q-101 26 -164.5 52.5t-109 82t-45.5 149.5q0 96 49 163.5t131 101.5t181 34q124 0 219 -56t151 -158l-160 -87
q-75 137 -217 137q-71 0 -113.5 -30.5t-42.5 -77.5q0 -35 25.5 -58.5t64.5 -38t107 -33.5q105 -29 172 -58.5t115.5 -90.5t48.5 -163q0 -106 -53 -178.5t-139 -108.5t-186 -36t-185.5 36.5zM402 -109h217l-245 -346h-122z" />
    <glyph glyph-name="uni021A" unicode="&#x21a;" horiz-adv-x="1204" 
d="M495 1220h-460v193h1134v-193h-459v-1220h-215v1220zM512 -109h217l-245 -346h-122z" />
    <glyph glyph-name="uni021B" unicode="&#x21b;" horiz-adv-x="737" 
d="M273.5 60q-78.5 79 -78.5 218v547h-164v174h167v262l203 148v-410h260v-174h-260v-512q0 -80 33 -114.5t95 -34.5q60 0 131 32l1 -187q-30 -11 -76 -19.5t-92 -8.5q-141 0 -219.5 79zM398 -109h217l-245 -346h-122z" />
    <glyph glyph-name="uni0237" unicode="&#x237;" horiz-adv-x="527" 
d="M-3 -427.5q-48 9.5 -81 23.5l53 179q58 -24 97 -24q48 0 71 30t23 92v1126h208v-1111q0 -145 -71 -235t-211 -90q-41 0 -89 9.5z" />
    <glyph glyph-name="uni0250" unicode="&#x250;" horiz-adv-x="1057" 
d="M694.5 202q62.5 40 104.5 108l158 -114q-76 -105 -174.5 -160t-235.5 -55q-131 0 -226 51t-144.5 143.5t-49.5 215.5v608h170l14 -156q48 84 138.5 129.5t190.5 45.5q103 0 183.5 -38t126.5 -110.5t46 -171.5q0 -152 -107.5 -220t-296.5 -68h-278q2 -89 24 -142.5
t71.5 -79.5t136.5 -26q86 0 148.5 40zM459.5 808q-60.5 -34 -97.5 -91t-48 -126v-31h266q100 0 152.5 40t52.5 104q0 63 -48.5 100.5t-137.5 37.5q-79 0 -139.5 -34z" />
    <glyph glyph-name="uni0254" unicode="&#x254;" horiz-adv-x="1008" 
d="M212 57.5q-108 76.5 -157 213.5l188 71q24 -79 83.5 -126t140.5 -47q88 0 146.5 45t86 120t27.5 164q0 88 -27.5 163.5t-86 122t-146.5 46.5q-80 0 -140 -48t-86 -128l-196 76q55 142 165 215t257 73q151 0 257.5 -73t159.5 -192t53 -255q0 -139 -54 -257t-161 -189
t-257 -71q-145 0 -253 76.5z" />
    <glyph glyph-name="uni0258" unicode="&#x258;" horiz-adv-x="1071" 
d="M286.5 24q-97.5 43 -180.5 133l142 125q56 -61 118.5 -87t139.5 -26q125 0 193.5 70t82.5 196h-703q-3 11 -5.5 38t-2.5 55q0 119 44.5 231t146 185.5t262.5 73.5q154 0 261.5 -72.5t161 -192t53.5 -258.5q0 -141 -56 -258t-167 -186.5t-270 -69.5q-123 0 -220.5 43z
M701.5 774q-63.5 70 -175.5 70q-101 0 -165 -54t-80 -142q-7 -30 -6 -63h507q-17 119 -80.5 189z" />
    <glyph glyph-name="uni0259" unicode="&#x259;" horiz-adv-x="1071" 
d="M777 948.5q111 -69.5 167 -186.5t56 -258q0 -139 -53.5 -258.5t-161 -192t-261.5 -72.5q-161 0 -262.5 73.5t-146 185.5t-44.5 231q0 28 2.5 55t5.5 38h703q-14 126 -82.5 196t-193.5 70q-77 0 -139.5 -26t-118.5 -87l-142 125q83 90 180.5 133t220.5 43q159 0 270 -69.5
zM275 414q-1 -33 6 -63q16 -88 80 -142t165 -54q112 0 175.5 70t80.5 189h-507z" />
    <glyph glyph-name="uni0261" unicode="&#x261;" horiz-adv-x="1172" 
d="M287 -413.5q-109 60.5 -177 166.5l158 115q36 -70 110 -116t175 -46q122 0 189 75.5t67 228.5v148q-50 -78 -130.5 -119t-175.5 -41q-134 0 -233 69.5t-151.5 186.5t-52.5 255q0 137 52 253.5t150.5 186t230.5 69.5q95 0 177.5 -41t132.5 -118v140h208v-989
q0 -153 -56 -262t-161 -165.5t-250 -56.5q-154 0 -263 60.5zM702 230.5q62 41.5 93 114t31 164.5q0 90 -31 163t-93 115.5t-150 42.5t-150 -43t-94 -116t-32 -162q0 -91 32 -163.5t94 -114.5t150 -42t150 41.5z" />
    <glyph glyph-name="circumflex" unicode="&#x2c6;" horiz-adv-x="673" 
d="M336 1444l312 -341h-162l-150 164l-148 -164h-163z" />
    <glyph glyph-name="caron" unicode="&#x2c7;" horiz-adv-x="679" 
d="M29 1413h162l149 -155l149 155h163l-312 -324z" />
    <glyph glyph-name="uni02D0" unicode="&#x2d0;" horiz-adv-x="567" 
d="M40 999l483 8l-235 -461zM280 453l247 -453l-483 -8z" />
    <glyph glyph-name="uni02D1" unicode="&#x2d1;" horiz-adv-x="572" 
d="M43 677l483 8l-236 -463z" />
    <glyph glyph-name="breve" unicode="&#x2d8;" horiz-adv-x="826" 
d="M101 1413h147q0 -72 45 -109t120 -37q77 0 121 37.5t44 108.5h147q0 -269 -312 -269t-312 269z" />
    <glyph glyph-name="dotaccent" unicode="&#x2d9;" horiz-adv-x="521" 
d="M152 1413h217v-218h-217v218z" />
    <glyph glyph-name="ring" unicode="&#x2da;" horiz-adv-x="635" 
d="M207 1108q-50 30 -79 80t-29 109t29 109t79.5 79t109.5 29q58 0 108.5 -29t80.5 -78.5t30 -109.5t-29 -110.5t-79.5 -79.5t-110.5 -29t-110 30zM393 1220.5q30 30.5 30 77.5q0 45 -29 74.5t-77 29.5q-46 0 -75.5 -29.5t-29.5 -74.5q0 -46 30.5 -77t74.5 -31q46 0 76 30.5
z" />
    <glyph glyph-name="ogonek" unicode="&#x2db;" horiz-adv-x="588" 
d="M202 -427q-50 25 -78 70t-28 104q0 71 37 127t83 89.5t67 37.5l162 -1q-34 -10 -87 -40.5t-95 -78.5t-42 -106q0 -99 89 -99q37 0 65.5 16t52.5 49l105 -72q-80 -121 -218 -121q-63 0 -113 25z" />
    <glyph glyph-name="tilde" unicode="&#x2dc;" horiz-adv-x="885" 
d="M498.5 1150.5q-32.5 13.5 -54 32.5t-47.5 49q-27 31 -46 45.5t-43 14.5q-37 0 -57.5 -38t-20.5 -107h-120q0 130 54.5 201.5t149.5 71.5q38 0 68.5 -13t51.5 -31t49 -48q29 -31 48.5 -46t43.5 -15q32 0 52.5 39t20.5 107h125q0 -130 -53.5 -203t-145.5 -73
q-43 0 -75.5 13.5z" />
    <glyph glyph-name="hungarumlaut" unicode="&#x2dd;" horiz-adv-x="897" 
d="M271 1413h187l-257 -322h-153zM644 1413h221l-291 -322h-152z" />
    <glyph glyph-name="uni02F5" unicode="&#x2f5;" horiz-adv-x="1109" 
d="M110 999h221l224 -320h-153zM537 999h221l226 -320h-153z" />
    <glyph glyph-name="uni02F6" unicode="&#x2f6;" horiz-adv-x="1109" 
d="M125 679l226 320h221l-294 -320h-153zM554 679l224 320h221l-292 -320h-153z" />
    <glyph glyph-name="gravecomb" unicode="&#x300;" 
d="M-491 1413h221l223 -305h-152z" />
    <glyph glyph-name="acutecomb" unicode="&#x301;" 
d="M-256 1413h221l-291 -288h-153z" />
    <glyph glyph-name="uni0302" unicode="&#x302;" 
d="M-337 1444l312 -341h-162l-150 164l-148 -164h-163z" />
    <glyph glyph-name="tildecomb" unicode="&#x303;" 
d="M-386.5 1150.5q-32.5 13.5 -54 32.5t-47.5 49q-27 31 -46 45.5t-43 14.5q-37 0 -57.5 -38t-20.5 -107h-120q0 130 54.5 201.5t149.5 71.5q38 0 68.5 -13t51.5 -31t49 -48q29 -31 48.5 -46t43.5 -15q32 0 52.5 39t20.5 107h125q0 -130 -53.5 -203t-145.5 -73
q-43 0 -75.5 13.5z" />
    <glyph glyph-name="uni0304" unicode="&#x304;" 
d="M-705 1294h556v-123h-556v123z" />
    <glyph glyph-name="uni0306" unicode="&#x306;" 
d="M-725 1413h147q0 -72 45 -109t120 -37q77 0 121 37.5t44 108.5h147q0 -269 -312 -269t-312 269z" />
    <glyph glyph-name="uni0307" unicode="&#x307;" 
d="M-369 1413h217v-218h-217v218z" />
    <glyph glyph-name="uni0308" unicode="&#x308;" 
d="M-711 1413h174v-218h-174v218zM-326 1413h174v-218h-174v218z" />
    <glyph glyph-name="uni030A" unicode="&#x30a;" 
d="M-428 1108q-50 30 -79 80t-29 109t29 109t79.5 79t109.5 29q58 0 108.5 -29t80.5 -78.5t30 -109.5t-29 -110.5t-79.5 -79.5t-110.5 -29t-110 30zM-242 1220.5q30 30.5 30 77.5q0 45 -29 74.5t-77 29.5q-46 0 -75.5 -29.5t-29.5 -74.5q0 -46 30.5 -77t74.5 -31
q46 0 76 30.5z" />
    <glyph glyph-name="uni030B" unicode="&#x30b;" 
d="M-626 1413h187l-257 -322h-153zM-253 1413h221l-291 -322h-152z" />
    <glyph glyph-name="uni030C" unicode="&#x30c;" 
d="M-650 1413h162l149 -155l149 155h163l-312 -324z" />
    <glyph glyph-name="uni030F" unicode="&#x30f;" 
d="M-574 1091l-291 322h221l222 -322h-152zM-201 1091l-257 322h187l223 -322h-153z" />
    <glyph glyph-name="uni0312" unicode="&#x312;" 
d="M-234 1121h-217l245 310h122z" />
    <glyph glyph-name="uni031B" unicode="&#x31b;" 
d="M-410 1139q79 0 112 50t33 123v101h157v-86q0 -147 -74.5 -236t-227.5 -89v137z" />
    <glyph glyph-name="uni0326" unicode="&#x326;" 
d="M-259 -109h217l-245 -346h-122z" />
    <glyph glyph-name="uni0327" unicode="&#x327;" 
d="M-437.5 -481.5q-56.5 38.5 -73.5 115.5l114 48q11 -35 36 -59t59 -24q43 0 68.5 24.5t25.5 65.5q0 51 -47 83t-125 34l-76 1l119 191h123l-78 -109q29 -3 59 -11q72 -20 110 -67t38 -115q0 -61 -28.5 -110.5t-79 -77.5t-114.5 -28q-74 0 -130.5 38.5z" />
    <glyph glyph-name="uni0328" unicode="&#x328;" 
d="M-386 -427q-50 25 -78 70t-28 104q0 71 37 127t83 89.5t67 37.5l162 -1q-34 -10 -87 -40.5t-95 -78.5t-42 -106q0 -99 89 -99q37 0 65.5 16t52.5 49l105 -72q-80 -121 -218 -121q-63 0 -113 25z" />
    <glyph glyph-name="uni0337" unicode="&#x337;" 
d="M-631 488l602 680v-229l-602 -681v230z" />
    <glyph glyph-name="tonos" unicode="&#x384;" horiz-adv-x="443" 
d="M179 1413h170l-122 -288h-101z" />
    <glyph glyph-name="dieresistonos" unicode="&#x385;" horiz-adv-x="688" 
d="M54 1413h174v-218h-174v218zM439 1413h174v-218h-174v218zM333 1827h170l-122 -288h-101z" />
    <glyph glyph-name="uni03BC" unicode="&#x3bc;" horiz-adv-x="1296" 
d="M236 999h205v-580q0 -114 54.5 -180.5t155.5 -66.5q114 0 178.5 67t64.5 199v561h205v-999h-205v134q-53 -76 -133.5 -114.5t-167.5 -38.5q-120 0 -190 65v-381h-167v1334z" />
    <glyph glyph-name="pi" unicode="&#x3c0;" horiz-adv-x="1027" 
d="M687.5 66.5q-60.5 85.5 -60.5 238.5v520h-275v-825h-174v825h-90v174h804v-174h-91v-493q0 -197 71 -197q26 0 51 15l55 -137q-54 -32 -120 -32q-110 0 -170.5 85.5z" />
    <glyph glyph-name="uni0483" unicode="&#x483;" 
d="M-973 1901h635v132h212v-328h-640v-134h-207v330z" />
    <glyph glyph-name="Wgrave" unicode="&#x1e80;" horiz-adv-x="1995" 
d="M43 1413h224l315 -1099l331 1019h169l331 -1019l316 1099h223l-418 -1413h-210l-326 994l-327 -994h-210zM651 1822h221l223 -305h-152z" />
    <glyph glyph-name="wgrave" unicode="&#x1e81;" horiz-adv-x="1473" 
d="M25 999h220l187 -684l215 684h179l215 -683l188 683h221l-304 -999h-188l-221 709l-223 -709h-187zM390 1413h221l223 -305h-152z" />
    <glyph glyph-name="Wacute" unicode="&#x1e82;" horiz-adv-x="1995" 
d="M43 1413h224l315 -1099l331 1019h169l331 -1019l316 1099h223l-418 -1413h-210l-326 994l-327 -994h-210zM1121 1822h221l-291 -288h-153z" />
    <glyph glyph-name="wacute" unicode="&#x1e83;" horiz-adv-x="1473" 
d="M25 999h220l187 -684l215 684h179l215 -683l188 683h221l-304 -999h-188l-221 709l-223 -709h-187zM860 1413h221l-291 -288h-153z" />
    <glyph glyph-name="Wdieresis" unicode="&#x1e84;" horiz-adv-x="1995" 
d="M43 1413h224l315 -1099l331 1019h169l331 -1019l316 1099h223l-418 -1413h-210l-326 994l-327 -994h-210zM718 1822h174v-218h-174v218zM1103 1822h174v-218h-174v218z" />
    <glyph glyph-name="wdieresis" unicode="&#x1e85;" horiz-adv-x="1473" 
d="M25 999h220l187 -684l215 684h179l215 -683l188 683h221l-304 -999h-188l-221 709l-223 -709h-187zM458 1413h174v-218h-174v218zM843 1413h174v-218h-174v218z" />
    <glyph glyph-name="uni1EA4" unicode="&#x1ea4;" horiz-adv-x="1329" 
d="M583 1413h165l550 -1413h-232l-115 318h-568l-117 -318h-235zM883 503l-216 597l-217 -597h433zM663 1858l312 -341h-162l-150 164l-148 -164h-163zM786 2239h221l-291 -288h-153z" />
    <glyph glyph-name="uni1EA5" unicode="&#x1ea5;" horiz-adv-x="1057" 
d="M736 967q95 -51 144.5 -143.5t49.5 -215.5v-608h-170l-14 156q-48 -84 -138.5 -129.5t-190.5 -45.5q-103 0 -183.5 38t-126.5 110.5t-46 171.5q0 152 107.5 220t296.5 68h278q-2 89 -24 142.5t-71.5 79.5t-136.5 26q-86 0 -148.5 -40t-104.5 -108l-158 114
q76 105 174.5 160t235.5 55q131 0 226 -51zM597.5 191q60.5 34 97.5 91t48 126v31h-266q-100 0 -152.5 -40t-52.5 -104q0 -63 48.5 -100.5t137.5 -37.5q79 0 139.5 34zM501 1444l312 -341h-162l-150 164l-148 -164h-163zM624 1825h221l-291 -288h-153z" />
    <glyph glyph-name="uni1EA6" unicode="&#x1ea6;" horiz-adv-x="1329" 
d="M583 1413h165l550 -1413h-232l-115 318h-568l-117 -318h-235zM883 503l-216 597l-217 -597h433zM663 1858l312 -341h-162l-150 164l-148 -164h-163zM316 2239h221l223 -305h-152z" />
    <glyph glyph-name="uni1EA7" unicode="&#x1ea7;" horiz-adv-x="1057" 
d="M736 967q95 -51 144.5 -143.5t49.5 -215.5v-608h-170l-14 156q-48 -84 -138.5 -129.5t-190.5 -45.5q-103 0 -183.5 38t-126.5 110.5t-46 171.5q0 152 107.5 220t296.5 68h278q-2 89 -24 142.5t-71.5 79.5t-136.5 26q-86 0 -148.5 -40t-104.5 -108l-158 114
q76 105 174.5 160t235.5 55q131 0 226 -51zM597.5 191q60.5 34 97.5 91t48 126v31h-266q-100 0 -152.5 -40t-52.5 -104q0 -63 48.5 -100.5t137.5 -37.5q79 0 139.5 34zM501 1444l312 -341h-162l-150 164l-148 -164h-163zM155 1825h221l223 -305h-152z" />
    <glyph glyph-name="uni1EAA" unicode="&#x1eaa;" horiz-adv-x="1329" 
d="M583 1413h165l550 -1413h-232l-115 318h-568l-117 -318h-235zM883 503l-216 597l-217 -597h433zM663 1858l312 -341h-162l-150 164l-148 -164h-163zM720.5 1959.5q-32.5 13.5 -54 32.5t-47.5 49q-27 31 -46 45.5t-43 14.5q-37 0 -57.5 -38t-20.5 -107h-120
q0 130 54.5 201.5t149.5 71.5q38 0 68.5 -13t51.5 -31t49 -48q29 -31 48.5 -46t43.5 -15q32 0 52.5 39t20.5 107h125q0 -130 -53.5 -203t-145.5 -73q-43 0 -75.5 13.5z" />
    <glyph glyph-name="uni1EAB" unicode="&#x1eab;" horiz-adv-x="1057" 
d="M736 967q95 -51 144.5 -143.5t49.5 -215.5v-608h-170l-14 156q-48 -84 -138.5 -129.5t-190.5 -45.5q-103 0 -183.5 38t-126.5 110.5t-46 171.5q0 152 107.5 220t296.5 68h278q-2 89 -24 142.5t-71.5 79.5t-136.5 26q-86 0 -148.5 -40t-104.5 -108l-158 114
q76 105 174.5 160t235.5 55q131 0 226 -51zM597.5 191q60.5 34 97.5 91t48 126v31h-266q-100 0 -152.5 -40t-52.5 -104q0 -63 48.5 -100.5t137.5 -37.5q79 0 139.5 34zM501 1444l312 -341h-162l-150 164l-148 -164h-163zM558.5 1545.5q-32.5 13.5 -54 32.5t-47.5 49
q-27 31 -46 45.5t-43 14.5q-37 0 -57.5 -38t-20.5 -107h-120q0 130 54.5 201.5t149.5 71.5q38 0 68.5 -13t51.5 -31t49 -48q29 -31 48.5 -46t43.5 -15q32 0 52.5 39t20.5 107h125q0 -130 -53.5 -203t-145.5 -73q-43 0 -75.5 13.5z" />
    <glyph glyph-name="uni1EAE" unicode="&#x1eae;" horiz-adv-x="1329" 
d="M583 1413h165l550 -1413h-232l-115 318h-568l-117 -318h-235zM883 503l-216 597l-217 -597h433zM352 1827h147q0 -72 45 -109t120 -37q77 0 121 37.5t44 108.5h147q0 -269 -312 -269t-312 269zM786 2240h221l-291 -288h-153z" />
    <glyph glyph-name="uni1EAF" unicode="&#x1eaf;" horiz-adv-x="1057" 
d="M736 967q95 -51 144.5 -143.5t49.5 -215.5v-608h-170l-14 156q-48 -84 -138.5 -129.5t-190.5 -45.5q-103 0 -183.5 38t-126.5 110.5t-46 171.5q0 152 107.5 220t296.5 68h278q-2 89 -24 142.5t-71.5 79.5t-136.5 26q-86 0 -148.5 -40t-104.5 -108l-158 114
q76 105 174.5 160t235.5 55q131 0 226 -51zM597.5 191q60.5 34 97.5 91t48 126v31h-266q-100 0 -152.5 -40t-52.5 -104q0 -63 48.5 -100.5t137.5 -37.5q79 0 139.5 34zM190 1413h147q0 -72 45 -109t120 -37q77 0 121 37.5t44 108.5h147q0 -269 -312 -269t-312 269zM624 1827
h221l-291 -288h-153z" />
    <glyph glyph-name="uni1EB0" unicode="&#x1eb0;" horiz-adv-x="1329" 
d="M583 1413h165l550 -1413h-232l-115 318h-568l-117 -318h-235zM883 503l-216 597l-217 -597h433zM352 1827h147q0 -72 45 -109t120 -37q77 0 121 37.5t44 108.5h147q0 -269 -312 -269t-312 269zM316 2240h221l223 -305h-152z" />
    <glyph glyph-name="uni1EB1" unicode="&#x1eb1;" horiz-adv-x="1057" 
d="M736 967q95 -51 144.5 -143.5t49.5 -215.5v-608h-170l-14 156q-48 -84 -138.5 -129.5t-190.5 -45.5q-103 0 -183.5 38t-126.5 110.5t-46 171.5q0 152 107.5 220t296.5 68h278q-2 89 -24 142.5t-71.5 79.5t-136.5 26q-86 0 -148.5 -40t-104.5 -108l-158 114
q76 105 174.5 160t235.5 55q131 0 226 -51zM597.5 191q60.5 34 97.5 91t48 126v31h-266q-100 0 -152.5 -40t-52.5 -104q0 -63 48.5 -100.5t137.5 -37.5q79 0 139.5 34zM190 1413h147q0 -72 45 -109t120 -37q77 0 121 37.5t44 108.5h147q0 -269 -312 -269t-312 269zM155 1827
h221l223 -305h-152z" />
    <glyph glyph-name="uni1EB4" unicode="&#x1eb4;" horiz-adv-x="1329" 
d="M583 1413h165l550 -1413h-232l-115 318h-568l-117 -318h-235zM883 503l-216 597l-217 -597h433zM352 1827h147q0 -72 45 -109t120 -37q77 0 121 37.5t44 108.5h147q0 -269 -312 -269t-312 269zM720.5 1960.5q-32.5 13.5 -54 32.5t-47.5 49q-27 31 -46 45.5t-43 14.5
q-37 0 -57.5 -38t-20.5 -107h-120q0 130 54.5 201.5t149.5 71.5q38 0 68.5 -13t51.5 -31t49 -48q29 -31 48.5 -46t43.5 -15q32 0 52.5 39t20.5 107h125q0 -130 -53.5 -203t-145.5 -73q-43 0 -75.5 13.5z" />
    <glyph glyph-name="uni1EB5" unicode="&#x1eb5;" horiz-adv-x="1057" 
d="M736 967q95 -51 144.5 -143.5t49.5 -215.5v-608h-170l-14 156q-48 -84 -138.5 -129.5t-190.5 -45.5q-103 0 -183.5 38t-126.5 110.5t-46 171.5q0 152 107.5 220t296.5 68h278q-2 89 -24 142.5t-71.5 79.5t-136.5 26q-86 0 -148.5 -40t-104.5 -108l-158 114
q76 105 174.5 160t235.5 55q131 0 226 -51zM597.5 191q60.5 34 97.5 91t48 126v31h-266q-100 0 -152.5 -40t-52.5 -104q0 -63 48.5 -100.5t137.5 -37.5q79 0 139.5 34zM190 1413h147q0 -72 45 -109t120 -37q77 0 121 37.5t44 108.5h147q0 -269 -312 -269t-312 269z
M558.5 1547.5q-32.5 13.5 -54 32.5t-47.5 49q-27 31 -46 45.5t-43 14.5q-37 0 -57.5 -38t-20.5 -107h-120q0 130 54.5 201.5t149.5 71.5q38 0 68.5 -13t51.5 -31t49 -48q29 -31 48.5 -46t43.5 -15q32 0 52.5 39t20.5 107h125q0 -130 -53.5 -203t-145.5 -73q-43 0 -75.5 13.5
z" />
    <glyph glyph-name="uni1EBC" unicode="&#x1ebc;" horiz-adv-x="1255" 
d="M196 1413h935v-198h-720v-408h662v-198h-662v-406h720v-203h-935v1413zM720.5 1547.5q-32.5 13.5 -54 32.5t-47.5 49q-27 31 -46 45.5t-43 14.5q-37 0 -57.5 -38t-20.5 -107h-120q0 130 54.5 201.5t149.5 71.5q38 0 68.5 -13t51.5 -31t49 -48q29 -31 48.5 -46t43.5 -15
q32 0 52.5 39t20.5 107h125q0 -130 -53.5 -203t-145.5 -73q-43 0 -75.5 13.5z" />
    <glyph glyph-name="uni1EBD" unicode="&#x1ebd;" horiz-adv-x="1071" 
d="M294 50.5q-111 69.5 -167 186.5t-56 258q0 139 53.5 258.5t161 192t261.5 72.5q161 0 262.5 -73.5t146 -185.5t44.5 -231q0 -28 -2.5 -55t-5.5 -38h-703q14 -126 82.5 -196t193.5 -70q77 0 139.5 26t118.5 87l142 -125q-83 -90 -180.5 -133t-220.5 -43q-159 0 -270 69.5z
M796 585q2 33 -6 63q-16 88 -80 142t-165 54q-112 0 -175.5 -70t-80.5 -189h507zM586.5 1133.5q-32.5 13.5 -54 32.5t-47.5 49q-27 31 -46 45.5t-43 14.5q-37 0 -57.5 -38t-20.5 -107h-120q0 130 54.5 201.5t149.5 71.5q38 0 68.5 -13t51.5 -31t49 -48q29 -31 48.5 -46
t43.5 -15q32 0 52.5 39t20.5 107h125q0 -130 -53.5 -203t-145.5 -73q-43 0 -75.5 13.5z" />
    <glyph glyph-name="uni1EBE" unicode="&#x1ebe;" horiz-adv-x="1255" 
d="M196 1413h935v-198h-720v-408h662v-198h-662v-406h720v-203h-935v1413zM663 1858l312 -341h-162l-150 164l-148 -164h-163zM786 2239h221l-291 -288h-153z" />
    <glyph glyph-name="uni1EBF" unicode="&#x1ebf;" horiz-adv-x="1071" 
d="M294 50.5q-111 69.5 -167 186.5t-56 258q0 139 53.5 258.5t161 192t261.5 72.5q161 0 262.5 -73.5t146 -185.5t44.5 -231q0 -28 -2.5 -55t-5.5 -38h-703q14 -126 82.5 -196t193.5 -70q77 0 139.5 26t118.5 87l142 -125q-83 -90 -180.5 -133t-220.5 -43q-159 0 -270 69.5z
M796 585q2 33 -6 63q-16 88 -80 142t-165 54q-112 0 -175.5 -70t-80.5 -189h507zM529 1444l312 -341h-162l-150 164l-148 -164h-163zM652 1825h221l-291 -288h-153z" />
    <glyph glyph-name="uni1EC0" unicode="&#x1ec0;" horiz-adv-x="1255" 
d="M196 1413h935v-198h-720v-408h662v-198h-662v-406h720v-203h-935v1413zM663 1858l312 -341h-162l-150 164l-148 -164h-163zM316 2239h221l223 -305h-152z" />
    <glyph glyph-name="uni1EC1" unicode="&#x1ec1;" horiz-adv-x="1071" 
d="M294 50.5q-111 69.5 -167 186.5t-56 258q0 139 53.5 258.5t161 192t261.5 72.5q161 0 262.5 -73.5t146 -185.5t44.5 -231q0 -28 -2.5 -55t-5.5 -38h-703q14 -126 82.5 -196t193.5 -70q77 0 139.5 26t118.5 87l142 -125q-83 -90 -180.5 -133t-220.5 -43q-159 0 -270 69.5z
M796 585q2 33 -6 63q-16 88 -80 142t-165 54q-112 0 -175.5 -70t-80.5 -189h507zM529 1444l312 -341h-162l-150 164l-148 -164h-163zM182 1825h221l223 -305h-152z" />
    <glyph glyph-name="uni1EC4" unicode="&#x1ec4;" horiz-adv-x="1255" 
d="M196 1413h935v-198h-720v-408h662v-198h-662v-406h720v-203h-935v1413zM663 1858l312 -341h-162l-150 164l-148 -164h-163zM720.5 1959.5q-32.5 13.5 -54 32.5t-47.5 49q-27 31 -46 45.5t-43 14.5q-37 0 -57.5 -38t-20.5 -107h-120q0 130 54.5 201.5t149.5 71.5
q38 0 68.5 -13t51.5 -31t49 -48q29 -31 48.5 -46t43.5 -15q32 0 52.5 39t20.5 107h125q0 -130 -53.5 -203t-145.5 -73q-43 0 -75.5 13.5z" />
    <glyph glyph-name="uni1EC5" unicode="&#x1ec5;" horiz-adv-x="1071" 
d="M294 50.5q-111 69.5 -167 186.5t-56 258q0 139 53.5 258.5t161 192t261.5 72.5q161 0 262.5 -73.5t146 -185.5t44.5 -231q0 -28 -2.5 -55t-5.5 -38h-703q14 -126 82.5 -196t193.5 -70q77 0 139.5 26t118.5 87l142 -125q-83 -90 -180.5 -133t-220.5 -43q-159 0 -270 69.5z
M796 585q2 33 -6 63q-16 88 -80 142t-165 54q-112 0 -175.5 -70t-80.5 -189h507zM529 1444l312 -341h-162l-150 164l-148 -164h-163zM586.5 1545.5q-32.5 13.5 -54 32.5t-47.5 49q-27 31 -46 45.5t-43 14.5q-37 0 -57.5 -38t-20.5 -107h-120q0 130 54.5 201.5t149.5 71.5
q38 0 68.5 -13t51.5 -31t49 -48q29 -31 48.5 -46t43.5 -15q32 0 52.5 39t20.5 107h125q0 -130 -53.5 -203t-145.5 -73q-43 0 -75.5 13.5z" />
    <glyph glyph-name="uni1ED0" unicode="&#x1ed0;" horiz-adv-x="1538" 
d="M398 79.5q-151 98.5 -225.5 263.5t-74.5 364t74.5 363.5t225.5 263t371 98.5t371 -98.5t225.5 -263t74.5 -363.5t-74.5 -364t-225.5 -263.5t-371 -98.5t-371 98.5zM1021.5 244q99.5 72 145.5 192.5t46 270.5t-46 270.5t-145.5 192t-252.5 71.5t-252.5 -71.5t-145.5 -192
t-46 -270.5t46 -270.5t145.5 -192.5t252.5 -72t252.5 72zM767 1858l312 -341h-162l-150 164l-148 -164h-163zM890 2239h221l-291 -288h-153z" />
    <glyph glyph-name="uni1ED1" unicode="&#x1ed1;" horiz-adv-x="1138" 
d="M306.5 51q-114.5 70 -177.5 189.5t-63 261.5q0 141 63 259.5t177.5 187.5t261.5 69t261.5 -69t178 -187.5t63.5 -259.5q0 -142 -63.5 -261.5t-178 -189.5t-261.5 -70t-261.5 70zM727 206q65 46 97 123.5t32 172.5q0 94 -32 170.5t-97 121.5t-159 45t-158.5 -45
t-96.5 -121.5t-32 -170.5q0 -95 32 -172.5t96.5 -123.5t158.5 -46t159 46zM567 1444l312 -341h-162l-150 164l-148 -164h-163zM690 1825h221l-291 -288h-153z" />
    <glyph glyph-name="uni1ED2" unicode="&#x1ed2;" horiz-adv-x="1538" 
d="M398 79.5q-151 98.5 -225.5 263.5t-74.5 364t74.5 363.5t225.5 263t371 98.5t371 -98.5t225.5 -263t74.5 -363.5t-74.5 -364t-225.5 -263.5t-371 -98.5t-371 98.5zM1021.5 244q99.5 72 145.5 192.5t46 270.5t-46 270.5t-145.5 192t-252.5 71.5t-252.5 -71.5t-145.5 -192
t-46 -270.5t46 -270.5t145.5 -192.5t252.5 -72t252.5 72zM767 1858l312 -341h-162l-150 164l-148 -164h-163zM420 2239h221l223 -305h-152z" />
    <glyph glyph-name="uni1ED3" unicode="&#x1ed3;" horiz-adv-x="1138" 
d="M306.5 51q-114.5 70 -177.5 189.5t-63 261.5q0 141 63 259.5t177.5 187.5t261.5 69t261.5 -69t178 -187.5t63.5 -259.5q0 -142 -63.5 -261.5t-178 -189.5t-261.5 -70t-261.5 70zM727 206q65 46 97 123.5t32 172.5q0 94 -32 170.5t-97 121.5t-159 45t-158.5 -45
t-96.5 -121.5t-32 -170.5q0 -95 32 -172.5t96.5 -123.5t158.5 -46t159 46zM567 1444l312 -341h-162l-150 164l-148 -164h-163zM220 1825h221l223 -305h-152z" />
    <glyph glyph-name="uni1ED6" unicode="&#x1ed6;" horiz-adv-x="1538" 
d="M398 79.5q-151 98.5 -225.5 263.5t-74.5 364t74.5 363.5t225.5 263t371 98.5t371 -98.5t225.5 -263t74.5 -363.5t-74.5 -364t-225.5 -263.5t-371 -98.5t-371 98.5zM1021.5 244q99.5 72 145.5 192.5t46 270.5t-46 270.5t-145.5 192t-252.5 71.5t-252.5 -71.5t-145.5 -192
t-46 -270.5t46 -270.5t145.5 -192.5t252.5 -72t252.5 72zM767 1858l312 -341h-162l-150 164l-148 -164h-163zM824.5 1959.5q-32.5 13.5 -54 32.5t-47.5 49q-27 31 -46 45.5t-43 14.5q-37 0 -57.5 -38t-20.5 -107h-120q0 130 54.5 201.5t149.5 71.5q38 0 68.5 -13t51.5 -31
t49 -48q29 -31 48.5 -46t43.5 -15q32 0 52.5 39t20.5 107h125q0 -130 -53.5 -203t-145.5 -73q-43 0 -75.5 13.5z" />
    <glyph glyph-name="uni1ED7" unicode="&#x1ed7;" horiz-adv-x="1138" 
d="M306.5 51q-114.5 70 -177.5 189.5t-63 261.5q0 141 63 259.5t177.5 187.5t261.5 69t261.5 -69t178 -187.5t63.5 -259.5q0 -142 -63.5 -261.5t-178 -189.5t-261.5 -70t-261.5 70zM727 206q65 46 97 123.5t32 172.5q0 94 -32 170.5t-97 121.5t-159 45t-158.5 -45
t-96.5 -121.5t-32 -170.5q0 -95 32 -172.5t96.5 -123.5t158.5 -46t159 46zM567 1444l312 -341h-162l-150 164l-148 -164h-163zM624.5 1545.5q-32.5 13.5 -54 32.5t-47.5 49q-27 31 -46 45.5t-43 14.5q-37 0 -57.5 -38t-20.5 -107h-120q0 130 54.5 201.5t149.5 71.5
q38 0 68.5 -13t51.5 -31t49 -48q29 -31 48.5 -46t43.5 -15q32 0 52.5 39t20.5 107h125q0 -130 -53.5 -203t-145.5 -73q-43 0 -75.5 13.5z" />
    <glyph glyph-name="Ygrave" unicode="&#x1ef2;" horiz-adv-x="1322" 
d="M550 547l-533 866h260l382 -659l384 659h262l-532 -866v-547h-223v547zM311 1827h221l223 -305h-152z" />
    <glyph glyph-name="ygrave" unicode="&#x1ef3;" horiz-adv-x="1028" 
d="M410 22l-402 977h227l285 -740l273 740h227l-564 -1428h-226zM164 1413h221l223 -305h-152z" />
    <glyph glyph-name="uni1EF8" unicode="&#x1ef8;" horiz-adv-x="1322" 
d="M550 547l-533 866h260l382 -659l384 659h262l-532 -866v-547h-223v547zM715.5 1547.5q-32.5 13.5 -54 32.5t-47.5 49q-27 31 -46 45.5t-43 14.5q-37 0 -57.5 -38t-20.5 -107h-120q0 130 54.5 201.5t149.5 71.5q38 0 68.5 -13t51.5 -31t49 -48q29 -31 48.5 -46t43.5 -15
q32 0 52.5 39t20.5 107h125q0 -130 -53.5 -203t-145.5 -73q-43 0 -75.5 13.5z" />
    <glyph glyph-name="uni1EF9" unicode="&#x1ef9;" horiz-adv-x="1028" 
d="M410 22l-402 977h227l285 -740l273 740h227l-564 -1428h-226zM568.5 1133.5q-32.5 13.5 -54 32.5t-47.5 49q-27 31 -46 45.5t-43 14.5q-37 0 -57.5 -38t-20.5 -107h-120q0 130 54.5 201.5t149.5 71.5q38 0 68.5 -13t51.5 -31t49 -48q29 -31 48.5 -46t43.5 -15
q32 0 52.5 39t20.5 107h125q0 -130 -53.5 -203t-145.5 -73q-43 0 -75.5 13.5z" />
    <glyph glyph-name="endash" unicode="&#x2013;" horiz-adv-x="1055" 
d="M151 686h753v-157h-753v157z" />
    <glyph glyph-name="emdash" unicode="&#x2014;" horiz-adv-x="2048" 
d="M0 686h2048v-157h-2048v157z" />
    <glyph glyph-name="uni2015" unicode="&#x2015;" horiz-adv-x="1547" 
d="M151 686h1245v-157h-1245v157z" />
    <glyph glyph-name="quoteleft" unicode="&#x2018;" horiz-adv-x="579" 
d="M328 843l-258 571h237l160 -571h-139z" />
    <glyph glyph-name="quoteright" unicode="&#x2019;" horiz-adv-x="579" 
d="M272 1414h237l-258 -571h-139z" />
    <glyph glyph-name="quotesinglbase" unicode="&#x201a;" horiz-adv-x="579" 
d="M272 264h237l-258 -571h-139z" />
    <glyph glyph-name="quotedblleft" unicode="&#x201c;" horiz-adv-x="951" 
d="M328 843l-258 571h237l160 -571h-139zM700 843l-258 571h237l160 -571h-139z" />
    <glyph glyph-name="quotedblright" unicode="&#x201d;" horiz-adv-x="951" 
d="M272 1414h237l-258 -571h-139zM644 1414h237l-258 -571h-139z" />
    <glyph glyph-name="quotedblbase" unicode="&#x201e;" horiz-adv-x="968" 
d="M272 264h237l-258 -571h-139zM661 264h237l-258 -571h-139z" />
    <glyph glyph-name="dagger" unicode="&#x2020;" horiz-adv-x="799" 
d="M306 835h-231v188h231v390h188v-390h230v-188h-230v-1040h-188v1040z" />
    <glyph glyph-name="daggerdbl" unicode="&#x2021;" horiz-adv-x="901" 
d="M357 185h-231v188h231v462h-231v188h231v390h187v-390h231v-188h-231v-462h231v-188h-231v-390h-187v390z" />
    <glyph glyph-name="bullet" unicode="&#x2022;" horiz-adv-x="789" 
d="M276 276q-55 32 -87 86.5t-32 118.5t32 119t87 87t119 32t118.5 -32t86.5 -87t32 -119t-32 -118.5t-86.5 -86.5t-118.5 -32t-119 32z" />
    <glyph glyph-name="uni2023" unicode="&#x2023;" horiz-adv-x="909" 
d="M220 884l620 -360l-620 -361v721z" />
    <glyph glyph-name="twodotenleader" unicode="&#x2025;" horiz-adv-x="1054" 
d="M216 250h208v-250h-208v250zM630 250h208v-250h-208v250z" />
    <glyph glyph-name="ellipsis" unicode="&#x2026;" horiz-adv-x="1468" 
d="M216 250h208v-250h-208v250zM630 250h208v-250h-208v250zM1043 250h209v-250h-209v250z" />
    <glyph glyph-name="perthousand" unicode="&#x2030;" horiz-adv-x="2104" 
d="M235.5 827q-64.5 43 -99.5 117.5t-35 164.5q0 89 34 163t97.5 117t147.5 43q80 0 144.5 -42.5t101 -116.5t36.5 -166q0 -91 -36 -164.5t-99 -116t-141 -42.5q-86 0 -150.5 43zM1074 1413h147l-833 -1413h-147zM456 947.5q31 23.5 48.5 65t17.5 94.5q0 81 -38.5 133
t-103.5 52q-66 0 -102.5 -51.5t-36.5 -131.5q0 -81 38 -133t107 -52q39 0 70 23.5zM933.5 24q-64.5 43 -99.5 117.5t-35 164.5q0 89 34 163t97.5 117t147.5 43q80 0 144.5 -42.5t101 -116.5t36.5 -166q0 -91 -36 -164.5t-99 -116t-141 -42.5q-86 0 -150.5 43zM1575.5 24
q-64.5 43 -99 117.5t-34.5 164.5q0 89 34 163t97.5 117t146.5 43q81 0 145.5 -42.5t101 -116.5t36.5 -166q0 -91 -36 -165t-99 -116t-142 -42q-86 0 -150.5 43zM1154 144.5q31 23.5 48.5 65t17.5 94.5q0 81 -38.5 133t-103.5 52q-66 0 -102.5 -51.5t-36.5 -131.5
q0 -81 38 -133t107 -52q39 0 70 23.5zM1796.5 144.5q31.5 23.5 49 65t17.5 94.5q0 81 -39 133t-104 52t-101.5 -51.5t-36.5 -131.5q0 -81 38 -133t106 -52q39 0 70.5 23.5z" />
    <glyph glyph-name="uni2031" unicode="&#x2031;" horiz-adv-x="2746" 
d="M235.5 827q-64.5 43 -99.5 117.5t-35 164.5q0 89 34 163t97.5 117t147.5 43q80 0 144.5 -42.5t101 -116.5t36.5 -166q0 -91 -36 -164.5t-99 -116t-141 -42.5q-86 0 -150.5 43zM1074 1413h147l-833 -1413h-147zM456 947.5q31 23.5 48.5 65t17.5 94.5q0 81 -38.5 133
t-103.5 52q-66 0 -102.5 -51.5t-36.5 -131.5q0 -81 38 -133t107 -52q39 0 70 23.5zM933.5 24q-64.5 43 -99.5 117.5t-35 164.5q0 89 34 163t97.5 117t147.5 43q80 0 144.5 -42.5t101 -116.5t36.5 -166q0 -91 -36 -164.5t-99 -116t-141 -42.5q-86 0 -150.5 43zM1575.5 24
q-64.5 43 -99 117.5t-34.5 164.5q0 89 34 163t97.5 117t146.5 43q81 0 145.5 -42.5t101 -116.5t36.5 -166q0 -91 -36 -165t-99 -116t-142 -42q-86 0 -150.5 43zM2218.5 24q-64.5 43 -99.5 117.5t-35 164.5q0 89 34 163t97.5 117t146.5 43q81 0 145.5 -42.5t101 -116.5
t36.5 -166q0 -91 -36 -164.5t-99 -116t-141 -42.5q-86 0 -150.5 43zM1154 144.5q31 23.5 48.5 65t17.5 94.5q0 81 -38.5 133t-103.5 52q-66 0 -102.5 -51.5t-36.5 -131.5q0 -81 38 -133t107 -52q39 0 70 23.5zM1796.5 144.5q31.5 23.5 49 65t17.5 94.5q0 81 -39 133t-104 52
t-101.5 -51.5t-36.5 -131.5q0 -81 38 -133t106 -52q39 0 70.5 23.5zM2439 144.5q31 23.5 48.5 65t17.5 94.5q0 81 -38.5 133t-104.5 52q-65 0 -101.5 -51.5t-36.5 -131.5q0 -81 38 -133t107 -52q39 0 70 23.5z" />
    <glyph glyph-name="guilsinglleft" unicode="&#x2039;" horiz-adv-x="601" 
d="M37 510l418 352v-181l-206 -171l206 -169v-181z" />
    <glyph glyph-name="guilsinglright" unicode="&#x203a;" horiz-adv-x="601" 
d="M146 341l206 169l-206 171v181l418 -352l-418 -350v181z" />
    <glyph glyph-name="fraction" unicode="&#x2044;" horiz-adv-x="314" 
d="M500 1413h147l-833 -1413h-147z" />
    <glyph glyph-name="Euro" unicode="&#x20ac;" horiz-adv-x="1307" 
d="M557 45.5q-108 64.5 -174.5 173.5t-94.5 247h-173l68 154h84q-3 30 -3 87q0 25 2 73l1 25h-152l68 159h106q30 134 96.5 240t173 168t249.5 62q252 0 398 -202l-133 -105q-87 143 -263 143q-137 0 -221 -81.5t-114 -224.5h521l-68 -155h-480q-5 -52 -5 -89q0 -36 4 -94
h549l-68 -153h-453q29 -144 114.5 -233.5t220.5 -89.5q83 0 146 36t112 102l126 -123q-145 -184 -384 -184q-145 0 -253 64.5z" />
    <glyph glyph-name="uni20B1" unicode="&#x20b1;" horiz-adv-x="1366" 
d="M1280 963h-95q-9 -116 -73 -198.5t-171.5 -125t-245.5 -42.5h-211v-597h-214v963h-124v89h124v361h425q134 0 240 -42.5t171 -124t77 -194.5h97v-89zM484 1052h484q-16 78 -84.5 119t-188.5 41h-211v-160zM890.5 839.5q67.5 41.5 79.5 123.5h-486v-165h211
q128 0 195.5 41.5z" />
    <glyph glyph-name="uni20B3" unicode="&#x20b3;" horiz-adv-x="1637" 
d="M288 267h-129v185h202l60 156h-262v185h337l241 620h165l241 -620h335v-185h-262l60 -156h202v-185h-129l103 -267h-232l-97 267h-607l-97 -267h-234zM931 793l-111 307l-110 -307h221zM1055 452l-56 156h-357l-57 -156h470z" />
    <glyph glyph-name="uni20B4" unicode="&#x20b4;" horiz-adv-x="1464" 
d="M1319 958v-150h-1175v150h764q40 46 40 105q0 51 -27 91.5t-74 63.5t-104 23q-80 0 -144 -41t-104 -119l-179 110q68 122 177 181.5t243 59.5q117 0 214.5 -45.5t155 -132t57.5 -202.5q0 -50 -14 -94h170zM144 681h1175v-150h-777q-37 -30 -57 -67.5t-20 -87.5
q0 -62 34.5 -107t96 -69t140.5 -24q112 0 190.5 56.5t105.5 162.5l211 -48q-30 -117 -106.5 -198.5t-184 -122.5t-230.5 -41q-130 0 -238 45.5t-171 129t-63 191.5q0 103 64 180h-170v150z" />
    <glyph glyph-name="uni20B8" unicode="&#x20b8;" horiz-adv-x="1403" 
d="M135 1413h1133v-176h-1133v176zM594 897h-459v176h1133v-176h-459v-897h-215v897z" />
    <glyph glyph-name="uni20BD" unicode="&#x20bd;" horiz-adv-x="1362" 
d="M330 280h-179v167h179v167h-179v184h179v615h425q144 0 255 -49t173.5 -142t62.5 -221q0 -127 -61.5 -214t-172.5 -130t-257 -43h-211v-167h330v-167h-330v-280h-214v280zM755 798q278 0 278 203q0 102 -69.5 156.5t-208.5 54.5h-211v-414h211z" />
    <glyph glyph-name="uni2116" unicode="&#x2116;" horiz-adv-x="2374" 
d="M1043 1413h206v-1413h-217l-629 1060v-1060h-207v1413h216l631 -1054v1054zM1642.5 384q-94.5 58 -147 157t-52.5 217q0 117 52.5 215t147 155.5t216.5 57.5q121 0 216 -57.5t148 -155.5t53 -215q0 -118 -53 -217t-148 -157t-216 -58q-122 0 -216.5 58zM1727 1000.5
q-54 -37.5 -80.5 -101t-26.5 -141.5q0 -79 26.5 -143.5t80.5 -102.5t132 -38t132 38.5t81 103t27 142.5t-27 141.5t-81 101t-132 37.5t-132 -37.5zM1450 157h801v-157h-801v157z" />
    <glyph glyph-name="trademark" unicode="&#x2122;" horiz-adv-x="1274" 
d="M214 1294h-149v119h427v-119h-149v-417h-129v417zM602 1413h212l93 -336l93 336h208v-536h-130v401l-129 -390h-82l-135 392v-403h-130v536z" />
    <glyph glyph-name="uni2126" unicode="&#x2126;" horiz-adv-x="1670" 
d="M1519 166v-166h-567v180q110 20 192 93t126.5 188.5t44.5 259.5q0 97 -30.5 186.5t-83.5 145.5q-69 75 -168.5 119.5t-198.5 44.5q-98 0 -196.5 -44.5t-169.5 -119.5q-53 -55 -84 -144.5t-31 -187.5q0 -142 44.5 -256.5t126.5 -188.5t192 -96v-180h-567v172h328
q-92 64 -161 154.5t-106.5 194t-37.5 207.5q0 124 46.5 245.5t125.5 204.5q93 98 225.5 155.5t264.5 57.5t265 -58t226 -156q79 -83 125 -205.5t46 -248.5q0 -110 -35 -215.5t-100 -194t-152 -147.5h310z" />
    <glyph glyph-name="arrowleft" unicode="&#x2190;" horiz-adv-x="2306" 
d="M61 639l1054 583l70 -137l-660 -368l1692 -2v-157l-1693 2l661 -371l-70 -137z" />
    <glyph glyph-name="arrowright" unicode="&#x2192;" horiz-adv-x="2306" 
d="M1121 189l661 371l-1693 -2v157l1692 2l-660 368l70 137l1054 -583l-1054 -587z" />
    <glyph glyph-name="partialdiff" unicode="&#x2202;" horiz-adv-x="1307" 
d="M329.5 46.5q-102.5 58.5 -157 162.5t-54.5 237q0 162 74.5 291t198 201t265.5 72q164 0 297 -147q2 83 -16 144q-23 134 -98 202t-187 68q-82 0 -152.5 -39t-108.5 -133l-152 48q52 131 165 203t266 72q167 0 276.5 -85t162 -235.5t52.5 -349.5q0 -222 -69 -396.5
t-202 -274t-318 -99.5q-140 0 -242.5 58.5zM775.5 219.5q81.5 53.5 127 139t50.5 178.5q3 78 -25.5 147.5t-90.5 113t-156 43.5q-116 0 -200.5 -55.5t-128 -145.5t-43.5 -192q0 -90 37 -154t99.5 -96t138.5 -32q110 0 191.5 53.5z" />
    <glyph glyph-name="uni2206" unicode="&#x2206;" horiz-adv-x="1315" 
d="M657 1481l592 -1481h-1182zM995 174l-338 883l-336 -883h674z" />
    <glyph glyph-name="product" unicode="&#x220f;" horiz-adv-x="1345" 
d="M252 1239h-90v174h1021v-174h-89v-1239h-174v1239h-494v-1239h-174v1239z" />
    <glyph glyph-name="summation" unicode="&#x2211;" horiz-adv-x="1303" 
d="M1179 1217h-735l504 -510l-504 -511h735v-196h-1079v105l568 602l-568 601v105h1079v-196z" />
    <glyph glyph-name="minus" unicode="&#x2212;" horiz-adv-x="1253" 
d="M230 707h793v-157h-793v157z" />
    <glyph glyph-name="radical" unicode="&#x221a;" horiz-adv-x="1227" 
d="M227 546h-155v175h280l162 -479l462 1171h186l-659 -1619z" />
    <glyph glyph-name="infinity" unicode="&#x221e;" horiz-adv-x="1932" 
d="M338.5 403.5q-88.5 48.5 -136.5 134.5t-48 196q0 109 48 195t136.5 134.5t207.5 48.5q112 0 222 -62.5t196 -174.5q89 113 199.5 175t221.5 62q119 0 207.5 -48.5t136.5 -134.5t48 -195q0 -110 -48 -196t-136.5 -134.5t-207.5 -48.5q-112 0 -222 62t-199 175
q-87 -113 -197 -175t-221 -62q-119 0 -207.5 48.5zM727 577q82 55 144 157q-64 103 -144.5 156.5t-154.5 53.5q-105 0 -169 -56.5t-64 -153.5t64 -154.5t169 -57.5q73 0 155 55zM1481 548q53 26 82.5 73.5t29.5 112.5q0 64 -29.5 111.5t-82.5 73t-122 25.5
q-74 0 -156.5 -55.5t-146.5 -154.5q65 -101 147 -156.5t156 -55.5q69 0 122 26z" />
    <glyph glyph-name="integral" unicode="&#x222b;" horiz-adv-x="937" 
d="M60 -289q115 0 183 27.5t99 88.5t31 165v1143q0 87 39.5 158t107 111t148.5 40q58 0 115 -21.5t105 -63.5l-111 -132q-54 43 -109 43q-51 0 -86 -36.5t-35 -105.5v-1141q0 -146 -58.5 -247t-168 -152t-260.5 -51v174z" />
    <glyph glyph-name="approxequal" unicode="&#x2248;" horiz-adv-x="1236" 
d="M691.5 726q-42.5 20 -68 48t-56.5 72q-24 34 -40 52.5t-38 31t-51 12.5q-49 0 -76.5 -49t-27.5 -133h-157q0 96 32.5 169t91.5 113t137 40q63 0 107 -20.5t70.5 -49t58.5 -74.5q33 -47 57.5 -69.5t62.5 -22.5q48 0 78 57.5t30 147.5h157q0 -101 -33 -179.5t-93 -122
t-139 -43.5q-60 0 -102.5 20zM691.5 249q-42.5 20 -68 48t-56.5 72q-24 34 -40 53t-38 31.5t-51 12.5q-49 0 -76.5 -49t-27.5 -134h-157q0 96 32.5 169.5t91.5 113.5t137 40q63 0 107 -20.5t70.5 -49t58.5 -74.5q33 -48 57.5 -70.5t62.5 -22.5q48 0 78 57.5t30 147.5h157
q0 -101 -33 -179.5t-93 -122t-139 -43.5q-60 0 -102.5 20z" />
    <glyph glyph-name="notequal" unicode="&#x2260;" horiz-adv-x="1191" 
d="M324 369h-139v176h244l149 254h-393v176h499l257 438h147l-257 -438h169v-176h-275l-149 -254h424v-176h-530l-215 -369h-147z" />
    <glyph glyph-name="lessequal" unicode="&#x2264;" horiz-adv-x="1354" 
d="M83 783l1055 601l78 -135l-815 -466l815 -466l-78 -136zM1267 0v-157h-1094v157h1094z" />
    <glyph glyph-name="greaterequal" unicode="&#x2265;" horiz-adv-x="1354" 
d="M138 317l815 466l-815 466l78 135l1055 -601l-1055 -602zM1181 -157h-1094v157h1094v-157z" />
    <glyph glyph-name="lozenge" unicode="&#x25ca;" horiz-adv-x="1201" 
d="M82 707l379 706h280l379 -706l-379 -707h-280zM614 109l302 598l-302 597h-27l-301 -597l301 -598h27z" />
    <glyph glyph-name="uniF8FF" unicode="&#xf8ff;" horiz-adv-x="1745" 
d="M483.5 43q-177.5 104 -281.5 281.5t-104 388.5t104 388.5t281.5 281.5t388.5 104t389 -104t282 -282t104 -388t-104 -388t-282 -282t-389 -104t-388.5 104zM1225.5 104.5q161.5 94.5 255.5 256t94 352.5t-94 352.5t-255.5 255.5t-353.5 94q-191 0 -352.5 -94
t-255.5 -255.5t-94 -352.5t94 -352.5t255.5 -256t352.5 -94.5q192 0 353.5 94.5zM444.5 419.5q-10.5 9.5 -10.5 24.5v537q0 15 10.5 26t24.5 11q15 0 26 -11t11 -26v-537q0 -15 -11 -24.5t-26 -9.5q-14 0 -24.5 9.5zM847.5 419.5q-9.5 9.5 -9.5 24.5v537q0 15 9.5 26
t24.5 11t25 -11t10 -26v-537q0 -15 -9.5 -24.5t-25.5 -9.5q-15 0 -24.5 9.5zM1251 420l-270 268q-8 11 -8 25q0 16 8 24l271 269q8 12 22 12t25.5 -11.5t11.5 -25.5t-11 -25l-243 -243l243 -244q11 -10 11 -25q0 -13 -11.5 -23.5t-25.5 -10.5q-15 0 -23 10zM579 687.5
q-10 9.5 -10 25.5q0 15 10 25t25 10h133q16 0 26.5 -10t10.5 -25q0 -16 -10.5 -25.5t-26.5 -9.5h-133q-15 0 -25 9.5z" />
    <glyph glyph-name="i.loclTRK" horiz-adv-x="520" 
d="M157 999h206v-999h-206v999zM151 1413h217v-218h-217v218z" />
    <glyph glyph-name="g.ss01" horiz-adv-x="1174" 
d="M287 -413.5q-109 60.5 -177 166.5l158 115q36 -70 110 -116t175 -46q122 0 189 75.5t67 228.5v148q-50 -78 -130.5 -119t-175.5 -41q-134 0 -233 69.5t-151.5 186.5t-52.5 255q0 137 52 253.5t150.5 186t230.5 69.5q95 0 177.5 -41t132.5 -118v140h208v-989
q0 -153 -56 -262t-161 -165.5t-250 -56.5q-154 0 -263 60.5zM702 230.5q62 41.5 93 114t31 164.5q0 90 -31 163t-93 115.5t-150 42.5t-150 -43t-94 -116t-32 -162q0 -91 32 -163.5t94 -114.5t150 -42t150 41.5z" />
    <glyph glyph-name="gbreve.ss01" horiz-adv-x="1172" 
d="M287 -413.5q-109 60.5 -177 166.5l158 115q36 -70 110 -116t175 -46q122 0 189 75.5t67 228.5v148q-50 -78 -130.5 -119t-175.5 -41q-134 0 -233 69.5t-151.5 186.5t-52.5 255q0 137 52 253.5t150.5 186t230.5 69.5q95 0 177.5 -41t132.5 -118v140h208v-989
q0 -153 -56 -262t-161 -165.5t-250 -56.5q-154 0 -263 60.5zM702 230.5q62 41.5 93 114t31 164.5q0 90 -31 163t-93 115.5t-150 42.5t-150 -43t-94 -116t-32 -162q0 -91 32 -163.5t94 -114.5t150 -42t150 41.5zM273 1413h147q0 -72 45 -109t120 -37q77 0 121 37.5t44 108.5
h147q0 -269 -312 -269t-312 269z" />
    <glyph glyph-name="uni0123.ss01" horiz-adv-x="1172" 
d="M677 1096h-217l245 310h122zM287 -413.5q-109 60.5 -177 166.5l158 115q36 -70 110 -116t175 -46q122 0 189 75.5t67 228.5v148q-50 -78 -130.5 -119t-175.5 -41q-134 0 -233 69.5t-151.5 186.5t-52.5 255q0 137 52 253.5t150.5 186t230.5 69.5q95 0 177.5 -41
t132.5 -118v140h208v-989q0 -153 -56 -262t-161 -165.5t-250 -56.5q-154 0 -263 60.5zM702 230.5q62 41.5 93 114t31 164.5q0 90 -31 163t-93 115.5t-150 42.5t-150 -43t-94 -116t-32 -162q0 -91 32 -163.5t94 -114.5t150 -42t150 41.5z" />
    <glyph glyph-name="gdotaccent.ss01" horiz-adv-x="1172" 
d="M287 -413.5q-109 60.5 -177 166.5l158 115q36 -70 110 -116t175 -46q122 0 189 75.5t67 228.5v148q-50 -78 -130.5 -119t-175.5 -41q-134 0 -233 69.5t-151.5 186.5t-52.5 255q0 137 52 253.5t150.5 186t230.5 69.5q95 0 177.5 -41t132.5 -118v140h208v-989
q0 -153 -56 -262t-161 -165.5t-250 -56.5q-154 0 -263 60.5zM702 230.5q62 41.5 93 114t31 164.5q0 90 -31 163t-93 115.5t-150 42.5t-150 -43t-94 -116t-32 -162q0 -91 32 -163.5t94 -114.5t150 -42t150 41.5zM476 1413h217v-218h-217v218z" />
    <glyph glyph-name="g.ss02" horiz-adv-x="1066" 
d="M825.5 131q77.5 -28 127 -92.5t49.5 -167.5q0 -100 -50 -174t-149.5 -114.5t-245.5 -40.5q-139 0 -252 36t-179.5 110t-66.5 181q0 44 14 84l145 70q-58 34 -95.5 87.5t-38.5 129.5q0 62 29 116.5t90 94.5q-65 92 -65 208q0 104 52 186t142.5 127.5t201.5 45.5
q138 0 240 -70l152 132l107 -132l-148 -123q42 -79 42 -173q0 -105 -52 -185.5t-141.5 -124.5t-199.5 -44q-117 0 -211 50q-46 -31 -46 -84q0 -63 47.5 -84t117.5 -21h215q91 0 168.5 -28zM434.5 828q-43.5 -26 -67 -71t-23.5 -101q0 -85 51.5 -139t141.5 -54
q88 0 139.5 53.5t51.5 138.5q0 56 -23 101.5t-66 71.5t-102 26t-102.5 -26zM735.5 -262q68.5 37 68.5 116q0 76 -61.5 103.5t-167.5 27.5h-223l-100 -88v-24q0 -172 291 -172q124 0 192.5 37z" />
    <glyph glyph-name="gbreve.ss02" horiz-adv-x="1066" 
d="M825.5 131q77.5 -28 127 -92.5t49.5 -167.5q0 -100 -50 -174t-149.5 -114.5t-245.5 -40.5q-139 0 -252 36t-179.5 110t-66.5 181q0 44 14 84l145 70q-58 34 -95.5 87.5t-38.5 129.5q0 62 29 116.5t90 94.5q-65 92 -65 208q0 104 52 186t142.5 127.5t201.5 45.5
q138 0 240 -70l152 132l107 -132l-148 -123q42 -79 42 -173q0 -105 -52 -185.5t-141.5 -124.5t-199.5 -44q-117 0 -211 50q-46 -31 -46 -84q0 -63 47.5 -84t117.5 -21h215q91 0 168.5 -28zM434.5 828q-43.5 -26 -67 -71t-23.5 -101q0 -85 51.5 -139t141.5 -54
q88 0 139.5 53.5t51.5 138.5q0 56 -23 101.5t-66 71.5t-102 26t-102.5 -26zM735.5 -262q68.5 37 68.5 116q0 76 -61.5 103.5t-167.5 27.5h-223l-100 -88v-24q0 -172 291 -172q124 0 192.5 37zM221 1413h147q0 -72 45 -109t120 -37q77 0 121 37.5t44 108.5h147
q0 -269 -312 -269t-312 269z" />
    <glyph glyph-name="uni0123.ss02" horiz-adv-x="1066" 
d="M825.5 131q77.5 -28 127 -92.5t49.5 -167.5q0 -100 -50 -174t-149.5 -114.5t-245.5 -40.5q-139 0 -252 36t-179.5 110t-66.5 181q0 44 14 84l145 70q-58 34 -95.5 87.5t-38.5 129.5q0 62 29 116.5t90 94.5q-65 92 -65 208q0 104 52 186t142.5 127.5t201.5 45.5
q138 0 240 -70l152 132l107 -132l-148 -123q42 -79 42 -173q0 -105 -52 -185.5t-141.5 -124.5t-199.5 -44q-117 0 -211 50q-46 -31 -46 -84q0 -63 47.5 -84t117.5 -21h215q91 0 168.5 -28zM434.5 828q-43.5 -26 -67 -71t-23.5 -101q0 -85 51.5 -139t141.5 -54
q88 0 139.5 53.5t51.5 138.5q0 56 -23 101.5t-66 71.5t-102 26t-102.5 -26zM735.5 -262q68.5 37 68.5 116q0 76 -61.5 103.5t-167.5 27.5h-223l-100 -88v-24q0 -172 291 -172q124 0 192.5 37zM605 1121h-217l245 310h122z" />
    <glyph glyph-name="gdotaccent.ss02" horiz-adv-x="1066" 
d="M825.5 131q77.5 -28 127 -92.5t49.5 -167.5q0 -100 -50 -174t-149.5 -114.5t-245.5 -40.5q-139 0 -252 36t-179.5 110t-66.5 181q0 44 14 84l145 70q-58 34 -95.5 87.5t-38.5 129.5q0 62 29 116.5t90 94.5q-65 92 -65 208q0 104 52 186t142.5 127.5t201.5 45.5
q138 0 240 -70l152 132l107 -132l-148 -123q42 -79 42 -173q0 -105 -52 -185.5t-141.5 -124.5t-199.5 -44q-117 0 -211 50q-46 -31 -46 -84q0 -63 47.5 -84t117.5 -21h215q91 0 168.5 -28zM434.5 828q-43.5 -26 -67 -71t-23.5 -101q0 -85 51.5 -139t141.5 -54
q88 0 139.5 53.5t51.5 138.5q0 56 -23 101.5t-66 71.5t-102 26t-102.5 -26zM735.5 -262q68.5 37 68.5 116q0 76 -61.5 103.5t-167.5 27.5h-223l-100 -88v-24q0 -172 291 -172q124 0 192.5 37zM424 1413h217v-218h-217v218z" />
    <glyph glyph-name="T_h" horiz-adv-x="2119" 
d="M495 1220h-460v193h1297v-548q53 76 131.5 114.5t164.5 38.5q121 0 202 -56t120 -148t40 -203v-611h-210v580q0 117 -45.5 183.5t-155.5 66.5q-79 0 -135 -39t-84 -107.5t-28 -156.5v-527h-210v1220h-412v-1220h-215v1220z" />
    <glyph glyph-name="f_t" horiz-adv-x="1271" 
d="M808 60q-79 79 -79 218v547h-331v-825h-207v825h-164v174h164v76q0 112 53 193t143 122.5t199 41.5q209 0 348 -76v-357h262v-174h-262v-512q0 -79 34 -114t96 -35q33 0 67.5 9.5t63.5 22.5l1 -187q-30 -11 -76 -19.5t-91 -8.5q-142 0 -221 79zM733 999v239
q-52 27 -137 27q-98 0 -148 -50t-50 -144v-72h335z" />
    <glyph glyph-name="t_t" horiz-adv-x="1383" 
d="M281 60q-81 79 -81 218v547h-169v174h173v262l201 148v-410h429v262l201 148v-410h273v-174h-273v-512q0 -80 35.5 -114.5t101.5 -34.5q34 0 70.5 9.5t64.5 22.5l1 -187q-31 -11 -77.5 -19.5t-92.5 -8.5q-146 0 -227 79t-81 218v547h-425v-512q0 -80 35.5 -114.5
t101.5 -34.5q62 0 135 32l1 -187q-31 -11 -77.5 -19.5t-92.5 -8.5q-146 0 -227 79z" />
    <glyph glyph-name="zero.lf" horiz-adv-x="1198" 
d="M219 194.5q-104 213.5 -104 512.5q0 300 100.5 513.5t379.5 213.5q179 0 289 -103.5t157 -268t47 -358.5q0 -193 -45.5 -355.5t-152 -265t-281.5 -102.5q-286 0 -390 213.5zM770 259.5q58 75.5 77 189t19 259.5q0 148 -20 260t-80 185.5t-171 73.5q-113 0 -172.5 -74.5
t-78 -186t-18.5 -259.5t19 -260t80.5 -187.5t178.5 -75.5q108 0 166 75.5z" />
    <glyph glyph-name="one.lf" horiz-adv-x="772" 
d="M582 1413v-1413h-211v1026h-338v164h205q70 0 105.5 30t35.5 95v98h203z" />
    <glyph glyph-name="two.lf" horiz-adv-x="1157" 
d="M1083 195v-195h-1002v175q292 178 503.5 387t211.5 443q0 104 -58 168t-170 64q-136 0 -201 -92t-69 -233l-210 14q0 135 57.5 250.5t166 184.5t254.5 69q130 0 230.5 -50.5t157.5 -147.5t57 -232q0 -155 -90.5 -313t-226 -286t-268.5 -206h657z" />
    <glyph glyph-name="three.lf" horiz-adv-x="1175" 
d="M315.5 33.5q-116.5 52.5 -185 155.5t-68.5 249l205 12q0 -84 40 -145t111 -93.5t162 -32.5q84 0 153.5 28.5t110.5 85t41 135.5q0 100 -54.5 150.5t-133 65t-186.5 14.5v166q112 0 177 22.5t92.5 66.5t27.5 114q0 65 -30 111t-83 70t-120 24q-109 0 -175.5 -60
t-67.5 -163l-203 13q0 125 59.5 218t160.5 142.5t223 49.5q118 0 219.5 -46.5t162 -132.5t60.5 -200q0 -102 -54.5 -179t-161.5 -119q142 -34 217 -124t75 -220q0 -135 -69.5 -232t-186.5 -147.5t-258 -50.5q-144 0 -260.5 52.5z" />
    <glyph glyph-name="four.lf" horiz-adv-x="1177" 
d="M1141 530v-197h-227v-333h-211v333h-672v128l700 952h183v-883h227zM703 530v558l-397 -558h397z" />
    <glyph glyph-name="five.lf" horiz-adv-x="1179" 
d="M853.5 897q108.5 -65 172 -176.5t63.5 -242.5q0 -132 -69 -246.5t-186 -182.5t-253 -68q-122 0 -226.5 55.5t-176 151.5t-97.5 215l200 55q25 -121 100 -201.5t200 -80.5q82 0 148 42.5t103.5 112.5t37.5 149q0 80 -34.5 146t-99.5 104.5t-151 38.5q-77 0 -148 -38.5
t-116 -106.5l-198 51l135 738h766v-198h-596l-61 -327q119 74 249 74q129 0 237.5 -65z" />
    <glyph glyph-name="six.lf" horiz-adv-x="1124" 
d="M816 886.5q115 -65.5 183 -177t68 -242.5q0 -132 -68 -243.5t-183 -177t-251 -65.5q-137 0 -252.5 65.5t-183.5 177t-68 243.5q0 72 21.5 140t61.5 126l417 680h245l-286 -463q30 2 45 2q136 0 251 -65.5zM712 219.5q67 38.5 106 104.5t39 143t-39 142.5t-106 104
t-147 38.5t-147.5 -38.5t-107 -104t-39.5 -142.5t39.5 -143t107 -104.5t147.5 -38.5t147 38.5z" />
    <glyph glyph-name="seven.lf" horiz-adv-x="1083" 
d="M1051 1413v-114l-648 -1299h-238l627 1217h-757v196h1016z" />
    <glyph glyph-name="eight.lf" horiz-adv-x="1190" 
d="M345.5 29q-115.5 48 -186 143t-70.5 230q0 123 60.5 217t165.5 146q-73 51 -112 126.5t-39 165.5q0 115 60.5 200.5t159.5 130t212 44.5q115 0 214 -46t158.5 -131t59.5 -199q0 -91 -40.5 -166.5t-111.5 -124.5q108 -53 166.5 -146.5t58.5 -214.5q0 -136 -70.5 -232
t-186 -143.5t-249.5 -47.5t-249.5 48zM715.5 852.5q50.5 25.5 79 73.5t28.5 113q0 66 -29 114t-79.5 74t-115.5 26q-61 0 -111.5 -23.5t-81 -70.5t-30.5 -113q0 -65 27.5 -115t78.5 -77t118 -27q65 0 115.5 25.5zM742.5 194.5q66.5 28.5 106 87t39.5 142.5q0 81 -38 140
t-104.5 90.5t-151.5 31.5q-86 0 -153 -31t-104.5 -90t-37.5 -139q0 -85 40 -143.5t107 -87.5t148 -29q82 0 148.5 28.5z" />
    <glyph glyph-name="nine.lf" horiz-adv-x="1124" 
d="M1041.5 806q-21.5 -68 -61.5 -126l-417 -680h-245l286 463q-30 -2 -45 -2q-136 0 -251 65.5t-183 177t-68 242.5q0 132 68 243.5t183 177t251 65.5q137 0 252.5 -65.5t183.5 -177t68 -243.5q0 -72 -21.5 -140zM306 803.5q39 -65.5 106 -104t147 -38.5t147.5 38.5t107 104
t39.5 142.5t-39.5 143t-107 104.5t-147.5 38.5t-147 -38.5t-106 -104.5t-39 -143t39 -142.5z" />
    <glyph glyph-name="zero.dnom" horiz-adv-x="743" 
d="M185.5 56q-71.5 67 -99.5 165t-28 203q0 106 27 204.5t96 165.5t187 67q110 0 181 -63t103.5 -162.5t32.5 -213.5q0 -113 -31.5 -211t-100.5 -160t-175 -62q-121 0 -192.5 67zM503 209.5q38 89.5 38 215.5q0 128 -39 215t-134 87t-133 -87.5t-38 -215.5t39.5 -216
t137.5 -88q91 0 129 89.5z" />
    <glyph glyph-name="one.dnom" horiz-adv-x="460" 
d="M335 848v-848h-138v608h-200v107h118q88 0 88 79v54h132z" />
    <glyph glyph-name="two.dnom" horiz-adv-x="713" 
d="M666 126v-126h-637v111q116 71 211 140.5t169 161.5t74 188q0 59 -32 95.5t-96 36.5q-78 0 -115 -55t-40 -136l-137 11q0 81 35 151t101 112.5t156 42.5q78 0 138.5 -30.5t95 -89.5t34.5 -141q0 -92 -54 -182.5t-138 -165t-175 -124.5h410z" />
    <glyph glyph-name="three.dnom" horiz-adv-x="707" 
d="M186 20.5q-71 31.5 -112.5 93.5t-41.5 151l133 9q0 -74 50 -115.5t130 -41.5q75 0 126 37t51 108q0 82 -62 109.5t-155 27.5v92q93 0 131.5 28.5t38.5 81.5q0 65 -36.5 96.5t-93.5 31.5q-63 0 -101.5 -34.5t-39.5 -92.5l-132 9q0 76 36 132.5t97.5 86t135.5 29.5
q71 0 133 -28t99 -80t37 -121q0 -56 -28.5 -99.5t-87.5 -71.5q79 -20 120 -77t41 -133q0 -82 -42.5 -141t-113.5 -89t-156 -30q-86 0 -157 31.5z" />
    <glyph glyph-name="four.dnom" horiz-adv-x="689" 
d="M661 329v-128h-134v-201h-139v201h-397v81l417 566h119v-519h134zM388 329v305l-217 -305h217z" />
    <glyph glyph-name="five.dnom" horiz-adv-x="721" 
d="M521.5 540.5q65.5 -39.5 103.5 -107t38 -146.5t-41.5 -147.5t-112.5 -109.5t-153 -41q-74 0 -137.5 33.5t-106.5 91.5t-59 130l129 37q15 -71 58 -119t116 -48q47 0 85 25t59.5 65.5t21.5 84.5q0 45 -20.5 82.5t-58 60t-87.5 22.5q-44 0 -85 -22t-65 -60l-128 31l80 445
h467v-130h-355l-33 -176q67 38 141 38q78 0 143.5 -39.5z" />
    <glyph glyph-name="six.dnom" horiz-adv-x="647" 
d="M486.5 525q64.5 -39 103.5 -104t39 -138q0 -78 -40 -145.5t-110 -108t-156 -40.5q-83 0 -152.5 39t-110.5 105.5t-41 145.5q0 40 11.5 76t34.5 72l254 421h160l-195 -292q31 8 65 8q73 0 137.5 -39zM409 142q39 22 61.5 59t22.5 82q0 44 -23 81t-61.5 59t-83.5 22
q-46 0 -84.5 -22t-61.5 -59t-23 -81q0 -45 23 -82t61.5 -59t84.5 -22q45 0 84 22z" />
    <glyph glyph-name="seven.dnom" horiz-adv-x="604" 
d="M613 848v-73l-378 -775h-155l365 720h-440v128h608z" />
    <glyph glyph-name="eight.dnom" horiz-adv-x="726" 
d="M210 17.5q-70 28.5 -113 86t-43 138.5q0 72 34 128t95 89q-41 31 -62.5 76t-21.5 97q0 70 36.5 121.5t96.5 78.5t130 27q71 0 132 -27.5t97.5 -79t36.5 -120.5q0 -53 -22.5 -97.5t-62.5 -75.5q62 -34 95.5 -89.5t33.5 -125.5q0 -82 -43 -140t-114 -86.5t-153 -28.5
t-152 28.5zM459 541.5q36 31.5 36 85.5t-36 85t-93 31q-56 0 -93.5 -29.5t-37.5 -83.5t36 -87t95 -33q57 0 93 31.5zM484 144.5q48 36.5 48 104.5q0 67 -47.5 105t-122.5 38q-76 0 -124 -37.5t-48 -103.5q0 -69 49 -106t123 -37t122 36.5z" />
    <glyph glyph-name="nine.dnom" horiz-adv-x="651" 
d="M581 406l-250 -406h-161l170 273h-16q-82 0 -152 39.5t-111.5 106.5t-41.5 146q0 80 41.5 147.5t111.5 107t152 39.5q84 0 154 -39.5t111 -107t41 -147.5q0 -88 -49 -159zM178.5 483.5q22.5 -37.5 61 -59.5t84.5 -22t85 22t62 59.5t23 81.5q0 45 -23 82.5t-62 59.5
t-85 22t-84.5 -22t-61 -59.5t-22.5 -82.5q0 -44 22.5 -81.5z" />
    <glyph glyph-name="zero.numr" horiz-adv-x="743" 
d="M185.5 629q-71.5 67 -99.5 165t-28 203q0 106 27 204.5t96 165.5t187 67q110 0 181 -63t103.5 -162.5t32.5 -213.5q0 -113 -31.5 -211t-100.5 -160t-175 -62q-121 0 -192.5 67zM503 782.5q38 89.5 38 215.5q0 128 -39 215t-134 87t-133 -87.5t-38 -215.5t39.5 -216
t137.5 -88q91 0 129 89.5z" />
    <glyph glyph-name="one.numr" horiz-adv-x="460" 
d="M335 1421v-848h-138v608h-200v107h118q88 0 88 79v54h132z" />
    <glyph glyph-name="two.numr" horiz-adv-x="713" 
d="M666 699v-126h-637v111q116 71 211 140.5t169 161.5t74 188q0 59 -32 95.5t-96 36.5q-78 0 -115 -55t-40 -136l-137 11q0 81 35 151t101 112.5t156 42.5q78 0 138.5 -30.5t95 -89.5t34.5 -141q0 -92 -54 -182.5t-138 -165t-175 -124.5h410z" />
    <glyph glyph-name="three.numr" horiz-adv-x="707" 
d="M186 593.5q-71 31.5 -112.5 93.5t-41.5 151l133 9q0 -74 50 -115.5t130 -41.5q75 0 126 37t51 108q0 82 -62 109.5t-155 27.5v92q93 0 131.5 28.5t38.5 81.5q0 65 -36.5 96.5t-93.5 31.5q-63 0 -101.5 -34.5t-39.5 -92.5l-132 9q0 76 36 132.5t97.5 86t135.5 29.5
q71 0 133 -28t99 -80t37 -121q0 -56 -28.5 -99.5t-87.5 -71.5q79 -20 120 -77t41 -133q0 -82 -42.5 -141t-113.5 -89t-156 -30q-86 0 -157 31.5z" />
    <glyph glyph-name="four.numr" horiz-adv-x="689" 
d="M661 894v-128h-134v-201h-139v201h-397v81l417 566h119v-519h134zM388 894v305l-217 -305h217z" />
    <glyph glyph-name="five.numr" horiz-adv-x="721" 
d="M521.5 1105.5q65.5 -39.5 103.5 -107t38 -146.5t-41.5 -147.5t-112.5 -109.5t-153 -41q-74 0 -137.5 33.5t-106.5 91.5t-59 130l129 37q15 -71 58 -119t116 -48q47 0 85 25t59.5 65.5t21.5 84.5q0 45 -20.5 82.5t-58 60t-87.5 22.5q-44 0 -85 -22t-65 -60l-128 31l80 445
h467v-130h-355l-33 -176q67 38 141 38q78 0 143.5 -39.5z" />
    <glyph glyph-name="six.numr" horiz-adv-x="647" 
d="M486.5 1090.5q64.5 -38.5 103.5 -103.5t39 -139q0 -78 -40 -145.5t-110 -108t-156 -40.5q-83 0 -152.5 39t-110.5 105.5t-41 145.5q0 40 11.5 76t34.5 73l254 420h160l-195 -291q31 7 65 7q73 0 137.5 -38.5zM409 707.5q39 21.5 61.5 58.5t22.5 82q0 44 -23 81t-61.5 59
t-83.5 22q-46 0 -84.5 -22t-61.5 -59t-23 -81q0 -45 23 -82t61.5 -58.5t84.5 -21.5q45 0 84 21.5z" />
    <glyph glyph-name="seven.numr" horiz-adv-x="604" 
d="M613 1413v-73l-378 -775h-155l365 720h-440v128h608z" />
    <glyph glyph-name="eight.numr" horiz-adv-x="726" 
d="M210 590.5q-70 28.5 -113 86t-43 138.5q0 72 34 128t95 89q-41 31 -62.5 76t-21.5 97q0 70 36.5 121.5t96.5 78.5t130 27q71 0 132 -27.5t97.5 -79t36.5 -120.5q0 -53 -22.5 -97.5t-62.5 -75.5q62 -34 95.5 -89.5t33.5 -125.5q0 -82 -43 -140t-114 -86.5t-153 -28.5
t-152 28.5zM459 1114.5q36 31.5 36 85.5t-36 85t-93 31q-56 0 -93.5 -29.5t-37.5 -83.5t36 -87t95 -33q57 0 93 31.5zM484 717.5q48 36.5 48 104.5q0 67 -47.5 105t-122.5 38q-76 0 -124 -37.5t-48 -103.5q0 -69 49 -106t123 -37t122 36.5z" />
    <glyph glyph-name="nine.numr" horiz-adv-x="651" 
d="M579 977l-248 -404h-161l170 273h-16q-82 0 -152 39.5t-111.5 107t-41.5 146.5q0 80 41.5 147.5t111.5 107t152 39.5q84 0 154 -39.5t111 -107t41 -147.5q0 -89 -51 -162zM178.5 1057.5q22.5 -37.5 61 -59.5t84.5 -22t85 22t62 59.5t23 81.5q0 45 -23 82.5t-62 59.5
t-85 22t-84.5 -22t-61 -59.5t-22.5 -82.5q0 -44 22.5 -81.5z" />
    <glyph glyph-name="caroncomb.alt" 
d="M-273 1413h217l-209 -443h-123z" />
    </font>
</defs>
</svg>
