<svg width="140" height="140" viewBox="0 0 140 140" fill="none" xmlns="http://www.w3.org/2000/svg">
<circle cx="70" cy="70" r="70" fill="#F4F8FB"/>
<path d="M44.8646 78.4482L53.3129 105H84.6923L93.1406 78.4482H44.8646Z" fill="#B8DBE0"/>
<path d="M53.3129 105H84.6922L93.1404 78.4482H90.3646C77.9577 89.431 61.4654 94.693 50.7989 97.0984L53.3129 105Z" fill="#AFD6DB"/>
<path d="M70.2071 78.4482H67.7933V105H70.2071V78.4482Z" fill="#A9CED4"/>
<path d="M58.0874 78.4482H55.6506L59.3003 105H61.7371L58.0874 78.4482Z" fill="#A9CED4"/>
<path d="M82.4306 78.4482H79.9756L75.0238 105H77.4774L82.4306 78.4482Z" fill="#A9CED4"/>
<path d="M93.4001 65.917L87.6178 65.4548C90.6338 63.665 91.6271 59.7678 89.8373 56.7518C88.8175 55.0333 87.0481 53.8963 85.0616 53.6803L79.1478 53.0238C81.4193 51.1325 81.7281 47.7568 79.8358 45.4855C79.0827 44.5803 78.0508 43.9491 76.903 43.6897L72.9118 42.7725C70.2965 42.169 68.6648 39.5597 69.2681 36.9444C69.4323 36.2335 69.7533 35.5697 70.2095 35H66.5888C61.2568 35 56.9336 39.323 56.9336 44.6552C56.9336 46.8977 57.7144 49.0712 59.1422 50.8007L56.1406 50.4677C51.7632 49.9777 47.8179 53.1301 47.3279 57.5062C47.1421 59.1705 47.4836 60.8505 48.3067 62.3097L47.5825 62.253C43.117 61.8994 39.2102 65.2315 38.8567 69.6972C38.5031 74.1627 41.8352 78.0694 46.3009 78.423C46.5145 78.4399 46.7269 78.4483 46.9406 78.4483H92.8993C96.3655 78.4447 99.1727 75.6325 99.169 72.1663C99.1654 68.8993 96.6563 66.1814 93.4001 65.917Z" fill="#F29C9B"/>
<path d="M62.9681 51.8965C63.0152 51.2315 63.5933 50.7307 64.2583 50.779L78.7471 51.8145C79.4121 51.8615 79.9129 52.4397 79.8647 53.1047C79.8176 53.7697 79.2394 54.2705 78.5744 54.2222L64.0857 53.1867C63.4207 53.1397 62.9211 52.5615 62.9681 51.8965Z" fill="#F28685"/>
<path d="M52.1061 62.7585C52.1568 62.0935 52.7361 61.5963 53.4011 61.647L87.9075 64.2733C88.5725 64.324 89.0698 64.9033 89.0191 65.5683C88.9683 66.2333 88.3891 66.7305 87.7241 66.6798L53.2176 64.0535C52.5538 64.003 52.0554 63.4225 52.1061 62.7585Z" fill="#F28685"/>
<path d="M62.9656 42.2415H60.5519V44.6552H62.9656V42.2415Z" fill="#F0614A"/>
<path d="M70.2071 45.862H67.7933V48.2758H70.2071V45.862Z" fill="#F0614A"/>
<path d="M73.8278 55.5172H71.414V57.931H73.8278V55.5172Z" fill="#F0614A"/>
<path d="M55.7243 56.7242H53.3105V59.138H55.7243V56.7242Z" fill="#F0614A"/>
<path d="M84.6898 59.138H82.2761V61.5517H84.6898V59.138Z" fill="#F0614A"/>
<path d="M47.2761 67.5862H44.8623V70H47.2761V67.5862Z" fill="#F0614A"/>
<path d="M64.1726 67.5862H61.7588V70H64.1726V67.5862Z" fill="#F0614A"/>
<path d="M53.3106 72.4138H50.8968V74.8276H53.3106V72.4138Z" fill="#F0614A"/>
<path d="M76.2416 71.207H73.8278V73.6207H76.2416V71.207Z" fill="#F0614A"/>
<path d="M91.9311 68.7931H89.5174V71.2069H91.9311V68.7931Z" fill="#F0614A"/>
</svg>
