<svg width="20" height="20" viewBox="0 0 20 20" fill="none" xmlns="http://www.w3.org/2000/svg">
<rect width="20" height="20" rx="10" fill="#f2ad44"/>
<path d="M15 8.53348C14.8326 8.71763 14.6429 8.87946 14.442 9.01897C13.51 9.64955 12.5725 10.2857 11.6629 10.9442C11.1942 11.2902 10.6138 11.7143 10.0056 11.7143H9.99442C9.38616 11.7143 8.8058 11.2902 8.33705 10.9442C7.42746 10.2801 6.48996 9.64955 5.56362 9.01897C5.35714 8.87946 5.16741 8.71763 5 8.53348V12.9643C5 13.4554 5.40179 13.8571 5.89286 13.8571H14.1071C14.5982 13.8571 15 13.4554 15 12.9643V8.53348ZM15 6.89286C15 6.40179 14.5926 6 14.1071 6H5.89286C5.29576 6 5 6.46875 5 7.01562C5 7.52344 5.56362 8.15402 5.95982 8.42188C6.82478 9.02455 7.70089 9.62723 8.56585 10.2355C8.92857 10.4866 9.54241 11 9.99442 11H10.0056C10.4576 11 11.0714 10.4866 11.4342 10.2355C12.2991 9.62723 13.1752 9.02455 14.0458 8.42188C14.5368 8.08147 15 7.51786 15 6.89286Z" fill="white"/>
</svg>
