<svg width="20" height="20" viewBox="0 0 20 20" fill="none" xmlns="http://www.w3.org/2000/svg">
<rect width="20" height="20" rx="10" fill="#f2ad44"/>
<path d="M13.9265 12.3482C13.9265 12.3092 13.9265 12.2701 13.9097 12.231C13.8707 12.1138 13.5972 11.9911 13.4856 11.9353C13.1676 11.7567 12.8439 11.5837 12.5314 11.3996C12.3863 11.3103 12.2077 11.1429 12.0347 11.1429C11.6943 11.1429 11.1977 12.1529 10.8963 12.1529C10.7457 12.1529 10.5504 12.0134 10.4164 11.9353C9.40081 11.3717 8.69768 10.6685 8.13407 9.6529C8.05594 9.51897 7.91643 9.32366 7.91643 9.17299C7.91643 8.87165 8.92648 8.375 8.92648 8.0346C8.92648 7.86161 8.75907 7.68304 8.66978 7.53795C8.48563 7.22545 8.31264 6.90179 8.13407 6.58371C8.07826 6.4721 7.9555 6.19866 7.83831 6.1596C7.79925 6.14286 7.76018 6.14286 7.72112 6.14286C7.52023 6.14286 7.1296 6.23214 6.94545 6.31585C6.67201 6.43304 6.49344 6.74554 6.35393 6.99665C6.17536 7.32589 6.06934 7.66071 6.06934 8.0346C6.06934 8.55357 6.28139 9.02232 6.45438 9.49665C6.57715 9.83705 6.72782 10.1663 6.91755 10.4732C7.50349 11.4219 8.64746 12.5658 9.59612 13.1518C9.90304 13.3415 10.2323 13.4922 10.5727 13.615C11.047 13.7879 11.5158 14 12.0347 14C12.4086 14 12.7434 13.894 13.0727 13.7154C13.3238 13.5759 13.6363 13.3973 13.7535 13.1239C13.8372 12.9397 13.9265 12.5491 13.9265 12.3482Z" fill="white"/>
</svg>
