<svg width="80" height="80" viewBox="0 0 80 80" fill="none" xmlns="http://www.w3.org/2000/svg">
<rect opacity="0.2" width="80" height="80" rx="40" fill="#F2AD44"/>
<path d="M51.2616 31.875C51.368 31.4064 51.4232 30.9351 51.4232 30.4688C51.4232 28.2262 49.4397 25.4337 48.2574 23.9688L46.4729 21.7578L45.7569 24.4928C45.5691 25.2101 45.201 25.6582 44.7203 25.7546C44.3464 25.8296 43.9325 25.6853 43.7134 25.4039C43.475 25.0975 43.475 25.0975 43.7486 24.4111C43.9743 23.8443 44.2837 23.0681 44.2837 22.0312C44.2837 18.1542 41.0809 15 37.1442 15H32.9376L34.3896 17.178C35.8496 19.368 35.1876 20.0887 32.8748 22.0365C30.9599 23.6492 28.5768 25.6562 28.5768 29.3438C28.5768 30.1748 28.747 31.0385 29.0632 31.875H27L30.1395 63H49.8605L53 31.875H51.2616ZM31.0235 43.3125H48.9765L48.1254 51.75H31.8747L31.0235 43.3125ZM30.7399 40.5L30.1536 34.6875H49.8464L49.2601 40.5H30.7399ZM31.4326 29.3438C31.4326 26.9516 33.0347 25.6025 34.7308 24.174C36.8438 22.3945 38.6051 20.6784 37.8438 17.8687C39.8743 18.1986 41.4279 19.9396 41.4279 22.0312C41.4279 22.5359 41.2713 22.9286 41.0902 23.3834C40.7467 24.2453 40.2275 25.5479 41.4467 27.1146C42.3325 28.253 43.8414 28.8008 45.2898 28.5105C46.0625 28.3556 46.7384 27.9893 47.2826 27.4474C48.2104 28.8829 48.5674 29.9301 48.5674 30.4688C48.5674 30.9344 48.4712 31.4051 48.285 31.875H32.2245C31.7221 31.0639 31.4326 30.1533 31.4326 29.3438ZM32.7257 60.1875L32.1583 54.5625H47.8418L47.2744 60.1875H32.7257Z" fill="#F2AD44"/>
</svg>
