<svg width="100" height="100" viewBox="0 0 100 100" fill="none" xmlns="http://www.w3.org/2000/svg">
<path d="M84.481 11.6315H93.1014C95.9582 11.6315 98.2736 9.34923 98.2736 6.53339C98.2736 3.71755 95.9582 1.4353 93.1014 1.4353H84.481V11.6315Z" fill="#D4B99B"/>
<path d="M77.5844 79.6072H32.7579C28.9494 79.6072 25.8616 76.5636 25.8616 72.8097V34.4305C25.8616 32.8484 26.2357 31.2865 26.953 29.8711L36.2062 11.6315H87.929L78.6759 29.8711C77.9585 31.2867 77.5844 32.8484 77.5844 34.4305V79.6072Z" fill="#F0DBC2"/>
<path d="M87.9291 6.53339C87.9291 3.71755 90.2445 1.4353 93.1013 1.4353H41.3785C38.5217 1.4353 36.2063 3.71755 36.2063 6.53339L36.2062 11.6315H87.929L87.9291 6.53339Z" fill="#F0DBC2"/>
<path d="M77.5845 79.6073H93.1013C96.9098 79.6073 99.9976 76.5637 99.9976 72.8097V34.7807C99.9976 32.976 99.5113 31.2036 98.5889 29.6434L87.9289 11.6315L78.6757 29.8711C77.9584 31.2868 77.5843 32.8485 77.5843 34.4305L77.5845 79.6073Z" fill="#E6CCAF"/>
<path d="M93.1015 11.6434C93.0791 10.9297 93.5152 10.2805 94.1911 10.0239C95.9996 9.43755 96.9859 7.51722 96.391 5.73459C95.8566 4.13028 94.2066 3.15488 92.5187 3.44727C90.8205 3.78887 89.6136 5.28088 89.6532 6.9889V11.6317C89.6532 12.5698 88.8808 13.3311 87.9291 13.3311C86.9773 13.3311 86.2049 12.5698 86.2049 11.6317V7.10101C86.1429 3.53067 88.817 0.485331 92.4117 0.0349369C96.2012 -0.34241 99.5838 2.38007 99.9649 6.11545C100.289 9.28149 98.3408 12.2469 95.277 13.2495C94.3857 13.5163 93.4443 13.02 93.1736 12.1415C93.1256 11.98 93.0997 11.8118 93.1015 11.6434Z" fill="#E6CCAF"/>
<path d="M37.9302 9.93209H87.929C88.8808 9.93209 89.6532 10.6936 89.6532 11.6317C89.6532 12.5698 88.8808 13.3311 87.9291 13.3311L37.9302 13.3309C36.9784 13.3309 36.206 12.5696 36.206 11.6315C36.206 10.6919 36.9784 9.93209 37.9302 9.93209Z" fill="#E6CCAF"/>
<path d="M10.5067 100H34.32C40.8543 95.9691 44.8249 88.9063 44.8267 81.3067V69.4109H0V81.3067C0.00178338 88.9046 3.97238 95.9673 10.5067 100Z" fill="#F2B9B8"/>
<path d="M3.44827 69.4109L20.0944 54.4954C21.4099 53.3176 23.4166 53.3176 24.7321 54.4954L41.3782 69.4109H3.44827Z" fill="#F5EADF"/>
<path d="M43.1026 40.5212H46.5509C50.3594 40.5212 53.4472 43.5648 53.4472 47.3187V50.7176H49.9989C46.1904 50.7176 43.1026 47.674 43.1026 43.9201V40.5212Z" fill="#D68033"/>
<path d="M56.8952 40.5213H53.447V37.1224C53.447 33.3685 56.5348 30.3249 60.3433 30.3249H63.7916V33.7237C63.7918 37.4777 60.7055 40.5213 56.8952 40.5213Z" fill="#D68033"/>
<path d="M56.8952 60.9139H53.447V57.515C53.447 53.7611 56.5348 50.7175 60.3433 50.7175H63.7916V54.1164C63.7918 57.8703 60.7055 60.9139 56.8952 60.9139Z" fill="#D68033"/>
<path d="M62.0676 37.1226V23.5273H65.5159V33.7237C65.5159 35.5999 63.9727 37.1226 62.0676 37.1226Z" fill="#D68033"/>
<path d="M55.1713 60.9141H51.723V69.411H55.1713V60.9141Z" fill="#D68033"/>
<path d="M44.8267 37.1226C42.9216 37.1226 41.3784 35.6017 41.3784 33.7237V23.5273H44.8267V37.1226Z" fill="#F09E3E"/>
<path d="M43.1026 30.3249H46.5509C50.3594 30.3249 53.4472 33.3685 53.4472 37.1224V40.5213H49.999C46.1904 40.5213 43.1026 37.4777 43.1026 33.7237V30.3249Z" fill="#F09E3E"/>
<path d="M43.1026 50.7175H46.5509C50.3594 50.7175 53.4472 53.7611 53.4472 57.515V60.9139H49.999C46.1904 60.9139 43.1026 57.8703 43.1026 54.1164V50.7175Z" fill="#F09E3E"/>
<path d="M56.8953 50.7176H53.447V47.3187C53.447 43.5648 56.5348 40.5212 60.3433 40.5212H63.7916V43.9201C63.7918 47.674 60.7055 50.7176 56.8953 50.7176Z" fill="#F09E3E"/>
<path d="M53.4472 33.7237C49.6387 31.2205 48.6093 26.1461 51.1506 22.3922C51.7576 21.4949 52.5385 20.7267 53.4472 20.1287C57.2557 22.6318 58.2851 27.7063 55.7436 31.4602C55.1385 32.3557 54.3575 33.1254 53.4472 33.7237Z" fill="#F09E3E"/>
<path d="M40.0508 69.4109C35.5597 89.0593 20.8341 96.489 9.3826 99.2539C9.74978 99.5138 10.1239 99.7621 10.5067 100H34.32C40.8543 95.9691 44.8249 88.9063 44.8267 81.3067V69.4109H40.0508Z" fill="#F2AEAC"/>
</svg>
